M48
; DRILL file {KiCad 7.0.5-7.0.5~ubuntu22.04.1} date qui 06 jul 2023 21:51:09
; FORMAT={-:-/ absolute / inch / decimal}
; #@! TF.CreationDate,2023-07-06T21:51:09-03:00
; #@! TF.GenerationSoftware,Kicad,Pcbnew,7.0.5-7.0.5~ubuntu22.04.1
; #@! TF.FileFunction,Plated,1,2,PTH
FMAT,2
INCH
; #@! TA.AperFunction,Plated,PTH,ViaDrill
T1C0.0079
; #@! TA.AperFunction,Plated,PTH,ViaDrill
T2C0.0157
; #@! TA.AperFunction,Plated,PTH,ComponentDrill
T3C0.0236
; #@! TA.AperFunction,Plated,PTH,ComponentDrill
T4C0.0335
; #@! TA.AperFunction,Plated,PTH,ComponentDrill
T5C0.0394
%
G90
G05
T1
X3.7224Y-4.0398
X3.9309Y-3.9159
X3.9866Y-4.0339
X4.1374Y-4.015
X4.1486Y-3.9152
X4.2504Y-4.0374
X4.2508Y-2.5866
X4.2516Y-2.8764
X4.2969Y-2.6114
X4.2969Y-2.9035
X4.3374Y-4.0094
X4.3764Y-3.0012
X4.3807Y-2.6862
X4.4431Y-3.6644
X4.5004Y-3.7287
X4.5193Y-3.8067
X4.6894Y-4.4929
X4.9366Y-4.685
X4.9494Y-2.9081
X4.974Y-2.9933
X5.0079Y-4.4795
X5.0092Y-4.4242
X5.0248Y-4.1811
X5.0508Y-2.6748
X5.0551Y-2.711
X5.0583Y-4.6823
X5.078Y-4.4929
X5.2504Y-2.1457
X5.2681Y-1.5465
X5.5236Y-3.9291
X5.5854Y-2.1067
X5.5882Y-1.5071
X5.6126Y-4.2197
X5.7397Y-2.2906
T2
X4.6272Y-3.4059
T4
X4.5642Y-4.9129
X4.761Y-4.9129
T5
X3.6941Y-1.5067
X3.6941Y-1.6067
X3.6941Y-1.7067
X3.6941Y-1.8067
X3.6941Y-1.9067
X3.6941Y-2.0067
X3.6941Y-2.1067
X3.6941Y-2.2067
X3.6941Y-2.3067
X3.6941Y-2.4067
X3.6941Y-2.5067
X3.6941Y-2.6067
X3.6941Y-2.7067
X3.6941Y-2.8067
X3.6941Y-2.9067
X3.6941Y-3.0067
X3.6941Y-3.1067
X3.6941Y-3.2067
X3.6941Y-3.3067
X3.7264Y-4.998
X3.8264Y-4.998
X4.1551Y-4.998
X4.1638Y-1.5321
X4.1638Y-1.6321
X4.1638Y-1.7321
X4.1638Y-1.8321
X4.1638Y-1.9321
X4.1638Y-2.0321
X4.1638Y-2.1321
X4.1638Y-2.2321
X4.1638Y-2.3321
X4.1638Y-2.4321
X4.1638Y-2.5321
X4.1638Y-2.6321
X4.1638Y-2.7321
X4.1638Y-2.8321
X4.1638Y-2.9321
X4.1638Y-3.0321
X4.1638Y-3.1321
X4.1638Y-3.2321
X4.1638Y-3.3321
X4.2551Y-4.998
X4.9543Y-3.6264
X4.9543Y-3.7264
X5.076Y-4.998
X5.1177Y-3.8839
X5.1177Y-4.1831
X5.176Y-4.998
X5.1795Y-1.5455
X5.1795Y-1.6455
X5.1795Y-1.7455
X5.1795Y-1.8455
X5.1795Y-1.9455
X5.1795Y-2.0455
X5.1795Y-2.1455
X5.1795Y-2.2455
X5.1795Y-2.3455
X5.1795Y-2.4455
X5.1795Y-2.5455
X5.1795Y-2.6455
X5.1795Y-2.7455
X5.1795Y-2.8455
X5.1795Y-2.9455
X5.1795Y-3.0455
X5.1795Y-3.1455
X5.1795Y-3.2455
X5.1795Y-3.3455
X5.4961Y-4.998
X5.5961Y-4.998
X5.613Y-4.3051
X5.613Y-4.4051
X5.613Y-4.5051
X5.613Y-4.6051
X5.6205Y-3.6925
X5.6205Y-3.7925
X5.6205Y-3.8925
X5.6205Y-3.9925
X5.6555Y-1.5067
X5.6555Y-1.6067
X5.6555Y-1.7067
X5.6555Y-1.8067
X5.6555Y-1.9067
X5.6555Y-2.0067
X5.6555Y-2.1067
X5.6555Y-2.2067
X5.6555Y-2.3067
X5.6555Y-2.4067
X5.6555Y-2.5067
X5.6555Y-2.6067
X5.6555Y-2.7067
X5.6555Y-2.8067
X5.6555Y-2.9067
X5.6555Y-3.0067
X5.6555Y-3.1067
X5.6555Y-3.2067
X5.6555Y-3.3067
T3
G00X4.5248Y-5.033
M15
G01X4.5248Y-5.0054
M16
G05
G00X4.8004Y-5.0054
M15
G01X4.8004Y-5.033
M16
G05
T0
M30
