%TF.GenerationSoftware,KiCad,Pcbnew,7.0.5-7.0.5~ubuntu22.04.1*%
%TF.CreationDate,2023-07-06T21:51:13-03:00*%
%TF.ProjectId,Dev-kit-multiboards,4465762d-6b69-4742-9d6d-756c7469626f,rev?*%
%TF.SameCoordinates,Original*%
%TF.FileFunction,Copper,L2,Bot*%
%TF.FilePolarity,Positive*%
%FSLAX46Y46*%
G04 Gerber Fmt 4.6, Leading zero omitted, Abs format (unit mm)*
G04 Created by KiCad (PCBNEW 7.0.5-7.0.5~ubuntu22.04.1) date 2023-07-06 21:51:13*
%MOMM*%
%LPD*%
G01*
G04 APERTURE LIST*
%TA.AperFunction,ComponentPad*%
%ADD10R,1.700000X1.700000*%
%TD*%
%TA.AperFunction,ComponentPad*%
%ADD11O,1.700000X1.700000*%
%TD*%
%TA.AperFunction,ComponentPad*%
%ADD12C,1.450000*%
%TD*%
%TA.AperFunction,ComponentPad*%
%ADD13O,1.200000X1.900000*%
%TD*%
%TA.AperFunction,ComponentPad*%
%ADD14R,2.000000X2.000000*%
%TD*%
%TA.AperFunction,ComponentPad*%
%ADD15C,2.000000*%
%TD*%
%TA.AperFunction,ViaPad*%
%ADD16C,0.400000*%
%TD*%
%TA.AperFunction,ViaPad*%
%ADD17C,0.800000*%
%TD*%
%TA.AperFunction,Conductor*%
%ADD18C,0.200000*%
%TD*%
%TA.AperFunction,Conductor*%
%ADD19C,0.152000*%
%TD*%
%TA.AperFunction,Conductor*%
%ADD20C,0.250000*%
%TD*%
G04 APERTURE END LIST*
D10*
%TO.P,JP1,1,A*%
%TO.N,Buzzer*%
X125840000Y-92110000D03*
D11*
%TO.P,JP1,2,B*%
%TO.N,Net-(BUZZER1--)*%
X125840000Y-94650000D03*
%TD*%
D12*
%TO.P,J10,6,Shield*%
%TO.N,Earth*%
X120930000Y-124787500D03*
D13*
X114930000Y-127487500D03*
D12*
X115930000Y-124787500D03*
D13*
X121930000Y-127487500D03*
%TD*%
D10*
%TO.P,J2,1,Pin_1*%
%TO.N,IO23*%
X142760000Y-93790000D03*
D11*
%TO.P,J2,2,Pin_2*%
%TO.N,IO19*%
X142760000Y-96330000D03*
%TO.P,J2,3,Pin_3*%
%TO.N,CLK*%
X142760000Y-98870000D03*
%TO.P,J2,4,Pin_4*%
%TO.N,CS*%
X142760000Y-101410000D03*
%TD*%
D10*
%TO.P,J7,1,Pin_1*%
%TO.N,DAC_1*%
X108080000Y-126950000D03*
D11*
%TO.P,J7,2,Pin_2*%
%TO.N,DAC_2*%
X105540000Y-126950000D03*
%TD*%
D10*
%TO.P,J4,1,Pin_1*%
%TO.N,+3.3V*%
X105760000Y-38916250D03*
D11*
%TO.P,J4,2,Pin_2*%
%TO.N,EN_ESP32*%
X105760000Y-41456250D03*
%TO.P,J4,3,Pin_3*%
%TO.N,ADC1*%
X105760000Y-43996250D03*
%TO.P,J4,4,Pin_4*%
%TO.N,IO39*%
X105760000Y-46536250D03*
%TO.P,J4,5,Pin_5*%
%TO.N,IO34*%
X105760000Y-49076250D03*
%TO.P,J4,6,Pin_6*%
%TO.N,IO35*%
X105760000Y-51616250D03*
%TO.P,J4,7,Pin_7*%
%TO.N,IO32*%
X105760000Y-54156250D03*
%TO.P,J4,8,Pin_8*%
%TO.N,IO33*%
X105760000Y-56696250D03*
%TO.P,J4,9,Pin_9*%
%TO.N,DAC_1*%
X105760000Y-59236250D03*
%TO.P,J4,10,Pin_10*%
%TO.N,DAC_2*%
X105760000Y-61776250D03*
%TO.P,J4,11,Pin_11*%
%TO.N,IO27*%
X105760000Y-64316250D03*
%TO.P,J4,12,Pin_12*%
%TO.N,IO14*%
X105760000Y-66856250D03*
%TO.P,J4,13,Pin_13*%
%TO.N,IO12*%
X105760000Y-69396250D03*
%TO.P,J4,14,Pin_14*%
%TO.N,Earth*%
X105760000Y-71936250D03*
%TO.P,J4,15,Pin_15*%
%TO.N,IO13*%
X105760000Y-74476250D03*
%TO.P,J4,16,Pin_16*%
%TO.N,IO9*%
X105760000Y-77016250D03*
%TO.P,J4,17,Pin_17*%
%TO.N,IO10*%
X105760000Y-79556250D03*
%TO.P,J4,18,Pin_18*%
%TO.N,IO11*%
X105760000Y-82096250D03*
%TO.P,J4,19,Pin_19*%
%TO.N,+5V*%
X105760000Y-84636250D03*
%TD*%
D10*
%TO.P,J9,1,Pin_1*%
%TO.N,Earth*%
X143650000Y-38270000D03*
D11*
%TO.P,J9,2,Pin_2*%
%TO.N,IO23*%
X143650000Y-40810000D03*
%TO.P,J9,3,Pin_3*%
%TO.N,IO22*%
X143650000Y-43350000D03*
%TO.P,J9,4,Pin_4*%
%TO.N,IO1*%
X143650000Y-45890000D03*
%TO.P,J9,5,Pin_5*%
%TO.N,IO3*%
X143650000Y-48430000D03*
%TO.P,J9,6,Pin_6*%
%TO.N,IO21*%
X143650000Y-50970000D03*
%TO.P,J9,7,Pin_7*%
%TO.N,Earth*%
X143650000Y-53510000D03*
%TO.P,J9,8,Pin_8*%
%TO.N,IO19*%
X143650000Y-56050000D03*
%TO.P,J9,9,Pin_9*%
%TO.N,CLK*%
X143650000Y-58590000D03*
%TO.P,J9,10,Pin_10*%
%TO.N,CS*%
X143650000Y-61130000D03*
%TO.P,J9,11,Pin_11*%
%TO.N,IO17*%
X143650000Y-63670000D03*
%TO.P,J9,12,Pin_12*%
%TO.N,IO16*%
X143650000Y-66210000D03*
%TO.P,J9,13,Pin_13*%
%TO.N,ADC2*%
X143650000Y-68750000D03*
%TO.P,J9,14,Pin_14*%
%TO.N,IO0*%
X143650000Y-71290000D03*
%TO.P,J9,15,Pin_15*%
%TO.N,Buzzer*%
X143650000Y-73830000D03*
%TO.P,J9,16,Pin_16*%
%TO.N,BUTTON1*%
X143650000Y-76370000D03*
%TO.P,J9,17,Pin_17*%
%TO.N,BUTTON2*%
X143650000Y-78910000D03*
%TO.P,J9,18,Pin_18*%
%TO.N,BUTTON3*%
X143650000Y-81450000D03*
%TO.P,J9,19,Pin_19*%
%TO.N,IO6*%
X143650000Y-83990000D03*
%TD*%
%TO.P,J3,2,Pin_2*%
%TO.N,IO16*%
X142140000Y-126950000D03*
D10*
%TO.P,J3,1,Pin_1*%
%TO.N,IO17*%
X139600000Y-126950000D03*
%TD*%
%TO.P,J6,1,Pin_1*%
%TO.N,ADC1*%
X128930000Y-126950000D03*
D11*
%TO.P,J6,2,Pin_2*%
%TO.N,ADC2*%
X131470000Y-126950000D03*
%TD*%
D10*
%TO.P,J5,1,Pin_1*%
%TO.N,Earth*%
X131560000Y-39256250D03*
D11*
%TO.P,J5,2,Pin_2*%
%TO.N,IO23*%
X131560000Y-41796250D03*
%TO.P,J5,3,Pin_3*%
%TO.N,IO22*%
X131560000Y-44336250D03*
%TO.P,J5,4,Pin_4*%
%TO.N,IO1*%
X131560000Y-46876250D03*
%TO.P,J5,5,Pin_5*%
%TO.N,IO3*%
X131560000Y-49416250D03*
%TO.P,J5,6,Pin_6*%
%TO.N,IO21*%
X131560000Y-51956250D03*
%TO.P,J5,7,Pin_7*%
%TO.N,Earth*%
X131560000Y-54496250D03*
%TO.P,J5,8,Pin_8*%
%TO.N,IO19*%
X131560000Y-57036250D03*
%TO.P,J5,9,Pin_9*%
%TO.N,CLK*%
X131560000Y-59576250D03*
%TO.P,J5,10,Pin_10*%
%TO.N,CS*%
X131560000Y-62116250D03*
%TO.P,J5,11,Pin_11*%
%TO.N,IO17*%
X131560000Y-64656250D03*
%TO.P,J5,12,Pin_12*%
%TO.N,IO16*%
X131560000Y-67196250D03*
%TO.P,J5,13,Pin_13*%
%TO.N,ADC2*%
X131560000Y-69736250D03*
%TO.P,J5,14,Pin_14*%
%TO.N,IO0*%
X131560000Y-72276250D03*
%TO.P,J5,15,Pin_15*%
%TO.N,Buzzer*%
X131560000Y-74816250D03*
%TO.P,J5,16,Pin_16*%
%TO.N,BUTTON1*%
X131560000Y-77356250D03*
%TO.P,J5,17,Pin_17*%
%TO.N,BUTTON2*%
X131560000Y-79896250D03*
%TO.P,J5,18,Pin_18*%
%TO.N,BUTTON3*%
X131560000Y-82436250D03*
%TO.P,J5,19,Pin_19*%
%TO.N,IO6*%
X131560000Y-84976250D03*
%TD*%
D10*
%TO.P,J12,1,Pin_1*%
%TO.N,IO10*%
X97190000Y-126950000D03*
D11*
%TO.P,J12,2,Pin_2*%
%TO.N,IO11*%
X94650000Y-126950000D03*
%TD*%
D10*
%TO.P,J8,1,Pin_1*%
%TO.N,+3.3V*%
X93830000Y-38270000D03*
D11*
%TO.P,J8,2,Pin_2*%
%TO.N,EN_ESP32*%
X93830000Y-40810000D03*
%TO.P,J8,3,Pin_3*%
%TO.N,ADC1*%
X93830000Y-43350000D03*
%TO.P,J8,4,Pin_4*%
%TO.N,IO39*%
X93830000Y-45890000D03*
%TO.P,J8,5,Pin_5*%
%TO.N,IO34*%
X93830000Y-48430000D03*
%TO.P,J8,6,Pin_6*%
%TO.N,IO35*%
X93830000Y-50970000D03*
%TO.P,J8,7,Pin_7*%
%TO.N,IO32*%
X93830000Y-53510000D03*
%TO.P,J8,8,Pin_8*%
%TO.N,IO33*%
X93830000Y-56050000D03*
%TO.P,J8,9,Pin_9*%
%TO.N,DAC_1*%
X93830000Y-58590000D03*
%TO.P,J8,10,Pin_10*%
%TO.N,DAC_2*%
X93830000Y-61130000D03*
%TO.P,J8,11,Pin_11*%
%TO.N,IO27*%
X93830000Y-63670000D03*
%TO.P,J8,12,Pin_12*%
%TO.N,IO14*%
X93830000Y-66210000D03*
%TO.P,J8,13,Pin_13*%
%TO.N,IO12*%
X93830000Y-68750000D03*
%TO.P,J8,14,Pin_14*%
%TO.N,Earth*%
X93830000Y-71290000D03*
%TO.P,J8,15,Pin_15*%
%TO.N,IO13*%
X93830000Y-73830000D03*
%TO.P,J8,16,Pin_16*%
%TO.N,IO9*%
X93830000Y-76370000D03*
%TO.P,J8,17,Pin_17*%
%TO.N,IO10*%
X93830000Y-78910000D03*
%TO.P,J8,18,Pin_18*%
%TO.N,IO11*%
X93830000Y-81450000D03*
%TO.P,J8,19,Pin_19*%
%TO.N,+5V*%
X93830000Y-83990000D03*
%TD*%
D10*
%TO.P,J1,1,Pin_1*%
%TO.N,+3.3V*%
X142570000Y-116970000D03*
D11*
%TO.P,J1,2,Pin_2*%
%TO.N,IO21*%
X142570000Y-114430000D03*
%TO.P,J1,3,Pin_3*%
%TO.N,IO22*%
X142570000Y-111890000D03*
%TO.P,J1,4,Pin_4*%
%TO.N,Earth*%
X142570000Y-109350000D03*
%TD*%
D14*
%TO.P,BUZZER1,1,-*%
%TO.N,Net-(BUZZER1--)*%
X129990000Y-98650000D03*
D15*
%TO.P,BUZZER1,2,+*%
%TO.N,Earth*%
X129990000Y-106250000D03*
%TD*%
D16*
%TO.N,+3.3V*%
X105090000Y-101980000D03*
X110170000Y-101840000D03*
X128480000Y-118930000D03*
X125390000Y-119000000D03*
D17*
%TO.N,+5V*%
X117530000Y-86510000D03*
D16*
%TO.N,Buzzer*%
X126340000Y-76030000D03*
%TO.N,Earth*%
X141940000Y-38280000D03*
X128980000Y-114120000D03*
X94550000Y-102610000D03*
X99845000Y-99465000D03*
X127630000Y-106200000D03*
X133360000Y-54500000D03*
X101260000Y-102460000D03*
X119110000Y-114120000D03*
X133810000Y-39280000D03*
X142560000Y-107180000D03*
X105375000Y-99445000D03*
X107960000Y-102550000D03*
X141870000Y-53510000D03*
%TO.N,BUTTON3*%
X114790000Y-96690000D03*
%TO.N,BUTTON1*%
X112855000Y-93075000D03*
%TO.N,BUTTON2*%
X114310000Y-94710000D03*
%TO.N,IO19*%
X145789500Y-58180000D03*
%TO.N,CLK*%
X140300000Y-99800000D03*
%TO.N,IO17*%
X128290000Y-67940000D03*
%TO.N,IO16*%
X128400500Y-68860000D03*
%TO.N,ADC1*%
X111160000Y-76230000D03*
X111270000Y-68230000D03*
%TO.N,DAC_1*%
X109140000Y-73750000D03*
X109140000Y-66330000D03*
%TO.N,DAC_2*%
X107970000Y-65700000D03*
X107990000Y-73060000D03*
%TO.N,ADC2*%
X127234647Y-112375353D03*
X125715000Y-73865000D03*
X127200000Y-113780000D03*
%TD*%
D18*
%TO.N,Buzzer*%
X127553750Y-74816250D02*
X131560000Y-74816250D01*
X126340000Y-76030000D02*
X127553750Y-74816250D01*
%TO.N,+3.3V*%
X105230000Y-101840000D02*
X105090000Y-101980000D01*
X110170000Y-101840000D02*
X105230000Y-101840000D01*
D19*
X128410000Y-119000000D02*
X128480000Y-118930000D01*
X125390000Y-119000000D02*
X128410000Y-119000000D01*
D20*
%TO.N,+5V*%
X117530000Y-86510000D02*
X115580000Y-84560000D01*
X115580000Y-84560000D02*
X105836250Y-84560000D01*
X105836250Y-84560000D02*
X105760000Y-84636250D01*
D18*
%TO.N,BUTTON1*%
X112925000Y-93075000D02*
X128643750Y-77356250D01*
X112855000Y-93075000D02*
X112925000Y-93075000D01*
X128643750Y-77356250D02*
X131560000Y-77356250D01*
%TO.N,BUTTON2*%
X114390000Y-94710000D02*
X129203750Y-79896250D01*
X129203750Y-79896250D02*
X131560000Y-79896250D01*
X114310000Y-94710000D02*
X114390000Y-94710000D01*
%TO.N,BUTTON3*%
X114790000Y-96610000D02*
X128963750Y-82436250D01*
X114790000Y-96690000D02*
X114790000Y-96610000D01*
X128963750Y-82436250D02*
X131560000Y-82436250D01*
D19*
%TO.N,IO19*%
X145789500Y-58180000D02*
X145789500Y-57409500D01*
X145789500Y-57409500D02*
X144430000Y-56050000D01*
X144430000Y-56050000D02*
X143650000Y-56050000D01*
D18*
%TO.N,CLK*%
X140300000Y-99800000D02*
X141830000Y-99800000D01*
X141830000Y-99800000D02*
X142760000Y-98870000D01*
D19*
%TO.N,IO17*%
X128290000Y-67926250D02*
X131560000Y-64656250D01*
X128290000Y-67940000D02*
X128290000Y-67926250D01*
%TO.N,IO16*%
X129896250Y-68860000D02*
X131560000Y-67196250D01*
X128400500Y-68860000D02*
X129896250Y-68860000D01*
%TO.N,ADC1*%
X111160000Y-68340000D02*
X111270000Y-68230000D01*
X111160000Y-76230000D02*
X111160000Y-68340000D01*
%TO.N,DAC_1*%
X109140000Y-73750000D02*
X109140000Y-66330000D01*
D18*
%TO.N,DAC_2*%
X107970000Y-65700000D02*
X107970000Y-73040000D01*
X107970000Y-73040000D02*
X107990000Y-73060000D01*
%TO.N,ADC2*%
X127234647Y-113745353D02*
X127200000Y-113780000D01*
X129843750Y-69736250D02*
X131560000Y-69736250D01*
X127234647Y-112375353D02*
X127234647Y-113745353D01*
X125715000Y-73865000D02*
X129843750Y-69736250D01*
%TD*%
%TA.AperFunction,Conductor*%
%TO.N,Earth*%
G36*
X146272539Y-34090185D02*
G01*
X146318294Y-34142989D01*
X146329500Y-34194500D01*
X146329500Y-56834844D01*
X146309815Y-56901883D01*
X146257011Y-56947638D01*
X146187853Y-56957582D01*
X146124297Y-56928557D01*
X146117819Y-56922525D01*
X144999471Y-55804177D01*
X144967377Y-55748588D01*
X144965998Y-55743443D01*
X144944811Y-55664369D01*
X144923906Y-55586346D01*
X144923904Y-55586342D01*
X144923903Y-55586337D01*
X144824035Y-55372171D01*
X144794707Y-55330285D01*
X144688494Y-55178597D01*
X144521402Y-55011506D01*
X144521401Y-55011505D01*
X144335405Y-54881269D01*
X144291781Y-54826692D01*
X144284588Y-54757193D01*
X144316110Y-54694839D01*
X144335405Y-54678119D01*
X144521082Y-54548105D01*
X144688105Y-54381082D01*
X144823600Y-54187578D01*
X144923429Y-53973492D01*
X144923432Y-53973486D01*
X144980636Y-53760000D01*
X144083686Y-53760000D01*
X144109493Y-53719844D01*
X144150000Y-53581889D01*
X144150000Y-53438111D01*
X144109493Y-53300156D01*
X144083686Y-53260000D01*
X144980636Y-53260000D01*
X144980635Y-53259999D01*
X144923432Y-53046513D01*
X144923429Y-53046507D01*
X144823600Y-52832422D01*
X144823599Y-52832420D01*
X144688113Y-52638926D01*
X144688108Y-52638920D01*
X144521078Y-52471890D01*
X144335405Y-52341879D01*
X144291780Y-52287302D01*
X144284588Y-52217804D01*
X144316110Y-52155449D01*
X144335406Y-52138730D01*
X144419404Y-52079914D01*
X144521401Y-52008495D01*
X144688495Y-51841401D01*
X144824035Y-51647830D01*
X144923903Y-51433663D01*
X144985063Y-51205408D01*
X145005659Y-50970000D01*
X144985063Y-50734592D01*
X144923903Y-50506337D01*
X144824035Y-50292171D01*
X144794707Y-50250285D01*
X144688494Y-50098597D01*
X144521402Y-49931506D01*
X144521396Y-49931501D01*
X144335842Y-49801575D01*
X144292217Y-49746998D01*
X144285023Y-49677500D01*
X144316546Y-49615145D01*
X144335842Y-49598425D01*
X144419404Y-49539914D01*
X144521401Y-49468495D01*
X144688495Y-49301401D01*
X144824035Y-49107830D01*
X144923903Y-48893663D01*
X144985063Y-48665408D01*
X145005659Y-48430000D01*
X144985063Y-48194592D01*
X144923903Y-47966337D01*
X144824035Y-47752171D01*
X144794707Y-47710285D01*
X144688494Y-47558597D01*
X144521402Y-47391506D01*
X144521396Y-47391501D01*
X144335842Y-47261575D01*
X144292217Y-47206998D01*
X144285023Y-47137500D01*
X144316546Y-47075145D01*
X144335842Y-47058425D01*
X144419404Y-46999914D01*
X144521401Y-46928495D01*
X144688495Y-46761401D01*
X144824035Y-46567830D01*
X144923903Y-46353663D01*
X144985063Y-46125408D01*
X145005659Y-45890000D01*
X144985063Y-45654592D01*
X144923903Y-45426337D01*
X144824035Y-45212171D01*
X144794707Y-45170285D01*
X144688494Y-45018597D01*
X144521402Y-44851506D01*
X144521396Y-44851501D01*
X144335842Y-44721575D01*
X144292217Y-44666998D01*
X144285023Y-44597500D01*
X144316546Y-44535145D01*
X144335842Y-44518425D01*
X144419404Y-44459914D01*
X144521401Y-44388495D01*
X144688495Y-44221401D01*
X144824035Y-44027830D01*
X144923903Y-43813663D01*
X144985063Y-43585408D01*
X145005659Y-43350000D01*
X144985063Y-43114592D01*
X144923903Y-42886337D01*
X144824035Y-42672171D01*
X144794707Y-42630285D01*
X144688494Y-42478597D01*
X144521402Y-42311506D01*
X144521396Y-42311501D01*
X144335842Y-42181575D01*
X144292217Y-42126998D01*
X144285023Y-42057500D01*
X144316546Y-41995145D01*
X144335842Y-41978425D01*
X144419404Y-41919914D01*
X144521401Y-41848495D01*
X144688495Y-41681401D01*
X144824035Y-41487830D01*
X144923903Y-41273663D01*
X144985063Y-41045408D01*
X145005659Y-40810000D01*
X144985063Y-40574592D01*
X144938626Y-40401285D01*
X144923905Y-40346344D01*
X144923904Y-40346343D01*
X144923903Y-40346337D01*
X144824035Y-40132171D01*
X144818171Y-40123797D01*
X144688496Y-39938600D01*
X144688495Y-39938599D01*
X144566179Y-39816283D01*
X144532696Y-39754963D01*
X144537680Y-39685271D01*
X144579551Y-39629337D01*
X144610529Y-39612422D01*
X144742086Y-39563354D01*
X144742093Y-39563350D01*
X144857187Y-39477190D01*
X144857190Y-39477187D01*
X144943350Y-39362093D01*
X144943354Y-39362086D01*
X144993596Y-39227379D01*
X144993598Y-39227372D01*
X144999999Y-39167844D01*
X145000000Y-39167827D01*
X145000000Y-38520000D01*
X144083686Y-38520000D01*
X144109493Y-38479844D01*
X144150000Y-38341889D01*
X144150000Y-38198111D01*
X144109493Y-38060156D01*
X144083686Y-38020000D01*
X145000000Y-38020000D01*
X145000000Y-37372172D01*
X144999999Y-37372155D01*
X144993598Y-37312627D01*
X144993596Y-37312620D01*
X144943354Y-37177913D01*
X144943350Y-37177906D01*
X144857190Y-37062812D01*
X144857187Y-37062809D01*
X144742093Y-36976649D01*
X144742086Y-36976645D01*
X144607379Y-36926403D01*
X144607372Y-36926401D01*
X144547844Y-36920000D01*
X143900000Y-36920000D01*
X143900000Y-37834498D01*
X143792315Y-37785320D01*
X143685763Y-37770000D01*
X143614237Y-37770000D01*
X143507685Y-37785320D01*
X143400000Y-37834498D01*
X143400000Y-36920000D01*
X142752155Y-36920000D01*
X142692627Y-36926401D01*
X142692620Y-36926403D01*
X142557913Y-36976645D01*
X142557906Y-36976649D01*
X142442812Y-37062809D01*
X142442809Y-37062812D01*
X142356649Y-37177906D01*
X142356645Y-37177913D01*
X142306403Y-37312620D01*
X142306401Y-37312627D01*
X142300000Y-37372155D01*
X142300000Y-38020000D01*
X143216314Y-38020000D01*
X143190507Y-38060156D01*
X143150000Y-38198111D01*
X143150000Y-38341889D01*
X143190507Y-38479844D01*
X143216314Y-38520000D01*
X142300000Y-38520000D01*
X142300000Y-39167844D01*
X142306401Y-39227372D01*
X142306403Y-39227379D01*
X142356645Y-39362086D01*
X142356649Y-39362093D01*
X142442809Y-39477187D01*
X142442812Y-39477190D01*
X142557906Y-39563350D01*
X142557913Y-39563354D01*
X142689470Y-39612421D01*
X142745403Y-39654292D01*
X142769821Y-39719756D01*
X142754970Y-39788029D01*
X142733819Y-39816284D01*
X142611503Y-39938600D01*
X142475965Y-40132169D01*
X142475964Y-40132171D01*
X142376098Y-40346335D01*
X142376094Y-40346344D01*
X142314938Y-40574586D01*
X142314936Y-40574596D01*
X142294341Y-40809999D01*
X142294341Y-40810000D01*
X142314936Y-41045403D01*
X142314938Y-41045413D01*
X142376094Y-41273655D01*
X142376096Y-41273659D01*
X142376097Y-41273663D01*
X142461239Y-41456250D01*
X142475965Y-41487830D01*
X142475967Y-41487834D01*
X142611501Y-41681395D01*
X142611506Y-41681402D01*
X142778597Y-41848493D01*
X142778603Y-41848498D01*
X142964158Y-41978425D01*
X143007783Y-42033002D01*
X143014977Y-42102500D01*
X142983454Y-42164855D01*
X142964158Y-42181575D01*
X142778597Y-42311505D01*
X142611505Y-42478597D01*
X142475965Y-42672169D01*
X142475964Y-42672171D01*
X142376098Y-42886335D01*
X142376094Y-42886344D01*
X142314938Y-43114586D01*
X142314936Y-43114596D01*
X142294341Y-43349999D01*
X142294341Y-43350000D01*
X142314936Y-43585403D01*
X142314938Y-43585413D01*
X142376094Y-43813655D01*
X142376096Y-43813659D01*
X142376097Y-43813663D01*
X142461239Y-43996250D01*
X142475965Y-44027830D01*
X142475967Y-44027834D01*
X142611501Y-44221395D01*
X142611506Y-44221402D01*
X142778597Y-44388493D01*
X142778603Y-44388498D01*
X142964158Y-44518425D01*
X143007783Y-44573002D01*
X143014977Y-44642500D01*
X142983454Y-44704855D01*
X142964158Y-44721575D01*
X142778597Y-44851505D01*
X142611505Y-45018597D01*
X142475965Y-45212169D01*
X142475964Y-45212171D01*
X142376098Y-45426335D01*
X142376094Y-45426344D01*
X142314938Y-45654586D01*
X142314936Y-45654596D01*
X142294341Y-45889999D01*
X142294341Y-45890000D01*
X142314936Y-46125403D01*
X142314938Y-46125413D01*
X142376094Y-46353655D01*
X142376096Y-46353659D01*
X142376097Y-46353663D01*
X142461239Y-46536250D01*
X142475965Y-46567830D01*
X142475967Y-46567834D01*
X142611501Y-46761395D01*
X142611506Y-46761402D01*
X142778597Y-46928493D01*
X142778603Y-46928498D01*
X142964158Y-47058425D01*
X143007783Y-47113002D01*
X143014977Y-47182500D01*
X142983454Y-47244855D01*
X142964158Y-47261575D01*
X142778597Y-47391505D01*
X142611505Y-47558597D01*
X142475965Y-47752169D01*
X142475964Y-47752171D01*
X142376098Y-47966335D01*
X142376094Y-47966344D01*
X142314938Y-48194586D01*
X142314936Y-48194596D01*
X142294341Y-48429999D01*
X142294341Y-48430000D01*
X142314936Y-48665403D01*
X142314938Y-48665413D01*
X142376094Y-48893655D01*
X142376096Y-48893659D01*
X142376097Y-48893663D01*
X142461239Y-49076250D01*
X142475965Y-49107830D01*
X142475967Y-49107834D01*
X142611501Y-49301395D01*
X142611506Y-49301402D01*
X142778597Y-49468493D01*
X142778603Y-49468498D01*
X142964158Y-49598425D01*
X143007783Y-49653002D01*
X143014977Y-49722500D01*
X142983454Y-49784855D01*
X142964158Y-49801575D01*
X142778597Y-49931505D01*
X142611505Y-50098597D01*
X142475965Y-50292169D01*
X142475964Y-50292171D01*
X142376098Y-50506335D01*
X142376094Y-50506344D01*
X142314938Y-50734586D01*
X142314936Y-50734596D01*
X142294341Y-50969999D01*
X142294341Y-50970000D01*
X142314936Y-51205403D01*
X142314938Y-51205413D01*
X142376094Y-51433655D01*
X142376096Y-51433659D01*
X142376097Y-51433663D01*
X142461239Y-51616250D01*
X142475965Y-51647830D01*
X142475967Y-51647834D01*
X142611501Y-51841395D01*
X142611506Y-51841402D01*
X142778597Y-52008493D01*
X142778603Y-52008498D01*
X142964594Y-52138730D01*
X143008219Y-52193307D01*
X143015413Y-52262805D01*
X142983890Y-52325160D01*
X142964595Y-52341880D01*
X142778922Y-52471890D01*
X142778920Y-52471891D01*
X142611891Y-52638920D01*
X142611886Y-52638926D01*
X142476400Y-52832420D01*
X142476399Y-52832422D01*
X142376570Y-53046507D01*
X142376567Y-53046513D01*
X142319364Y-53259999D01*
X142319364Y-53260000D01*
X143216314Y-53260000D01*
X143190507Y-53300156D01*
X143150000Y-53438111D01*
X143150000Y-53581889D01*
X143190507Y-53719844D01*
X143216314Y-53760000D01*
X142319364Y-53760000D01*
X142376567Y-53973486D01*
X142376570Y-53973492D01*
X142476399Y-54187578D01*
X142611894Y-54381082D01*
X142778917Y-54548105D01*
X142964595Y-54678119D01*
X143008219Y-54732696D01*
X143015412Y-54802195D01*
X142983890Y-54864549D01*
X142964595Y-54881269D01*
X142778594Y-55011508D01*
X142611505Y-55178597D01*
X142475965Y-55372169D01*
X142475964Y-55372171D01*
X142376098Y-55586335D01*
X142376094Y-55586344D01*
X142314938Y-55814586D01*
X142314936Y-55814596D01*
X142294341Y-56049999D01*
X142294341Y-56050000D01*
X142314936Y-56285403D01*
X142314938Y-56285413D01*
X142376094Y-56513655D01*
X142376096Y-56513659D01*
X142376097Y-56513663D01*
X142461239Y-56696250D01*
X142475965Y-56727830D01*
X142475967Y-56727834D01*
X142611501Y-56921395D01*
X142611506Y-56921402D01*
X142778597Y-57088493D01*
X142778603Y-57088498D01*
X142964158Y-57218425D01*
X143007783Y-57273002D01*
X143014977Y-57342500D01*
X142983454Y-57404855D01*
X142964158Y-57421575D01*
X142778597Y-57551505D01*
X142611505Y-57718597D01*
X142475965Y-57912169D01*
X142475964Y-57912171D01*
X142376098Y-58126335D01*
X142376094Y-58126344D01*
X142314938Y-58354586D01*
X142314936Y-58354596D01*
X142294341Y-58589999D01*
X142294341Y-58590000D01*
X142314936Y-58825403D01*
X142314938Y-58825413D01*
X142376094Y-59053655D01*
X142376096Y-59053659D01*
X142376097Y-59053663D01*
X142461239Y-59236250D01*
X142475965Y-59267830D01*
X142475967Y-59267834D01*
X142611501Y-59461395D01*
X142611506Y-59461402D01*
X142778597Y-59628493D01*
X142778603Y-59628498D01*
X142964158Y-59758425D01*
X143007783Y-59813002D01*
X143014977Y-59882500D01*
X142983454Y-59944855D01*
X142964158Y-59961575D01*
X142778597Y-60091505D01*
X142611505Y-60258597D01*
X142475965Y-60452169D01*
X142475964Y-60452171D01*
X142376098Y-60666335D01*
X142376094Y-60666344D01*
X142314938Y-60894586D01*
X142314936Y-60894596D01*
X142294341Y-61129999D01*
X142294341Y-61130000D01*
X142314936Y-61365403D01*
X142314938Y-61365413D01*
X142376094Y-61593655D01*
X142376096Y-61593659D01*
X142376097Y-61593663D01*
X142461239Y-61776250D01*
X142475965Y-61807830D01*
X142475967Y-61807834D01*
X142611501Y-62001395D01*
X142611506Y-62001402D01*
X142778597Y-62168493D01*
X142778603Y-62168498D01*
X142964158Y-62298425D01*
X143007783Y-62353002D01*
X143014977Y-62422500D01*
X142983454Y-62484855D01*
X142964158Y-62501575D01*
X142778597Y-62631505D01*
X142611505Y-62798597D01*
X142475965Y-62992169D01*
X142475964Y-62992171D01*
X142376098Y-63206335D01*
X142376094Y-63206344D01*
X142314938Y-63434586D01*
X142314936Y-63434596D01*
X142294341Y-63669999D01*
X142294341Y-63670000D01*
X142314936Y-63905403D01*
X142314938Y-63905413D01*
X142376094Y-64133655D01*
X142376096Y-64133659D01*
X142376097Y-64133663D01*
X142461239Y-64316250D01*
X142475965Y-64347830D01*
X142475967Y-64347834D01*
X142611501Y-64541395D01*
X142611506Y-64541402D01*
X142778597Y-64708493D01*
X142778603Y-64708498D01*
X142964158Y-64838425D01*
X143007783Y-64893002D01*
X143014977Y-64962500D01*
X142983454Y-65024855D01*
X142964158Y-65041575D01*
X142778597Y-65171505D01*
X142611505Y-65338597D01*
X142475965Y-65532169D01*
X142475964Y-65532171D01*
X142376098Y-65746335D01*
X142376094Y-65746344D01*
X142314938Y-65974586D01*
X142314936Y-65974596D01*
X142294341Y-66209999D01*
X142294341Y-66210000D01*
X142314936Y-66445403D01*
X142314938Y-66445413D01*
X142376094Y-66673655D01*
X142376096Y-66673659D01*
X142376097Y-66673663D01*
X142461239Y-66856250D01*
X142475965Y-66887830D01*
X142475967Y-66887834D01*
X142611501Y-67081395D01*
X142611506Y-67081402D01*
X142778597Y-67248493D01*
X142778603Y-67248498D01*
X142964158Y-67378425D01*
X143007783Y-67433002D01*
X143014977Y-67502500D01*
X142983454Y-67564855D01*
X142964158Y-67581575D01*
X142778597Y-67711505D01*
X142611505Y-67878597D01*
X142475965Y-68072169D01*
X142475964Y-68072171D01*
X142376098Y-68286335D01*
X142376094Y-68286344D01*
X142314938Y-68514586D01*
X142314936Y-68514596D01*
X142294341Y-68749999D01*
X142294341Y-68750000D01*
X142314936Y-68985403D01*
X142314938Y-68985413D01*
X142376094Y-69213655D01*
X142376096Y-69213659D01*
X142376097Y-69213663D01*
X142461239Y-69396250D01*
X142475965Y-69427830D01*
X142475967Y-69427834D01*
X142611501Y-69621395D01*
X142611506Y-69621402D01*
X142778597Y-69788493D01*
X142778603Y-69788498D01*
X142964158Y-69918425D01*
X143007783Y-69973002D01*
X143014977Y-70042500D01*
X142983454Y-70104855D01*
X142964158Y-70121575D01*
X142778597Y-70251505D01*
X142611505Y-70418597D01*
X142475965Y-70612169D01*
X142475964Y-70612171D01*
X142376098Y-70826335D01*
X142376094Y-70826344D01*
X142314938Y-71054586D01*
X142314936Y-71054596D01*
X142294341Y-71289999D01*
X142294341Y-71290000D01*
X142314936Y-71525403D01*
X142314938Y-71525413D01*
X142376094Y-71753655D01*
X142376096Y-71753659D01*
X142376097Y-71753663D01*
X142475847Y-71967578D01*
X142475965Y-71967830D01*
X142475967Y-71967834D01*
X142611501Y-72161395D01*
X142611506Y-72161402D01*
X142778597Y-72328493D01*
X142778603Y-72328498D01*
X142964158Y-72458425D01*
X143007783Y-72513002D01*
X143014977Y-72582500D01*
X142983454Y-72644855D01*
X142964158Y-72661575D01*
X142778597Y-72791505D01*
X142611505Y-72958597D01*
X142475965Y-73152169D01*
X142475964Y-73152171D01*
X142376098Y-73366335D01*
X142376094Y-73366344D01*
X142314938Y-73594586D01*
X142314936Y-73594596D01*
X142294341Y-73829999D01*
X142294341Y-73830000D01*
X142314936Y-74065403D01*
X142314938Y-74065413D01*
X142376094Y-74293655D01*
X142376096Y-74293659D01*
X142376097Y-74293663D01*
X142461239Y-74476250D01*
X142475965Y-74507830D01*
X142475967Y-74507834D01*
X142611501Y-74701395D01*
X142611506Y-74701402D01*
X142778597Y-74868493D01*
X142778603Y-74868498D01*
X142964158Y-74998425D01*
X143007783Y-75053002D01*
X143014977Y-75122500D01*
X142983454Y-75184855D01*
X142964158Y-75201575D01*
X142778597Y-75331505D01*
X142611505Y-75498597D01*
X142475965Y-75692169D01*
X142475964Y-75692171D01*
X142376098Y-75906335D01*
X142376094Y-75906344D01*
X142314938Y-76134586D01*
X142314936Y-76134596D01*
X142294341Y-76369999D01*
X142294341Y-76370000D01*
X142314936Y-76605403D01*
X142314938Y-76605413D01*
X142376094Y-76833655D01*
X142376096Y-76833659D01*
X142376097Y-76833663D01*
X142461239Y-77016250D01*
X142475965Y-77047830D01*
X142475967Y-77047834D01*
X142611501Y-77241395D01*
X142611506Y-77241402D01*
X142778597Y-77408493D01*
X142778603Y-77408498D01*
X142964158Y-77538425D01*
X143007783Y-77593002D01*
X143014977Y-77662500D01*
X142983454Y-77724855D01*
X142964158Y-77741575D01*
X142778597Y-77871505D01*
X142611505Y-78038597D01*
X142475965Y-78232169D01*
X142475964Y-78232171D01*
X142376098Y-78446335D01*
X142376094Y-78446344D01*
X142314938Y-78674586D01*
X142314936Y-78674596D01*
X142294341Y-78909999D01*
X142294341Y-78910000D01*
X142314936Y-79145403D01*
X142314938Y-79145413D01*
X142376094Y-79373655D01*
X142376096Y-79373659D01*
X142376097Y-79373663D01*
X142461239Y-79556250D01*
X142475965Y-79587830D01*
X142475967Y-79587834D01*
X142611501Y-79781395D01*
X142611506Y-79781402D01*
X142778597Y-79948493D01*
X142778603Y-79948498D01*
X142964158Y-80078425D01*
X143007783Y-80133002D01*
X143014977Y-80202500D01*
X142983454Y-80264855D01*
X142964158Y-80281575D01*
X142778597Y-80411505D01*
X142611505Y-80578597D01*
X142475965Y-80772169D01*
X142475964Y-80772171D01*
X142376098Y-80986335D01*
X142376094Y-80986344D01*
X142314938Y-81214586D01*
X142314936Y-81214596D01*
X142294341Y-81449999D01*
X142294341Y-81450000D01*
X142314936Y-81685403D01*
X142314938Y-81685413D01*
X142376094Y-81913655D01*
X142376096Y-81913659D01*
X142376097Y-81913663D01*
X142461239Y-82096250D01*
X142475965Y-82127830D01*
X142475967Y-82127834D01*
X142611501Y-82321395D01*
X142611506Y-82321402D01*
X142778597Y-82488493D01*
X142778603Y-82488498D01*
X142964158Y-82618425D01*
X143007783Y-82673002D01*
X143014977Y-82742500D01*
X142983454Y-82804855D01*
X142964158Y-82821575D01*
X142778597Y-82951505D01*
X142611505Y-83118597D01*
X142475965Y-83312169D01*
X142475964Y-83312171D01*
X142376098Y-83526335D01*
X142376094Y-83526344D01*
X142314938Y-83754586D01*
X142314936Y-83754596D01*
X142294341Y-83989999D01*
X142294341Y-83990000D01*
X142314936Y-84225403D01*
X142314938Y-84225413D01*
X142376094Y-84453655D01*
X142376096Y-84453659D01*
X142376097Y-84453663D01*
X142461239Y-84636250D01*
X142475965Y-84667830D01*
X142475967Y-84667834D01*
X142527091Y-84740846D01*
X142611505Y-84861401D01*
X142778599Y-85028495D01*
X142875384Y-85096265D01*
X142972165Y-85164032D01*
X142972167Y-85164033D01*
X142972170Y-85164035D01*
X143186337Y-85263903D01*
X143414592Y-85325063D01*
X143602918Y-85341539D01*
X143649999Y-85345659D01*
X143650000Y-85345659D01*
X143650001Y-85345659D01*
X143689234Y-85342226D01*
X143885408Y-85325063D01*
X144113663Y-85263903D01*
X144327830Y-85164035D01*
X144521401Y-85028495D01*
X144688495Y-84861401D01*
X144824035Y-84667830D01*
X144923903Y-84453663D01*
X144985063Y-84225408D01*
X145005659Y-83990000D01*
X144985063Y-83754592D01*
X144923903Y-83526337D01*
X144824035Y-83312171D01*
X144794707Y-83270285D01*
X144688494Y-83118597D01*
X144521402Y-82951506D01*
X144521396Y-82951501D01*
X144335842Y-82821575D01*
X144292217Y-82766998D01*
X144285023Y-82697500D01*
X144316546Y-82635145D01*
X144335842Y-82618425D01*
X144419404Y-82559914D01*
X144521401Y-82488495D01*
X144688495Y-82321401D01*
X144824035Y-82127830D01*
X144923903Y-81913663D01*
X144985063Y-81685408D01*
X145005659Y-81450000D01*
X144985063Y-81214592D01*
X144923903Y-80986337D01*
X144824035Y-80772171D01*
X144794707Y-80730285D01*
X144688494Y-80578597D01*
X144521402Y-80411506D01*
X144521396Y-80411501D01*
X144335842Y-80281575D01*
X144292217Y-80226998D01*
X144285023Y-80157500D01*
X144316546Y-80095145D01*
X144335842Y-80078425D01*
X144419404Y-80019914D01*
X144521401Y-79948495D01*
X144688495Y-79781401D01*
X144824035Y-79587830D01*
X144923903Y-79373663D01*
X144985063Y-79145408D01*
X145005659Y-78910000D01*
X144985063Y-78674592D01*
X144923903Y-78446337D01*
X144824035Y-78232171D01*
X144794707Y-78190285D01*
X144688494Y-78038597D01*
X144521402Y-77871506D01*
X144521396Y-77871501D01*
X144335842Y-77741575D01*
X144292217Y-77686998D01*
X144285023Y-77617500D01*
X144316546Y-77555145D01*
X144335842Y-77538425D01*
X144419404Y-77479914D01*
X144521401Y-77408495D01*
X144688495Y-77241401D01*
X144824035Y-77047830D01*
X144923903Y-76833663D01*
X144985063Y-76605408D01*
X145005659Y-76370000D01*
X144985063Y-76134592D01*
X144923903Y-75906337D01*
X144824035Y-75692171D01*
X144794707Y-75650285D01*
X144688494Y-75498597D01*
X144521402Y-75331506D01*
X144521396Y-75331501D01*
X144335842Y-75201575D01*
X144292217Y-75146998D01*
X144285023Y-75077500D01*
X144316546Y-75015145D01*
X144335842Y-74998425D01*
X144419404Y-74939914D01*
X144521401Y-74868495D01*
X144688495Y-74701401D01*
X144824035Y-74507830D01*
X144923903Y-74293663D01*
X144985063Y-74065408D01*
X145005659Y-73830000D01*
X144985063Y-73594592D01*
X144923903Y-73366337D01*
X144824035Y-73152171D01*
X144802272Y-73121089D01*
X144688494Y-72958597D01*
X144521402Y-72791506D01*
X144521396Y-72791501D01*
X144335842Y-72661575D01*
X144292217Y-72606998D01*
X144285023Y-72537500D01*
X144316546Y-72475145D01*
X144335842Y-72458425D01*
X144419658Y-72399736D01*
X144521401Y-72328495D01*
X144688495Y-72161401D01*
X144824035Y-71967830D01*
X144923903Y-71753663D01*
X144985063Y-71525408D01*
X145005659Y-71290000D01*
X144985063Y-71054592D01*
X144923903Y-70826337D01*
X144824035Y-70612171D01*
X144802699Y-70581699D01*
X144688494Y-70418597D01*
X144521402Y-70251506D01*
X144521396Y-70251501D01*
X144335842Y-70121575D01*
X144292217Y-70066998D01*
X144285023Y-69997500D01*
X144316546Y-69935145D01*
X144335842Y-69918425D01*
X144419404Y-69859914D01*
X144521401Y-69788495D01*
X144688495Y-69621401D01*
X144824035Y-69427830D01*
X144923903Y-69213663D01*
X144985063Y-68985408D01*
X145005659Y-68750000D01*
X144985063Y-68514592D01*
X144923903Y-68286337D01*
X144824035Y-68072171D01*
X144794707Y-68030285D01*
X144688494Y-67878597D01*
X144521402Y-67711506D01*
X144521396Y-67711501D01*
X144335842Y-67581575D01*
X144292217Y-67526998D01*
X144285023Y-67457500D01*
X144316546Y-67395145D01*
X144335842Y-67378425D01*
X144419404Y-67319914D01*
X144521401Y-67248495D01*
X144688495Y-67081401D01*
X144824035Y-66887830D01*
X144923903Y-66673663D01*
X144985063Y-66445408D01*
X145005659Y-66210000D01*
X144985063Y-65974592D01*
X144923903Y-65746337D01*
X144824035Y-65532171D01*
X144823308Y-65531132D01*
X144688494Y-65338597D01*
X144521402Y-65171506D01*
X144521396Y-65171501D01*
X144335842Y-65041575D01*
X144292217Y-64986998D01*
X144285023Y-64917500D01*
X144316546Y-64855145D01*
X144335842Y-64838425D01*
X144419404Y-64779914D01*
X144521401Y-64708495D01*
X144688495Y-64541401D01*
X144824035Y-64347830D01*
X144923903Y-64133663D01*
X144985063Y-63905408D01*
X145005659Y-63670000D01*
X144985063Y-63434592D01*
X144923903Y-63206337D01*
X144824035Y-62992171D01*
X144794707Y-62950285D01*
X144688494Y-62798597D01*
X144521402Y-62631506D01*
X144521396Y-62631501D01*
X144335842Y-62501575D01*
X144292217Y-62446998D01*
X144285023Y-62377500D01*
X144316546Y-62315145D01*
X144335842Y-62298425D01*
X144419404Y-62239914D01*
X144521401Y-62168495D01*
X144688495Y-62001401D01*
X144824035Y-61807830D01*
X144923903Y-61593663D01*
X144985063Y-61365408D01*
X145005659Y-61130000D01*
X144985063Y-60894592D01*
X144923903Y-60666337D01*
X144824035Y-60452171D01*
X144794707Y-60410285D01*
X144688494Y-60258597D01*
X144521402Y-60091506D01*
X144521396Y-60091501D01*
X144335842Y-59961575D01*
X144292217Y-59906998D01*
X144285023Y-59837500D01*
X144316546Y-59775145D01*
X144335842Y-59758425D01*
X144419404Y-59699914D01*
X144521401Y-59628495D01*
X144688495Y-59461401D01*
X144824035Y-59267830D01*
X144923903Y-59053663D01*
X144985063Y-58825408D01*
X144999914Y-58655660D01*
X145025366Y-58590592D01*
X145081957Y-58549613D01*
X145151719Y-58545735D01*
X145212503Y-58580189D01*
X145225488Y-58596022D01*
X145261317Y-58647929D01*
X145325567Y-58704849D01*
X145388650Y-58760736D01*
X145511882Y-58825413D01*
X145539275Y-58839790D01*
X145704444Y-58880500D01*
X145874556Y-58880500D01*
X146039725Y-58839790D01*
X146147875Y-58783027D01*
X146216381Y-58769302D01*
X146281435Y-58794794D01*
X146322380Y-58851409D01*
X146329500Y-58892824D01*
X146329500Y-130235500D01*
X146309815Y-130302539D01*
X146257011Y-130348294D01*
X146205500Y-130359500D01*
X90654500Y-130359500D01*
X90587461Y-130339815D01*
X90541706Y-130287011D01*
X90530500Y-130235500D01*
X90530500Y-129557954D01*
X90532126Y-126950000D01*
X93294341Y-126950000D01*
X93314936Y-127185403D01*
X93314938Y-127185413D01*
X93376094Y-127413655D01*
X93376096Y-127413659D01*
X93376097Y-127413663D01*
X93460499Y-127594663D01*
X93475965Y-127627830D01*
X93475967Y-127627834D01*
X93552757Y-127737500D01*
X93611505Y-127821401D01*
X93778599Y-127988495D01*
X93856597Y-128043110D01*
X93972165Y-128124032D01*
X93972167Y-128124033D01*
X93972170Y-128124035D01*
X94186337Y-128223903D01*
X94414592Y-128285063D01*
X94591034Y-128300500D01*
X94649999Y-128305659D01*
X94650000Y-128305659D01*
X94650001Y-128305659D01*
X94708966Y-128300500D01*
X94885408Y-128285063D01*
X95113663Y-128223903D01*
X95327830Y-128124035D01*
X95521401Y-127988495D01*
X95643329Y-127866566D01*
X95704648Y-127833084D01*
X95774340Y-127838068D01*
X95830274Y-127879939D01*
X95847189Y-127910917D01*
X95896202Y-128042328D01*
X95896206Y-128042335D01*
X95982452Y-128157544D01*
X95982455Y-128157547D01*
X96097664Y-128243793D01*
X96097671Y-128243797D01*
X96232517Y-128294091D01*
X96232516Y-128294091D01*
X96239444Y-128294835D01*
X96292127Y-128300500D01*
X98087872Y-128300499D01*
X98147483Y-128294091D01*
X98282331Y-128243796D01*
X98397546Y-128157546D01*
X98483796Y-128042331D01*
X98534091Y-127907483D01*
X98540500Y-127847873D01*
X98540499Y-126950000D01*
X104184341Y-126950000D01*
X104204936Y-127185403D01*
X104204938Y-127185413D01*
X104266094Y-127413655D01*
X104266096Y-127413659D01*
X104266097Y-127413663D01*
X104350499Y-127594663D01*
X104365965Y-127627830D01*
X104365967Y-127627834D01*
X104442757Y-127737500D01*
X104501505Y-127821401D01*
X104668599Y-127988495D01*
X104746597Y-128043110D01*
X104862165Y-128124032D01*
X104862167Y-128124033D01*
X104862170Y-128124035D01*
X105076337Y-128223903D01*
X105304592Y-128285063D01*
X105481034Y-128300500D01*
X105539999Y-128305659D01*
X105540000Y-128305659D01*
X105540001Y-128305659D01*
X105598966Y-128300500D01*
X105775408Y-128285063D01*
X106003663Y-128223903D01*
X106217830Y-128124035D01*
X106411401Y-127988495D01*
X106533329Y-127866566D01*
X106594648Y-127833084D01*
X106664340Y-127838068D01*
X106720274Y-127879939D01*
X106737189Y-127910917D01*
X106786202Y-128042328D01*
X106786206Y-128042335D01*
X106872452Y-128157544D01*
X106872455Y-128157547D01*
X106987664Y-128243793D01*
X106987671Y-128243797D01*
X107122517Y-128294091D01*
X107122516Y-128294091D01*
X107129444Y-128294835D01*
X107182127Y-128300500D01*
X108977872Y-128300499D01*
X109037483Y-128294091D01*
X109172331Y-128243796D01*
X109287546Y-128157546D01*
X109373796Y-128042331D01*
X109424091Y-127907483D01*
X109425982Y-127889898D01*
X113830000Y-127889898D01*
X113844965Y-128046622D01*
X113844966Y-128046626D01*
X113904149Y-128248186D01*
X114000413Y-128434914D01*
X114130268Y-128600037D01*
X114130271Y-128600040D01*
X114289030Y-128737605D01*
X114289041Y-128737614D01*
X114470960Y-128842644D01*
X114470967Y-128842647D01*
X114669487Y-128911356D01*
X114680000Y-128912867D01*
X114680000Y-128003610D01*
X114704457Y-128043110D01*
X114793962Y-128110701D01*
X114901840Y-128141395D01*
X115013521Y-128131046D01*
X115113922Y-128081052D01*
X115180000Y-128008569D01*
X115180000Y-128908757D01*
X115291409Y-128881729D01*
X115482507Y-128794459D01*
X115653619Y-128672610D01*
X115653625Y-128672604D01*
X115798592Y-128520567D01*
X115912166Y-128343842D01*
X115990244Y-128148814D01*
X116030000Y-127942537D01*
X116030000Y-127737500D01*
X115230000Y-127737500D01*
X115230000Y-127237500D01*
X116030000Y-127237500D01*
X116030000Y-127085101D01*
X116015034Y-126928377D01*
X116015033Y-126928373D01*
X115955850Y-126726813D01*
X115859586Y-126540085D01*
X115729731Y-126374962D01*
X115729728Y-126374959D01*
X115570969Y-126237394D01*
X115570958Y-126237385D01*
X115488528Y-126189795D01*
X115440312Y-126139228D01*
X115427089Y-126070621D01*
X115453057Y-126005756D01*
X115509971Y-125965228D01*
X115579762Y-125961903D01*
X115582621Y-125962633D01*
X115716462Y-125998495D01*
X115716472Y-125998497D01*
X115929999Y-126017179D01*
X115930001Y-126017179D01*
X116143527Y-125998497D01*
X116143537Y-125998495D01*
X116350567Y-125943022D01*
X116350581Y-125943017D01*
X116544835Y-125852435D01*
X116601620Y-125812673D01*
X115996252Y-125207304D01*
X116062969Y-125196738D01*
X116182923Y-125135618D01*
X116278118Y-125040423D01*
X116339238Y-124920469D01*
X116349804Y-124853751D01*
X116955173Y-125459119D01*
X116994935Y-125402335D01*
X117085517Y-125208081D01*
X117085522Y-125208067D01*
X117140995Y-125001037D01*
X117140997Y-125001027D01*
X117159679Y-124787500D01*
X119700321Y-124787500D01*
X119719002Y-125001027D01*
X119719004Y-125001037D01*
X119774477Y-125208067D01*
X119774481Y-125208076D01*
X119865067Y-125402339D01*
X119904825Y-125459120D01*
X120510195Y-124853750D01*
X120520762Y-124920469D01*
X120581882Y-125040423D01*
X120677077Y-125135618D01*
X120797031Y-125196738D01*
X120863747Y-125207304D01*
X120258378Y-125812673D01*
X120315160Y-125852433D01*
X120509423Y-125943018D01*
X120509432Y-125943022D01*
X120716462Y-125998495D01*
X120716472Y-125998497D01*
X120929999Y-126017179D01*
X120930001Y-126017179D01*
X121143527Y-125998497D01*
X121143534Y-125998496D01*
X121264643Y-125966045D01*
X121334493Y-125967708D01*
X121392356Y-126006870D01*
X121419860Y-126071099D01*
X121408274Y-126140001D01*
X121368665Y-126186827D01*
X121206376Y-126302393D01*
X121206374Y-126302395D01*
X121061407Y-126454432D01*
X120947833Y-126631157D01*
X120869755Y-126826185D01*
X120830000Y-127032462D01*
X120830000Y-127237500D01*
X121630000Y-127237500D01*
X121630000Y-127737500D01*
X120830000Y-127737500D01*
X120830000Y-127889898D01*
X120844965Y-128046622D01*
X120844966Y-128046626D01*
X120904149Y-128248186D01*
X121000413Y-128434914D01*
X121130268Y-128600037D01*
X121130271Y-128600040D01*
X121289030Y-128737605D01*
X121289041Y-128737614D01*
X121470960Y-128842644D01*
X121470967Y-128842647D01*
X121669487Y-128911356D01*
X121680000Y-128912867D01*
X121680000Y-128003610D01*
X121704457Y-128043110D01*
X121793962Y-128110701D01*
X121901840Y-128141395D01*
X122013521Y-128131046D01*
X122113922Y-128081052D01*
X122179998Y-128008570D01*
X122179999Y-128908757D01*
X122291409Y-128881729D01*
X122482507Y-128794459D01*
X122653619Y-128672610D01*
X122653625Y-128672604D01*
X122798592Y-128520567D01*
X122912166Y-128343842D01*
X122990244Y-128148814D01*
X123030000Y-127942537D01*
X123030000Y-127847870D01*
X127579500Y-127847870D01*
X127579501Y-127847876D01*
X127585908Y-127907483D01*
X127636202Y-128042328D01*
X127636206Y-128042335D01*
X127722452Y-128157544D01*
X127722455Y-128157547D01*
X127837664Y-128243793D01*
X127837671Y-128243797D01*
X127972517Y-128294091D01*
X127972516Y-128294091D01*
X127979444Y-128294835D01*
X128032127Y-128300500D01*
X129827872Y-128300499D01*
X129887483Y-128294091D01*
X130022331Y-128243796D01*
X130137546Y-128157546D01*
X130223796Y-128042331D01*
X130272810Y-127910916D01*
X130314681Y-127854984D01*
X130380145Y-127830566D01*
X130448418Y-127845417D01*
X130476672Y-127866569D01*
X130598599Y-127988495D01*
X130676597Y-128043110D01*
X130792165Y-128124032D01*
X130792167Y-128124033D01*
X130792170Y-128124035D01*
X131006337Y-128223903D01*
X131234592Y-128285063D01*
X131411034Y-128300500D01*
X131469999Y-128305659D01*
X131470000Y-128305659D01*
X131470001Y-128305659D01*
X131528966Y-128300500D01*
X131705408Y-128285063D01*
X131933663Y-128223903D01*
X132147830Y-128124035D01*
X132341401Y-127988495D01*
X132482026Y-127847870D01*
X138249500Y-127847870D01*
X138249501Y-127847876D01*
X138255908Y-127907483D01*
X138306202Y-128042328D01*
X138306206Y-128042335D01*
X138392452Y-128157544D01*
X138392455Y-128157547D01*
X138507664Y-128243793D01*
X138507671Y-128243797D01*
X138642517Y-128294091D01*
X138642516Y-128294091D01*
X138649444Y-128294835D01*
X138702127Y-128300500D01*
X140497872Y-128300499D01*
X140557483Y-128294091D01*
X140692331Y-128243796D01*
X140807546Y-128157546D01*
X140893796Y-128042331D01*
X140942810Y-127910916D01*
X140984681Y-127854984D01*
X141050145Y-127830566D01*
X141118418Y-127845417D01*
X141146673Y-127866569D01*
X141268599Y-127988495D01*
X141346597Y-128043110D01*
X141462165Y-128124032D01*
X141462167Y-128124033D01*
X141462170Y-128124035D01*
X141676337Y-128223903D01*
X141904592Y-128285063D01*
X142081034Y-128300500D01*
X142139999Y-128305659D01*
X142140000Y-128305659D01*
X142140001Y-128305659D01*
X142198966Y-128300500D01*
X142375408Y-128285063D01*
X142603663Y-128223903D01*
X142817830Y-128124035D01*
X143011401Y-127988495D01*
X143178495Y-127821401D01*
X143314035Y-127627830D01*
X143413903Y-127413663D01*
X143475063Y-127185408D01*
X143495659Y-126950000D01*
X143475063Y-126714592D01*
X143413903Y-126486337D01*
X143314035Y-126272171D01*
X143249874Y-126180538D01*
X143178494Y-126078597D01*
X143011402Y-125911506D01*
X143011395Y-125911501D01*
X142817834Y-125775967D01*
X142817830Y-125775965D01*
X142817828Y-125775964D01*
X142603663Y-125676097D01*
X142603659Y-125676096D01*
X142603655Y-125676094D01*
X142375413Y-125614938D01*
X142375403Y-125614936D01*
X142140001Y-125594341D01*
X142139999Y-125594341D01*
X141904596Y-125614936D01*
X141904586Y-125614938D01*
X141676344Y-125676094D01*
X141676335Y-125676098D01*
X141462171Y-125775964D01*
X141462169Y-125775965D01*
X141268600Y-125911503D01*
X141146673Y-126033430D01*
X141085350Y-126066914D01*
X141015658Y-126061930D01*
X140959725Y-126020058D01*
X140942810Y-125989081D01*
X140893797Y-125857671D01*
X140893793Y-125857664D01*
X140807547Y-125742455D01*
X140807544Y-125742452D01*
X140692335Y-125656206D01*
X140692328Y-125656202D01*
X140557482Y-125605908D01*
X140557483Y-125605908D01*
X140497883Y-125599501D01*
X140497881Y-125599500D01*
X140497873Y-125599500D01*
X140497864Y-125599500D01*
X138702129Y-125599500D01*
X138702123Y-125599501D01*
X138642516Y-125605908D01*
X138507671Y-125656202D01*
X138507664Y-125656206D01*
X138392455Y-125742452D01*
X138392452Y-125742455D01*
X138306206Y-125857664D01*
X138306202Y-125857671D01*
X138255908Y-125992517D01*
X138249501Y-126052116D01*
X138249501Y-126052123D01*
X138249500Y-126052135D01*
X138249500Y-127847870D01*
X132482026Y-127847870D01*
X132508495Y-127821401D01*
X132644035Y-127627830D01*
X132743903Y-127413663D01*
X132805063Y-127185408D01*
X132825659Y-126950000D01*
X132805063Y-126714592D01*
X132743903Y-126486337D01*
X132644035Y-126272171D01*
X132579874Y-126180538D01*
X132508494Y-126078597D01*
X132341402Y-125911506D01*
X132341395Y-125911501D01*
X132147834Y-125775967D01*
X132147830Y-125775965D01*
X132147830Y-125775964D01*
X131933663Y-125676097D01*
X131933659Y-125676096D01*
X131933655Y-125676094D01*
X131705413Y-125614938D01*
X131705403Y-125614936D01*
X131470001Y-125594341D01*
X131469999Y-125594341D01*
X131234596Y-125614936D01*
X131234586Y-125614938D01*
X131006344Y-125676094D01*
X131006335Y-125676098D01*
X130792171Y-125775964D01*
X130792169Y-125775965D01*
X130598600Y-125911503D01*
X130476673Y-126033430D01*
X130415350Y-126066914D01*
X130345658Y-126061930D01*
X130289725Y-126020058D01*
X130272810Y-125989081D01*
X130223797Y-125857671D01*
X130223793Y-125857664D01*
X130137547Y-125742455D01*
X130137544Y-125742452D01*
X130022335Y-125656206D01*
X130022328Y-125656202D01*
X129887482Y-125605908D01*
X129887483Y-125605908D01*
X129827883Y-125599501D01*
X129827881Y-125599500D01*
X129827873Y-125599500D01*
X129827864Y-125599500D01*
X128032129Y-125599500D01*
X128032123Y-125599501D01*
X127972516Y-125605908D01*
X127837671Y-125656202D01*
X127837664Y-125656206D01*
X127722455Y-125742452D01*
X127722452Y-125742455D01*
X127636206Y-125857664D01*
X127636202Y-125857671D01*
X127585908Y-125992517D01*
X127579501Y-126052116D01*
X127579501Y-126052123D01*
X127579500Y-126052135D01*
X127579500Y-127847870D01*
X123030000Y-127847870D01*
X123030000Y-127737500D01*
X122230000Y-127737500D01*
X122230000Y-127237500D01*
X123030000Y-127237500D01*
X123030000Y-127085101D01*
X123015034Y-126928377D01*
X123015033Y-126928373D01*
X122955850Y-126726813D01*
X122859586Y-126540085D01*
X122729731Y-126374962D01*
X122729728Y-126374959D01*
X122570969Y-126237394D01*
X122570958Y-126237385D01*
X122389039Y-126132355D01*
X122389032Y-126132352D01*
X122190517Y-126063644D01*
X122179999Y-126062132D01*
X122179999Y-126971387D01*
X122155543Y-126931890D01*
X122066038Y-126864299D01*
X121958160Y-126833605D01*
X121846479Y-126843954D01*
X121746078Y-126893948D01*
X121680000Y-126966430D01*
X121680000Y-126066240D01*
X121644821Y-126074775D01*
X121575030Y-126071450D01*
X121518116Y-126030921D01*
X121492148Y-125966057D01*
X121505372Y-125897450D01*
X121544463Y-125852696D01*
X121601620Y-125812673D01*
X120996252Y-125207304D01*
X121062969Y-125196738D01*
X121182923Y-125135618D01*
X121278118Y-125040423D01*
X121339238Y-124920469D01*
X121349804Y-124853751D01*
X121955173Y-125459119D01*
X121994935Y-125402335D01*
X122085517Y-125208081D01*
X122085522Y-125208067D01*
X122140995Y-125001037D01*
X122140997Y-125001027D01*
X122159679Y-124787500D01*
X122159679Y-124787499D01*
X122140997Y-124573972D01*
X122140995Y-124573962D01*
X122085522Y-124366932D01*
X122085518Y-124366923D01*
X121994933Y-124172662D01*
X121955173Y-124115878D01*
X121349804Y-124721247D01*
X121339238Y-124654531D01*
X121278118Y-124534577D01*
X121182923Y-124439382D01*
X121062969Y-124378262D01*
X120996251Y-124367695D01*
X121601620Y-123762325D01*
X121544839Y-123722567D01*
X121350576Y-123631981D01*
X121350567Y-123631977D01*
X121143537Y-123576504D01*
X121143527Y-123576502D01*
X120930001Y-123557821D01*
X120929999Y-123557821D01*
X120716472Y-123576502D01*
X120716462Y-123576504D01*
X120509432Y-123631977D01*
X120509423Y-123631981D01*
X120315158Y-123722568D01*
X120258378Y-123762324D01*
X120863748Y-124367694D01*
X120797031Y-124378262D01*
X120677077Y-124439382D01*
X120581882Y-124534577D01*
X120520762Y-124654531D01*
X120510195Y-124721249D01*
X119904824Y-124115878D01*
X119865068Y-124172658D01*
X119774481Y-124366923D01*
X119774477Y-124366932D01*
X119719004Y-124573962D01*
X119719002Y-124573972D01*
X119700321Y-124787499D01*
X119700321Y-124787500D01*
X117159679Y-124787500D01*
X117159679Y-124787499D01*
X117140997Y-124573972D01*
X117140995Y-124573962D01*
X117085522Y-124366932D01*
X117085518Y-124366923D01*
X116994933Y-124172662D01*
X116955173Y-124115878D01*
X116349804Y-124721247D01*
X116339238Y-124654531D01*
X116278118Y-124534577D01*
X116182923Y-124439382D01*
X116062969Y-124378262D01*
X115996251Y-124367695D01*
X116601620Y-123762325D01*
X116544839Y-123722567D01*
X116350576Y-123631981D01*
X116350567Y-123631977D01*
X116143537Y-123576504D01*
X116143527Y-123576502D01*
X115930001Y-123557821D01*
X115929999Y-123557821D01*
X115716472Y-123576502D01*
X115716462Y-123576504D01*
X115509432Y-123631977D01*
X115509423Y-123631981D01*
X115315158Y-123722568D01*
X115258378Y-123762324D01*
X115863748Y-124367694D01*
X115797031Y-124378262D01*
X115677077Y-124439382D01*
X115581882Y-124534577D01*
X115520762Y-124654531D01*
X115510195Y-124721249D01*
X114904824Y-124115878D01*
X114865068Y-124172658D01*
X114774481Y-124366923D01*
X114774477Y-124366932D01*
X114719004Y-124573962D01*
X114719002Y-124573972D01*
X114700321Y-124787499D01*
X114700321Y-124787500D01*
X114719002Y-125001027D01*
X114719004Y-125001037D01*
X114774477Y-125208067D01*
X114774481Y-125208076D01*
X114865067Y-125402339D01*
X114904825Y-125459120D01*
X115510195Y-124853750D01*
X115520762Y-124920469D01*
X115581882Y-125040423D01*
X115677077Y-125135618D01*
X115797031Y-125196738D01*
X115863747Y-125207304D01*
X115258378Y-125812673D01*
X115306528Y-125846388D01*
X115350153Y-125900965D01*
X115357345Y-125970464D01*
X115325823Y-126032818D01*
X115265593Y-126068232D01*
X115195778Y-126065461D01*
X115194850Y-126065144D01*
X115190519Y-126063645D01*
X115190515Y-126063644D01*
X115180000Y-126062132D01*
X115180000Y-126971389D01*
X115155543Y-126931890D01*
X115066038Y-126864299D01*
X114958160Y-126833605D01*
X114846479Y-126843954D01*
X114746078Y-126893948D01*
X114680000Y-126966430D01*
X114680000Y-126066240D01*
X114679999Y-126066240D01*
X114568594Y-126093268D01*
X114568582Y-126093272D01*
X114377497Y-126180537D01*
X114377496Y-126180538D01*
X114206380Y-126302389D01*
X114206374Y-126302395D01*
X114061407Y-126454432D01*
X113947833Y-126631157D01*
X113869755Y-126826185D01*
X113830000Y-127032462D01*
X113830000Y-127237500D01*
X114630000Y-127237500D01*
X114630000Y-127737500D01*
X113830000Y-127737500D01*
X113830000Y-127889898D01*
X109425982Y-127889898D01*
X109430500Y-127847873D01*
X109430499Y-126052128D01*
X109424091Y-125992517D01*
X109422810Y-125989083D01*
X109373797Y-125857671D01*
X109373793Y-125857664D01*
X109287547Y-125742455D01*
X109287544Y-125742452D01*
X109172335Y-125656206D01*
X109172328Y-125656202D01*
X109037482Y-125605908D01*
X109037483Y-125605908D01*
X108977883Y-125599501D01*
X108977881Y-125599500D01*
X108977873Y-125599500D01*
X108977864Y-125599500D01*
X107182129Y-125599500D01*
X107182123Y-125599501D01*
X107122516Y-125605908D01*
X106987671Y-125656202D01*
X106987664Y-125656206D01*
X106872455Y-125742452D01*
X106872452Y-125742455D01*
X106786206Y-125857664D01*
X106786203Y-125857669D01*
X106737189Y-125989083D01*
X106695317Y-126045016D01*
X106629853Y-126069433D01*
X106561580Y-126054581D01*
X106533326Y-126033430D01*
X106411402Y-125911506D01*
X106411395Y-125911501D01*
X106217834Y-125775967D01*
X106217830Y-125775965D01*
X106217828Y-125775964D01*
X106003663Y-125676097D01*
X106003659Y-125676096D01*
X106003655Y-125676094D01*
X105775413Y-125614938D01*
X105775403Y-125614936D01*
X105540001Y-125594341D01*
X105539999Y-125594341D01*
X105304596Y-125614936D01*
X105304586Y-125614938D01*
X105076344Y-125676094D01*
X105076335Y-125676098D01*
X104862171Y-125775964D01*
X104862169Y-125775965D01*
X104668597Y-125911505D01*
X104501505Y-126078597D01*
X104365965Y-126272169D01*
X104365964Y-126272171D01*
X104266098Y-126486335D01*
X104266094Y-126486344D01*
X104204938Y-126714586D01*
X104204936Y-126714596D01*
X104184341Y-126949999D01*
X104184341Y-126950000D01*
X98540499Y-126950000D01*
X98540499Y-126052128D01*
X98534091Y-125992517D01*
X98532810Y-125989083D01*
X98483797Y-125857671D01*
X98483793Y-125857664D01*
X98397547Y-125742455D01*
X98397544Y-125742452D01*
X98282335Y-125656206D01*
X98282328Y-125656202D01*
X98147482Y-125605908D01*
X98147483Y-125605908D01*
X98087883Y-125599501D01*
X98087881Y-125599500D01*
X98087873Y-125599500D01*
X98087864Y-125599500D01*
X96292129Y-125599500D01*
X96292123Y-125599501D01*
X96232516Y-125605908D01*
X96097671Y-125656202D01*
X96097664Y-125656206D01*
X95982455Y-125742452D01*
X95982452Y-125742455D01*
X95896206Y-125857664D01*
X95896203Y-125857669D01*
X95847189Y-125989083D01*
X95805317Y-126045016D01*
X95739853Y-126069433D01*
X95671580Y-126054581D01*
X95643326Y-126033430D01*
X95521402Y-125911506D01*
X95521395Y-125911501D01*
X95327834Y-125775967D01*
X95327830Y-125775965D01*
X95327828Y-125775964D01*
X95113663Y-125676097D01*
X95113659Y-125676096D01*
X95113655Y-125676094D01*
X94885413Y-125614938D01*
X94885403Y-125614936D01*
X94650001Y-125594341D01*
X94649999Y-125594341D01*
X94414596Y-125614936D01*
X94414586Y-125614938D01*
X94186344Y-125676094D01*
X94186335Y-125676098D01*
X93972171Y-125775964D01*
X93972169Y-125775965D01*
X93778597Y-125911505D01*
X93611505Y-126078597D01*
X93475965Y-126272169D01*
X93475964Y-126272171D01*
X93376098Y-126486335D01*
X93376094Y-126486344D01*
X93314938Y-126714586D01*
X93314936Y-126714596D01*
X93294341Y-126949999D01*
X93294341Y-126950000D01*
X90532126Y-126950000D01*
X90536670Y-119659789D01*
X90537081Y-119000000D01*
X124684355Y-119000000D01*
X124704859Y-119168869D01*
X124704860Y-119168874D01*
X124765182Y-119327931D01*
X124813498Y-119397927D01*
X124861817Y-119467929D01*
X124967505Y-119561560D01*
X124989150Y-119580736D01*
X125139773Y-119659789D01*
X125139775Y-119659790D01*
X125304944Y-119700500D01*
X125475056Y-119700500D01*
X125640225Y-119659790D01*
X125771855Y-119590704D01*
X125829482Y-119576500D01*
X128173890Y-119576500D01*
X128222276Y-119588425D01*
X128222767Y-119587132D01*
X128229774Y-119589790D01*
X128394944Y-119630500D01*
X128565056Y-119630500D01*
X128730225Y-119589790D01*
X128809692Y-119548081D01*
X128880849Y-119510736D01*
X128880850Y-119510734D01*
X128880852Y-119510734D01*
X129008183Y-119397929D01*
X129104818Y-119257930D01*
X129165140Y-119098872D01*
X129185645Y-118930000D01*
X129165140Y-118761128D01*
X129104818Y-118602070D01*
X129008183Y-118462071D01*
X128880852Y-118349266D01*
X128880849Y-118349263D01*
X128730226Y-118270210D01*
X128565056Y-118229500D01*
X128394944Y-118229500D01*
X128229773Y-118270210D01*
X128079150Y-118349263D01*
X128030555Y-118392316D01*
X127967322Y-118422037D01*
X127948328Y-118423500D01*
X125829482Y-118423500D01*
X125771856Y-118409296D01*
X125640226Y-118340210D01*
X125475056Y-118299500D01*
X125304944Y-118299500D01*
X125139773Y-118340210D01*
X124989150Y-118419263D01*
X124861816Y-118532072D01*
X124765182Y-118672068D01*
X124704860Y-118831125D01*
X124704859Y-118831130D01*
X124684355Y-119000000D01*
X90537081Y-119000000D01*
X90540335Y-113779999D01*
X126494355Y-113779999D01*
X126514859Y-113948869D01*
X126514860Y-113948874D01*
X126575182Y-114107931D01*
X126634997Y-114194586D01*
X126671817Y-114247929D01*
X126777505Y-114341560D01*
X126799150Y-114360736D01*
X126931120Y-114429999D01*
X126949775Y-114439790D01*
X127114944Y-114480500D01*
X127285056Y-114480500D01*
X127450225Y-114439790D01*
X127468878Y-114430000D01*
X141214341Y-114430000D01*
X141234936Y-114665403D01*
X141234938Y-114665413D01*
X141296094Y-114893655D01*
X141296096Y-114893659D01*
X141296097Y-114893663D01*
X141395964Y-115107830D01*
X141395965Y-115107830D01*
X141395967Y-115107834D01*
X141504281Y-115262521D01*
X141531501Y-115301396D01*
X141531506Y-115301402D01*
X141653430Y-115423326D01*
X141686915Y-115484649D01*
X141681931Y-115554341D01*
X141640059Y-115610274D01*
X141609083Y-115627189D01*
X141477669Y-115676203D01*
X141477664Y-115676206D01*
X141362455Y-115762452D01*
X141362452Y-115762455D01*
X141276206Y-115877664D01*
X141276202Y-115877671D01*
X141225908Y-116012517D01*
X141219501Y-116072116D01*
X141219501Y-116072123D01*
X141219500Y-116072135D01*
X141219500Y-117867870D01*
X141219501Y-117867876D01*
X141225908Y-117927483D01*
X141276202Y-118062328D01*
X141276206Y-118062335D01*
X141362452Y-118177544D01*
X141362455Y-118177547D01*
X141477664Y-118263793D01*
X141477671Y-118263797D01*
X141612517Y-118314091D01*
X141612516Y-118314091D01*
X141619444Y-118314835D01*
X141672127Y-118320500D01*
X143467872Y-118320499D01*
X143527483Y-118314091D01*
X143662331Y-118263796D01*
X143777546Y-118177546D01*
X143863796Y-118062331D01*
X143914091Y-117927483D01*
X143920500Y-117867873D01*
X143920499Y-116072128D01*
X143914091Y-116012517D01*
X143863796Y-115877669D01*
X143863795Y-115877668D01*
X143863793Y-115877664D01*
X143777547Y-115762455D01*
X143777544Y-115762452D01*
X143662335Y-115676206D01*
X143662328Y-115676202D01*
X143530917Y-115627189D01*
X143474983Y-115585318D01*
X143450566Y-115519853D01*
X143465418Y-115451580D01*
X143486563Y-115423332D01*
X143608495Y-115301401D01*
X143744035Y-115107830D01*
X143843903Y-114893663D01*
X143905063Y-114665408D01*
X143925659Y-114430000D01*
X143905063Y-114194592D01*
X143843903Y-113966337D01*
X143744035Y-113752171D01*
X143645278Y-113611130D01*
X143608494Y-113558597D01*
X143441402Y-113391506D01*
X143441396Y-113391501D01*
X143255842Y-113261575D01*
X143212217Y-113206998D01*
X143205023Y-113137500D01*
X143236546Y-113075145D01*
X143255842Y-113058425D01*
X143278026Y-113042891D01*
X143441401Y-112928495D01*
X143608495Y-112761401D01*
X143744035Y-112567830D01*
X143843903Y-112353663D01*
X143905063Y-112125408D01*
X143925659Y-111890000D01*
X143905063Y-111654592D01*
X143843903Y-111426337D01*
X143744035Y-111212171D01*
X143608495Y-111018599D01*
X143608494Y-111018597D01*
X143441402Y-110851506D01*
X143441401Y-110851505D01*
X143255405Y-110721269D01*
X143211781Y-110666692D01*
X143204588Y-110597193D01*
X143236110Y-110534839D01*
X143255405Y-110518119D01*
X143441082Y-110388105D01*
X143608105Y-110221082D01*
X143743600Y-110027578D01*
X143843429Y-109813492D01*
X143843432Y-109813486D01*
X143900636Y-109600000D01*
X143003686Y-109600000D01*
X143029493Y-109559844D01*
X143070000Y-109421889D01*
X143070000Y-109278111D01*
X143029493Y-109140156D01*
X143003686Y-109100000D01*
X143900636Y-109100000D01*
X143900635Y-109099999D01*
X143843432Y-108886513D01*
X143843429Y-108886507D01*
X143743600Y-108672422D01*
X143743599Y-108672420D01*
X143608113Y-108478926D01*
X143608108Y-108478920D01*
X143441082Y-108311894D01*
X143247578Y-108176399D01*
X143033492Y-108076570D01*
X143033486Y-108076567D01*
X142820000Y-108019364D01*
X142820000Y-108914498D01*
X142712315Y-108865320D01*
X142605763Y-108850000D01*
X142534237Y-108850000D01*
X142427685Y-108865320D01*
X142320000Y-108914498D01*
X142320000Y-108019364D01*
X142319999Y-108019364D01*
X142106513Y-108076567D01*
X142106507Y-108076570D01*
X141892422Y-108176399D01*
X141892420Y-108176400D01*
X141698926Y-108311886D01*
X141698920Y-108311891D01*
X141531891Y-108478920D01*
X141531886Y-108478926D01*
X141396400Y-108672420D01*
X141396399Y-108672422D01*
X141296570Y-108886507D01*
X141296567Y-108886513D01*
X141239364Y-109099999D01*
X141239364Y-109100000D01*
X142136314Y-109100000D01*
X142110507Y-109140156D01*
X142070000Y-109278111D01*
X142070000Y-109421889D01*
X142110507Y-109559844D01*
X142136314Y-109600000D01*
X141239364Y-109600000D01*
X141296567Y-109813486D01*
X141296570Y-109813492D01*
X141396399Y-110027578D01*
X141531894Y-110221082D01*
X141698917Y-110388105D01*
X141884595Y-110518119D01*
X141928219Y-110572696D01*
X141935412Y-110642195D01*
X141903890Y-110704549D01*
X141884595Y-110721269D01*
X141698594Y-110851508D01*
X141531505Y-111018597D01*
X141395965Y-111212169D01*
X141395964Y-111212171D01*
X141296098Y-111426335D01*
X141296094Y-111426344D01*
X141234938Y-111654586D01*
X141234936Y-111654596D01*
X141214341Y-111889999D01*
X141214341Y-111890000D01*
X141234936Y-112125403D01*
X141234938Y-112125413D01*
X141296094Y-112353655D01*
X141296096Y-112353659D01*
X141296097Y-112353663D01*
X141384956Y-112544222D01*
X141395965Y-112567830D01*
X141395967Y-112567834D01*
X141531501Y-112761395D01*
X141531506Y-112761402D01*
X141698597Y-112928493D01*
X141698603Y-112928498D01*
X141884158Y-113058425D01*
X141927783Y-113113002D01*
X141934977Y-113182500D01*
X141903454Y-113244855D01*
X141884158Y-113261575D01*
X141698597Y-113391505D01*
X141531505Y-113558597D01*
X141395965Y-113752169D01*
X141395964Y-113752171D01*
X141296098Y-113966335D01*
X141296094Y-113966344D01*
X141234938Y-114194586D01*
X141234936Y-114194596D01*
X141214341Y-114429999D01*
X141214341Y-114430000D01*
X127468878Y-114430000D01*
X127529692Y-114398081D01*
X127600849Y-114360736D01*
X127600850Y-114360734D01*
X127600852Y-114360734D01*
X127728183Y-114247929D01*
X127824818Y-114107930D01*
X127885140Y-113948872D01*
X127905645Y-113780000D01*
X127885140Y-113611128D01*
X127843205Y-113500552D01*
X127835147Y-113456582D01*
X127835147Y-113137500D01*
X127835147Y-112777149D01*
X127854830Y-112710114D01*
X127857057Y-112706770D01*
X127859465Y-112703283D01*
X127919787Y-112544225D01*
X127940292Y-112375353D01*
X127919787Y-112206481D01*
X127859465Y-112047423D01*
X127762830Y-111907424D01*
X127635499Y-111794619D01*
X127635496Y-111794616D01*
X127484873Y-111715563D01*
X127319703Y-111674853D01*
X127149591Y-111674853D01*
X126984420Y-111715563D01*
X126833797Y-111794616D01*
X126706463Y-111907425D01*
X126609829Y-112047421D01*
X126549507Y-112206478D01*
X126549506Y-112206483D01*
X126529002Y-112375352D01*
X126549506Y-112544222D01*
X126549507Y-112544227D01*
X126609828Y-112703280D01*
X126609829Y-112703283D01*
X126612196Y-112706713D01*
X126613156Y-112709622D01*
X126613315Y-112709925D01*
X126613264Y-112709951D01*
X126634080Y-112773066D01*
X126634147Y-112777153D01*
X126634147Y-113328004D01*
X126614462Y-113395043D01*
X126612197Y-113398444D01*
X126575183Y-113452068D01*
X126575182Y-113452068D01*
X126514860Y-113611125D01*
X126514859Y-113611130D01*
X126494355Y-113779999D01*
X90540335Y-113779999D01*
X90545029Y-106250005D01*
X128484858Y-106250005D01*
X128505385Y-106497729D01*
X128505387Y-106497738D01*
X128566412Y-106738717D01*
X128666266Y-106966364D01*
X128766564Y-107119882D01*
X129506923Y-106379523D01*
X129530507Y-106459844D01*
X129608239Y-106580798D01*
X129716900Y-106674952D01*
X129847685Y-106734680D01*
X129857466Y-106736086D01*
X129119942Y-107473609D01*
X129166768Y-107510055D01*
X129166770Y-107510056D01*
X129385385Y-107628364D01*
X129385396Y-107628369D01*
X129620506Y-107709083D01*
X129865707Y-107750000D01*
X130114293Y-107750000D01*
X130359493Y-107709083D01*
X130594603Y-107628369D01*
X130594614Y-107628364D01*
X130813228Y-107510057D01*
X130813231Y-107510055D01*
X130860056Y-107473609D01*
X130122533Y-106736086D01*
X130132315Y-106734680D01*
X130263100Y-106674952D01*
X130371761Y-106580798D01*
X130449493Y-106459844D01*
X130473076Y-106379524D01*
X131213434Y-107119882D01*
X131313731Y-106966369D01*
X131413587Y-106738717D01*
X131474612Y-106497738D01*
X131474614Y-106497729D01*
X131495141Y-106250005D01*
X131495141Y-106249994D01*
X131474614Y-106002270D01*
X131474612Y-106002261D01*
X131413587Y-105761282D01*
X131313731Y-105533630D01*
X131213434Y-105380116D01*
X130473076Y-106120475D01*
X130449493Y-106040156D01*
X130371761Y-105919202D01*
X130263100Y-105825048D01*
X130132315Y-105765320D01*
X130122534Y-105763913D01*
X130860057Y-105026390D01*
X130860056Y-105026389D01*
X130813229Y-104989943D01*
X130594614Y-104871635D01*
X130594603Y-104871630D01*
X130359493Y-104790916D01*
X130114293Y-104750000D01*
X129865707Y-104750000D01*
X129620506Y-104790916D01*
X129385396Y-104871630D01*
X129385390Y-104871632D01*
X129166761Y-104989949D01*
X129119942Y-105026388D01*
X129119942Y-105026390D01*
X129857466Y-105763913D01*
X129847685Y-105765320D01*
X129716900Y-105825048D01*
X129608239Y-105919202D01*
X129530507Y-106040156D01*
X129506923Y-106120475D01*
X128766564Y-105380116D01*
X128666267Y-105533632D01*
X128566412Y-105761282D01*
X128505387Y-106002261D01*
X128505385Y-106002270D01*
X128484858Y-106249994D01*
X128484858Y-106250005D01*
X90545029Y-106250005D01*
X90547691Y-101979999D01*
X104384355Y-101979999D01*
X104404859Y-102148869D01*
X104404860Y-102148874D01*
X104465182Y-102307931D01*
X104527475Y-102398177D01*
X104561817Y-102447929D01*
X104666308Y-102540500D01*
X104689150Y-102560736D01*
X104839773Y-102639789D01*
X104839775Y-102639790D01*
X105004944Y-102680500D01*
X105175056Y-102680500D01*
X105340225Y-102639790D01*
X105490852Y-102560734D01*
X105591369Y-102471683D01*
X105654602Y-102441963D01*
X105673596Y-102440500D01*
X109776246Y-102440500D01*
X109833871Y-102454703D01*
X109919775Y-102499790D01*
X110084944Y-102540500D01*
X110255056Y-102540500D01*
X110420225Y-102499790D01*
X110517953Y-102448498D01*
X110570849Y-102420736D01*
X110570850Y-102420734D01*
X110570852Y-102420734D01*
X110698183Y-102307929D01*
X110794818Y-102167930D01*
X110855140Y-102008872D01*
X110875645Y-101840000D01*
X110855140Y-101671128D01*
X110794818Y-101512070D01*
X110698183Y-101372071D01*
X110593692Y-101279500D01*
X110570849Y-101259263D01*
X110420226Y-101180210D01*
X110255056Y-101139500D01*
X110084944Y-101139500D01*
X109919775Y-101180209D01*
X109862171Y-101210443D01*
X109833871Y-101225296D01*
X109776246Y-101239500D01*
X105273428Y-101239500D01*
X105265329Y-101238969D01*
X105230000Y-101234318D01*
X105190639Y-101239500D01*
X105073239Y-101254955D01*
X105073237Y-101254956D01*
X105033400Y-101271457D01*
X105012067Y-101277059D01*
X105012227Y-101277705D01*
X104839773Y-101320210D01*
X104689150Y-101399263D01*
X104572638Y-101502484D01*
X104561821Y-101512068D01*
X104561816Y-101512072D01*
X104465182Y-101652068D01*
X104404860Y-101811125D01*
X104404859Y-101811130D01*
X104384355Y-101979999D01*
X90547691Y-101979999D01*
X90549114Y-99697870D01*
X128489500Y-99697870D01*
X128489501Y-99697876D01*
X128495908Y-99757483D01*
X128546202Y-99892328D01*
X128546206Y-99892335D01*
X128632452Y-100007544D01*
X128632455Y-100007547D01*
X128747664Y-100093793D01*
X128747671Y-100093797D01*
X128882517Y-100144091D01*
X128882516Y-100144091D01*
X128889444Y-100144835D01*
X128942127Y-100150500D01*
X131037872Y-100150499D01*
X131097483Y-100144091D01*
X131232331Y-100093796D01*
X131347546Y-100007546D01*
X131433796Y-99892331D01*
X131468234Y-99799999D01*
X139594355Y-99799999D01*
X139614859Y-99968869D01*
X139614860Y-99968874D01*
X139675182Y-100127931D01*
X139690760Y-100150499D01*
X139771817Y-100267929D01*
X139877505Y-100361560D01*
X139899150Y-100380736D01*
X140049773Y-100459789D01*
X140049775Y-100459790D01*
X140214944Y-100500500D01*
X140385056Y-100500500D01*
X140550225Y-100459790D01*
X140636128Y-100414703D01*
X140693754Y-100400500D01*
X141580001Y-100400500D01*
X141647040Y-100420185D01*
X141692795Y-100472989D01*
X141702739Y-100542147D01*
X141681576Y-100595623D01*
X141585965Y-100732169D01*
X141585964Y-100732171D01*
X141486098Y-100946335D01*
X141486094Y-100946344D01*
X141424938Y-101174586D01*
X141424936Y-101174596D01*
X141404341Y-101409999D01*
X141404341Y-101410000D01*
X141424936Y-101645403D01*
X141424938Y-101645413D01*
X141486094Y-101873655D01*
X141486096Y-101873659D01*
X141486097Y-101873663D01*
X141535683Y-101980000D01*
X141585965Y-102087830D01*
X141585967Y-102087834D01*
X141642052Y-102167931D01*
X141721505Y-102281401D01*
X141888599Y-102448495D01*
X141961856Y-102499790D01*
X142082165Y-102584032D01*
X142082167Y-102584033D01*
X142082170Y-102584035D01*
X142296337Y-102683903D01*
X142524592Y-102745063D01*
X142712918Y-102761539D01*
X142759999Y-102765659D01*
X142760000Y-102765659D01*
X142760001Y-102765659D01*
X142799234Y-102762226D01*
X142995408Y-102745063D01*
X143223663Y-102683903D01*
X143437830Y-102584035D01*
X143631401Y-102448495D01*
X143798495Y-102281401D01*
X143934035Y-102087830D01*
X144033903Y-101873663D01*
X144095063Y-101645408D01*
X144115659Y-101410000D01*
X144095063Y-101174592D01*
X144033903Y-100946337D01*
X143934035Y-100732171D01*
X143838424Y-100595623D01*
X143798494Y-100538597D01*
X143631402Y-100371506D01*
X143631396Y-100371501D01*
X143445842Y-100241575D01*
X143402217Y-100186998D01*
X143395023Y-100117500D01*
X143426546Y-100055145D01*
X143445842Y-100038425D01*
X143489942Y-100007546D01*
X143631401Y-99908495D01*
X143798495Y-99741401D01*
X143934035Y-99547830D01*
X144033903Y-99333663D01*
X144095063Y-99105408D01*
X144115659Y-98870000D01*
X144095063Y-98634592D01*
X144033903Y-98406337D01*
X143934035Y-98192171D01*
X143798495Y-97998599D01*
X143798494Y-97998597D01*
X143631402Y-97831506D01*
X143631396Y-97831501D01*
X143445842Y-97701575D01*
X143402217Y-97646998D01*
X143395023Y-97577500D01*
X143426546Y-97515145D01*
X143445842Y-97498425D01*
X143468026Y-97482891D01*
X143631401Y-97368495D01*
X143798495Y-97201401D01*
X143934035Y-97007830D01*
X144033903Y-96793663D01*
X144095063Y-96565408D01*
X144115659Y-96330000D01*
X144095063Y-96094592D01*
X144033903Y-95866337D01*
X143934035Y-95652171D01*
X143842469Y-95521401D01*
X143798496Y-95458600D01*
X143750396Y-95410500D01*
X143676567Y-95336671D01*
X143643084Y-95275351D01*
X143648068Y-95205659D01*
X143689939Y-95149725D01*
X143720915Y-95132810D01*
X143852331Y-95083796D01*
X143967546Y-94997546D01*
X144053796Y-94882331D01*
X144104091Y-94747483D01*
X144110500Y-94687873D01*
X144110499Y-92892128D01*
X144104091Y-92832517D01*
X144072221Y-92747070D01*
X144053797Y-92697671D01*
X144053793Y-92697664D01*
X143967547Y-92582455D01*
X143967544Y-92582452D01*
X143852335Y-92496206D01*
X143852328Y-92496202D01*
X143717482Y-92445908D01*
X143717483Y-92445908D01*
X143657883Y-92439501D01*
X143657881Y-92439500D01*
X143657873Y-92439500D01*
X143657864Y-92439500D01*
X141862129Y-92439500D01*
X141862123Y-92439501D01*
X141802516Y-92445908D01*
X141667671Y-92496202D01*
X141667664Y-92496206D01*
X141552455Y-92582452D01*
X141552452Y-92582455D01*
X141466206Y-92697664D01*
X141466202Y-92697671D01*
X141415908Y-92832517D01*
X141409501Y-92892116D01*
X141409501Y-92892123D01*
X141409500Y-92892135D01*
X141409500Y-94687870D01*
X141409501Y-94687876D01*
X141415908Y-94747483D01*
X141466202Y-94882328D01*
X141466206Y-94882335D01*
X141552452Y-94997544D01*
X141552455Y-94997547D01*
X141667664Y-95083793D01*
X141667671Y-95083797D01*
X141799081Y-95132810D01*
X141855015Y-95174681D01*
X141879432Y-95240145D01*
X141864580Y-95308418D01*
X141843430Y-95336673D01*
X141721503Y-95458600D01*
X141585965Y-95652169D01*
X141585964Y-95652171D01*
X141486098Y-95866335D01*
X141486094Y-95866344D01*
X141424938Y-96094586D01*
X141424936Y-96094596D01*
X141404341Y-96329999D01*
X141404341Y-96330000D01*
X141424936Y-96565403D01*
X141424938Y-96565413D01*
X141486094Y-96793655D01*
X141486096Y-96793659D01*
X141486097Y-96793663D01*
X141585964Y-97007830D01*
X141585965Y-97007830D01*
X141585967Y-97007834D01*
X141721501Y-97201395D01*
X141721506Y-97201402D01*
X141888597Y-97368493D01*
X141888603Y-97368498D01*
X142074158Y-97498425D01*
X142117783Y-97553002D01*
X142124977Y-97622500D01*
X142093454Y-97684855D01*
X142074158Y-97701575D01*
X141888597Y-97831505D01*
X141721505Y-97998597D01*
X141585965Y-98192169D01*
X141585964Y-98192171D01*
X141486098Y-98406335D01*
X141486094Y-98406344D01*
X141424938Y-98634586D01*
X141424936Y-98634596D01*
X141404341Y-98869999D01*
X141404341Y-98870000D01*
X141421375Y-99064692D01*
X141407609Y-99133192D01*
X141358994Y-99183375D01*
X141297847Y-99199500D01*
X140693754Y-99199500D01*
X140636128Y-99185296D01*
X140592459Y-99162376D01*
X140550224Y-99140209D01*
X140385056Y-99099500D01*
X140214944Y-99099500D01*
X140049773Y-99140210D01*
X139899150Y-99219263D01*
X139771816Y-99332072D01*
X139675182Y-99472068D01*
X139614860Y-99631125D01*
X139614859Y-99631130D01*
X139594355Y-99799999D01*
X131468234Y-99799999D01*
X131484091Y-99757483D01*
X131490500Y-99697873D01*
X131490499Y-97602128D01*
X131484091Y-97542517D01*
X131433796Y-97407669D01*
X131433795Y-97407668D01*
X131433793Y-97407664D01*
X131347547Y-97292455D01*
X131347544Y-97292452D01*
X131232335Y-97206206D01*
X131232328Y-97206202D01*
X131097482Y-97155908D01*
X131097483Y-97155908D01*
X131037883Y-97149501D01*
X131037881Y-97149500D01*
X131037873Y-97149500D01*
X131037864Y-97149500D01*
X128942129Y-97149500D01*
X128942123Y-97149501D01*
X128882516Y-97155908D01*
X128747671Y-97206202D01*
X128747664Y-97206206D01*
X128632455Y-97292452D01*
X128632452Y-97292455D01*
X128546206Y-97407664D01*
X128546202Y-97407671D01*
X128495908Y-97542517D01*
X128489501Y-97602116D01*
X128489501Y-97602123D01*
X128489500Y-97602135D01*
X128489500Y-99697870D01*
X90549114Y-99697870D01*
X90558905Y-83990000D01*
X92474341Y-83990000D01*
X92494936Y-84225403D01*
X92494938Y-84225413D01*
X92556094Y-84453655D01*
X92556096Y-84453659D01*
X92556097Y-84453663D01*
X92641239Y-84636250D01*
X92655965Y-84667830D01*
X92655967Y-84667834D01*
X92707091Y-84740846D01*
X92791505Y-84861401D01*
X92958599Y-85028495D01*
X93055384Y-85096265D01*
X93152165Y-85164032D01*
X93152167Y-85164033D01*
X93152170Y-85164035D01*
X93366337Y-85263903D01*
X93594592Y-85325063D01*
X93782918Y-85341539D01*
X93829999Y-85345659D01*
X93830000Y-85345659D01*
X93830001Y-85345659D01*
X93869234Y-85342226D01*
X94065408Y-85325063D01*
X94293663Y-85263903D01*
X94507830Y-85164035D01*
X94701401Y-85028495D01*
X94868495Y-84861401D01*
X95004035Y-84667830D01*
X95018761Y-84636250D01*
X104404341Y-84636250D01*
X104424936Y-84871653D01*
X104424938Y-84871663D01*
X104486094Y-85099905D01*
X104486096Y-85099909D01*
X104486097Y-85099913D01*
X104538205Y-85211658D01*
X104585965Y-85314080D01*
X104585967Y-85314084D01*
X104674069Y-85439905D01*
X104721505Y-85507651D01*
X104888599Y-85674745D01*
X104961582Y-85725848D01*
X105082165Y-85810282D01*
X105082167Y-85810283D01*
X105082170Y-85810285D01*
X105296337Y-85910153D01*
X105524592Y-85971313D01*
X105712918Y-85987789D01*
X105759999Y-85991909D01*
X105760000Y-85991909D01*
X105760001Y-85991909D01*
X105799234Y-85988476D01*
X105995408Y-85971313D01*
X106223663Y-85910153D01*
X106437830Y-85810285D01*
X106631401Y-85674745D01*
X106798495Y-85507651D01*
X106934035Y-85314080D01*
X106960607Y-85257095D01*
X107006779Y-85204656D01*
X107072989Y-85185500D01*
X115269548Y-85185500D01*
X115336587Y-85205185D01*
X115357229Y-85221819D01*
X116591038Y-86455629D01*
X116624523Y-86516952D01*
X116626678Y-86530348D01*
X116627740Y-86540451D01*
X116644326Y-86698256D01*
X116644327Y-86698259D01*
X116702818Y-86878277D01*
X116702821Y-86878284D01*
X116797467Y-87042216D01*
X116924128Y-87182888D01*
X116924129Y-87182888D01*
X117077265Y-87294148D01*
X117077270Y-87294151D01*
X117250192Y-87371142D01*
X117250197Y-87371144D01*
X117435354Y-87410500D01*
X117435355Y-87410500D01*
X117440902Y-87410500D01*
X117507941Y-87430185D01*
X117553696Y-87482989D01*
X117563640Y-87552147D01*
X117534615Y-87615703D01*
X117528583Y-87622181D01*
X112802776Y-92347988D01*
X112744770Y-92380704D01*
X112604773Y-92415210D01*
X112454150Y-92494263D01*
X112326816Y-92607072D01*
X112230182Y-92747068D01*
X112169860Y-92906125D01*
X112169859Y-92906130D01*
X112149355Y-93075000D01*
X112169859Y-93243869D01*
X112169860Y-93243874D01*
X112230182Y-93402931D01*
X112280595Y-93475965D01*
X112326817Y-93542929D01*
X112432505Y-93636560D01*
X112454150Y-93655736D01*
X112604773Y-93734789D01*
X112604775Y-93734790D01*
X112769944Y-93775500D01*
X112940056Y-93775500D01*
X113105225Y-93734790D01*
X113184692Y-93693081D01*
X113255849Y-93655736D01*
X113255850Y-93655734D01*
X113255852Y-93655734D01*
X113383183Y-93542929D01*
X113479818Y-93402930D01*
X113490853Y-93373829D01*
X113519113Y-93330120D01*
X128856165Y-77993069D01*
X128917489Y-77959584D01*
X128943847Y-77956750D01*
X130270909Y-77956750D01*
X130337948Y-77976435D01*
X130383292Y-78028347D01*
X130385965Y-78034080D01*
X130521501Y-78227645D01*
X130521506Y-78227652D01*
X130688597Y-78394743D01*
X130688603Y-78394748D01*
X130874158Y-78524675D01*
X130917783Y-78579252D01*
X130924977Y-78648750D01*
X130893454Y-78711105D01*
X130874158Y-78727825D01*
X130688597Y-78857755D01*
X130521506Y-79024846D01*
X130385965Y-79218420D01*
X130385962Y-79218425D01*
X130383289Y-79224159D01*
X130337115Y-79276596D01*
X130270909Y-79295750D01*
X129247178Y-79295750D01*
X129239079Y-79295219D01*
X129203750Y-79290568D01*
X129164389Y-79295750D01*
X129046989Y-79311205D01*
X129046987Y-79311206D01*
X128900907Y-79371714D01*
X128775469Y-79467966D01*
X128753769Y-79496244D01*
X128748418Y-79502346D01*
X114271047Y-93979717D01*
X114213041Y-94012433D01*
X114059773Y-94050210D01*
X113909150Y-94129263D01*
X113781816Y-94242072D01*
X113685182Y-94382068D01*
X113624860Y-94541125D01*
X113624859Y-94541130D01*
X113604355Y-94709999D01*
X113624859Y-94878869D01*
X113624860Y-94878874D01*
X113685182Y-95037931D01*
X113737457Y-95113663D01*
X113781817Y-95177929D01*
X113852045Y-95240145D01*
X113909150Y-95290736D01*
X113996678Y-95336674D01*
X114059775Y-95369790D01*
X114224944Y-95410500D01*
X114395056Y-95410500D01*
X114560225Y-95369790D01*
X114640172Y-95327830D01*
X114710849Y-95290736D01*
X114710850Y-95290734D01*
X114710852Y-95290734D01*
X114838183Y-95177929D01*
X114934818Y-95037930D01*
X114939744Y-95024940D01*
X114968004Y-94981229D01*
X129416165Y-80533069D01*
X129477489Y-80499584D01*
X129503847Y-80496750D01*
X130270909Y-80496750D01*
X130337948Y-80516435D01*
X130383292Y-80568347D01*
X130385965Y-80574080D01*
X130521501Y-80767645D01*
X130521506Y-80767652D01*
X130688597Y-80934743D01*
X130688603Y-80934748D01*
X130874158Y-81064675D01*
X130917783Y-81119252D01*
X130924977Y-81188750D01*
X130893454Y-81251105D01*
X130874158Y-81267825D01*
X130688597Y-81397755D01*
X130521506Y-81564846D01*
X130385965Y-81758420D01*
X130385962Y-81758425D01*
X130383289Y-81764159D01*
X130337115Y-81816596D01*
X130270909Y-81835750D01*
X129007178Y-81835750D01*
X128999079Y-81835219D01*
X128963750Y-81830568D01*
X128963749Y-81830568D01*
X128806989Y-81851205D01*
X128806984Y-81851207D01*
X128660913Y-81911711D01*
X128660908Y-81911714D01*
X128581577Y-81972587D01*
X128535467Y-82007968D01*
X128513773Y-82036239D01*
X128508421Y-82042342D01*
X114512669Y-96038094D01*
X114482616Y-96060209D01*
X114389146Y-96109267D01*
X114261816Y-96222072D01*
X114165182Y-96362068D01*
X114104860Y-96521125D01*
X114104859Y-96521130D01*
X114084355Y-96690000D01*
X114104859Y-96858869D01*
X114104860Y-96858874D01*
X114165182Y-97017931D01*
X114227475Y-97108177D01*
X114261817Y-97157929D01*
X114316311Y-97206206D01*
X114389150Y-97270736D01*
X114539773Y-97349789D01*
X114539775Y-97349790D01*
X114704944Y-97390500D01*
X114875056Y-97390500D01*
X115040225Y-97349790D01*
X115149467Y-97292455D01*
X115190849Y-97270736D01*
X115190850Y-97270734D01*
X115190852Y-97270734D01*
X115318183Y-97157929D01*
X115414818Y-97017930D01*
X115475140Y-96858872D01*
X115481698Y-96804854D01*
X115509319Y-96740678D01*
X115517102Y-96732131D01*
X117599233Y-94650000D01*
X124484341Y-94650000D01*
X124504936Y-94885403D01*
X124504938Y-94885413D01*
X124566094Y-95113655D01*
X124566096Y-95113659D01*
X124566097Y-95113663D01*
X124596064Y-95177927D01*
X124665965Y-95327830D01*
X124665967Y-95327834D01*
X124757531Y-95458600D01*
X124801505Y-95521401D01*
X124968599Y-95688495D01*
X125065384Y-95756264D01*
X125162165Y-95824032D01*
X125162167Y-95824033D01*
X125162170Y-95824035D01*
X125376337Y-95923903D01*
X125604592Y-95985063D01*
X125792918Y-96001539D01*
X125839999Y-96005659D01*
X125840000Y-96005659D01*
X125840001Y-96005659D01*
X125879234Y-96002226D01*
X126075408Y-95985063D01*
X126303663Y-95923903D01*
X126517830Y-95824035D01*
X126711401Y-95688495D01*
X126878495Y-95521401D01*
X127014035Y-95327830D01*
X127113903Y-95113663D01*
X127175063Y-94885408D01*
X127195659Y-94650000D01*
X127175063Y-94414592D01*
X127113903Y-94186337D01*
X127014035Y-93972171D01*
X126878495Y-93778599D01*
X126756567Y-93656671D01*
X126723084Y-93595351D01*
X126728068Y-93525659D01*
X126769939Y-93469725D01*
X126800915Y-93452810D01*
X126932331Y-93403796D01*
X127047546Y-93317546D01*
X127133796Y-93202331D01*
X127184091Y-93067483D01*
X127190500Y-93007873D01*
X127190499Y-91212128D01*
X127184091Y-91152517D01*
X127133796Y-91017669D01*
X127133795Y-91017668D01*
X127133793Y-91017664D01*
X127047547Y-90902455D01*
X127047544Y-90902452D01*
X126932335Y-90816206D01*
X126932328Y-90816202D01*
X126797482Y-90765908D01*
X126797483Y-90765908D01*
X126737883Y-90759501D01*
X126737881Y-90759500D01*
X126737873Y-90759500D01*
X126737864Y-90759500D01*
X124942129Y-90759500D01*
X124942123Y-90759501D01*
X124882516Y-90765908D01*
X124747671Y-90816202D01*
X124747664Y-90816206D01*
X124632455Y-90902452D01*
X124632452Y-90902455D01*
X124546206Y-91017664D01*
X124546202Y-91017671D01*
X124495908Y-91152517D01*
X124489501Y-91212116D01*
X124489501Y-91212123D01*
X124489500Y-91212135D01*
X124489500Y-93007870D01*
X124489501Y-93007876D01*
X124495908Y-93067483D01*
X124546202Y-93202328D01*
X124546206Y-93202335D01*
X124632452Y-93317544D01*
X124632455Y-93317547D01*
X124747664Y-93403793D01*
X124747671Y-93403797D01*
X124879081Y-93452810D01*
X124935015Y-93494681D01*
X124959432Y-93560145D01*
X124944580Y-93628418D01*
X124923430Y-93656673D01*
X124801503Y-93778600D01*
X124665965Y-93972169D01*
X124665964Y-93972171D01*
X124566098Y-94186335D01*
X124566094Y-94186344D01*
X124504938Y-94414586D01*
X124504936Y-94414596D01*
X124484341Y-94649999D01*
X124484341Y-94650000D01*
X117599233Y-94650000D01*
X129176166Y-83073069D01*
X129237490Y-83039584D01*
X129263848Y-83036750D01*
X130270909Y-83036750D01*
X130337948Y-83056435D01*
X130383292Y-83108347D01*
X130385965Y-83114080D01*
X130521501Y-83307645D01*
X130521506Y-83307652D01*
X130688597Y-83474743D01*
X130688603Y-83474748D01*
X130874158Y-83604675D01*
X130917783Y-83659252D01*
X130924977Y-83728750D01*
X130893454Y-83791105D01*
X130874158Y-83807825D01*
X130688597Y-83937755D01*
X130521505Y-84104847D01*
X130385965Y-84298419D01*
X130385964Y-84298421D01*
X130286098Y-84512585D01*
X130286094Y-84512594D01*
X130224938Y-84740836D01*
X130224936Y-84740846D01*
X130204341Y-84976249D01*
X130204341Y-84976250D01*
X130224936Y-85211653D01*
X130224938Y-85211663D01*
X130286094Y-85439905D01*
X130286096Y-85439909D01*
X130286097Y-85439913D01*
X130348241Y-85573181D01*
X130385965Y-85654080D01*
X130385967Y-85654084D01*
X130494281Y-85808771D01*
X130521505Y-85847651D01*
X130688599Y-86014745D01*
X130785384Y-86082515D01*
X130882165Y-86150282D01*
X130882167Y-86150283D01*
X130882170Y-86150285D01*
X131096337Y-86250153D01*
X131324592Y-86311313D01*
X131512918Y-86327789D01*
X131559999Y-86331909D01*
X131560000Y-86331909D01*
X131560001Y-86331909D01*
X131599234Y-86328476D01*
X131795408Y-86311313D01*
X132023663Y-86250153D01*
X132237830Y-86150285D01*
X132431401Y-86014745D01*
X132598495Y-85847651D01*
X132734035Y-85654080D01*
X132833903Y-85439913D01*
X132895063Y-85211658D01*
X132915659Y-84976250D01*
X132895063Y-84740842D01*
X132833903Y-84512587D01*
X132734035Y-84298421D01*
X132682915Y-84225413D01*
X132598494Y-84104847D01*
X132431402Y-83937756D01*
X132431396Y-83937751D01*
X132245842Y-83807825D01*
X132202217Y-83753248D01*
X132195023Y-83683750D01*
X132226546Y-83621395D01*
X132245842Y-83604675D01*
X132357723Y-83526335D01*
X132431401Y-83474745D01*
X132598495Y-83307651D01*
X132734035Y-83114080D01*
X132833903Y-82899913D01*
X132895063Y-82671658D01*
X132915659Y-82436250D01*
X132895063Y-82200842D01*
X132833903Y-81972587D01*
X132734035Y-81758421D01*
X132734034Y-81758419D01*
X132598494Y-81564847D01*
X132431402Y-81397756D01*
X132431396Y-81397751D01*
X132245842Y-81267825D01*
X132202217Y-81213248D01*
X132195023Y-81143750D01*
X132226546Y-81081395D01*
X132245842Y-81064675D01*
X132357723Y-80986335D01*
X132431401Y-80934745D01*
X132598495Y-80767651D01*
X132734035Y-80574080D01*
X132833903Y-80359913D01*
X132895063Y-80131658D01*
X132915659Y-79896250D01*
X132895063Y-79660842D01*
X132833903Y-79432587D01*
X132734035Y-79218421D01*
X132734034Y-79218419D01*
X132598494Y-79024847D01*
X132431402Y-78857756D01*
X132431401Y-78857755D01*
X132245842Y-78727825D01*
X132245841Y-78727824D01*
X132202216Y-78673247D01*
X132195024Y-78603748D01*
X132226546Y-78541394D01*
X132245836Y-78524678D01*
X132431401Y-78394745D01*
X132598495Y-78227651D01*
X132734035Y-78034080D01*
X132833903Y-77819913D01*
X132895063Y-77591658D01*
X132915659Y-77356250D01*
X132895063Y-77120842D01*
X132833903Y-76892587D01*
X132734035Y-76678421D01*
X132734034Y-76678419D01*
X132598494Y-76484847D01*
X132431402Y-76317756D01*
X132431396Y-76317751D01*
X132245842Y-76187825D01*
X132202217Y-76133248D01*
X132195023Y-76063750D01*
X132226546Y-76001395D01*
X132245842Y-75984675D01*
X132357723Y-75906335D01*
X132431401Y-75854745D01*
X132598495Y-75687651D01*
X132734035Y-75494080D01*
X132833903Y-75279913D01*
X132895063Y-75051658D01*
X132915659Y-74816250D01*
X132895063Y-74580842D01*
X132833903Y-74352587D01*
X132734035Y-74138421D01*
X132734034Y-74138419D01*
X132598494Y-73944847D01*
X132431402Y-73777756D01*
X132431401Y-73777755D01*
X132245842Y-73647825D01*
X132245841Y-73647824D01*
X132202216Y-73593247D01*
X132195024Y-73523748D01*
X132226546Y-73461394D01*
X132245836Y-73444678D01*
X132431401Y-73314745D01*
X132598495Y-73147651D01*
X132734035Y-72954080D01*
X132833903Y-72739913D01*
X132895063Y-72511658D01*
X132915659Y-72276250D01*
X132895063Y-72040842D01*
X132833903Y-71812587D01*
X132734035Y-71598421D01*
X132693129Y-71540000D01*
X132598494Y-71404847D01*
X132431402Y-71237756D01*
X132431396Y-71237751D01*
X132245842Y-71107825D01*
X132202217Y-71053248D01*
X132195023Y-70983750D01*
X132226546Y-70921395D01*
X132245842Y-70904675D01*
X132302435Y-70865048D01*
X132431401Y-70774745D01*
X132598495Y-70607651D01*
X132734035Y-70414080D01*
X132833903Y-70199913D01*
X132895063Y-69971658D01*
X132915659Y-69736250D01*
X132895063Y-69500842D01*
X132833903Y-69272587D01*
X132734035Y-69058421D01*
X132682915Y-68985413D01*
X132598494Y-68864847D01*
X132431402Y-68697756D01*
X132431401Y-68697755D01*
X132309746Y-68612571D01*
X132245841Y-68567824D01*
X132202216Y-68513247D01*
X132195024Y-68443748D01*
X132226546Y-68381394D01*
X132245836Y-68364678D01*
X132431401Y-68234745D01*
X132598495Y-68067651D01*
X132734035Y-67874080D01*
X132833903Y-67659913D01*
X132895063Y-67431658D01*
X132915659Y-67196250D01*
X132895063Y-66960842D01*
X132833903Y-66732587D01*
X132734035Y-66518421D01*
X132720349Y-66498874D01*
X132598494Y-66324847D01*
X132431402Y-66157756D01*
X132431396Y-66157751D01*
X132245842Y-66027825D01*
X132202217Y-65973248D01*
X132195023Y-65903750D01*
X132226546Y-65841395D01*
X132245842Y-65824675D01*
X132412635Y-65707885D01*
X132431401Y-65694745D01*
X132598495Y-65527651D01*
X132734035Y-65334080D01*
X132833903Y-65119913D01*
X132895063Y-64891658D01*
X132915659Y-64656250D01*
X132895063Y-64420842D01*
X132833903Y-64192587D01*
X132734035Y-63978421D01*
X132682915Y-63905413D01*
X132598494Y-63784847D01*
X132431402Y-63617756D01*
X132431396Y-63617751D01*
X132245842Y-63487825D01*
X132202217Y-63433248D01*
X132195023Y-63363750D01*
X132226546Y-63301395D01*
X132245842Y-63284675D01*
X132357723Y-63206335D01*
X132431401Y-63154745D01*
X132598495Y-62987651D01*
X132734035Y-62794080D01*
X132833903Y-62579913D01*
X132895063Y-62351658D01*
X132915659Y-62116250D01*
X132895063Y-61880842D01*
X132833903Y-61652587D01*
X132734035Y-61438421D01*
X132682915Y-61365413D01*
X132598494Y-61244847D01*
X132431402Y-61077756D01*
X132431396Y-61077751D01*
X132245842Y-60947825D01*
X132202217Y-60893248D01*
X132195023Y-60823750D01*
X132226546Y-60761395D01*
X132245842Y-60744675D01*
X132357723Y-60666335D01*
X132431401Y-60614745D01*
X132598495Y-60447651D01*
X132734035Y-60254080D01*
X132833903Y-60039913D01*
X132895063Y-59811658D01*
X132915659Y-59576250D01*
X132895063Y-59340842D01*
X132833903Y-59112587D01*
X132734035Y-58898421D01*
X132692982Y-58839790D01*
X132598494Y-58704847D01*
X132431402Y-58537756D01*
X132431396Y-58537751D01*
X132245842Y-58407825D01*
X132202217Y-58353248D01*
X132195023Y-58283750D01*
X132226546Y-58221395D01*
X132245842Y-58204675D01*
X132357723Y-58126335D01*
X132431401Y-58074745D01*
X132598495Y-57907651D01*
X132734035Y-57714080D01*
X132833903Y-57499913D01*
X132895063Y-57271658D01*
X132915659Y-57036250D01*
X132895063Y-56800842D01*
X132833903Y-56572587D01*
X132734035Y-56358421D01*
X132682915Y-56285413D01*
X132598494Y-56164847D01*
X132431402Y-55997756D01*
X132431401Y-55997755D01*
X132245405Y-55867519D01*
X132201781Y-55812942D01*
X132194588Y-55743443D01*
X132226110Y-55681089D01*
X132245405Y-55664369D01*
X132431082Y-55534355D01*
X132598105Y-55367332D01*
X132733600Y-55173828D01*
X132833429Y-54959742D01*
X132833432Y-54959736D01*
X132890636Y-54746250D01*
X131993686Y-54746250D01*
X132019493Y-54706094D01*
X132060000Y-54568139D01*
X132060000Y-54424361D01*
X132019493Y-54286406D01*
X131993686Y-54246250D01*
X132890636Y-54246250D01*
X132890635Y-54246249D01*
X132833432Y-54032763D01*
X132833429Y-54032757D01*
X132733600Y-53818672D01*
X132733599Y-53818670D01*
X132598113Y-53625176D01*
X132598108Y-53625170D01*
X132431078Y-53458140D01*
X132245405Y-53328129D01*
X132201780Y-53273552D01*
X132194588Y-53204054D01*
X132226110Y-53141699D01*
X132245406Y-53124980D01*
X132255723Y-53117756D01*
X132431401Y-52994745D01*
X132598495Y-52827651D01*
X132734035Y-52634080D01*
X132833903Y-52419913D01*
X132895063Y-52191658D01*
X132915659Y-51956250D01*
X132895063Y-51720842D01*
X132833903Y-51492587D01*
X132734035Y-51278421D01*
X132682915Y-51205413D01*
X132598494Y-51084847D01*
X132431402Y-50917756D01*
X132431396Y-50917751D01*
X132245842Y-50787825D01*
X132202217Y-50733248D01*
X132195023Y-50663750D01*
X132226546Y-50601395D01*
X132245842Y-50584675D01*
X132357723Y-50506335D01*
X132431401Y-50454745D01*
X132598495Y-50287651D01*
X132734035Y-50094080D01*
X132833903Y-49879913D01*
X132895063Y-49651658D01*
X132915659Y-49416250D01*
X132895063Y-49180842D01*
X132833903Y-48952587D01*
X132734035Y-48738421D01*
X132682915Y-48665413D01*
X132598494Y-48544847D01*
X132431402Y-48377756D01*
X132431396Y-48377751D01*
X132245842Y-48247825D01*
X132202217Y-48193248D01*
X132195023Y-48123750D01*
X132226546Y-48061395D01*
X132245842Y-48044675D01*
X132357723Y-47966335D01*
X132431401Y-47914745D01*
X132598495Y-47747651D01*
X132734035Y-47554080D01*
X132833903Y-47339913D01*
X132895063Y-47111658D01*
X132915659Y-46876250D01*
X132895063Y-46640842D01*
X132833903Y-46412587D01*
X132734035Y-46198421D01*
X132682915Y-46125413D01*
X132598494Y-46004847D01*
X132431402Y-45837756D01*
X132431396Y-45837751D01*
X132245842Y-45707825D01*
X132202217Y-45653248D01*
X132195023Y-45583750D01*
X132226546Y-45521395D01*
X132245842Y-45504675D01*
X132357723Y-45426335D01*
X132431401Y-45374745D01*
X132598495Y-45207651D01*
X132734035Y-45014080D01*
X132833903Y-44799913D01*
X132895063Y-44571658D01*
X132915659Y-44336250D01*
X132895063Y-44100842D01*
X132833903Y-43872587D01*
X132734035Y-43658421D01*
X132682915Y-43585413D01*
X132598494Y-43464847D01*
X132431402Y-43297756D01*
X132431396Y-43297751D01*
X132245842Y-43167825D01*
X132202217Y-43113248D01*
X132195023Y-43043750D01*
X132226546Y-42981395D01*
X132245842Y-42964675D01*
X132357723Y-42886335D01*
X132431401Y-42834745D01*
X132598495Y-42667651D01*
X132734035Y-42474080D01*
X132833903Y-42259913D01*
X132895063Y-42031658D01*
X132915659Y-41796250D01*
X132895063Y-41560842D01*
X132833903Y-41332587D01*
X132734035Y-41118421D01*
X132682914Y-41045413D01*
X132598496Y-40924850D01*
X132598495Y-40924849D01*
X132476179Y-40802533D01*
X132442696Y-40741213D01*
X132447680Y-40671521D01*
X132489551Y-40615587D01*
X132520529Y-40598672D01*
X132652086Y-40549604D01*
X132652093Y-40549600D01*
X132767187Y-40463440D01*
X132767190Y-40463437D01*
X132853350Y-40348343D01*
X132853354Y-40348336D01*
X132903596Y-40213629D01*
X132903598Y-40213622D01*
X132909999Y-40154094D01*
X132910000Y-40154077D01*
X132910000Y-39506250D01*
X131993686Y-39506250D01*
X132019493Y-39466094D01*
X132060000Y-39328139D01*
X132060000Y-39184361D01*
X132019493Y-39046406D01*
X131993686Y-39006250D01*
X132910000Y-39006250D01*
X132910000Y-38358422D01*
X132909999Y-38358405D01*
X132903598Y-38298877D01*
X132903596Y-38298870D01*
X132853354Y-38164163D01*
X132853350Y-38164156D01*
X132767190Y-38049062D01*
X132767187Y-38049059D01*
X132652093Y-37962899D01*
X132652086Y-37962895D01*
X132517379Y-37912653D01*
X132517372Y-37912651D01*
X132457844Y-37906250D01*
X131810000Y-37906250D01*
X131809999Y-38820748D01*
X131702315Y-38771570D01*
X131595763Y-38756250D01*
X131524237Y-38756250D01*
X131417685Y-38771570D01*
X131310000Y-38820748D01*
X131310000Y-37906250D01*
X130662155Y-37906250D01*
X130602627Y-37912651D01*
X130602620Y-37912653D01*
X130467913Y-37962895D01*
X130467906Y-37962899D01*
X130352812Y-38049059D01*
X130352809Y-38049062D01*
X130266649Y-38164156D01*
X130266645Y-38164163D01*
X130216403Y-38298870D01*
X130216401Y-38298877D01*
X130210000Y-38358405D01*
X130210000Y-39006250D01*
X131126314Y-39006250D01*
X131100507Y-39046406D01*
X131060000Y-39184361D01*
X131060000Y-39328139D01*
X131100507Y-39466094D01*
X131126314Y-39506250D01*
X130210000Y-39506250D01*
X130210000Y-40154094D01*
X130216401Y-40213622D01*
X130216403Y-40213629D01*
X130266645Y-40348336D01*
X130266649Y-40348343D01*
X130352809Y-40463437D01*
X130352812Y-40463440D01*
X130467906Y-40549600D01*
X130467913Y-40549604D01*
X130599470Y-40598671D01*
X130655403Y-40640542D01*
X130679821Y-40706006D01*
X130664970Y-40774279D01*
X130643819Y-40802534D01*
X130521503Y-40924850D01*
X130385965Y-41118419D01*
X130385964Y-41118421D01*
X130286098Y-41332585D01*
X130286094Y-41332594D01*
X130224938Y-41560836D01*
X130224936Y-41560846D01*
X130204341Y-41796249D01*
X130204341Y-41796250D01*
X130224936Y-42031653D01*
X130224938Y-42031663D01*
X130286094Y-42259905D01*
X130286096Y-42259909D01*
X130286097Y-42259913D01*
X130385964Y-42474079D01*
X130385965Y-42474080D01*
X130385967Y-42474084D01*
X130521501Y-42667645D01*
X130521506Y-42667652D01*
X130688597Y-42834743D01*
X130688603Y-42834748D01*
X130874158Y-42964675D01*
X130917783Y-43019252D01*
X130924977Y-43088750D01*
X130893454Y-43151105D01*
X130874158Y-43167825D01*
X130688597Y-43297755D01*
X130521505Y-43464847D01*
X130385965Y-43658419D01*
X130385964Y-43658421D01*
X130286098Y-43872585D01*
X130286094Y-43872594D01*
X130224938Y-44100836D01*
X130224936Y-44100846D01*
X130204341Y-44336249D01*
X130204341Y-44336250D01*
X130224936Y-44571653D01*
X130224938Y-44571663D01*
X130286094Y-44799905D01*
X130286096Y-44799909D01*
X130286097Y-44799913D01*
X130385965Y-45014080D01*
X130385967Y-45014084D01*
X130521501Y-45207645D01*
X130521506Y-45207652D01*
X130688597Y-45374743D01*
X130688603Y-45374748D01*
X130874158Y-45504675D01*
X130917783Y-45559252D01*
X130924977Y-45628750D01*
X130893454Y-45691105D01*
X130874158Y-45707825D01*
X130688597Y-45837755D01*
X130521505Y-46004847D01*
X130385965Y-46198419D01*
X130385964Y-46198421D01*
X130286098Y-46412585D01*
X130286094Y-46412594D01*
X130224938Y-46640836D01*
X130224936Y-46640846D01*
X130204341Y-46876249D01*
X130204341Y-46876250D01*
X130224936Y-47111653D01*
X130224938Y-47111663D01*
X130286094Y-47339905D01*
X130286096Y-47339909D01*
X130286097Y-47339913D01*
X130385965Y-47554079D01*
X130385965Y-47554080D01*
X130385967Y-47554084D01*
X130521501Y-47747645D01*
X130521506Y-47747652D01*
X130688597Y-47914743D01*
X130688603Y-47914748D01*
X130874158Y-48044675D01*
X130917783Y-48099252D01*
X130924977Y-48168750D01*
X130893454Y-48231105D01*
X130874158Y-48247825D01*
X130688597Y-48377755D01*
X130521505Y-48544847D01*
X130385965Y-48738419D01*
X130385964Y-48738421D01*
X130286098Y-48952585D01*
X130286094Y-48952594D01*
X130224938Y-49180836D01*
X130224936Y-49180846D01*
X130204341Y-49416249D01*
X130204341Y-49416250D01*
X130224936Y-49651653D01*
X130224938Y-49651663D01*
X130286094Y-49879905D01*
X130286096Y-49879909D01*
X130286097Y-49879913D01*
X130385964Y-50094080D01*
X130385965Y-50094080D01*
X130385967Y-50094084D01*
X130521501Y-50287645D01*
X130521506Y-50287652D01*
X130688597Y-50454743D01*
X130688603Y-50454748D01*
X130874158Y-50584675D01*
X130917783Y-50639252D01*
X130924977Y-50708750D01*
X130893454Y-50771105D01*
X130874158Y-50787825D01*
X130688597Y-50917755D01*
X130521505Y-51084847D01*
X130385965Y-51278419D01*
X130385964Y-51278421D01*
X130286098Y-51492585D01*
X130286094Y-51492594D01*
X130224938Y-51720836D01*
X130224936Y-51720846D01*
X130204341Y-51956249D01*
X130204341Y-51956250D01*
X130224936Y-52191653D01*
X130224938Y-52191663D01*
X130286094Y-52419905D01*
X130286096Y-52419909D01*
X130286097Y-52419913D01*
X130385965Y-52634079D01*
X130385965Y-52634080D01*
X130385967Y-52634084D01*
X130521501Y-52827645D01*
X130521506Y-52827652D01*
X130688597Y-52994743D01*
X130688603Y-52994748D01*
X130762277Y-53046335D01*
X130864275Y-53117755D01*
X130874594Y-53124980D01*
X130918219Y-53179557D01*
X130925413Y-53249055D01*
X130893890Y-53311410D01*
X130874595Y-53328130D01*
X130688922Y-53458140D01*
X130688920Y-53458141D01*
X130521891Y-53625170D01*
X130521886Y-53625176D01*
X130386400Y-53818670D01*
X130386399Y-53818672D01*
X130286570Y-54032757D01*
X130286567Y-54032763D01*
X130229364Y-54246249D01*
X130229364Y-54246250D01*
X131126314Y-54246250D01*
X131100507Y-54286406D01*
X131060000Y-54424361D01*
X131060000Y-54568139D01*
X131100507Y-54706094D01*
X131126314Y-54746250D01*
X130229364Y-54746250D01*
X130286567Y-54959736D01*
X130286570Y-54959742D01*
X130386399Y-55173828D01*
X130521894Y-55367332D01*
X130688917Y-55534355D01*
X130874595Y-55664369D01*
X130918219Y-55718946D01*
X130925412Y-55788445D01*
X130893890Y-55850799D01*
X130874595Y-55867519D01*
X130688594Y-55997758D01*
X130521505Y-56164847D01*
X130385965Y-56358419D01*
X130385964Y-56358421D01*
X130286098Y-56572585D01*
X130286094Y-56572594D01*
X130224938Y-56800836D01*
X130224936Y-56800846D01*
X130204341Y-57036249D01*
X130204341Y-57036250D01*
X130224936Y-57271653D01*
X130224938Y-57271663D01*
X130286094Y-57499905D01*
X130286096Y-57499909D01*
X130286097Y-57499913D01*
X130385965Y-57714080D01*
X130385967Y-57714084D01*
X130521501Y-57907645D01*
X130521506Y-57907652D01*
X130688597Y-58074743D01*
X130688603Y-58074748D01*
X130874158Y-58204675D01*
X130917783Y-58259252D01*
X130924977Y-58328750D01*
X130893454Y-58391105D01*
X130874158Y-58407825D01*
X130688597Y-58537755D01*
X130521505Y-58704847D01*
X130385965Y-58898419D01*
X130385964Y-58898421D01*
X130286098Y-59112585D01*
X130286094Y-59112594D01*
X130224938Y-59340836D01*
X130224936Y-59340846D01*
X130204341Y-59576249D01*
X130204341Y-59576250D01*
X130224936Y-59811653D01*
X130224938Y-59811663D01*
X130286094Y-60039905D01*
X130286096Y-60039909D01*
X130286097Y-60039913D01*
X130385964Y-60254080D01*
X130385965Y-60254080D01*
X130385967Y-60254084D01*
X130521501Y-60447645D01*
X130521506Y-60447652D01*
X130688597Y-60614743D01*
X130688603Y-60614748D01*
X130874158Y-60744675D01*
X130917783Y-60799252D01*
X130924977Y-60868750D01*
X130893454Y-60931105D01*
X130874158Y-60947825D01*
X130688597Y-61077755D01*
X130521505Y-61244847D01*
X130385965Y-61438419D01*
X130385964Y-61438421D01*
X130286098Y-61652585D01*
X130286094Y-61652594D01*
X130224938Y-61880836D01*
X130224936Y-61880846D01*
X130204341Y-62116249D01*
X130204341Y-62116250D01*
X130224936Y-62351653D01*
X130224938Y-62351663D01*
X130286094Y-62579905D01*
X130286096Y-62579909D01*
X130286097Y-62579913D01*
X130385965Y-62794079D01*
X130385965Y-62794080D01*
X130385967Y-62794084D01*
X130521501Y-62987645D01*
X130521506Y-62987652D01*
X130688597Y-63154743D01*
X130688603Y-63154748D01*
X130874158Y-63284675D01*
X130917783Y-63339252D01*
X130924977Y-63408750D01*
X130893454Y-63471105D01*
X130874158Y-63487825D01*
X130688597Y-63617755D01*
X130521505Y-63784847D01*
X130385965Y-63978419D01*
X130385964Y-63978421D01*
X130286098Y-64192585D01*
X130286094Y-64192594D01*
X130224938Y-64420836D01*
X130224936Y-64420846D01*
X130204341Y-64656249D01*
X130204341Y-64656250D01*
X130224937Y-64891658D01*
X130266499Y-65046776D01*
X130264836Y-65116626D01*
X130234405Y-65166549D01*
X128171674Y-67229280D01*
X128113669Y-67261995D01*
X128039778Y-67280208D01*
X128039774Y-67280209D01*
X127889150Y-67359263D01*
X127761816Y-67472072D01*
X127665182Y-67612068D01*
X127604860Y-67771125D01*
X127604859Y-67771130D01*
X127584355Y-67940000D01*
X127604859Y-68108869D01*
X127604860Y-68108874D01*
X127665182Y-68267931D01*
X127764181Y-68411354D01*
X127786064Y-68477708D01*
X127778073Y-68525764D01*
X127715361Y-68691122D01*
X127715359Y-68691130D01*
X127694855Y-68860000D01*
X127715359Y-69028869D01*
X127715360Y-69028874D01*
X127775682Y-69187931D01*
X127834117Y-69272587D01*
X127872317Y-69327929D01*
X127949435Y-69396249D01*
X127999650Y-69440736D01*
X128150273Y-69519789D01*
X128150275Y-69519790D01*
X128315444Y-69560500D01*
X128485556Y-69560500D01*
X128650725Y-69519790D01*
X128782355Y-69450704D01*
X128839982Y-69436500D01*
X128994903Y-69436500D01*
X129061942Y-69456185D01*
X129107697Y-69508989D01*
X129117641Y-69578147D01*
X129088616Y-69641703D01*
X129082584Y-69648181D01*
X125569878Y-73160885D01*
X125511873Y-73193601D01*
X125464772Y-73205210D01*
X125314150Y-73284263D01*
X125186816Y-73397072D01*
X125090182Y-73537068D01*
X125029860Y-73696125D01*
X125029859Y-73696130D01*
X125009355Y-73865000D01*
X125029859Y-74033869D01*
X125029860Y-74033874D01*
X125090182Y-74192931D01*
X125116602Y-74231206D01*
X125186817Y-74332929D01*
X125287748Y-74422346D01*
X125314150Y-74445736D01*
X125432468Y-74507834D01*
X125464775Y-74524790D01*
X125629944Y-74565500D01*
X125800056Y-74565500D01*
X125965225Y-74524790D01*
X126057711Y-74476249D01*
X126115849Y-74445736D01*
X126115850Y-74445734D01*
X126115852Y-74445734D01*
X126243183Y-74332929D01*
X126339818Y-74192930D01*
X126393621Y-74051060D01*
X126421878Y-74007355D01*
X130056165Y-70373069D01*
X130117489Y-70339584D01*
X130143847Y-70336750D01*
X130270909Y-70336750D01*
X130337948Y-70356435D01*
X130383292Y-70408347D01*
X130385965Y-70414080D01*
X130495341Y-70570285D01*
X130521501Y-70607645D01*
X130521506Y-70607652D01*
X130688597Y-70774743D01*
X130688603Y-70774748D01*
X130874158Y-70904675D01*
X130917783Y-70959252D01*
X130924977Y-71028750D01*
X130893454Y-71091105D01*
X130874158Y-71107825D01*
X130688597Y-71237755D01*
X130521505Y-71404847D01*
X130385965Y-71598419D01*
X130385964Y-71598421D01*
X130286098Y-71812585D01*
X130286094Y-71812594D01*
X130224938Y-72040836D01*
X130224936Y-72040846D01*
X130204341Y-72276249D01*
X130204341Y-72276250D01*
X130224936Y-72511653D01*
X130224938Y-72511663D01*
X130286094Y-72739905D01*
X130286096Y-72739909D01*
X130286097Y-72739913D01*
X130356611Y-72891130D01*
X130385965Y-72954080D01*
X130385967Y-72954084D01*
X130521501Y-73147645D01*
X130521506Y-73147652D01*
X130688597Y-73314743D01*
X130688603Y-73314748D01*
X130874158Y-73444675D01*
X130917783Y-73499252D01*
X130924977Y-73568750D01*
X130893454Y-73631105D01*
X130874158Y-73647825D01*
X130688597Y-73777755D01*
X130521506Y-73944846D01*
X130385965Y-74138420D01*
X130385962Y-74138425D01*
X130383289Y-74144159D01*
X130337115Y-74196596D01*
X130270909Y-74215750D01*
X127597178Y-74215750D01*
X127589079Y-74215219D01*
X127553750Y-74210568D01*
X127553749Y-74210568D01*
X127450364Y-74224179D01*
X127396989Y-74231205D01*
X127396987Y-74231206D01*
X127250907Y-74291714D01*
X127125469Y-74387966D01*
X127103769Y-74416244D01*
X127098418Y-74422346D01*
X126194878Y-75325885D01*
X126136873Y-75358601D01*
X126089772Y-75370210D01*
X125939150Y-75449263D01*
X125811816Y-75562072D01*
X125715182Y-75702068D01*
X125654860Y-75861125D01*
X125654859Y-75861130D01*
X125634355Y-76030000D01*
X125654859Y-76198869D01*
X125654860Y-76198874D01*
X125715182Y-76357931D01*
X125777475Y-76448177D01*
X125811817Y-76497929D01*
X125879546Y-76557931D01*
X125939150Y-76610736D01*
X126068113Y-76678421D01*
X126089775Y-76689790D01*
X126254944Y-76730500D01*
X126425056Y-76730500D01*
X126590225Y-76689790D01*
X126669692Y-76648081D01*
X126740849Y-76610736D01*
X126740850Y-76610734D01*
X126740852Y-76610734D01*
X126868183Y-76497929D01*
X126964818Y-76357930D01*
X127018621Y-76216060D01*
X127046878Y-76172355D01*
X127766165Y-75453069D01*
X127827489Y-75419584D01*
X127853847Y-75416750D01*
X130270909Y-75416750D01*
X130337948Y-75436435D01*
X130383292Y-75488347D01*
X130385965Y-75494080D01*
X130521501Y-75687645D01*
X130521506Y-75687652D01*
X130688597Y-75854743D01*
X130688603Y-75854748D01*
X130874158Y-75984675D01*
X130917783Y-76039252D01*
X130924977Y-76108750D01*
X130893454Y-76171105D01*
X130874158Y-76187825D01*
X130688597Y-76317755D01*
X130521506Y-76484846D01*
X130385965Y-76678420D01*
X130385962Y-76678425D01*
X130383289Y-76684159D01*
X130337115Y-76736596D01*
X130270909Y-76755750D01*
X128687178Y-76755750D01*
X128679079Y-76755219D01*
X128643750Y-76750568D01*
X128604389Y-76755750D01*
X128486989Y-76771205D01*
X128486987Y-76771206D01*
X128340907Y-76831714D01*
X128215469Y-76927966D01*
X128193769Y-76956244D01*
X128188418Y-76962346D01*
X118638813Y-86511950D01*
X118577490Y-86545435D01*
X118507798Y-86540451D01*
X118451865Y-86498579D01*
X118427812Y-86437232D01*
X118415674Y-86321744D01*
X118357179Y-86141716D01*
X118262533Y-85977784D01*
X118135871Y-85837112D01*
X118098947Y-85810285D01*
X117982734Y-85725851D01*
X117982729Y-85725848D01*
X117809807Y-85648857D01*
X117809802Y-85648855D01*
X117664000Y-85617865D01*
X117624646Y-85609500D01*
X117624645Y-85609500D01*
X117565453Y-85609500D01*
X117498414Y-85589815D01*
X117477772Y-85573181D01*
X116080803Y-84176212D01*
X116070980Y-84163950D01*
X116070759Y-84164134D01*
X116065786Y-84158122D01*
X116016066Y-84111432D01*
X116014666Y-84110075D01*
X115994476Y-84089884D01*
X115988986Y-84085625D01*
X115984561Y-84081847D01*
X115950582Y-84049938D01*
X115950580Y-84049936D01*
X115950577Y-84049935D01*
X115933029Y-84040288D01*
X115916763Y-84029604D01*
X115900933Y-84017325D01*
X115858168Y-83998818D01*
X115852922Y-83996248D01*
X115812093Y-83973803D01*
X115812092Y-83973802D01*
X115792693Y-83968822D01*
X115774281Y-83962518D01*
X115755898Y-83954562D01*
X115755892Y-83954560D01*
X115709874Y-83947272D01*
X115704152Y-83946087D01*
X115659021Y-83934500D01*
X115659019Y-83934500D01*
X115638984Y-83934500D01*
X115619586Y-83932973D01*
X115612162Y-83931797D01*
X115599805Y-83929840D01*
X115599804Y-83929840D01*
X115553416Y-83934225D01*
X115547578Y-83934500D01*
X106981836Y-83934500D01*
X106914797Y-83914815D01*
X106880261Y-83881623D01*
X106798494Y-83764847D01*
X106631402Y-83597756D01*
X106631396Y-83597751D01*
X106445842Y-83467825D01*
X106402217Y-83413248D01*
X106395023Y-83343750D01*
X106426546Y-83281395D01*
X106445842Y-83264675D01*
X106468026Y-83249141D01*
X106631401Y-83134745D01*
X106798495Y-82967651D01*
X106934035Y-82774080D01*
X107033903Y-82559913D01*
X107095063Y-82331658D01*
X107115659Y-82096250D01*
X107095063Y-81860842D01*
X107033903Y-81632587D01*
X106934035Y-81418421D01*
X106919566Y-81397756D01*
X106798494Y-81224847D01*
X106631402Y-81057756D01*
X106631396Y-81057751D01*
X106445842Y-80927825D01*
X106402217Y-80873248D01*
X106395023Y-80803750D01*
X106426546Y-80741395D01*
X106445842Y-80724675D01*
X106468026Y-80709141D01*
X106631401Y-80594745D01*
X106798495Y-80427651D01*
X106934035Y-80234080D01*
X107033903Y-80019913D01*
X107095063Y-79791658D01*
X107115659Y-79556250D01*
X107095063Y-79320842D01*
X107033903Y-79092587D01*
X106934035Y-78878421D01*
X106919566Y-78857756D01*
X106798494Y-78684847D01*
X106631402Y-78517756D01*
X106631396Y-78517751D01*
X106445842Y-78387825D01*
X106402217Y-78333248D01*
X106395023Y-78263750D01*
X106426546Y-78201395D01*
X106445842Y-78184675D01*
X106468026Y-78169141D01*
X106631401Y-78054745D01*
X106798495Y-77887651D01*
X106934035Y-77694080D01*
X107033903Y-77479913D01*
X107095063Y-77251658D01*
X107115659Y-77016250D01*
X107095063Y-76780842D01*
X107033903Y-76552587D01*
X106934035Y-76338421D01*
X106919566Y-76317756D01*
X106858119Y-76230000D01*
X110454355Y-76230000D01*
X110474859Y-76398869D01*
X110474860Y-76398874D01*
X110535182Y-76557931D01*
X110597475Y-76648177D01*
X110631817Y-76697929D01*
X110697084Y-76755750D01*
X110759150Y-76810736D01*
X110909773Y-76889789D01*
X110909775Y-76889790D01*
X111074944Y-76930500D01*
X111245056Y-76930500D01*
X111410225Y-76889790D01*
X111517180Y-76833655D01*
X111560849Y-76810736D01*
X111560850Y-76810734D01*
X111560852Y-76810734D01*
X111688183Y-76697929D01*
X111784818Y-76557930D01*
X111845140Y-76398872D01*
X111865645Y-76230000D01*
X111845140Y-76061128D01*
X111784818Y-75902070D01*
X111758450Y-75863869D01*
X111736567Y-75797514D01*
X111736500Y-75793429D01*
X111736500Y-68808383D01*
X111756185Y-68741344D01*
X111778270Y-68715569D01*
X111798183Y-68697929D01*
X111894818Y-68557930D01*
X111955140Y-68398872D01*
X111975645Y-68230000D01*
X111955140Y-68061128D01*
X111894818Y-67902070D01*
X111798183Y-67762071D01*
X111670852Y-67649266D01*
X111670849Y-67649263D01*
X111520226Y-67570210D01*
X111355056Y-67529500D01*
X111184944Y-67529500D01*
X111019773Y-67570210D01*
X110869150Y-67649263D01*
X110741816Y-67762072D01*
X110645182Y-67902068D01*
X110584860Y-68061125D01*
X110584859Y-68061130D01*
X110564355Y-68230000D01*
X110583047Y-68383945D01*
X110583499Y-68391425D01*
X110583499Y-75793429D01*
X110563814Y-75860468D01*
X110561551Y-75863866D01*
X110535181Y-75902070D01*
X110535177Y-75902078D01*
X110474861Y-76061122D01*
X110474859Y-76061130D01*
X110454355Y-76230000D01*
X106858119Y-76230000D01*
X106798494Y-76144847D01*
X106631402Y-75977756D01*
X106631396Y-75977751D01*
X106445842Y-75847825D01*
X106402217Y-75793248D01*
X106395023Y-75723750D01*
X106426546Y-75661395D01*
X106445842Y-75644675D01*
X106563811Y-75562072D01*
X106631401Y-75514745D01*
X106798495Y-75347651D01*
X106934035Y-75154080D01*
X107033903Y-74939913D01*
X107095063Y-74711658D01*
X107115659Y-74476250D01*
X107095063Y-74240842D01*
X107039606Y-74033872D01*
X107033905Y-74012594D01*
X107033904Y-74012593D01*
X107033903Y-74012587D01*
X106934035Y-73798421D01*
X106919566Y-73777756D01*
X106798494Y-73604847D01*
X106631402Y-73437756D01*
X106631401Y-73437755D01*
X106445405Y-73307519D01*
X106401781Y-73252942D01*
X106394588Y-73183443D01*
X106426110Y-73121089D01*
X106445405Y-73104369D01*
X106631082Y-72974355D01*
X106798105Y-72807332D01*
X106933600Y-72613828D01*
X107033429Y-72399742D01*
X107033432Y-72399736D01*
X107090636Y-72186250D01*
X106193686Y-72186250D01*
X106219493Y-72146094D01*
X106260000Y-72008139D01*
X106260000Y-71864361D01*
X106219493Y-71726406D01*
X106193686Y-71686250D01*
X107090636Y-71686250D01*
X107090635Y-71686249D01*
X107033432Y-71472763D01*
X107033429Y-71472757D01*
X106933600Y-71258672D01*
X106933599Y-71258670D01*
X106798113Y-71065176D01*
X106798108Y-71065170D01*
X106631078Y-70898140D01*
X106445405Y-70768129D01*
X106401780Y-70713552D01*
X106394588Y-70644054D01*
X106426110Y-70581699D01*
X106445406Y-70564980D01*
X106631401Y-70434745D01*
X106798495Y-70267651D01*
X106934035Y-70074080D01*
X107033903Y-69859913D01*
X107095063Y-69631658D01*
X107115659Y-69396250D01*
X107095063Y-69160842D01*
X107033903Y-68932587D01*
X106934035Y-68718421D01*
X106919687Y-68697929D01*
X106798494Y-68524847D01*
X106631402Y-68357756D01*
X106631396Y-68357751D01*
X106445842Y-68227825D01*
X106402217Y-68173248D01*
X106395023Y-68103750D01*
X106426546Y-68041395D01*
X106445842Y-68024675D01*
X106566770Y-67940000D01*
X106631401Y-67894745D01*
X106798495Y-67727651D01*
X106934035Y-67534080D01*
X107033903Y-67319913D01*
X107095063Y-67091658D01*
X107115659Y-66856250D01*
X107095063Y-66620842D01*
X107033903Y-66392587D01*
X106934035Y-66178421D01*
X106921927Y-66161128D01*
X106798494Y-65984847D01*
X106631402Y-65817756D01*
X106631396Y-65817751D01*
X106463230Y-65700000D01*
X107264355Y-65700000D01*
X107284859Y-65868869D01*
X107284860Y-65868874D01*
X107345183Y-66027932D01*
X107347553Y-66031366D01*
X107348512Y-66034275D01*
X107348668Y-66034572D01*
X107348618Y-66034597D01*
X107369432Y-66097721D01*
X107369499Y-66101800D01*
X107369499Y-72697960D01*
X107361442Y-72741930D01*
X107304859Y-72891129D01*
X107304859Y-72891130D01*
X107284355Y-73060000D01*
X107304859Y-73228869D01*
X107304860Y-73228874D01*
X107365182Y-73387931D01*
X107408223Y-73450285D01*
X107461817Y-73527929D01*
X107537069Y-73594596D01*
X107589150Y-73640736D01*
X107694691Y-73696128D01*
X107739775Y-73719790D01*
X107904944Y-73760500D01*
X108075056Y-73760500D01*
X108240225Y-73719790D01*
X108260206Y-73709302D01*
X108328714Y-73695576D01*
X108393768Y-73721067D01*
X108434713Y-73777682D01*
X108440930Y-73804151D01*
X108454859Y-73918868D01*
X108454860Y-73918874D01*
X108515182Y-74077931D01*
X108556936Y-74138421D01*
X108611817Y-74217929D01*
X108717505Y-74311560D01*
X108739150Y-74330736D01*
X108848193Y-74387966D01*
X108889775Y-74409790D01*
X109054944Y-74450500D01*
X109225056Y-74450500D01*
X109390225Y-74409790D01*
X109499219Y-74352585D01*
X109540849Y-74330736D01*
X109540850Y-74330734D01*
X109540852Y-74330734D01*
X109668183Y-74217929D01*
X109764818Y-74077930D01*
X109825140Y-73918872D01*
X109845645Y-73750000D01*
X109825140Y-73581128D01*
X109764818Y-73422070D01*
X109738450Y-73383869D01*
X109716567Y-73317514D01*
X109716500Y-73313429D01*
X109716500Y-66766570D01*
X109736185Y-66699531D01*
X109738451Y-66696129D01*
X109764816Y-66657933D01*
X109764817Y-66657931D01*
X109764816Y-66657931D01*
X109764818Y-66657930D01*
X109825140Y-66498872D01*
X109845645Y-66330000D01*
X109825140Y-66161128D01*
X109764818Y-66002070D01*
X109744923Y-65973248D01*
X109696952Y-65903750D01*
X109668183Y-65862071D01*
X109540852Y-65749266D01*
X109540849Y-65749263D01*
X109390226Y-65670210D01*
X109225056Y-65629500D01*
X109054944Y-65629500D01*
X108889774Y-65670209D01*
X108844139Y-65694161D01*
X108775630Y-65707885D01*
X108710577Y-65682393D01*
X108669634Y-65625776D01*
X108663419Y-65599315D01*
X108655140Y-65531128D01*
X108639650Y-65490285D01*
X108594817Y-65372068D01*
X108560476Y-65322318D01*
X108498183Y-65232071D01*
X108403316Y-65148026D01*
X108370849Y-65119263D01*
X108220226Y-65040210D01*
X108055056Y-64999500D01*
X107884944Y-64999500D01*
X107719773Y-65040210D01*
X107569150Y-65119263D01*
X107441816Y-65232072D01*
X107345182Y-65372068D01*
X107284860Y-65531125D01*
X107284859Y-65531130D01*
X107264355Y-65700000D01*
X106463230Y-65700000D01*
X106445842Y-65687825D01*
X106402217Y-65633248D01*
X106395023Y-65563750D01*
X106426546Y-65501395D01*
X106445842Y-65484675D01*
X106606661Y-65372068D01*
X106631401Y-65354745D01*
X106798495Y-65187651D01*
X106934035Y-64994080D01*
X107033903Y-64779913D01*
X107095063Y-64551658D01*
X107115659Y-64316250D01*
X107095063Y-64080842D01*
X107033903Y-63852587D01*
X106934035Y-63638421D01*
X106919566Y-63617756D01*
X106798494Y-63444847D01*
X106631402Y-63277756D01*
X106631396Y-63277751D01*
X106445842Y-63147825D01*
X106402217Y-63093248D01*
X106395023Y-63023750D01*
X106426546Y-62961395D01*
X106445842Y-62944675D01*
X106468026Y-62929141D01*
X106631401Y-62814745D01*
X106798495Y-62647651D01*
X106934035Y-62454080D01*
X107033903Y-62239913D01*
X107095063Y-62011658D01*
X107115659Y-61776250D01*
X107095063Y-61540842D01*
X107033903Y-61312587D01*
X106934035Y-61098421D01*
X106919566Y-61077756D01*
X106798494Y-60904847D01*
X106631402Y-60737756D01*
X106631396Y-60737751D01*
X106445842Y-60607825D01*
X106402217Y-60553248D01*
X106395023Y-60483750D01*
X106426546Y-60421395D01*
X106445842Y-60404675D01*
X106468026Y-60389141D01*
X106631401Y-60274745D01*
X106798495Y-60107651D01*
X106934035Y-59914080D01*
X107033903Y-59699913D01*
X107095063Y-59471658D01*
X107115659Y-59236250D01*
X107095063Y-59000842D01*
X107033903Y-58772587D01*
X106934035Y-58558421D01*
X106925153Y-58545735D01*
X106798494Y-58364847D01*
X106631402Y-58197756D01*
X106631396Y-58197751D01*
X106445842Y-58067825D01*
X106402217Y-58013248D01*
X106395023Y-57943750D01*
X106426546Y-57881395D01*
X106445842Y-57864675D01*
X106563815Y-57782069D01*
X106631401Y-57734745D01*
X106798495Y-57567651D01*
X106934035Y-57374080D01*
X107033903Y-57159913D01*
X107095063Y-56931658D01*
X107115659Y-56696250D01*
X107095063Y-56460842D01*
X107033903Y-56232587D01*
X106934035Y-56018421D01*
X106919566Y-55997756D01*
X106798494Y-55824847D01*
X106631402Y-55657756D01*
X106631396Y-55657751D01*
X106445842Y-55527825D01*
X106402217Y-55473248D01*
X106395023Y-55403750D01*
X106426546Y-55341395D01*
X106445842Y-55324675D01*
X106468026Y-55309141D01*
X106631401Y-55194745D01*
X106798495Y-55027651D01*
X106934035Y-54834080D01*
X107033903Y-54619913D01*
X107095063Y-54391658D01*
X107115659Y-54156250D01*
X107095063Y-53920842D01*
X107033903Y-53692587D01*
X106934035Y-53478421D01*
X106919835Y-53458140D01*
X106798494Y-53284847D01*
X106631402Y-53117756D01*
X106631396Y-53117751D01*
X106445842Y-52987825D01*
X106402217Y-52933248D01*
X106395023Y-52863750D01*
X106426546Y-52801395D01*
X106445842Y-52784675D01*
X106468026Y-52769141D01*
X106631401Y-52654745D01*
X106798495Y-52487651D01*
X106934035Y-52294080D01*
X107033903Y-52079913D01*
X107095063Y-51851658D01*
X107115659Y-51616250D01*
X107095063Y-51380842D01*
X107033903Y-51152587D01*
X106934035Y-50938421D01*
X106919566Y-50917756D01*
X106798494Y-50744847D01*
X106631402Y-50577756D01*
X106631396Y-50577751D01*
X106445842Y-50447825D01*
X106402217Y-50393248D01*
X106395023Y-50323750D01*
X106426546Y-50261395D01*
X106445842Y-50244675D01*
X106468026Y-50229141D01*
X106631401Y-50114745D01*
X106798495Y-49947651D01*
X106934035Y-49754080D01*
X107033903Y-49539913D01*
X107095063Y-49311658D01*
X107115659Y-49076250D01*
X107095063Y-48840842D01*
X107033903Y-48612587D01*
X106934035Y-48398421D01*
X106919566Y-48377756D01*
X106798494Y-48204847D01*
X106631402Y-48037756D01*
X106631396Y-48037751D01*
X106445842Y-47907825D01*
X106402217Y-47853248D01*
X106395023Y-47783750D01*
X106426546Y-47721395D01*
X106445842Y-47704675D01*
X106468026Y-47689141D01*
X106631401Y-47574745D01*
X106798495Y-47407651D01*
X106934035Y-47214080D01*
X107033903Y-46999913D01*
X107095063Y-46771658D01*
X107115659Y-46536250D01*
X107095063Y-46300842D01*
X107033903Y-46072587D01*
X106934035Y-45858421D01*
X106919566Y-45837756D01*
X106798494Y-45664847D01*
X106631402Y-45497756D01*
X106631396Y-45497751D01*
X106445842Y-45367825D01*
X106402217Y-45313248D01*
X106395023Y-45243750D01*
X106426546Y-45181395D01*
X106445842Y-45164675D01*
X106468026Y-45149141D01*
X106631401Y-45034745D01*
X106798495Y-44867651D01*
X106934035Y-44674080D01*
X107033903Y-44459913D01*
X107095063Y-44231658D01*
X107115659Y-43996250D01*
X107095063Y-43760842D01*
X107033903Y-43532587D01*
X106934035Y-43318421D01*
X106919566Y-43297756D01*
X106798494Y-43124847D01*
X106631402Y-42957756D01*
X106631396Y-42957751D01*
X106445842Y-42827825D01*
X106402217Y-42773248D01*
X106395023Y-42703750D01*
X106426546Y-42641395D01*
X106445842Y-42624675D01*
X106468026Y-42609141D01*
X106631401Y-42494745D01*
X106798495Y-42327651D01*
X106934035Y-42134080D01*
X107033903Y-41919913D01*
X107095063Y-41691658D01*
X107115659Y-41456250D01*
X107095063Y-41220842D01*
X107033903Y-40992587D01*
X106934035Y-40778421D01*
X106837491Y-40640542D01*
X106798496Y-40584850D01*
X106763246Y-40549600D01*
X106676567Y-40462921D01*
X106643084Y-40401601D01*
X106648068Y-40331909D01*
X106689939Y-40275975D01*
X106720915Y-40259060D01*
X106852331Y-40210046D01*
X106967546Y-40123796D01*
X107053796Y-40008581D01*
X107104091Y-39873733D01*
X107110500Y-39814123D01*
X107110499Y-38018378D01*
X107104091Y-37958767D01*
X107084503Y-37906250D01*
X107053797Y-37823921D01*
X107053793Y-37823914D01*
X106967547Y-37708705D01*
X106967544Y-37708702D01*
X106852335Y-37622456D01*
X106852328Y-37622452D01*
X106717482Y-37572158D01*
X106717483Y-37572158D01*
X106657883Y-37565751D01*
X106657881Y-37565750D01*
X106657873Y-37565750D01*
X106657864Y-37565750D01*
X104862129Y-37565750D01*
X104862123Y-37565751D01*
X104802516Y-37572158D01*
X104667671Y-37622452D01*
X104667664Y-37622456D01*
X104552455Y-37708702D01*
X104552452Y-37708705D01*
X104466206Y-37823914D01*
X104466202Y-37823921D01*
X104415908Y-37958767D01*
X104409501Y-38018366D01*
X104409501Y-38018373D01*
X104409500Y-38018385D01*
X104409500Y-39814120D01*
X104409501Y-39814126D01*
X104415908Y-39873733D01*
X104466202Y-40008578D01*
X104466206Y-40008585D01*
X104552452Y-40123794D01*
X104552455Y-40123797D01*
X104667664Y-40210043D01*
X104667671Y-40210047D01*
X104799081Y-40259060D01*
X104855015Y-40300931D01*
X104879432Y-40366395D01*
X104864580Y-40434668D01*
X104843430Y-40462923D01*
X104721503Y-40584850D01*
X104585965Y-40778419D01*
X104585964Y-40778421D01*
X104486098Y-40992585D01*
X104486094Y-40992594D01*
X104424938Y-41220836D01*
X104424936Y-41220846D01*
X104404341Y-41456249D01*
X104404341Y-41456250D01*
X104424936Y-41691653D01*
X104424938Y-41691663D01*
X104486094Y-41919905D01*
X104486096Y-41919909D01*
X104486097Y-41919913D01*
X104550255Y-42057500D01*
X104585965Y-42134080D01*
X104585967Y-42134084D01*
X104615293Y-42175965D01*
X104710199Y-42311505D01*
X104721501Y-42327645D01*
X104721506Y-42327652D01*
X104888597Y-42494743D01*
X104888603Y-42494748D01*
X105074158Y-42624675D01*
X105117783Y-42679252D01*
X105124977Y-42748750D01*
X105093454Y-42811105D01*
X105074158Y-42827825D01*
X104888597Y-42957755D01*
X104721505Y-43124847D01*
X104585965Y-43318419D01*
X104585964Y-43318421D01*
X104486098Y-43532585D01*
X104486094Y-43532594D01*
X104424938Y-43760836D01*
X104424936Y-43760846D01*
X104404341Y-43996249D01*
X104404341Y-43996250D01*
X104424936Y-44231653D01*
X104424938Y-44231663D01*
X104486094Y-44459905D01*
X104486096Y-44459909D01*
X104486097Y-44459913D01*
X104550255Y-44597500D01*
X104585965Y-44674080D01*
X104585967Y-44674084D01*
X104615293Y-44715965D01*
X104710199Y-44851505D01*
X104721501Y-44867645D01*
X104721506Y-44867652D01*
X104888597Y-45034743D01*
X104888603Y-45034748D01*
X105074158Y-45164675D01*
X105117783Y-45219252D01*
X105124977Y-45288750D01*
X105093454Y-45351105D01*
X105074158Y-45367825D01*
X104888597Y-45497755D01*
X104721505Y-45664847D01*
X104585965Y-45858419D01*
X104585964Y-45858421D01*
X104486098Y-46072585D01*
X104486094Y-46072594D01*
X104424938Y-46300836D01*
X104424936Y-46300846D01*
X104404341Y-46536249D01*
X104404341Y-46536250D01*
X104424936Y-46771653D01*
X104424938Y-46771663D01*
X104486094Y-46999905D01*
X104486096Y-46999909D01*
X104486097Y-46999913D01*
X104550255Y-47137500D01*
X104585965Y-47214080D01*
X104585967Y-47214084D01*
X104615293Y-47255965D01*
X104710199Y-47391505D01*
X104721501Y-47407645D01*
X104721506Y-47407652D01*
X104888597Y-47574743D01*
X104888603Y-47574748D01*
X105074158Y-47704675D01*
X105117783Y-47759252D01*
X105124977Y-47828750D01*
X105093454Y-47891105D01*
X105074158Y-47907825D01*
X104888597Y-48037755D01*
X104721505Y-48204847D01*
X104585965Y-48398419D01*
X104585964Y-48398421D01*
X104486098Y-48612585D01*
X104486094Y-48612594D01*
X104424938Y-48840836D01*
X104424936Y-48840846D01*
X104404341Y-49076249D01*
X104404341Y-49076250D01*
X104424936Y-49311653D01*
X104424938Y-49311663D01*
X104486094Y-49539905D01*
X104486096Y-49539909D01*
X104486097Y-49539913D01*
X104550255Y-49677500D01*
X104585965Y-49754080D01*
X104585967Y-49754084D01*
X104615293Y-49795965D01*
X104710199Y-49931505D01*
X104721501Y-49947645D01*
X104721506Y-49947652D01*
X104888597Y-50114743D01*
X104888603Y-50114748D01*
X105074158Y-50244675D01*
X105117783Y-50299252D01*
X105124977Y-50368750D01*
X105093454Y-50431105D01*
X105074158Y-50447825D01*
X104888597Y-50577755D01*
X104721505Y-50744847D01*
X104585965Y-50938419D01*
X104585964Y-50938421D01*
X104486098Y-51152585D01*
X104486094Y-51152594D01*
X104424938Y-51380836D01*
X104424936Y-51380846D01*
X104404341Y-51616249D01*
X104404341Y-51616250D01*
X104424936Y-51851653D01*
X104424938Y-51851663D01*
X104486094Y-52079905D01*
X104486096Y-52079909D01*
X104486097Y-52079913D01*
X104538974Y-52193307D01*
X104585965Y-52294080D01*
X104585967Y-52294084D01*
X104674069Y-52419905D01*
X104710199Y-52471505D01*
X104721501Y-52487645D01*
X104721506Y-52487652D01*
X104888597Y-52654743D01*
X104888603Y-52654748D01*
X105074158Y-52784675D01*
X105117783Y-52839252D01*
X105124977Y-52908750D01*
X105093454Y-52971105D01*
X105074158Y-52987825D01*
X104888597Y-53117755D01*
X104721505Y-53284847D01*
X104585965Y-53478419D01*
X104585964Y-53478421D01*
X104486098Y-53692585D01*
X104486094Y-53692594D01*
X104424938Y-53920836D01*
X104424936Y-53920846D01*
X104404341Y-54156249D01*
X104404341Y-54156250D01*
X104424936Y-54391653D01*
X104424938Y-54391663D01*
X104486094Y-54619905D01*
X104486096Y-54619909D01*
X104486097Y-54619913D01*
X104545009Y-54746250D01*
X104585965Y-54834080D01*
X104585967Y-54834084D01*
X104688791Y-54980930D01*
X104710199Y-55011505D01*
X104721501Y-55027645D01*
X104721506Y-55027652D01*
X104888597Y-55194743D01*
X104888603Y-55194748D01*
X105074158Y-55324675D01*
X105117783Y-55379252D01*
X105124977Y-55448750D01*
X105093454Y-55511105D01*
X105074158Y-55527825D01*
X104888597Y-55657755D01*
X104721505Y-55824847D01*
X104585965Y-56018419D01*
X104585964Y-56018421D01*
X104486098Y-56232585D01*
X104486094Y-56232594D01*
X104424938Y-56460836D01*
X104424936Y-56460846D01*
X104404341Y-56696249D01*
X104404341Y-56696250D01*
X104424936Y-56931653D01*
X104424938Y-56931663D01*
X104486094Y-57159905D01*
X104486096Y-57159909D01*
X104486097Y-57159913D01*
X104550255Y-57297500D01*
X104585965Y-57374080D01*
X104585967Y-57374084D01*
X104610766Y-57409500D01*
X104710199Y-57551505D01*
X104721501Y-57567645D01*
X104721506Y-57567652D01*
X104888597Y-57734743D01*
X104888603Y-57734748D01*
X105074158Y-57864675D01*
X105117783Y-57919252D01*
X105124977Y-57988750D01*
X105093454Y-58051105D01*
X105074158Y-58067825D01*
X104888597Y-58197755D01*
X104721505Y-58364847D01*
X104585965Y-58558419D01*
X104585964Y-58558421D01*
X104486098Y-58772585D01*
X104486094Y-58772594D01*
X104424938Y-59000836D01*
X104424936Y-59000846D01*
X104404341Y-59236249D01*
X104404341Y-59236250D01*
X104424936Y-59471653D01*
X104424938Y-59471663D01*
X104486094Y-59699905D01*
X104486096Y-59699909D01*
X104486097Y-59699913D01*
X104550255Y-59837500D01*
X104585965Y-59914080D01*
X104585967Y-59914084D01*
X104615293Y-59955965D01*
X104710199Y-60091505D01*
X104721501Y-60107645D01*
X104721506Y-60107652D01*
X104888597Y-60274743D01*
X104888603Y-60274748D01*
X105074158Y-60404675D01*
X105117783Y-60459252D01*
X105124977Y-60528750D01*
X105093454Y-60591105D01*
X105074158Y-60607825D01*
X104888597Y-60737755D01*
X104721505Y-60904847D01*
X104585965Y-61098419D01*
X104585964Y-61098421D01*
X104486098Y-61312585D01*
X104486094Y-61312594D01*
X104424938Y-61540836D01*
X104424936Y-61540846D01*
X104404341Y-61776249D01*
X104404341Y-61776250D01*
X104424936Y-62011653D01*
X104424938Y-62011663D01*
X104486094Y-62239905D01*
X104486096Y-62239909D01*
X104486097Y-62239913D01*
X104550255Y-62377500D01*
X104585965Y-62454080D01*
X104585967Y-62454084D01*
X104615293Y-62495965D01*
X104710199Y-62631505D01*
X104721501Y-62647645D01*
X104721506Y-62647652D01*
X104888597Y-62814743D01*
X104888603Y-62814748D01*
X105074158Y-62944675D01*
X105117783Y-62999252D01*
X105124977Y-63068750D01*
X105093454Y-63131105D01*
X105074158Y-63147825D01*
X104888597Y-63277755D01*
X104721505Y-63444847D01*
X104585965Y-63638419D01*
X104585964Y-63638421D01*
X104486098Y-63852585D01*
X104486094Y-63852594D01*
X104424938Y-64080836D01*
X104424936Y-64080846D01*
X104404341Y-64316249D01*
X104404341Y-64316250D01*
X104424936Y-64551653D01*
X104424938Y-64551663D01*
X104486094Y-64779905D01*
X104486096Y-64779909D01*
X104486097Y-64779913D01*
X104550255Y-64917500D01*
X104585965Y-64994080D01*
X104585967Y-64994084D01*
X104619221Y-65041575D01*
X104710199Y-65171505D01*
X104721501Y-65187645D01*
X104721506Y-65187652D01*
X104888597Y-65354743D01*
X104888603Y-65354748D01*
X105074158Y-65484675D01*
X105117783Y-65539252D01*
X105124977Y-65608750D01*
X105093454Y-65671105D01*
X105074158Y-65687825D01*
X104888597Y-65817755D01*
X104721505Y-65984847D01*
X104585965Y-66178419D01*
X104585964Y-66178421D01*
X104486098Y-66392585D01*
X104486094Y-66392594D01*
X104424938Y-66620836D01*
X104424936Y-66620846D01*
X104404341Y-66856249D01*
X104404341Y-66856250D01*
X104424936Y-67091653D01*
X104424938Y-67091663D01*
X104486094Y-67319905D01*
X104486096Y-67319909D01*
X104486097Y-67319913D01*
X104550255Y-67457500D01*
X104585965Y-67534080D01*
X104585967Y-67534084D01*
X104640574Y-67612070D01*
X104710199Y-67711505D01*
X104721501Y-67727645D01*
X104721506Y-67727652D01*
X104888597Y-67894743D01*
X104888603Y-67894748D01*
X105074158Y-68024675D01*
X105117783Y-68079252D01*
X105124977Y-68148750D01*
X105093454Y-68211105D01*
X105074158Y-68227825D01*
X104888597Y-68357755D01*
X104721505Y-68524847D01*
X104585965Y-68718419D01*
X104585964Y-68718421D01*
X104486098Y-68932585D01*
X104486094Y-68932594D01*
X104424938Y-69160836D01*
X104424936Y-69160846D01*
X104404341Y-69396249D01*
X104404341Y-69396250D01*
X104424936Y-69631653D01*
X104424938Y-69631663D01*
X104486094Y-69859905D01*
X104486096Y-69859909D01*
X104486097Y-69859913D01*
X104538974Y-69973307D01*
X104585965Y-70074080D01*
X104585967Y-70074084D01*
X104674069Y-70199905D01*
X104710199Y-70251505D01*
X104721501Y-70267645D01*
X104721506Y-70267652D01*
X104888597Y-70434743D01*
X104888603Y-70434748D01*
X105074594Y-70564980D01*
X105118219Y-70619557D01*
X105125413Y-70689055D01*
X105093890Y-70751410D01*
X105074595Y-70768130D01*
X104888922Y-70898140D01*
X104888920Y-70898141D01*
X104721891Y-71065170D01*
X104721886Y-71065176D01*
X104586400Y-71258670D01*
X104586399Y-71258672D01*
X104486570Y-71472757D01*
X104486567Y-71472763D01*
X104429364Y-71686249D01*
X104429364Y-71686250D01*
X105326314Y-71686250D01*
X105300507Y-71726406D01*
X105260000Y-71864361D01*
X105260000Y-72008139D01*
X105300507Y-72146094D01*
X105326314Y-72186250D01*
X104429364Y-72186250D01*
X104486567Y-72399736D01*
X104486570Y-72399742D01*
X104586399Y-72613828D01*
X104721894Y-72807332D01*
X104888917Y-72974355D01*
X105074595Y-73104369D01*
X105118219Y-73158946D01*
X105125412Y-73228445D01*
X105093890Y-73290799D01*
X105074595Y-73307519D01*
X104888594Y-73437758D01*
X104721505Y-73604847D01*
X104585965Y-73798419D01*
X104585964Y-73798421D01*
X104486098Y-74012585D01*
X104486094Y-74012594D01*
X104424938Y-74240836D01*
X104424936Y-74240846D01*
X104404341Y-74476249D01*
X104404341Y-74476250D01*
X104424936Y-74711653D01*
X104424938Y-74711663D01*
X104486094Y-74939905D01*
X104486096Y-74939909D01*
X104486097Y-74939913D01*
X104550255Y-75077500D01*
X104585965Y-75154080D01*
X104585967Y-75154084D01*
X104615293Y-75195965D01*
X104710199Y-75331505D01*
X104721501Y-75347645D01*
X104721506Y-75347652D01*
X104888597Y-75514743D01*
X104888603Y-75514748D01*
X105074158Y-75644675D01*
X105117783Y-75699252D01*
X105124977Y-75768750D01*
X105093454Y-75831105D01*
X105074158Y-75847825D01*
X104888597Y-75977755D01*
X104721505Y-76144847D01*
X104585965Y-76338419D01*
X104585964Y-76338421D01*
X104486098Y-76552585D01*
X104486094Y-76552594D01*
X104424938Y-76780836D01*
X104424936Y-76780846D01*
X104404341Y-77016249D01*
X104404341Y-77016250D01*
X104424936Y-77251653D01*
X104424938Y-77251663D01*
X104486094Y-77479905D01*
X104486096Y-77479909D01*
X104486097Y-77479913D01*
X104550255Y-77617500D01*
X104585965Y-77694080D01*
X104585967Y-77694084D01*
X104615293Y-77735965D01*
X104710199Y-77871505D01*
X104721501Y-77887645D01*
X104721506Y-77887652D01*
X104888597Y-78054743D01*
X104888603Y-78054748D01*
X105074158Y-78184675D01*
X105117783Y-78239252D01*
X105124977Y-78308750D01*
X105093454Y-78371105D01*
X105074158Y-78387825D01*
X104888597Y-78517755D01*
X104721505Y-78684847D01*
X104585965Y-78878419D01*
X104585964Y-78878421D01*
X104486098Y-79092585D01*
X104486094Y-79092594D01*
X104424938Y-79320836D01*
X104424936Y-79320846D01*
X104404341Y-79556249D01*
X104404341Y-79556250D01*
X104424936Y-79791653D01*
X104424938Y-79791663D01*
X104486094Y-80019905D01*
X104486096Y-80019909D01*
X104486097Y-80019913D01*
X104550255Y-80157500D01*
X104585965Y-80234080D01*
X104585967Y-80234084D01*
X104615293Y-80275965D01*
X104710199Y-80411505D01*
X104721501Y-80427645D01*
X104721506Y-80427652D01*
X104888597Y-80594743D01*
X104888603Y-80594748D01*
X105074158Y-80724675D01*
X105117783Y-80779252D01*
X105124977Y-80848750D01*
X105093454Y-80911105D01*
X105074158Y-80927825D01*
X104888597Y-81057755D01*
X104721505Y-81224847D01*
X104585965Y-81418419D01*
X104585964Y-81418421D01*
X104486098Y-81632585D01*
X104486094Y-81632594D01*
X104424938Y-81860836D01*
X104424936Y-81860846D01*
X104404341Y-82096249D01*
X104404341Y-82096250D01*
X104424936Y-82331653D01*
X104424938Y-82331663D01*
X104486094Y-82559905D01*
X104486096Y-82559909D01*
X104486097Y-82559913D01*
X104550255Y-82697500D01*
X104585965Y-82774080D01*
X104585967Y-82774084D01*
X104615293Y-82815965D01*
X104710199Y-82951505D01*
X104721501Y-82967645D01*
X104721506Y-82967652D01*
X104888597Y-83134743D01*
X104888603Y-83134748D01*
X105074158Y-83264675D01*
X105117783Y-83319252D01*
X105124977Y-83388750D01*
X105093454Y-83451105D01*
X105074158Y-83467825D01*
X104888597Y-83597755D01*
X104721505Y-83764847D01*
X104585965Y-83958419D01*
X104585964Y-83958421D01*
X104486098Y-84172585D01*
X104486094Y-84172594D01*
X104424938Y-84400836D01*
X104424936Y-84400846D01*
X104404341Y-84636249D01*
X104404341Y-84636250D01*
X95018761Y-84636250D01*
X95103903Y-84453663D01*
X95165063Y-84225408D01*
X95185659Y-83990000D01*
X95165063Y-83754592D01*
X95103903Y-83526337D01*
X95004035Y-83312171D01*
X94974707Y-83270285D01*
X94868494Y-83118597D01*
X94701402Y-82951506D01*
X94701396Y-82951501D01*
X94515842Y-82821575D01*
X94472217Y-82766998D01*
X94465023Y-82697500D01*
X94496546Y-82635145D01*
X94515842Y-82618425D01*
X94599404Y-82559914D01*
X94701401Y-82488495D01*
X94868495Y-82321401D01*
X95004035Y-82127830D01*
X95103903Y-81913663D01*
X95165063Y-81685408D01*
X95185659Y-81450000D01*
X95165063Y-81214592D01*
X95103903Y-80986337D01*
X95004035Y-80772171D01*
X94974707Y-80730285D01*
X94868494Y-80578597D01*
X94701402Y-80411506D01*
X94701396Y-80411501D01*
X94515842Y-80281575D01*
X94472217Y-80226998D01*
X94465023Y-80157500D01*
X94496546Y-80095145D01*
X94515842Y-80078425D01*
X94599404Y-80019914D01*
X94701401Y-79948495D01*
X94868495Y-79781401D01*
X95004035Y-79587830D01*
X95103903Y-79373663D01*
X95165063Y-79145408D01*
X95185659Y-78910000D01*
X95165063Y-78674592D01*
X95103903Y-78446337D01*
X95004035Y-78232171D01*
X94974707Y-78190285D01*
X94868494Y-78038597D01*
X94701402Y-77871506D01*
X94701396Y-77871501D01*
X94515842Y-77741575D01*
X94472217Y-77686998D01*
X94465023Y-77617500D01*
X94496546Y-77555145D01*
X94515842Y-77538425D01*
X94599404Y-77479914D01*
X94701401Y-77408495D01*
X94868495Y-77241401D01*
X95004035Y-77047830D01*
X95103903Y-76833663D01*
X95165063Y-76605408D01*
X95185659Y-76370000D01*
X95165063Y-76134592D01*
X95103903Y-75906337D01*
X95004035Y-75692171D01*
X94974707Y-75650285D01*
X94868494Y-75498597D01*
X94701402Y-75331506D01*
X94701396Y-75331501D01*
X94515842Y-75201575D01*
X94472217Y-75146998D01*
X94465023Y-75077500D01*
X94496546Y-75015145D01*
X94515842Y-74998425D01*
X94599404Y-74939914D01*
X94701401Y-74868495D01*
X94868495Y-74701401D01*
X95004035Y-74507830D01*
X95103903Y-74293663D01*
X95165063Y-74065408D01*
X95185659Y-73830000D01*
X95165063Y-73594592D01*
X95103903Y-73366337D01*
X95004035Y-73152171D01*
X94982272Y-73121089D01*
X94868494Y-72958597D01*
X94701402Y-72791506D01*
X94701401Y-72791505D01*
X94515405Y-72661269D01*
X94471781Y-72606692D01*
X94464588Y-72537193D01*
X94496110Y-72474839D01*
X94515405Y-72458119D01*
X94701082Y-72328105D01*
X94868105Y-72161082D01*
X95003600Y-71967578D01*
X95103429Y-71753492D01*
X95103432Y-71753486D01*
X95160636Y-71540000D01*
X94263686Y-71540000D01*
X94289493Y-71499844D01*
X94330000Y-71361889D01*
X94330000Y-71218111D01*
X94289493Y-71080156D01*
X94263686Y-71040000D01*
X95160636Y-71040000D01*
X95160635Y-71039999D01*
X95103432Y-70826513D01*
X95103429Y-70826507D01*
X95003600Y-70612422D01*
X95003599Y-70612420D01*
X94868113Y-70418926D01*
X94868108Y-70418920D01*
X94701078Y-70251890D01*
X94515405Y-70121879D01*
X94471780Y-70067302D01*
X94464588Y-69997804D01*
X94496110Y-69935449D01*
X94515406Y-69918730D01*
X94599404Y-69859914D01*
X94701401Y-69788495D01*
X94868495Y-69621401D01*
X95004035Y-69427830D01*
X95103903Y-69213663D01*
X95165063Y-68985408D01*
X95185659Y-68750000D01*
X95165063Y-68514592D01*
X95103903Y-68286337D01*
X95004035Y-68072171D01*
X94974707Y-68030285D01*
X94868494Y-67878597D01*
X94701402Y-67711506D01*
X94701396Y-67711501D01*
X94515842Y-67581575D01*
X94472217Y-67526998D01*
X94465023Y-67457500D01*
X94496546Y-67395145D01*
X94515842Y-67378425D01*
X94599404Y-67319914D01*
X94701401Y-67248495D01*
X94868495Y-67081401D01*
X95004035Y-66887830D01*
X95103903Y-66673663D01*
X95165063Y-66445408D01*
X95185659Y-66210000D01*
X95165063Y-65974592D01*
X95103903Y-65746337D01*
X95004035Y-65532171D01*
X95003308Y-65531132D01*
X94868494Y-65338597D01*
X94701402Y-65171506D01*
X94701396Y-65171501D01*
X94515842Y-65041575D01*
X94472217Y-64986998D01*
X94465023Y-64917500D01*
X94496546Y-64855145D01*
X94515842Y-64838425D01*
X94599404Y-64779914D01*
X94701401Y-64708495D01*
X94868495Y-64541401D01*
X95004035Y-64347830D01*
X95103903Y-64133663D01*
X95165063Y-63905408D01*
X95185659Y-63670000D01*
X95165063Y-63434592D01*
X95103903Y-63206337D01*
X95004035Y-62992171D01*
X94974707Y-62950285D01*
X94868494Y-62798597D01*
X94701402Y-62631506D01*
X94701396Y-62631501D01*
X94515842Y-62501575D01*
X94472217Y-62446998D01*
X94465023Y-62377500D01*
X94496546Y-62315145D01*
X94515842Y-62298425D01*
X94599404Y-62239914D01*
X94701401Y-62168495D01*
X94868495Y-62001401D01*
X95004035Y-61807830D01*
X95103903Y-61593663D01*
X95165063Y-61365408D01*
X95185659Y-61130000D01*
X95165063Y-60894592D01*
X95103903Y-60666337D01*
X95004035Y-60452171D01*
X94974707Y-60410285D01*
X94868494Y-60258597D01*
X94701402Y-60091506D01*
X94701396Y-60091501D01*
X94515842Y-59961575D01*
X94472217Y-59906998D01*
X94465023Y-59837500D01*
X94496546Y-59775145D01*
X94515842Y-59758425D01*
X94599404Y-59699914D01*
X94701401Y-59628495D01*
X94868495Y-59461401D01*
X95004035Y-59267830D01*
X95103903Y-59053663D01*
X95165063Y-58825408D01*
X95185659Y-58590000D01*
X95165063Y-58354592D01*
X95103903Y-58126337D01*
X95004035Y-57912171D01*
X94974707Y-57870285D01*
X94868494Y-57718597D01*
X94701402Y-57551506D01*
X94701396Y-57551501D01*
X94515842Y-57421575D01*
X94472217Y-57366998D01*
X94465023Y-57297500D01*
X94496546Y-57235145D01*
X94515842Y-57218425D01*
X94599404Y-57159914D01*
X94701401Y-57088495D01*
X94868495Y-56921401D01*
X95004035Y-56727830D01*
X95103903Y-56513663D01*
X95165063Y-56285408D01*
X95185659Y-56050000D01*
X95165063Y-55814592D01*
X95118626Y-55641285D01*
X95103905Y-55586344D01*
X95103904Y-55586343D01*
X95103903Y-55586337D01*
X95004035Y-55372171D01*
X94974707Y-55330285D01*
X94868494Y-55178597D01*
X94701402Y-55011506D01*
X94701396Y-55011501D01*
X94515842Y-54881575D01*
X94472217Y-54826998D01*
X94465023Y-54757500D01*
X94496546Y-54695145D01*
X94515842Y-54678425D01*
X94599404Y-54619914D01*
X94701401Y-54548495D01*
X94868495Y-54381401D01*
X95004035Y-54187830D01*
X95103903Y-53973663D01*
X95165063Y-53745408D01*
X95185659Y-53510000D01*
X95165063Y-53274592D01*
X95103903Y-53046337D01*
X95004035Y-52832171D01*
X94974707Y-52790285D01*
X94868494Y-52638597D01*
X94701402Y-52471506D01*
X94701396Y-52471501D01*
X94515842Y-52341575D01*
X94472217Y-52286998D01*
X94465023Y-52217500D01*
X94496546Y-52155145D01*
X94515842Y-52138425D01*
X94599404Y-52079914D01*
X94701401Y-52008495D01*
X94868495Y-51841401D01*
X95004035Y-51647830D01*
X95103903Y-51433663D01*
X95165063Y-51205408D01*
X95185659Y-50970000D01*
X95165063Y-50734592D01*
X95103903Y-50506337D01*
X95004035Y-50292171D01*
X94974707Y-50250285D01*
X94868494Y-50098597D01*
X94701402Y-49931506D01*
X94701396Y-49931501D01*
X94515842Y-49801575D01*
X94472217Y-49746998D01*
X94465023Y-49677500D01*
X94496546Y-49615145D01*
X94515842Y-49598425D01*
X94599404Y-49539914D01*
X94701401Y-49468495D01*
X94868495Y-49301401D01*
X95004035Y-49107830D01*
X95103903Y-48893663D01*
X95165063Y-48665408D01*
X95185659Y-48430000D01*
X95165063Y-48194592D01*
X95103903Y-47966337D01*
X95004035Y-47752171D01*
X94974707Y-47710285D01*
X94868494Y-47558597D01*
X94701402Y-47391506D01*
X94701396Y-47391501D01*
X94515842Y-47261575D01*
X94472217Y-47206998D01*
X94465023Y-47137500D01*
X94496546Y-47075145D01*
X94515842Y-47058425D01*
X94599404Y-46999914D01*
X94701401Y-46928495D01*
X94868495Y-46761401D01*
X95004035Y-46567830D01*
X95103903Y-46353663D01*
X95165063Y-46125408D01*
X95185659Y-45890000D01*
X95165063Y-45654592D01*
X95103903Y-45426337D01*
X95004035Y-45212171D01*
X94974707Y-45170285D01*
X94868494Y-45018597D01*
X94701402Y-44851506D01*
X94701396Y-44851501D01*
X94515842Y-44721575D01*
X94472217Y-44666998D01*
X94465023Y-44597500D01*
X94496546Y-44535145D01*
X94515842Y-44518425D01*
X94599404Y-44459914D01*
X94701401Y-44388495D01*
X94868495Y-44221401D01*
X95004035Y-44027830D01*
X95103903Y-43813663D01*
X95165063Y-43585408D01*
X95185659Y-43350000D01*
X95165063Y-43114592D01*
X95103903Y-42886337D01*
X95004035Y-42672171D01*
X94974707Y-42630285D01*
X94868494Y-42478597D01*
X94701402Y-42311506D01*
X94701396Y-42311501D01*
X94515842Y-42181575D01*
X94472217Y-42126998D01*
X94465023Y-42057500D01*
X94496546Y-41995145D01*
X94515842Y-41978425D01*
X94599404Y-41919914D01*
X94701401Y-41848495D01*
X94868495Y-41681401D01*
X95004035Y-41487830D01*
X95103903Y-41273663D01*
X95165063Y-41045408D01*
X95185659Y-40810000D01*
X95165063Y-40574592D01*
X95118626Y-40401285D01*
X95103905Y-40346344D01*
X95103904Y-40346343D01*
X95103903Y-40346337D01*
X95004035Y-40132171D01*
X94998171Y-40123797D01*
X94868496Y-39938600D01*
X94868495Y-39938599D01*
X94746567Y-39816671D01*
X94713084Y-39755351D01*
X94718068Y-39685659D01*
X94759939Y-39629725D01*
X94790915Y-39612810D01*
X94922331Y-39563796D01*
X95037546Y-39477546D01*
X95123796Y-39362331D01*
X95174091Y-39227483D01*
X95180500Y-39167873D01*
X95180499Y-37372128D01*
X95174091Y-37312517D01*
X95123884Y-37177906D01*
X95123797Y-37177671D01*
X95123793Y-37177664D01*
X95037547Y-37062455D01*
X95037544Y-37062452D01*
X94922335Y-36976206D01*
X94922328Y-36976202D01*
X94787482Y-36925908D01*
X94787483Y-36925908D01*
X94727883Y-36919501D01*
X94727881Y-36919500D01*
X94727873Y-36919500D01*
X94727864Y-36919500D01*
X92932129Y-36919500D01*
X92932123Y-36919501D01*
X92872516Y-36925908D01*
X92737671Y-36976202D01*
X92737664Y-36976206D01*
X92622455Y-37062452D01*
X92622452Y-37062455D01*
X92536206Y-37177664D01*
X92536202Y-37177671D01*
X92485908Y-37312517D01*
X92479501Y-37372116D01*
X92479501Y-37372123D01*
X92479500Y-37372135D01*
X92479500Y-39167870D01*
X92479501Y-39167876D01*
X92485908Y-39227483D01*
X92536202Y-39362328D01*
X92536206Y-39362335D01*
X92622452Y-39477544D01*
X92622455Y-39477547D01*
X92737664Y-39563793D01*
X92737671Y-39563797D01*
X92869081Y-39612810D01*
X92925015Y-39654681D01*
X92949432Y-39720145D01*
X92934580Y-39788418D01*
X92913430Y-39816673D01*
X92791503Y-39938600D01*
X92655965Y-40132169D01*
X92655964Y-40132171D01*
X92556098Y-40346335D01*
X92556094Y-40346344D01*
X92494938Y-40574586D01*
X92494936Y-40574596D01*
X92474341Y-40809999D01*
X92474341Y-40810000D01*
X92494936Y-41045403D01*
X92494938Y-41045413D01*
X92556094Y-41273655D01*
X92556096Y-41273659D01*
X92556097Y-41273663D01*
X92641239Y-41456250D01*
X92655965Y-41487830D01*
X92655967Y-41487834D01*
X92791501Y-41681395D01*
X92791506Y-41681402D01*
X92958597Y-41848493D01*
X92958603Y-41848498D01*
X93144158Y-41978425D01*
X93187783Y-42033002D01*
X93194977Y-42102500D01*
X93163454Y-42164855D01*
X93144158Y-42181575D01*
X92958597Y-42311505D01*
X92791505Y-42478597D01*
X92655965Y-42672169D01*
X92655964Y-42672171D01*
X92556098Y-42886335D01*
X92556094Y-42886344D01*
X92494938Y-43114586D01*
X92494936Y-43114596D01*
X92474341Y-43349999D01*
X92474341Y-43350000D01*
X92494936Y-43585403D01*
X92494938Y-43585413D01*
X92556094Y-43813655D01*
X92556096Y-43813659D01*
X92556097Y-43813663D01*
X92641239Y-43996250D01*
X92655965Y-44027830D01*
X92655967Y-44027834D01*
X92791501Y-44221395D01*
X92791506Y-44221402D01*
X92958597Y-44388493D01*
X92958603Y-44388498D01*
X93144158Y-44518425D01*
X93187783Y-44573002D01*
X93194977Y-44642500D01*
X93163454Y-44704855D01*
X93144158Y-44721575D01*
X92958597Y-44851505D01*
X92791505Y-45018597D01*
X92655965Y-45212169D01*
X92655964Y-45212171D01*
X92556098Y-45426335D01*
X92556094Y-45426344D01*
X92494938Y-45654586D01*
X92494936Y-45654596D01*
X92474341Y-45889999D01*
X92474341Y-45890000D01*
X92494936Y-46125403D01*
X92494938Y-46125413D01*
X92556094Y-46353655D01*
X92556096Y-46353659D01*
X92556097Y-46353663D01*
X92641239Y-46536250D01*
X92655965Y-46567830D01*
X92655967Y-46567834D01*
X92791501Y-46761395D01*
X92791506Y-46761402D01*
X92958597Y-46928493D01*
X92958603Y-46928498D01*
X93144158Y-47058425D01*
X93187783Y-47113002D01*
X93194977Y-47182500D01*
X93163454Y-47244855D01*
X93144158Y-47261575D01*
X92958597Y-47391505D01*
X92791505Y-47558597D01*
X92655965Y-47752169D01*
X92655964Y-47752171D01*
X92556098Y-47966335D01*
X92556094Y-47966344D01*
X92494938Y-48194586D01*
X92494936Y-48194596D01*
X92474341Y-48429999D01*
X92474341Y-48430000D01*
X92494936Y-48665403D01*
X92494938Y-48665413D01*
X92556094Y-48893655D01*
X92556096Y-48893659D01*
X92556097Y-48893663D01*
X92641239Y-49076250D01*
X92655965Y-49107830D01*
X92655967Y-49107834D01*
X92791501Y-49301395D01*
X92791506Y-49301402D01*
X92958597Y-49468493D01*
X92958603Y-49468498D01*
X93144158Y-49598425D01*
X93187783Y-49653002D01*
X93194977Y-49722500D01*
X93163454Y-49784855D01*
X93144158Y-49801575D01*
X92958597Y-49931505D01*
X92791505Y-50098597D01*
X92655965Y-50292169D01*
X92655964Y-50292171D01*
X92556098Y-50506335D01*
X92556094Y-50506344D01*
X92494938Y-50734586D01*
X92494936Y-50734596D01*
X92474341Y-50969999D01*
X92474341Y-50970000D01*
X92494936Y-51205403D01*
X92494938Y-51205413D01*
X92556094Y-51433655D01*
X92556096Y-51433659D01*
X92556097Y-51433663D01*
X92641239Y-51616250D01*
X92655965Y-51647830D01*
X92655967Y-51647834D01*
X92791501Y-51841395D01*
X92791506Y-51841402D01*
X92958597Y-52008493D01*
X92958603Y-52008498D01*
X93144158Y-52138425D01*
X93187783Y-52193002D01*
X93194977Y-52262500D01*
X93163454Y-52324855D01*
X93144158Y-52341575D01*
X92958597Y-52471505D01*
X92791505Y-52638597D01*
X92655965Y-52832169D01*
X92655964Y-52832171D01*
X92556098Y-53046335D01*
X92556094Y-53046344D01*
X92494938Y-53274586D01*
X92494936Y-53274596D01*
X92474341Y-53509999D01*
X92474341Y-53510000D01*
X92494936Y-53745403D01*
X92494938Y-53745413D01*
X92556094Y-53973655D01*
X92556096Y-53973659D01*
X92556097Y-53973663D01*
X92641239Y-54156250D01*
X92655965Y-54187830D01*
X92655967Y-54187834D01*
X92791501Y-54381395D01*
X92791506Y-54381402D01*
X92958597Y-54548493D01*
X92958603Y-54548498D01*
X93144158Y-54678425D01*
X93187783Y-54733002D01*
X93194977Y-54802500D01*
X93163454Y-54864855D01*
X93144158Y-54881575D01*
X92958597Y-55011505D01*
X92791505Y-55178597D01*
X92655965Y-55372169D01*
X92655964Y-55372171D01*
X92556098Y-55586335D01*
X92556094Y-55586344D01*
X92494938Y-55814586D01*
X92494936Y-55814596D01*
X92474341Y-56049999D01*
X92474341Y-56050000D01*
X92494936Y-56285403D01*
X92494938Y-56285413D01*
X92556094Y-56513655D01*
X92556096Y-56513659D01*
X92556097Y-56513663D01*
X92641239Y-56696250D01*
X92655965Y-56727830D01*
X92655967Y-56727834D01*
X92791501Y-56921395D01*
X92791506Y-56921402D01*
X92958597Y-57088493D01*
X92958603Y-57088498D01*
X93144158Y-57218425D01*
X93187783Y-57273002D01*
X93194977Y-57342500D01*
X93163454Y-57404855D01*
X93144158Y-57421575D01*
X92958597Y-57551505D01*
X92791505Y-57718597D01*
X92655965Y-57912169D01*
X92655964Y-57912171D01*
X92556098Y-58126335D01*
X92556094Y-58126344D01*
X92494938Y-58354586D01*
X92494936Y-58354596D01*
X92474341Y-58589999D01*
X92474341Y-58590000D01*
X92494936Y-58825403D01*
X92494938Y-58825413D01*
X92556094Y-59053655D01*
X92556096Y-59053659D01*
X92556097Y-59053663D01*
X92641239Y-59236250D01*
X92655965Y-59267830D01*
X92655967Y-59267834D01*
X92791501Y-59461395D01*
X92791506Y-59461402D01*
X92958597Y-59628493D01*
X92958603Y-59628498D01*
X93144158Y-59758425D01*
X93187783Y-59813002D01*
X93194977Y-59882500D01*
X93163454Y-59944855D01*
X93144158Y-59961575D01*
X92958597Y-60091505D01*
X92791505Y-60258597D01*
X92655965Y-60452169D01*
X92655964Y-60452171D01*
X92556098Y-60666335D01*
X92556094Y-60666344D01*
X92494938Y-60894586D01*
X92494936Y-60894596D01*
X92474341Y-61129999D01*
X92474341Y-61130000D01*
X92494936Y-61365403D01*
X92494938Y-61365413D01*
X92556094Y-61593655D01*
X92556096Y-61593659D01*
X92556097Y-61593663D01*
X92641239Y-61776250D01*
X92655965Y-61807830D01*
X92655967Y-61807834D01*
X92791501Y-62001395D01*
X92791506Y-62001402D01*
X92958597Y-62168493D01*
X92958603Y-62168498D01*
X93144158Y-62298425D01*
X93187783Y-62353002D01*
X93194977Y-62422500D01*
X93163454Y-62484855D01*
X93144158Y-62501575D01*
X92958597Y-62631505D01*
X92791505Y-62798597D01*
X92655965Y-62992169D01*
X92655964Y-62992171D01*
X92556098Y-63206335D01*
X92556094Y-63206344D01*
X92494938Y-63434586D01*
X92494936Y-63434596D01*
X92474341Y-63669999D01*
X92474341Y-63670000D01*
X92494936Y-63905403D01*
X92494938Y-63905413D01*
X92556094Y-64133655D01*
X92556096Y-64133659D01*
X92556097Y-64133663D01*
X92641239Y-64316250D01*
X92655965Y-64347830D01*
X92655967Y-64347834D01*
X92791501Y-64541395D01*
X92791506Y-64541402D01*
X92958597Y-64708493D01*
X92958603Y-64708498D01*
X93144158Y-64838425D01*
X93187783Y-64893002D01*
X93194977Y-64962500D01*
X93163454Y-65024855D01*
X93144158Y-65041575D01*
X92958597Y-65171505D01*
X92791505Y-65338597D01*
X92655965Y-65532169D01*
X92655964Y-65532171D01*
X92556098Y-65746335D01*
X92556094Y-65746344D01*
X92494938Y-65974586D01*
X92494936Y-65974596D01*
X92474341Y-66209999D01*
X92474341Y-66210000D01*
X92494936Y-66445403D01*
X92494938Y-66445413D01*
X92556094Y-66673655D01*
X92556096Y-66673659D01*
X92556097Y-66673663D01*
X92641239Y-66856250D01*
X92655965Y-66887830D01*
X92655967Y-66887834D01*
X92791501Y-67081395D01*
X92791506Y-67081402D01*
X92958597Y-67248493D01*
X92958603Y-67248498D01*
X93144158Y-67378425D01*
X93187783Y-67433002D01*
X93194977Y-67502500D01*
X93163454Y-67564855D01*
X93144158Y-67581575D01*
X92958597Y-67711505D01*
X92791505Y-67878597D01*
X92655965Y-68072169D01*
X92655964Y-68072171D01*
X92556098Y-68286335D01*
X92556094Y-68286344D01*
X92494938Y-68514586D01*
X92494936Y-68514596D01*
X92474341Y-68749999D01*
X92474341Y-68750000D01*
X92494936Y-68985403D01*
X92494938Y-68985413D01*
X92556094Y-69213655D01*
X92556096Y-69213659D01*
X92556097Y-69213663D01*
X92641239Y-69396250D01*
X92655965Y-69427830D01*
X92655967Y-69427834D01*
X92791501Y-69621395D01*
X92791506Y-69621402D01*
X92958597Y-69788493D01*
X92958603Y-69788498D01*
X93144594Y-69918730D01*
X93188219Y-69973307D01*
X93195413Y-70042805D01*
X93163890Y-70105160D01*
X93144595Y-70121880D01*
X92958922Y-70251890D01*
X92958920Y-70251891D01*
X92791891Y-70418920D01*
X92791886Y-70418926D01*
X92656400Y-70612420D01*
X92656399Y-70612422D01*
X92556570Y-70826507D01*
X92556567Y-70826513D01*
X92499364Y-71039999D01*
X92499364Y-71040000D01*
X93396314Y-71040000D01*
X93370507Y-71080156D01*
X93330000Y-71218111D01*
X93330000Y-71361889D01*
X93370507Y-71499844D01*
X93396314Y-71540000D01*
X92499364Y-71540000D01*
X92556567Y-71753486D01*
X92556570Y-71753492D01*
X92656399Y-71967578D01*
X92791894Y-72161082D01*
X92958917Y-72328105D01*
X93144595Y-72458119D01*
X93188219Y-72512696D01*
X93195412Y-72582195D01*
X93163890Y-72644549D01*
X93144595Y-72661269D01*
X92958594Y-72791508D01*
X92791505Y-72958597D01*
X92655965Y-73152169D01*
X92655964Y-73152171D01*
X92556098Y-73366335D01*
X92556094Y-73366344D01*
X92494938Y-73594586D01*
X92494936Y-73594596D01*
X92474341Y-73829999D01*
X92474341Y-73830000D01*
X92494936Y-74065403D01*
X92494938Y-74065413D01*
X92556094Y-74293655D01*
X92556096Y-74293659D01*
X92556097Y-74293663D01*
X92641239Y-74476250D01*
X92655965Y-74507830D01*
X92655967Y-74507834D01*
X92791501Y-74701395D01*
X92791506Y-74701402D01*
X92958597Y-74868493D01*
X92958603Y-74868498D01*
X93144158Y-74998425D01*
X93187783Y-75053002D01*
X93194977Y-75122500D01*
X93163454Y-75184855D01*
X93144158Y-75201575D01*
X92958597Y-75331505D01*
X92791505Y-75498597D01*
X92655965Y-75692169D01*
X92655964Y-75692171D01*
X92556098Y-75906335D01*
X92556094Y-75906344D01*
X92494938Y-76134586D01*
X92494936Y-76134596D01*
X92474341Y-76369999D01*
X92474341Y-76370000D01*
X92494936Y-76605403D01*
X92494938Y-76605413D01*
X92556094Y-76833655D01*
X92556096Y-76833659D01*
X92556097Y-76833663D01*
X92641239Y-77016250D01*
X92655965Y-77047830D01*
X92655967Y-77047834D01*
X92791501Y-77241395D01*
X92791506Y-77241402D01*
X92958597Y-77408493D01*
X92958603Y-77408498D01*
X93144158Y-77538425D01*
X93187783Y-77593002D01*
X93194977Y-77662500D01*
X93163454Y-77724855D01*
X93144158Y-77741575D01*
X92958597Y-77871505D01*
X92791505Y-78038597D01*
X92655965Y-78232169D01*
X92655964Y-78232171D01*
X92556098Y-78446335D01*
X92556094Y-78446344D01*
X92494938Y-78674586D01*
X92494936Y-78674596D01*
X92474341Y-78909999D01*
X92474341Y-78910000D01*
X92494936Y-79145403D01*
X92494938Y-79145413D01*
X92556094Y-79373655D01*
X92556096Y-79373659D01*
X92556097Y-79373663D01*
X92641239Y-79556250D01*
X92655965Y-79587830D01*
X92655967Y-79587834D01*
X92791501Y-79781395D01*
X92791506Y-79781402D01*
X92958597Y-79948493D01*
X92958603Y-79948498D01*
X93144158Y-80078425D01*
X93187783Y-80133002D01*
X93194977Y-80202500D01*
X93163454Y-80264855D01*
X93144158Y-80281575D01*
X92958597Y-80411505D01*
X92791505Y-80578597D01*
X92655965Y-80772169D01*
X92655964Y-80772171D01*
X92556098Y-80986335D01*
X92556094Y-80986344D01*
X92494938Y-81214586D01*
X92494936Y-81214596D01*
X92474341Y-81449999D01*
X92474341Y-81450000D01*
X92494936Y-81685403D01*
X92494938Y-81685413D01*
X92556094Y-81913655D01*
X92556096Y-81913659D01*
X92556097Y-81913663D01*
X92641239Y-82096250D01*
X92655965Y-82127830D01*
X92655967Y-82127834D01*
X92791501Y-82321395D01*
X92791506Y-82321402D01*
X92958597Y-82488493D01*
X92958603Y-82488498D01*
X93144158Y-82618425D01*
X93187783Y-82673002D01*
X93194977Y-82742500D01*
X93163454Y-82804855D01*
X93144158Y-82821575D01*
X92958597Y-82951505D01*
X92791505Y-83118597D01*
X92655965Y-83312169D01*
X92655964Y-83312171D01*
X92556098Y-83526335D01*
X92556094Y-83526344D01*
X92494938Y-83754586D01*
X92494936Y-83754596D01*
X92474341Y-83989999D01*
X92474341Y-83990000D01*
X90558905Y-83990000D01*
X90589922Y-34233786D01*
X90609648Y-34166762D01*
X90662481Y-34121040D01*
X90713785Y-34109866D01*
X124395628Y-34073630D01*
X127305316Y-34070500D01*
X146205500Y-34070500D01*
X146272539Y-34090185D01*
G37*
%TD.AperFunction*%
%TD*%
M02*
