%TF.GenerationSoftware,KiCad,Pcbnew,7.0.5-7.0.5~ubuntu22.04.1*%
%TF.CreationDate,2023-07-06T21:51:13-03:00*%
%TF.ProjectId,Dev-kit-multiboards,4465762d-6b69-4742-9d6d-756c7469626f,rev?*%
%TF.SameCoordinates,Original*%
%TF.FileFunction,Legend,Top*%
%TF.FilePolarity,Positive*%
%FSLAX46Y46*%
G04 Gerber Fmt 4.6, Leading zero omitted, Abs format (unit mm)*
G04 Created by KiCad (PCBNEW 7.0.5-7.0.5~ubuntu22.04.1) date 2023-07-06 21:51:13*
%MOMM*%
%LPD*%
G01*
G04 APERTURE LIST*
%ADD10C,0.080000*%
%ADD11C,0.100000*%
%ADD12C,0.150000*%
%ADD13C,0.200000*%
%ADD14C,0.120000*%
%ADD15C,0.127000*%
G04 APERTURE END LIST*
D10*
X96597869Y-129386887D02*
X96597869Y-128986887D01*
X96597869Y-128986887D02*
X96750250Y-128986887D01*
X96750250Y-128986887D02*
X96788345Y-129005935D01*
X96788345Y-129005935D02*
X96807392Y-129024982D01*
X96807392Y-129024982D02*
X96826440Y-129063078D01*
X96826440Y-129063078D02*
X96826440Y-129120220D01*
X96826440Y-129120220D02*
X96807392Y-129158316D01*
X96807392Y-129158316D02*
X96788345Y-129177363D01*
X96788345Y-129177363D02*
X96750250Y-129196411D01*
X96750250Y-129196411D02*
X96597869Y-129196411D01*
X96959773Y-128986887D02*
X97055011Y-129386887D01*
X97055011Y-129386887D02*
X97131202Y-129101173D01*
X97131202Y-129101173D02*
X97207392Y-129386887D01*
X97207392Y-129386887D02*
X97302631Y-128986887D01*
X97455012Y-129386887D02*
X97455012Y-128986887D01*
X97455012Y-128986887D02*
X97588345Y-129272601D01*
X97588345Y-129272601D02*
X97721678Y-128986887D01*
X97721678Y-128986887D02*
X97721678Y-129386887D01*
X98121678Y-129386887D02*
X97893107Y-129386887D01*
X98007393Y-129386887D02*
X98007393Y-128986887D01*
X98007393Y-128986887D02*
X97969297Y-129044030D01*
X97969297Y-129044030D02*
X97931202Y-129082125D01*
X97931202Y-129082125D02*
X97893107Y-129101173D01*
X94007869Y-129386887D02*
X94007869Y-128986887D01*
X94007869Y-128986887D02*
X94160250Y-128986887D01*
X94160250Y-128986887D02*
X94198345Y-129005935D01*
X94198345Y-129005935D02*
X94217392Y-129024982D01*
X94217392Y-129024982D02*
X94236440Y-129063078D01*
X94236440Y-129063078D02*
X94236440Y-129120220D01*
X94236440Y-129120220D02*
X94217392Y-129158316D01*
X94217392Y-129158316D02*
X94198345Y-129177363D01*
X94198345Y-129177363D02*
X94160250Y-129196411D01*
X94160250Y-129196411D02*
X94007869Y-129196411D01*
X94369773Y-128986887D02*
X94465011Y-129386887D01*
X94465011Y-129386887D02*
X94541202Y-129101173D01*
X94541202Y-129101173D02*
X94617392Y-129386887D01*
X94617392Y-129386887D02*
X94712631Y-128986887D01*
X94865012Y-129386887D02*
X94865012Y-128986887D01*
X94865012Y-128986887D02*
X94998345Y-129272601D01*
X94998345Y-129272601D02*
X95131678Y-128986887D01*
X95131678Y-128986887D02*
X95131678Y-129386887D01*
X95303107Y-129024982D02*
X95322155Y-129005935D01*
X95322155Y-129005935D02*
X95360250Y-128986887D01*
X95360250Y-128986887D02*
X95455488Y-128986887D01*
X95455488Y-128986887D02*
X95493583Y-129005935D01*
X95493583Y-129005935D02*
X95512631Y-129024982D01*
X95512631Y-129024982D02*
X95531678Y-129063078D01*
X95531678Y-129063078D02*
X95531678Y-129101173D01*
X95531678Y-129101173D02*
X95512631Y-129158316D01*
X95512631Y-129158316D02*
X95284059Y-129386887D01*
X95284059Y-129386887D02*
X95531678Y-129386887D01*
X107517869Y-129446887D02*
X107517869Y-129046887D01*
X107517869Y-129046887D02*
X107613107Y-129046887D01*
X107613107Y-129046887D02*
X107670250Y-129065935D01*
X107670250Y-129065935D02*
X107708345Y-129104030D01*
X107708345Y-129104030D02*
X107727392Y-129142125D01*
X107727392Y-129142125D02*
X107746440Y-129218316D01*
X107746440Y-129218316D02*
X107746440Y-129275459D01*
X107746440Y-129275459D02*
X107727392Y-129351649D01*
X107727392Y-129351649D02*
X107708345Y-129389744D01*
X107708345Y-129389744D02*
X107670250Y-129427840D01*
X107670250Y-129427840D02*
X107613107Y-129446887D01*
X107613107Y-129446887D02*
X107517869Y-129446887D01*
X107898821Y-129332601D02*
X108089297Y-129332601D01*
X107860726Y-129446887D02*
X107994059Y-129046887D01*
X107994059Y-129046887D02*
X108127392Y-129446887D01*
X108489297Y-129408792D02*
X108470249Y-129427840D01*
X108470249Y-129427840D02*
X108413107Y-129446887D01*
X108413107Y-129446887D02*
X108375011Y-129446887D01*
X108375011Y-129446887D02*
X108317868Y-129427840D01*
X108317868Y-129427840D02*
X108279773Y-129389744D01*
X108279773Y-129389744D02*
X108260726Y-129351649D01*
X108260726Y-129351649D02*
X108241678Y-129275459D01*
X108241678Y-129275459D02*
X108241678Y-129218316D01*
X108241678Y-129218316D02*
X108260726Y-129142125D01*
X108260726Y-129142125D02*
X108279773Y-129104030D01*
X108279773Y-129104030D02*
X108317868Y-129065935D01*
X108317868Y-129065935D02*
X108375011Y-129046887D01*
X108375011Y-129046887D02*
X108413107Y-129046887D01*
X108413107Y-129046887D02*
X108470249Y-129065935D01*
X108470249Y-129065935D02*
X108489297Y-129084982D01*
X108870249Y-129446887D02*
X108641678Y-129446887D01*
X108755964Y-129446887D02*
X108755964Y-129046887D01*
X108755964Y-129046887D02*
X108717868Y-129104030D01*
X108717868Y-129104030D02*
X108679773Y-129142125D01*
X108679773Y-129142125D02*
X108641678Y-129161173D01*
X104907869Y-129436887D02*
X104907869Y-129036887D01*
X104907869Y-129036887D02*
X105003107Y-129036887D01*
X105003107Y-129036887D02*
X105060250Y-129055935D01*
X105060250Y-129055935D02*
X105098345Y-129094030D01*
X105098345Y-129094030D02*
X105117392Y-129132125D01*
X105117392Y-129132125D02*
X105136440Y-129208316D01*
X105136440Y-129208316D02*
X105136440Y-129265459D01*
X105136440Y-129265459D02*
X105117392Y-129341649D01*
X105117392Y-129341649D02*
X105098345Y-129379744D01*
X105098345Y-129379744D02*
X105060250Y-129417840D01*
X105060250Y-129417840D02*
X105003107Y-129436887D01*
X105003107Y-129436887D02*
X104907869Y-129436887D01*
X105288821Y-129322601D02*
X105479297Y-129322601D01*
X105250726Y-129436887D02*
X105384059Y-129036887D01*
X105384059Y-129036887D02*
X105517392Y-129436887D01*
X105879297Y-129398792D02*
X105860249Y-129417840D01*
X105860249Y-129417840D02*
X105803107Y-129436887D01*
X105803107Y-129436887D02*
X105765011Y-129436887D01*
X105765011Y-129436887D02*
X105707868Y-129417840D01*
X105707868Y-129417840D02*
X105669773Y-129379744D01*
X105669773Y-129379744D02*
X105650726Y-129341649D01*
X105650726Y-129341649D02*
X105631678Y-129265459D01*
X105631678Y-129265459D02*
X105631678Y-129208316D01*
X105631678Y-129208316D02*
X105650726Y-129132125D01*
X105650726Y-129132125D02*
X105669773Y-129094030D01*
X105669773Y-129094030D02*
X105707868Y-129055935D01*
X105707868Y-129055935D02*
X105765011Y-129036887D01*
X105765011Y-129036887D02*
X105803107Y-129036887D01*
X105803107Y-129036887D02*
X105860249Y-129055935D01*
X105860249Y-129055935D02*
X105879297Y-129074982D01*
X106031678Y-129074982D02*
X106050726Y-129055935D01*
X106050726Y-129055935D02*
X106088821Y-129036887D01*
X106088821Y-129036887D02*
X106184059Y-129036887D01*
X106184059Y-129036887D02*
X106222154Y-129055935D01*
X106222154Y-129055935D02*
X106241202Y-129074982D01*
X106241202Y-129074982D02*
X106260249Y-129113078D01*
X106260249Y-129113078D02*
X106260249Y-129151173D01*
X106260249Y-129151173D02*
X106241202Y-129208316D01*
X106241202Y-129208316D02*
X106012630Y-129436887D01*
X106012630Y-129436887D02*
X106260249Y-129436887D01*
X130958821Y-129152601D02*
X131149297Y-129152601D01*
X130920726Y-129266887D02*
X131054059Y-128866887D01*
X131054059Y-128866887D02*
X131187392Y-129266887D01*
X131320726Y-129266887D02*
X131320726Y-128866887D01*
X131320726Y-128866887D02*
X131415964Y-128866887D01*
X131415964Y-128866887D02*
X131473107Y-128885935D01*
X131473107Y-128885935D02*
X131511202Y-128924030D01*
X131511202Y-128924030D02*
X131530249Y-128962125D01*
X131530249Y-128962125D02*
X131549297Y-129038316D01*
X131549297Y-129038316D02*
X131549297Y-129095459D01*
X131549297Y-129095459D02*
X131530249Y-129171649D01*
X131530249Y-129171649D02*
X131511202Y-129209744D01*
X131511202Y-129209744D02*
X131473107Y-129247840D01*
X131473107Y-129247840D02*
X131415964Y-129266887D01*
X131415964Y-129266887D02*
X131320726Y-129266887D01*
X131949297Y-129228792D02*
X131930249Y-129247840D01*
X131930249Y-129247840D02*
X131873107Y-129266887D01*
X131873107Y-129266887D02*
X131835011Y-129266887D01*
X131835011Y-129266887D02*
X131777868Y-129247840D01*
X131777868Y-129247840D02*
X131739773Y-129209744D01*
X131739773Y-129209744D02*
X131720726Y-129171649D01*
X131720726Y-129171649D02*
X131701678Y-129095459D01*
X131701678Y-129095459D02*
X131701678Y-129038316D01*
X131701678Y-129038316D02*
X131720726Y-128962125D01*
X131720726Y-128962125D02*
X131739773Y-128924030D01*
X131739773Y-128924030D02*
X131777868Y-128885935D01*
X131777868Y-128885935D02*
X131835011Y-128866887D01*
X131835011Y-128866887D02*
X131873107Y-128866887D01*
X131873107Y-128866887D02*
X131930249Y-128885935D01*
X131930249Y-128885935D02*
X131949297Y-128904982D01*
X132101678Y-128904982D02*
X132120726Y-128885935D01*
X132120726Y-128885935D02*
X132158821Y-128866887D01*
X132158821Y-128866887D02*
X132254059Y-128866887D01*
X132254059Y-128866887D02*
X132292154Y-128885935D01*
X132292154Y-128885935D02*
X132311202Y-128904982D01*
X132311202Y-128904982D02*
X132330249Y-128943078D01*
X132330249Y-128943078D02*
X132330249Y-128981173D01*
X132330249Y-128981173D02*
X132311202Y-129038316D01*
X132311202Y-129038316D02*
X132082630Y-129266887D01*
X132082630Y-129266887D02*
X132330249Y-129266887D01*
X128278821Y-129242601D02*
X128469297Y-129242601D01*
X128240726Y-129356887D02*
X128374059Y-128956887D01*
X128374059Y-128956887D02*
X128507392Y-129356887D01*
X128640726Y-129356887D02*
X128640726Y-128956887D01*
X128640726Y-128956887D02*
X128735964Y-128956887D01*
X128735964Y-128956887D02*
X128793107Y-128975935D01*
X128793107Y-128975935D02*
X128831202Y-129014030D01*
X128831202Y-129014030D02*
X128850249Y-129052125D01*
X128850249Y-129052125D02*
X128869297Y-129128316D01*
X128869297Y-129128316D02*
X128869297Y-129185459D01*
X128869297Y-129185459D02*
X128850249Y-129261649D01*
X128850249Y-129261649D02*
X128831202Y-129299744D01*
X128831202Y-129299744D02*
X128793107Y-129337840D01*
X128793107Y-129337840D02*
X128735964Y-129356887D01*
X128735964Y-129356887D02*
X128640726Y-129356887D01*
X129269297Y-129318792D02*
X129250249Y-129337840D01*
X129250249Y-129337840D02*
X129193107Y-129356887D01*
X129193107Y-129356887D02*
X129155011Y-129356887D01*
X129155011Y-129356887D02*
X129097868Y-129337840D01*
X129097868Y-129337840D02*
X129059773Y-129299744D01*
X129059773Y-129299744D02*
X129040726Y-129261649D01*
X129040726Y-129261649D02*
X129021678Y-129185459D01*
X129021678Y-129185459D02*
X129021678Y-129128316D01*
X129021678Y-129128316D02*
X129040726Y-129052125D01*
X129040726Y-129052125D02*
X129059773Y-129014030D01*
X129059773Y-129014030D02*
X129097868Y-128975935D01*
X129097868Y-128975935D02*
X129155011Y-128956887D01*
X129155011Y-128956887D02*
X129193107Y-128956887D01*
X129193107Y-128956887D02*
X129250249Y-128975935D01*
X129250249Y-128975935D02*
X129269297Y-128994982D01*
X129650249Y-129356887D02*
X129421678Y-129356887D01*
X129535964Y-129356887D02*
X129535964Y-128956887D01*
X129535964Y-128956887D02*
X129497868Y-129014030D01*
X129497868Y-129014030D02*
X129459773Y-129052125D01*
X129459773Y-129052125D02*
X129421678Y-129071173D01*
X142126440Y-129376887D02*
X141993107Y-129186411D01*
X141897869Y-129376887D02*
X141897869Y-128976887D01*
X141897869Y-128976887D02*
X142050250Y-128976887D01*
X142050250Y-128976887D02*
X142088345Y-128995935D01*
X142088345Y-128995935D02*
X142107392Y-129014982D01*
X142107392Y-129014982D02*
X142126440Y-129053078D01*
X142126440Y-129053078D02*
X142126440Y-129110220D01*
X142126440Y-129110220D02*
X142107392Y-129148316D01*
X142107392Y-129148316D02*
X142088345Y-129167363D01*
X142088345Y-129167363D02*
X142050250Y-129186411D01*
X142050250Y-129186411D02*
X141897869Y-129186411D01*
X142259773Y-128976887D02*
X142526440Y-129376887D01*
X142526440Y-128976887D02*
X142259773Y-129376887D01*
X139300726Y-128956887D02*
X139529297Y-128956887D01*
X139415011Y-129356887D02*
X139415011Y-128956887D01*
X139624535Y-128956887D02*
X139891202Y-129356887D01*
X139891202Y-128956887D02*
X139624535Y-129356887D01*
X144886887Y-117600226D02*
X144886887Y-117352607D01*
X144886887Y-117352607D02*
X145039268Y-117485940D01*
X145039268Y-117485940D02*
X145039268Y-117428797D01*
X145039268Y-117428797D02*
X145058316Y-117390702D01*
X145058316Y-117390702D02*
X145077363Y-117371654D01*
X145077363Y-117371654D02*
X145115459Y-117352607D01*
X145115459Y-117352607D02*
X145210697Y-117352607D01*
X145210697Y-117352607D02*
X145248792Y-117371654D01*
X145248792Y-117371654D02*
X145267840Y-117390702D01*
X145267840Y-117390702D02*
X145286887Y-117428797D01*
X145286887Y-117428797D02*
X145286887Y-117543083D01*
X145286887Y-117543083D02*
X145267840Y-117581178D01*
X145267840Y-117581178D02*
X145248792Y-117600226D01*
X144886887Y-117238321D02*
X145286887Y-117104988D01*
X145286887Y-117104988D02*
X144886887Y-116971655D01*
X144886887Y-116876417D02*
X144886887Y-116628798D01*
X144886887Y-116628798D02*
X145039268Y-116762131D01*
X145039268Y-116762131D02*
X145039268Y-116704988D01*
X145039268Y-116704988D02*
X145058316Y-116666893D01*
X145058316Y-116666893D02*
X145077363Y-116647845D01*
X145077363Y-116647845D02*
X145115459Y-116628798D01*
X145115459Y-116628798D02*
X145210697Y-116628798D01*
X145210697Y-116628798D02*
X145248792Y-116647845D01*
X145248792Y-116647845D02*
X145267840Y-116666893D01*
X145267840Y-116666893D02*
X145286887Y-116704988D01*
X145286887Y-116704988D02*
X145286887Y-116819274D01*
X145286887Y-116819274D02*
X145267840Y-116857369D01*
X145267840Y-116857369D02*
X145248792Y-116876417D01*
X145267840Y-115041178D02*
X145286887Y-114984035D01*
X145286887Y-114984035D02*
X145286887Y-114888797D01*
X145286887Y-114888797D02*
X145267840Y-114850702D01*
X145267840Y-114850702D02*
X145248792Y-114831654D01*
X145248792Y-114831654D02*
X145210697Y-114812607D01*
X145210697Y-114812607D02*
X145172601Y-114812607D01*
X145172601Y-114812607D02*
X145134506Y-114831654D01*
X145134506Y-114831654D02*
X145115459Y-114850702D01*
X145115459Y-114850702D02*
X145096411Y-114888797D01*
X145096411Y-114888797D02*
X145077363Y-114964988D01*
X145077363Y-114964988D02*
X145058316Y-115003083D01*
X145058316Y-115003083D02*
X145039268Y-115022130D01*
X145039268Y-115022130D02*
X145001173Y-115041178D01*
X145001173Y-115041178D02*
X144963078Y-115041178D01*
X144963078Y-115041178D02*
X144924982Y-115022130D01*
X144924982Y-115022130D02*
X144905935Y-115003083D01*
X144905935Y-115003083D02*
X144886887Y-114964988D01*
X144886887Y-114964988D02*
X144886887Y-114869749D01*
X144886887Y-114869749D02*
X144905935Y-114812607D01*
X145286887Y-114641178D02*
X144886887Y-114641178D01*
X144886887Y-114641178D02*
X144886887Y-114545940D01*
X144886887Y-114545940D02*
X144905935Y-114488797D01*
X144905935Y-114488797D02*
X144944030Y-114450702D01*
X144944030Y-114450702D02*
X144982125Y-114431655D01*
X144982125Y-114431655D02*
X145058316Y-114412607D01*
X145058316Y-114412607D02*
X145115459Y-114412607D01*
X145115459Y-114412607D02*
X145191649Y-114431655D01*
X145191649Y-114431655D02*
X145229744Y-114450702D01*
X145229744Y-114450702D02*
X145267840Y-114488797D01*
X145267840Y-114488797D02*
X145286887Y-114545940D01*
X145286887Y-114545940D02*
X145286887Y-114641178D01*
X145172601Y-114260226D02*
X145172601Y-114069750D01*
X145286887Y-114298321D02*
X144886887Y-114164988D01*
X144886887Y-114164988D02*
X145286887Y-114031655D01*
X145267840Y-112401178D02*
X145286887Y-112344035D01*
X145286887Y-112344035D02*
X145286887Y-112248797D01*
X145286887Y-112248797D02*
X145267840Y-112210702D01*
X145267840Y-112210702D02*
X145248792Y-112191654D01*
X145248792Y-112191654D02*
X145210697Y-112172607D01*
X145210697Y-112172607D02*
X145172601Y-112172607D01*
X145172601Y-112172607D02*
X145134506Y-112191654D01*
X145134506Y-112191654D02*
X145115459Y-112210702D01*
X145115459Y-112210702D02*
X145096411Y-112248797D01*
X145096411Y-112248797D02*
X145077363Y-112324988D01*
X145077363Y-112324988D02*
X145058316Y-112363083D01*
X145058316Y-112363083D02*
X145039268Y-112382130D01*
X145039268Y-112382130D02*
X145001173Y-112401178D01*
X145001173Y-112401178D02*
X144963078Y-112401178D01*
X144963078Y-112401178D02*
X144924982Y-112382130D01*
X144924982Y-112382130D02*
X144905935Y-112363083D01*
X144905935Y-112363083D02*
X144886887Y-112324988D01*
X144886887Y-112324988D02*
X144886887Y-112229749D01*
X144886887Y-112229749D02*
X144905935Y-112172607D01*
X145248792Y-111772607D02*
X145267840Y-111791655D01*
X145267840Y-111791655D02*
X145286887Y-111848797D01*
X145286887Y-111848797D02*
X145286887Y-111886893D01*
X145286887Y-111886893D02*
X145267840Y-111944036D01*
X145267840Y-111944036D02*
X145229744Y-111982131D01*
X145229744Y-111982131D02*
X145191649Y-112001178D01*
X145191649Y-112001178D02*
X145115459Y-112020226D01*
X145115459Y-112020226D02*
X145058316Y-112020226D01*
X145058316Y-112020226D02*
X144982125Y-112001178D01*
X144982125Y-112001178D02*
X144944030Y-111982131D01*
X144944030Y-111982131D02*
X144905935Y-111944036D01*
X144905935Y-111944036D02*
X144886887Y-111886893D01*
X144886887Y-111886893D02*
X144886887Y-111848797D01*
X144886887Y-111848797D02*
X144905935Y-111791655D01*
X144905935Y-111791655D02*
X144924982Y-111772607D01*
X145286887Y-111410702D02*
X145286887Y-111601178D01*
X145286887Y-111601178D02*
X144886887Y-111601178D01*
X144905935Y-109582607D02*
X144886887Y-109620702D01*
X144886887Y-109620702D02*
X144886887Y-109677845D01*
X144886887Y-109677845D02*
X144905935Y-109734988D01*
X144905935Y-109734988D02*
X144944030Y-109773083D01*
X144944030Y-109773083D02*
X144982125Y-109792130D01*
X144982125Y-109792130D02*
X145058316Y-109811178D01*
X145058316Y-109811178D02*
X145115459Y-109811178D01*
X145115459Y-109811178D02*
X145191649Y-109792130D01*
X145191649Y-109792130D02*
X145229744Y-109773083D01*
X145229744Y-109773083D02*
X145267840Y-109734988D01*
X145267840Y-109734988D02*
X145286887Y-109677845D01*
X145286887Y-109677845D02*
X145286887Y-109639749D01*
X145286887Y-109639749D02*
X145267840Y-109582607D01*
X145267840Y-109582607D02*
X145248792Y-109563559D01*
X145248792Y-109563559D02*
X145115459Y-109563559D01*
X145115459Y-109563559D02*
X145115459Y-109639749D01*
X145286887Y-109392130D02*
X144886887Y-109392130D01*
X144886887Y-109392130D02*
X145286887Y-109163559D01*
X145286887Y-109163559D02*
X144886887Y-109163559D01*
X145286887Y-108973082D02*
X144886887Y-108973082D01*
X144886887Y-108973082D02*
X144886887Y-108877844D01*
X144886887Y-108877844D02*
X144905935Y-108820701D01*
X144905935Y-108820701D02*
X144944030Y-108782606D01*
X144944030Y-108782606D02*
X144982125Y-108763559D01*
X144982125Y-108763559D02*
X145058316Y-108744511D01*
X145058316Y-108744511D02*
X145115459Y-108744511D01*
X145115459Y-108744511D02*
X145191649Y-108763559D01*
X145191649Y-108763559D02*
X145229744Y-108782606D01*
X145229744Y-108782606D02*
X145267840Y-108820701D01*
X145267840Y-108820701D02*
X145286887Y-108877844D01*
X145286887Y-108877844D02*
X145286887Y-108973082D01*
X145318792Y-101583559D02*
X145337840Y-101602607D01*
X145337840Y-101602607D02*
X145356887Y-101659749D01*
X145356887Y-101659749D02*
X145356887Y-101697845D01*
X145356887Y-101697845D02*
X145337840Y-101754988D01*
X145337840Y-101754988D02*
X145299744Y-101793083D01*
X145299744Y-101793083D02*
X145261649Y-101812130D01*
X145261649Y-101812130D02*
X145185459Y-101831178D01*
X145185459Y-101831178D02*
X145128316Y-101831178D01*
X145128316Y-101831178D02*
X145052125Y-101812130D01*
X145052125Y-101812130D02*
X145014030Y-101793083D01*
X145014030Y-101793083D02*
X144975935Y-101754988D01*
X144975935Y-101754988D02*
X144956887Y-101697845D01*
X144956887Y-101697845D02*
X144956887Y-101659749D01*
X144956887Y-101659749D02*
X144975935Y-101602607D01*
X144975935Y-101602607D02*
X144994982Y-101583559D01*
X145337840Y-101431178D02*
X145356887Y-101374035D01*
X145356887Y-101374035D02*
X145356887Y-101278797D01*
X145356887Y-101278797D02*
X145337840Y-101240702D01*
X145337840Y-101240702D02*
X145318792Y-101221654D01*
X145318792Y-101221654D02*
X145280697Y-101202607D01*
X145280697Y-101202607D02*
X145242601Y-101202607D01*
X145242601Y-101202607D02*
X145204506Y-101221654D01*
X145204506Y-101221654D02*
X145185459Y-101240702D01*
X145185459Y-101240702D02*
X145166411Y-101278797D01*
X145166411Y-101278797D02*
X145147363Y-101354988D01*
X145147363Y-101354988D02*
X145128316Y-101393083D01*
X145128316Y-101393083D02*
X145109268Y-101412130D01*
X145109268Y-101412130D02*
X145071173Y-101431178D01*
X145071173Y-101431178D02*
X145033078Y-101431178D01*
X145033078Y-101431178D02*
X144994982Y-101412130D01*
X144994982Y-101412130D02*
X144975935Y-101393083D01*
X144975935Y-101393083D02*
X144956887Y-101354988D01*
X144956887Y-101354988D02*
X144956887Y-101259749D01*
X144956887Y-101259749D02*
X144975935Y-101202607D01*
X145318792Y-99343559D02*
X145337840Y-99362607D01*
X145337840Y-99362607D02*
X145356887Y-99419749D01*
X145356887Y-99419749D02*
X145356887Y-99457845D01*
X145356887Y-99457845D02*
X145337840Y-99514988D01*
X145337840Y-99514988D02*
X145299744Y-99553083D01*
X145299744Y-99553083D02*
X145261649Y-99572130D01*
X145261649Y-99572130D02*
X145185459Y-99591178D01*
X145185459Y-99591178D02*
X145128316Y-99591178D01*
X145128316Y-99591178D02*
X145052125Y-99572130D01*
X145052125Y-99572130D02*
X145014030Y-99553083D01*
X145014030Y-99553083D02*
X144975935Y-99514988D01*
X144975935Y-99514988D02*
X144956887Y-99457845D01*
X144956887Y-99457845D02*
X144956887Y-99419749D01*
X144956887Y-99419749D02*
X144975935Y-99362607D01*
X144975935Y-99362607D02*
X144994982Y-99343559D01*
X145356887Y-98981654D02*
X145356887Y-99172130D01*
X145356887Y-99172130D02*
X144956887Y-99172130D01*
X145356887Y-98848320D02*
X144956887Y-98848320D01*
X145356887Y-98619749D02*
X145128316Y-98791178D01*
X144956887Y-98619749D02*
X145185459Y-98848320D01*
X145356887Y-96922130D02*
X144956887Y-96922130D01*
X144956887Y-96922130D02*
X145242601Y-96788797D01*
X145242601Y-96788797D02*
X144956887Y-96655464D01*
X144956887Y-96655464D02*
X145356887Y-96655464D01*
X145356887Y-96464987D02*
X144956887Y-96464987D01*
X145337840Y-96293559D02*
X145356887Y-96236416D01*
X145356887Y-96236416D02*
X145356887Y-96141178D01*
X145356887Y-96141178D02*
X145337840Y-96103083D01*
X145337840Y-96103083D02*
X145318792Y-96084035D01*
X145318792Y-96084035D02*
X145280697Y-96064988D01*
X145280697Y-96064988D02*
X145242601Y-96064988D01*
X145242601Y-96064988D02*
X145204506Y-96084035D01*
X145204506Y-96084035D02*
X145185459Y-96103083D01*
X145185459Y-96103083D02*
X145166411Y-96141178D01*
X145166411Y-96141178D02*
X145147363Y-96217369D01*
X145147363Y-96217369D02*
X145128316Y-96255464D01*
X145128316Y-96255464D02*
X145109268Y-96274511D01*
X145109268Y-96274511D02*
X145071173Y-96293559D01*
X145071173Y-96293559D02*
X145033078Y-96293559D01*
X145033078Y-96293559D02*
X144994982Y-96274511D01*
X144994982Y-96274511D02*
X144975935Y-96255464D01*
X144975935Y-96255464D02*
X144956887Y-96217369D01*
X144956887Y-96217369D02*
X144956887Y-96122130D01*
X144956887Y-96122130D02*
X144975935Y-96064988D01*
X144956887Y-95817369D02*
X144956887Y-95741178D01*
X144956887Y-95741178D02*
X144975935Y-95703083D01*
X144975935Y-95703083D02*
X145014030Y-95664988D01*
X145014030Y-95664988D02*
X145090220Y-95645940D01*
X145090220Y-95645940D02*
X145223554Y-95645940D01*
X145223554Y-95645940D02*
X145299744Y-95664988D01*
X145299744Y-95664988D02*
X145337840Y-95703083D01*
X145337840Y-95703083D02*
X145356887Y-95741178D01*
X145356887Y-95741178D02*
X145356887Y-95817369D01*
X145356887Y-95817369D02*
X145337840Y-95855464D01*
X145337840Y-95855464D02*
X145299744Y-95893559D01*
X145299744Y-95893559D02*
X145223554Y-95912607D01*
X145223554Y-95912607D02*
X145090220Y-95912607D01*
X145090220Y-95912607D02*
X145014030Y-95893559D01*
X145014030Y-95893559D02*
X144975935Y-95855464D01*
X144975935Y-95855464D02*
X144956887Y-95817369D01*
X145356887Y-94462130D02*
X144956887Y-94462130D01*
X144956887Y-94462130D02*
X145242601Y-94328797D01*
X145242601Y-94328797D02*
X144956887Y-94195464D01*
X144956887Y-94195464D02*
X145356887Y-94195464D01*
X144956887Y-93928797D02*
X144956887Y-93852606D01*
X144956887Y-93852606D02*
X144975935Y-93814511D01*
X144975935Y-93814511D02*
X145014030Y-93776416D01*
X145014030Y-93776416D02*
X145090220Y-93757368D01*
X145090220Y-93757368D02*
X145223554Y-93757368D01*
X145223554Y-93757368D02*
X145299744Y-93776416D01*
X145299744Y-93776416D02*
X145337840Y-93814511D01*
X145337840Y-93814511D02*
X145356887Y-93852606D01*
X145356887Y-93852606D02*
X145356887Y-93928797D01*
X145356887Y-93928797D02*
X145337840Y-93966892D01*
X145337840Y-93966892D02*
X145299744Y-94004987D01*
X145299744Y-94004987D02*
X145223554Y-94024035D01*
X145223554Y-94024035D02*
X145090220Y-94024035D01*
X145090220Y-94024035D02*
X145014030Y-94004987D01*
X145014030Y-94004987D02*
X144975935Y-93966892D01*
X144975935Y-93966892D02*
X144956887Y-93928797D01*
X145337840Y-93604987D02*
X145356887Y-93547844D01*
X145356887Y-93547844D02*
X145356887Y-93452606D01*
X145356887Y-93452606D02*
X145337840Y-93414511D01*
X145337840Y-93414511D02*
X145318792Y-93395463D01*
X145318792Y-93395463D02*
X145280697Y-93376416D01*
X145280697Y-93376416D02*
X145242601Y-93376416D01*
X145242601Y-93376416D02*
X145204506Y-93395463D01*
X145204506Y-93395463D02*
X145185459Y-93414511D01*
X145185459Y-93414511D02*
X145166411Y-93452606D01*
X145166411Y-93452606D02*
X145147363Y-93528797D01*
X145147363Y-93528797D02*
X145128316Y-93566892D01*
X145128316Y-93566892D02*
X145109268Y-93585939D01*
X145109268Y-93585939D02*
X145071173Y-93604987D01*
X145071173Y-93604987D02*
X145033078Y-93604987D01*
X145033078Y-93604987D02*
X144994982Y-93585939D01*
X144994982Y-93585939D02*
X144975935Y-93566892D01*
X144975935Y-93566892D02*
X144956887Y-93528797D01*
X144956887Y-93528797D02*
X144956887Y-93433558D01*
X144956887Y-93433558D02*
X144975935Y-93376416D01*
X145356887Y-93204987D02*
X144956887Y-93204987D01*
D11*
X139164836Y-84616895D02*
X139164836Y-83816895D01*
X139698169Y-83816895D02*
X139850550Y-83816895D01*
X139850550Y-83816895D02*
X139926740Y-83854990D01*
X139926740Y-83854990D02*
X140002931Y-83931180D01*
X140002931Y-83931180D02*
X140041026Y-84083561D01*
X140041026Y-84083561D02*
X140041026Y-84350228D01*
X140041026Y-84350228D02*
X140002931Y-84502609D01*
X140002931Y-84502609D02*
X139926740Y-84578800D01*
X139926740Y-84578800D02*
X139850550Y-84616895D01*
X139850550Y-84616895D02*
X139698169Y-84616895D01*
X139698169Y-84616895D02*
X139621978Y-84578800D01*
X139621978Y-84578800D02*
X139545788Y-84502609D01*
X139545788Y-84502609D02*
X139507692Y-84350228D01*
X139507692Y-84350228D02*
X139507692Y-84083561D01*
X139507692Y-84083561D02*
X139545788Y-83931180D01*
X139545788Y-83931180D02*
X139621978Y-83854990D01*
X139621978Y-83854990D02*
X139698169Y-83816895D01*
X140726740Y-83816895D02*
X140574359Y-83816895D01*
X140574359Y-83816895D02*
X140498168Y-83854990D01*
X140498168Y-83854990D02*
X140460073Y-83893085D01*
X140460073Y-83893085D02*
X140383883Y-84007371D01*
X140383883Y-84007371D02*
X140345787Y-84159752D01*
X140345787Y-84159752D02*
X140345787Y-84464514D01*
X140345787Y-84464514D02*
X140383883Y-84540704D01*
X140383883Y-84540704D02*
X140421978Y-84578800D01*
X140421978Y-84578800D02*
X140498168Y-84616895D01*
X140498168Y-84616895D02*
X140650549Y-84616895D01*
X140650549Y-84616895D02*
X140726740Y-84578800D01*
X140726740Y-84578800D02*
X140764835Y-84540704D01*
X140764835Y-84540704D02*
X140802930Y-84464514D01*
X140802930Y-84464514D02*
X140802930Y-84274038D01*
X140802930Y-84274038D02*
X140764835Y-84197847D01*
X140764835Y-84197847D02*
X140726740Y-84159752D01*
X140726740Y-84159752D02*
X140650549Y-84121657D01*
X140650549Y-84121657D02*
X140498168Y-84121657D01*
X140498168Y-84121657D02*
X140421978Y-84159752D01*
X140421978Y-84159752D02*
X140383883Y-84197847D01*
X140383883Y-84197847D02*
X140345787Y-84274038D01*
X139164836Y-82076895D02*
X139164836Y-81276895D01*
X139698169Y-81276895D02*
X139850550Y-81276895D01*
X139850550Y-81276895D02*
X139926740Y-81314990D01*
X139926740Y-81314990D02*
X140002931Y-81391180D01*
X140002931Y-81391180D02*
X140041026Y-81543561D01*
X140041026Y-81543561D02*
X140041026Y-81810228D01*
X140041026Y-81810228D02*
X140002931Y-81962609D01*
X140002931Y-81962609D02*
X139926740Y-82038800D01*
X139926740Y-82038800D02*
X139850550Y-82076895D01*
X139850550Y-82076895D02*
X139698169Y-82076895D01*
X139698169Y-82076895D02*
X139621978Y-82038800D01*
X139621978Y-82038800D02*
X139545788Y-81962609D01*
X139545788Y-81962609D02*
X139507692Y-81810228D01*
X139507692Y-81810228D02*
X139507692Y-81543561D01*
X139507692Y-81543561D02*
X139545788Y-81391180D01*
X139545788Y-81391180D02*
X139621978Y-81314990D01*
X139621978Y-81314990D02*
X139698169Y-81276895D01*
X140307692Y-81276895D02*
X140841026Y-81276895D01*
X140841026Y-81276895D02*
X140498168Y-82076895D01*
X139164836Y-79426895D02*
X139164836Y-78626895D01*
X139698169Y-78626895D02*
X139850550Y-78626895D01*
X139850550Y-78626895D02*
X139926740Y-78664990D01*
X139926740Y-78664990D02*
X140002931Y-78741180D01*
X140002931Y-78741180D02*
X140041026Y-78893561D01*
X140041026Y-78893561D02*
X140041026Y-79160228D01*
X140041026Y-79160228D02*
X140002931Y-79312609D01*
X140002931Y-79312609D02*
X139926740Y-79388800D01*
X139926740Y-79388800D02*
X139850550Y-79426895D01*
X139850550Y-79426895D02*
X139698169Y-79426895D01*
X139698169Y-79426895D02*
X139621978Y-79388800D01*
X139621978Y-79388800D02*
X139545788Y-79312609D01*
X139545788Y-79312609D02*
X139507692Y-79160228D01*
X139507692Y-79160228D02*
X139507692Y-78893561D01*
X139507692Y-78893561D02*
X139545788Y-78741180D01*
X139545788Y-78741180D02*
X139621978Y-78664990D01*
X139621978Y-78664990D02*
X139698169Y-78626895D01*
X140498168Y-78969752D02*
X140421978Y-78931657D01*
X140421978Y-78931657D02*
X140383883Y-78893561D01*
X140383883Y-78893561D02*
X140345787Y-78817371D01*
X140345787Y-78817371D02*
X140345787Y-78779276D01*
X140345787Y-78779276D02*
X140383883Y-78703085D01*
X140383883Y-78703085D02*
X140421978Y-78664990D01*
X140421978Y-78664990D02*
X140498168Y-78626895D01*
X140498168Y-78626895D02*
X140650549Y-78626895D01*
X140650549Y-78626895D02*
X140726740Y-78664990D01*
X140726740Y-78664990D02*
X140764835Y-78703085D01*
X140764835Y-78703085D02*
X140802930Y-78779276D01*
X140802930Y-78779276D02*
X140802930Y-78817371D01*
X140802930Y-78817371D02*
X140764835Y-78893561D01*
X140764835Y-78893561D02*
X140726740Y-78931657D01*
X140726740Y-78931657D02*
X140650549Y-78969752D01*
X140650549Y-78969752D02*
X140498168Y-78969752D01*
X140498168Y-78969752D02*
X140421978Y-79007847D01*
X140421978Y-79007847D02*
X140383883Y-79045942D01*
X140383883Y-79045942D02*
X140345787Y-79122133D01*
X140345787Y-79122133D02*
X140345787Y-79274514D01*
X140345787Y-79274514D02*
X140383883Y-79350704D01*
X140383883Y-79350704D02*
X140421978Y-79388800D01*
X140421978Y-79388800D02*
X140498168Y-79426895D01*
X140498168Y-79426895D02*
X140650549Y-79426895D01*
X140650549Y-79426895D02*
X140726740Y-79388800D01*
X140726740Y-79388800D02*
X140764835Y-79350704D01*
X140764835Y-79350704D02*
X140802930Y-79274514D01*
X140802930Y-79274514D02*
X140802930Y-79122133D01*
X140802930Y-79122133D02*
X140764835Y-79045942D01*
X140764835Y-79045942D02*
X140726740Y-79007847D01*
X140726740Y-79007847D02*
X140650549Y-78969752D01*
X138783884Y-77016895D02*
X138783884Y-76216895D01*
X139317217Y-76216895D02*
X139469598Y-76216895D01*
X139469598Y-76216895D02*
X139545788Y-76254990D01*
X139545788Y-76254990D02*
X139621979Y-76331180D01*
X139621979Y-76331180D02*
X139660074Y-76483561D01*
X139660074Y-76483561D02*
X139660074Y-76750228D01*
X139660074Y-76750228D02*
X139621979Y-76902609D01*
X139621979Y-76902609D02*
X139545788Y-76978800D01*
X139545788Y-76978800D02*
X139469598Y-77016895D01*
X139469598Y-77016895D02*
X139317217Y-77016895D01*
X139317217Y-77016895D02*
X139241026Y-76978800D01*
X139241026Y-76978800D02*
X139164836Y-76902609D01*
X139164836Y-76902609D02*
X139126740Y-76750228D01*
X139126740Y-76750228D02*
X139126740Y-76483561D01*
X139126740Y-76483561D02*
X139164836Y-76331180D01*
X139164836Y-76331180D02*
X139241026Y-76254990D01*
X139241026Y-76254990D02*
X139317217Y-76216895D01*
X140421978Y-77016895D02*
X139964835Y-77016895D01*
X140193407Y-77016895D02*
X140193407Y-76216895D01*
X140193407Y-76216895D02*
X140117216Y-76331180D01*
X140117216Y-76331180D02*
X140041026Y-76407371D01*
X140041026Y-76407371D02*
X139964835Y-76445466D01*
X141145788Y-76216895D02*
X140764836Y-76216895D01*
X140764836Y-76216895D02*
X140726740Y-76597847D01*
X140726740Y-76597847D02*
X140764836Y-76559752D01*
X140764836Y-76559752D02*
X140841026Y-76521657D01*
X140841026Y-76521657D02*
X141031502Y-76521657D01*
X141031502Y-76521657D02*
X141107693Y-76559752D01*
X141107693Y-76559752D02*
X141145788Y-76597847D01*
X141145788Y-76597847D02*
X141183883Y-76674038D01*
X141183883Y-76674038D02*
X141183883Y-76864514D01*
X141183883Y-76864514D02*
X141145788Y-76940704D01*
X141145788Y-76940704D02*
X141107693Y-76978800D01*
X141107693Y-76978800D02*
X141031502Y-77016895D01*
X141031502Y-77016895D02*
X140841026Y-77016895D01*
X140841026Y-77016895D02*
X140764836Y-76978800D01*
X140764836Y-76978800D02*
X140726740Y-76940704D01*
X139164836Y-74326895D02*
X139164836Y-73526895D01*
X139698169Y-73526895D02*
X139850550Y-73526895D01*
X139850550Y-73526895D02*
X139926740Y-73564990D01*
X139926740Y-73564990D02*
X140002931Y-73641180D01*
X140002931Y-73641180D02*
X140041026Y-73793561D01*
X140041026Y-73793561D02*
X140041026Y-74060228D01*
X140041026Y-74060228D02*
X140002931Y-74212609D01*
X140002931Y-74212609D02*
X139926740Y-74288800D01*
X139926740Y-74288800D02*
X139850550Y-74326895D01*
X139850550Y-74326895D02*
X139698169Y-74326895D01*
X139698169Y-74326895D02*
X139621978Y-74288800D01*
X139621978Y-74288800D02*
X139545788Y-74212609D01*
X139545788Y-74212609D02*
X139507692Y-74060228D01*
X139507692Y-74060228D02*
X139507692Y-73793561D01*
X139507692Y-73793561D02*
X139545788Y-73641180D01*
X139545788Y-73641180D02*
X139621978Y-73564990D01*
X139621978Y-73564990D02*
X139698169Y-73526895D01*
X140345787Y-73603085D02*
X140383883Y-73564990D01*
X140383883Y-73564990D02*
X140460073Y-73526895D01*
X140460073Y-73526895D02*
X140650549Y-73526895D01*
X140650549Y-73526895D02*
X140726740Y-73564990D01*
X140726740Y-73564990D02*
X140764835Y-73603085D01*
X140764835Y-73603085D02*
X140802930Y-73679276D01*
X140802930Y-73679276D02*
X140802930Y-73755466D01*
X140802930Y-73755466D02*
X140764835Y-73869752D01*
X140764835Y-73869752D02*
X140307692Y-74326895D01*
X140307692Y-74326895D02*
X140802930Y-74326895D01*
X139164836Y-71746895D02*
X139164836Y-70946895D01*
X139698169Y-70946895D02*
X139850550Y-70946895D01*
X139850550Y-70946895D02*
X139926740Y-70984990D01*
X139926740Y-70984990D02*
X140002931Y-71061180D01*
X140002931Y-71061180D02*
X140041026Y-71213561D01*
X140041026Y-71213561D02*
X140041026Y-71480228D01*
X140041026Y-71480228D02*
X140002931Y-71632609D01*
X140002931Y-71632609D02*
X139926740Y-71708800D01*
X139926740Y-71708800D02*
X139850550Y-71746895D01*
X139850550Y-71746895D02*
X139698169Y-71746895D01*
X139698169Y-71746895D02*
X139621978Y-71708800D01*
X139621978Y-71708800D02*
X139545788Y-71632609D01*
X139545788Y-71632609D02*
X139507692Y-71480228D01*
X139507692Y-71480228D02*
X139507692Y-71213561D01*
X139507692Y-71213561D02*
X139545788Y-71061180D01*
X139545788Y-71061180D02*
X139621978Y-70984990D01*
X139621978Y-70984990D02*
X139698169Y-70946895D01*
X140536264Y-70946895D02*
X140612454Y-70946895D01*
X140612454Y-70946895D02*
X140688645Y-70984990D01*
X140688645Y-70984990D02*
X140726740Y-71023085D01*
X140726740Y-71023085D02*
X140764835Y-71099276D01*
X140764835Y-71099276D02*
X140802930Y-71251657D01*
X140802930Y-71251657D02*
X140802930Y-71442133D01*
X140802930Y-71442133D02*
X140764835Y-71594514D01*
X140764835Y-71594514D02*
X140726740Y-71670704D01*
X140726740Y-71670704D02*
X140688645Y-71708800D01*
X140688645Y-71708800D02*
X140612454Y-71746895D01*
X140612454Y-71746895D02*
X140536264Y-71746895D01*
X140536264Y-71746895D02*
X140460073Y-71708800D01*
X140460073Y-71708800D02*
X140421978Y-71670704D01*
X140421978Y-71670704D02*
X140383883Y-71594514D01*
X140383883Y-71594514D02*
X140345787Y-71442133D01*
X140345787Y-71442133D02*
X140345787Y-71251657D01*
X140345787Y-71251657D02*
X140383883Y-71099276D01*
X140383883Y-71099276D02*
X140421978Y-71023085D01*
X140421978Y-71023085D02*
X140460073Y-70984990D01*
X140460073Y-70984990D02*
X140536264Y-70946895D01*
X139164836Y-69266895D02*
X139164836Y-68466895D01*
X139698169Y-68466895D02*
X139850550Y-68466895D01*
X139850550Y-68466895D02*
X139926740Y-68504990D01*
X139926740Y-68504990D02*
X140002931Y-68581180D01*
X140002931Y-68581180D02*
X140041026Y-68733561D01*
X140041026Y-68733561D02*
X140041026Y-69000228D01*
X140041026Y-69000228D02*
X140002931Y-69152609D01*
X140002931Y-69152609D02*
X139926740Y-69228800D01*
X139926740Y-69228800D02*
X139850550Y-69266895D01*
X139850550Y-69266895D02*
X139698169Y-69266895D01*
X139698169Y-69266895D02*
X139621978Y-69228800D01*
X139621978Y-69228800D02*
X139545788Y-69152609D01*
X139545788Y-69152609D02*
X139507692Y-69000228D01*
X139507692Y-69000228D02*
X139507692Y-68733561D01*
X139507692Y-68733561D02*
X139545788Y-68581180D01*
X139545788Y-68581180D02*
X139621978Y-68504990D01*
X139621978Y-68504990D02*
X139698169Y-68466895D01*
X140726740Y-68733561D02*
X140726740Y-69266895D01*
X140536264Y-68428800D02*
X140345787Y-69000228D01*
X140345787Y-69000228D02*
X140841026Y-69000228D01*
X138783884Y-66786895D02*
X138783884Y-65986895D01*
X139317217Y-65986895D02*
X139469598Y-65986895D01*
X139469598Y-65986895D02*
X139545788Y-66024990D01*
X139545788Y-66024990D02*
X139621979Y-66101180D01*
X139621979Y-66101180D02*
X139660074Y-66253561D01*
X139660074Y-66253561D02*
X139660074Y-66520228D01*
X139660074Y-66520228D02*
X139621979Y-66672609D01*
X139621979Y-66672609D02*
X139545788Y-66748800D01*
X139545788Y-66748800D02*
X139469598Y-66786895D01*
X139469598Y-66786895D02*
X139317217Y-66786895D01*
X139317217Y-66786895D02*
X139241026Y-66748800D01*
X139241026Y-66748800D02*
X139164836Y-66672609D01*
X139164836Y-66672609D02*
X139126740Y-66520228D01*
X139126740Y-66520228D02*
X139126740Y-66253561D01*
X139126740Y-66253561D02*
X139164836Y-66101180D01*
X139164836Y-66101180D02*
X139241026Y-66024990D01*
X139241026Y-66024990D02*
X139317217Y-65986895D01*
X140421978Y-66786895D02*
X139964835Y-66786895D01*
X140193407Y-66786895D02*
X140193407Y-65986895D01*
X140193407Y-65986895D02*
X140117216Y-66101180D01*
X140117216Y-66101180D02*
X140041026Y-66177371D01*
X140041026Y-66177371D02*
X139964835Y-66215466D01*
X141107693Y-65986895D02*
X140955312Y-65986895D01*
X140955312Y-65986895D02*
X140879121Y-66024990D01*
X140879121Y-66024990D02*
X140841026Y-66063085D01*
X140841026Y-66063085D02*
X140764836Y-66177371D01*
X140764836Y-66177371D02*
X140726740Y-66329752D01*
X140726740Y-66329752D02*
X140726740Y-66634514D01*
X140726740Y-66634514D02*
X140764836Y-66710704D01*
X140764836Y-66710704D02*
X140802931Y-66748800D01*
X140802931Y-66748800D02*
X140879121Y-66786895D01*
X140879121Y-66786895D02*
X141031502Y-66786895D01*
X141031502Y-66786895D02*
X141107693Y-66748800D01*
X141107693Y-66748800D02*
X141145788Y-66710704D01*
X141145788Y-66710704D02*
X141183883Y-66634514D01*
X141183883Y-66634514D02*
X141183883Y-66444038D01*
X141183883Y-66444038D02*
X141145788Y-66367847D01*
X141145788Y-66367847D02*
X141107693Y-66329752D01*
X141107693Y-66329752D02*
X141031502Y-66291657D01*
X141031502Y-66291657D02*
X140879121Y-66291657D01*
X140879121Y-66291657D02*
X140802931Y-66329752D01*
X140802931Y-66329752D02*
X140764836Y-66367847D01*
X140764836Y-66367847D02*
X140726740Y-66444038D01*
X138783884Y-64186895D02*
X138783884Y-63386895D01*
X139317217Y-63386895D02*
X139469598Y-63386895D01*
X139469598Y-63386895D02*
X139545788Y-63424990D01*
X139545788Y-63424990D02*
X139621979Y-63501180D01*
X139621979Y-63501180D02*
X139660074Y-63653561D01*
X139660074Y-63653561D02*
X139660074Y-63920228D01*
X139660074Y-63920228D02*
X139621979Y-64072609D01*
X139621979Y-64072609D02*
X139545788Y-64148800D01*
X139545788Y-64148800D02*
X139469598Y-64186895D01*
X139469598Y-64186895D02*
X139317217Y-64186895D01*
X139317217Y-64186895D02*
X139241026Y-64148800D01*
X139241026Y-64148800D02*
X139164836Y-64072609D01*
X139164836Y-64072609D02*
X139126740Y-63920228D01*
X139126740Y-63920228D02*
X139126740Y-63653561D01*
X139126740Y-63653561D02*
X139164836Y-63501180D01*
X139164836Y-63501180D02*
X139241026Y-63424990D01*
X139241026Y-63424990D02*
X139317217Y-63386895D01*
X140421978Y-64186895D02*
X139964835Y-64186895D01*
X140193407Y-64186895D02*
X140193407Y-63386895D01*
X140193407Y-63386895D02*
X140117216Y-63501180D01*
X140117216Y-63501180D02*
X140041026Y-63577371D01*
X140041026Y-63577371D02*
X139964835Y-63615466D01*
X140688645Y-63386895D02*
X141221979Y-63386895D01*
X141221979Y-63386895D02*
X140879121Y-64186895D01*
X139164836Y-61706895D02*
X139164836Y-60906895D01*
X139698169Y-60906895D02*
X139850550Y-60906895D01*
X139850550Y-60906895D02*
X139926740Y-60944990D01*
X139926740Y-60944990D02*
X140002931Y-61021180D01*
X140002931Y-61021180D02*
X140041026Y-61173561D01*
X140041026Y-61173561D02*
X140041026Y-61440228D01*
X140041026Y-61440228D02*
X140002931Y-61592609D01*
X140002931Y-61592609D02*
X139926740Y-61668800D01*
X139926740Y-61668800D02*
X139850550Y-61706895D01*
X139850550Y-61706895D02*
X139698169Y-61706895D01*
X139698169Y-61706895D02*
X139621978Y-61668800D01*
X139621978Y-61668800D02*
X139545788Y-61592609D01*
X139545788Y-61592609D02*
X139507692Y-61440228D01*
X139507692Y-61440228D02*
X139507692Y-61173561D01*
X139507692Y-61173561D02*
X139545788Y-61021180D01*
X139545788Y-61021180D02*
X139621978Y-60944990D01*
X139621978Y-60944990D02*
X139698169Y-60906895D01*
X140764835Y-60906895D02*
X140383883Y-60906895D01*
X140383883Y-60906895D02*
X140345787Y-61287847D01*
X140345787Y-61287847D02*
X140383883Y-61249752D01*
X140383883Y-61249752D02*
X140460073Y-61211657D01*
X140460073Y-61211657D02*
X140650549Y-61211657D01*
X140650549Y-61211657D02*
X140726740Y-61249752D01*
X140726740Y-61249752D02*
X140764835Y-61287847D01*
X140764835Y-61287847D02*
X140802930Y-61364038D01*
X140802930Y-61364038D02*
X140802930Y-61554514D01*
X140802930Y-61554514D02*
X140764835Y-61630704D01*
X140764835Y-61630704D02*
X140726740Y-61668800D01*
X140726740Y-61668800D02*
X140650549Y-61706895D01*
X140650549Y-61706895D02*
X140460073Y-61706895D01*
X140460073Y-61706895D02*
X140383883Y-61668800D01*
X140383883Y-61668800D02*
X140345787Y-61630704D01*
X138783884Y-59096895D02*
X138783884Y-58296895D01*
X139317217Y-58296895D02*
X139469598Y-58296895D01*
X139469598Y-58296895D02*
X139545788Y-58334990D01*
X139545788Y-58334990D02*
X139621979Y-58411180D01*
X139621979Y-58411180D02*
X139660074Y-58563561D01*
X139660074Y-58563561D02*
X139660074Y-58830228D01*
X139660074Y-58830228D02*
X139621979Y-58982609D01*
X139621979Y-58982609D02*
X139545788Y-59058800D01*
X139545788Y-59058800D02*
X139469598Y-59096895D01*
X139469598Y-59096895D02*
X139317217Y-59096895D01*
X139317217Y-59096895D02*
X139241026Y-59058800D01*
X139241026Y-59058800D02*
X139164836Y-58982609D01*
X139164836Y-58982609D02*
X139126740Y-58830228D01*
X139126740Y-58830228D02*
X139126740Y-58563561D01*
X139126740Y-58563561D02*
X139164836Y-58411180D01*
X139164836Y-58411180D02*
X139241026Y-58334990D01*
X139241026Y-58334990D02*
X139317217Y-58296895D01*
X140421978Y-59096895D02*
X139964835Y-59096895D01*
X140193407Y-59096895D02*
X140193407Y-58296895D01*
X140193407Y-58296895D02*
X140117216Y-58411180D01*
X140117216Y-58411180D02*
X140041026Y-58487371D01*
X140041026Y-58487371D02*
X139964835Y-58525466D01*
X140879121Y-58639752D02*
X140802931Y-58601657D01*
X140802931Y-58601657D02*
X140764836Y-58563561D01*
X140764836Y-58563561D02*
X140726740Y-58487371D01*
X140726740Y-58487371D02*
X140726740Y-58449276D01*
X140726740Y-58449276D02*
X140764836Y-58373085D01*
X140764836Y-58373085D02*
X140802931Y-58334990D01*
X140802931Y-58334990D02*
X140879121Y-58296895D01*
X140879121Y-58296895D02*
X141031502Y-58296895D01*
X141031502Y-58296895D02*
X141107693Y-58334990D01*
X141107693Y-58334990D02*
X141145788Y-58373085D01*
X141145788Y-58373085D02*
X141183883Y-58449276D01*
X141183883Y-58449276D02*
X141183883Y-58487371D01*
X141183883Y-58487371D02*
X141145788Y-58563561D01*
X141145788Y-58563561D02*
X141107693Y-58601657D01*
X141107693Y-58601657D02*
X141031502Y-58639752D01*
X141031502Y-58639752D02*
X140879121Y-58639752D01*
X140879121Y-58639752D02*
X140802931Y-58677847D01*
X140802931Y-58677847D02*
X140764836Y-58715942D01*
X140764836Y-58715942D02*
X140726740Y-58792133D01*
X140726740Y-58792133D02*
X140726740Y-58944514D01*
X140726740Y-58944514D02*
X140764836Y-59020704D01*
X140764836Y-59020704D02*
X140802931Y-59058800D01*
X140802931Y-59058800D02*
X140879121Y-59096895D01*
X140879121Y-59096895D02*
X141031502Y-59096895D01*
X141031502Y-59096895D02*
X141107693Y-59058800D01*
X141107693Y-59058800D02*
X141145788Y-59020704D01*
X141145788Y-59020704D02*
X141183883Y-58944514D01*
X141183883Y-58944514D02*
X141183883Y-58792133D01*
X141183883Y-58792133D02*
X141145788Y-58715942D01*
X141145788Y-58715942D02*
X141107693Y-58677847D01*
X141107693Y-58677847D02*
X141031502Y-58639752D01*
X138783884Y-56496895D02*
X138783884Y-55696895D01*
X139317217Y-55696895D02*
X139469598Y-55696895D01*
X139469598Y-55696895D02*
X139545788Y-55734990D01*
X139545788Y-55734990D02*
X139621979Y-55811180D01*
X139621979Y-55811180D02*
X139660074Y-55963561D01*
X139660074Y-55963561D02*
X139660074Y-56230228D01*
X139660074Y-56230228D02*
X139621979Y-56382609D01*
X139621979Y-56382609D02*
X139545788Y-56458800D01*
X139545788Y-56458800D02*
X139469598Y-56496895D01*
X139469598Y-56496895D02*
X139317217Y-56496895D01*
X139317217Y-56496895D02*
X139241026Y-56458800D01*
X139241026Y-56458800D02*
X139164836Y-56382609D01*
X139164836Y-56382609D02*
X139126740Y-56230228D01*
X139126740Y-56230228D02*
X139126740Y-55963561D01*
X139126740Y-55963561D02*
X139164836Y-55811180D01*
X139164836Y-55811180D02*
X139241026Y-55734990D01*
X139241026Y-55734990D02*
X139317217Y-55696895D01*
X140421978Y-56496895D02*
X139964835Y-56496895D01*
X140193407Y-56496895D02*
X140193407Y-55696895D01*
X140193407Y-55696895D02*
X140117216Y-55811180D01*
X140117216Y-55811180D02*
X140041026Y-55887371D01*
X140041026Y-55887371D02*
X139964835Y-55925466D01*
X140802931Y-56496895D02*
X140955312Y-56496895D01*
X140955312Y-56496895D02*
X141031502Y-56458800D01*
X141031502Y-56458800D02*
X141069598Y-56420704D01*
X141069598Y-56420704D02*
X141145788Y-56306419D01*
X141145788Y-56306419D02*
X141183883Y-56154038D01*
X141183883Y-56154038D02*
X141183883Y-55849276D01*
X141183883Y-55849276D02*
X141145788Y-55773085D01*
X141145788Y-55773085D02*
X141107693Y-55734990D01*
X141107693Y-55734990D02*
X141031502Y-55696895D01*
X141031502Y-55696895D02*
X140879121Y-55696895D01*
X140879121Y-55696895D02*
X140802931Y-55734990D01*
X140802931Y-55734990D02*
X140764836Y-55773085D01*
X140764836Y-55773085D02*
X140726740Y-55849276D01*
X140726740Y-55849276D02*
X140726740Y-56039752D01*
X140726740Y-56039752D02*
X140764836Y-56115942D01*
X140764836Y-56115942D02*
X140802931Y-56154038D01*
X140802931Y-56154038D02*
X140879121Y-56192133D01*
X140879121Y-56192133D02*
X141031502Y-56192133D01*
X141031502Y-56192133D02*
X141107693Y-56154038D01*
X141107693Y-56154038D02*
X141145788Y-56115942D01*
X141145788Y-56115942D02*
X141183883Y-56039752D01*
X139355312Y-53194990D02*
X139279122Y-53156895D01*
X139279122Y-53156895D02*
X139164836Y-53156895D01*
X139164836Y-53156895D02*
X139050550Y-53194990D01*
X139050550Y-53194990D02*
X138974360Y-53271180D01*
X138974360Y-53271180D02*
X138936265Y-53347371D01*
X138936265Y-53347371D02*
X138898169Y-53499752D01*
X138898169Y-53499752D02*
X138898169Y-53614038D01*
X138898169Y-53614038D02*
X138936265Y-53766419D01*
X138936265Y-53766419D02*
X138974360Y-53842609D01*
X138974360Y-53842609D02*
X139050550Y-53918800D01*
X139050550Y-53918800D02*
X139164836Y-53956895D01*
X139164836Y-53956895D02*
X139241027Y-53956895D01*
X139241027Y-53956895D02*
X139355312Y-53918800D01*
X139355312Y-53918800D02*
X139393408Y-53880704D01*
X139393408Y-53880704D02*
X139393408Y-53614038D01*
X139393408Y-53614038D02*
X139241027Y-53614038D01*
X139736265Y-53956895D02*
X139736265Y-53156895D01*
X139736265Y-53156895D02*
X140193408Y-53956895D01*
X140193408Y-53956895D02*
X140193408Y-53156895D01*
X140574360Y-53956895D02*
X140574360Y-53156895D01*
X140574360Y-53156895D02*
X140764836Y-53156895D01*
X140764836Y-53156895D02*
X140879122Y-53194990D01*
X140879122Y-53194990D02*
X140955312Y-53271180D01*
X140955312Y-53271180D02*
X140993407Y-53347371D01*
X140993407Y-53347371D02*
X141031503Y-53499752D01*
X141031503Y-53499752D02*
X141031503Y-53614038D01*
X141031503Y-53614038D02*
X140993407Y-53766419D01*
X140993407Y-53766419D02*
X140955312Y-53842609D01*
X140955312Y-53842609D02*
X140879122Y-53918800D01*
X140879122Y-53918800D02*
X140764836Y-53956895D01*
X140764836Y-53956895D02*
X140574360Y-53956895D01*
X138783884Y-51646895D02*
X138783884Y-50846895D01*
X139317217Y-50846895D02*
X139469598Y-50846895D01*
X139469598Y-50846895D02*
X139545788Y-50884990D01*
X139545788Y-50884990D02*
X139621979Y-50961180D01*
X139621979Y-50961180D02*
X139660074Y-51113561D01*
X139660074Y-51113561D02*
X139660074Y-51380228D01*
X139660074Y-51380228D02*
X139621979Y-51532609D01*
X139621979Y-51532609D02*
X139545788Y-51608800D01*
X139545788Y-51608800D02*
X139469598Y-51646895D01*
X139469598Y-51646895D02*
X139317217Y-51646895D01*
X139317217Y-51646895D02*
X139241026Y-51608800D01*
X139241026Y-51608800D02*
X139164836Y-51532609D01*
X139164836Y-51532609D02*
X139126740Y-51380228D01*
X139126740Y-51380228D02*
X139126740Y-51113561D01*
X139126740Y-51113561D02*
X139164836Y-50961180D01*
X139164836Y-50961180D02*
X139241026Y-50884990D01*
X139241026Y-50884990D02*
X139317217Y-50846895D01*
X139964835Y-50923085D02*
X140002931Y-50884990D01*
X140002931Y-50884990D02*
X140079121Y-50846895D01*
X140079121Y-50846895D02*
X140269597Y-50846895D01*
X140269597Y-50846895D02*
X140345788Y-50884990D01*
X140345788Y-50884990D02*
X140383883Y-50923085D01*
X140383883Y-50923085D02*
X140421978Y-50999276D01*
X140421978Y-50999276D02*
X140421978Y-51075466D01*
X140421978Y-51075466D02*
X140383883Y-51189752D01*
X140383883Y-51189752D02*
X139926740Y-51646895D01*
X139926740Y-51646895D02*
X140421978Y-51646895D01*
X141183883Y-51646895D02*
X140726740Y-51646895D01*
X140955312Y-51646895D02*
X140955312Y-50846895D01*
X140955312Y-50846895D02*
X140879121Y-50961180D01*
X140879121Y-50961180D02*
X140802931Y-51037371D01*
X140802931Y-51037371D02*
X140726740Y-51075466D01*
X139164836Y-49066895D02*
X139164836Y-48266895D01*
X139698169Y-48266895D02*
X139850550Y-48266895D01*
X139850550Y-48266895D02*
X139926740Y-48304990D01*
X139926740Y-48304990D02*
X140002931Y-48381180D01*
X140002931Y-48381180D02*
X140041026Y-48533561D01*
X140041026Y-48533561D02*
X140041026Y-48800228D01*
X140041026Y-48800228D02*
X140002931Y-48952609D01*
X140002931Y-48952609D02*
X139926740Y-49028800D01*
X139926740Y-49028800D02*
X139850550Y-49066895D01*
X139850550Y-49066895D02*
X139698169Y-49066895D01*
X139698169Y-49066895D02*
X139621978Y-49028800D01*
X139621978Y-49028800D02*
X139545788Y-48952609D01*
X139545788Y-48952609D02*
X139507692Y-48800228D01*
X139507692Y-48800228D02*
X139507692Y-48533561D01*
X139507692Y-48533561D02*
X139545788Y-48381180D01*
X139545788Y-48381180D02*
X139621978Y-48304990D01*
X139621978Y-48304990D02*
X139698169Y-48266895D01*
X140307692Y-48266895D02*
X140802930Y-48266895D01*
X140802930Y-48266895D02*
X140536264Y-48571657D01*
X140536264Y-48571657D02*
X140650549Y-48571657D01*
X140650549Y-48571657D02*
X140726740Y-48609752D01*
X140726740Y-48609752D02*
X140764835Y-48647847D01*
X140764835Y-48647847D02*
X140802930Y-48724038D01*
X140802930Y-48724038D02*
X140802930Y-48914514D01*
X140802930Y-48914514D02*
X140764835Y-48990704D01*
X140764835Y-48990704D02*
X140726740Y-49028800D01*
X140726740Y-49028800D02*
X140650549Y-49066895D01*
X140650549Y-49066895D02*
X140421978Y-49066895D01*
X140421978Y-49066895D02*
X140345787Y-49028800D01*
X140345787Y-49028800D02*
X140307692Y-48990704D01*
X139164836Y-46586895D02*
X139164836Y-45786895D01*
X139698169Y-45786895D02*
X139850550Y-45786895D01*
X139850550Y-45786895D02*
X139926740Y-45824990D01*
X139926740Y-45824990D02*
X140002931Y-45901180D01*
X140002931Y-45901180D02*
X140041026Y-46053561D01*
X140041026Y-46053561D02*
X140041026Y-46320228D01*
X140041026Y-46320228D02*
X140002931Y-46472609D01*
X140002931Y-46472609D02*
X139926740Y-46548800D01*
X139926740Y-46548800D02*
X139850550Y-46586895D01*
X139850550Y-46586895D02*
X139698169Y-46586895D01*
X139698169Y-46586895D02*
X139621978Y-46548800D01*
X139621978Y-46548800D02*
X139545788Y-46472609D01*
X139545788Y-46472609D02*
X139507692Y-46320228D01*
X139507692Y-46320228D02*
X139507692Y-46053561D01*
X139507692Y-46053561D02*
X139545788Y-45901180D01*
X139545788Y-45901180D02*
X139621978Y-45824990D01*
X139621978Y-45824990D02*
X139698169Y-45786895D01*
X140802930Y-46586895D02*
X140345787Y-46586895D01*
X140574359Y-46586895D02*
X140574359Y-45786895D01*
X140574359Y-45786895D02*
X140498168Y-45901180D01*
X140498168Y-45901180D02*
X140421978Y-45977371D01*
X140421978Y-45977371D02*
X140345787Y-46015466D01*
X138783884Y-43936895D02*
X138783884Y-43136895D01*
X139317217Y-43136895D02*
X139469598Y-43136895D01*
X139469598Y-43136895D02*
X139545788Y-43174990D01*
X139545788Y-43174990D02*
X139621979Y-43251180D01*
X139621979Y-43251180D02*
X139660074Y-43403561D01*
X139660074Y-43403561D02*
X139660074Y-43670228D01*
X139660074Y-43670228D02*
X139621979Y-43822609D01*
X139621979Y-43822609D02*
X139545788Y-43898800D01*
X139545788Y-43898800D02*
X139469598Y-43936895D01*
X139469598Y-43936895D02*
X139317217Y-43936895D01*
X139317217Y-43936895D02*
X139241026Y-43898800D01*
X139241026Y-43898800D02*
X139164836Y-43822609D01*
X139164836Y-43822609D02*
X139126740Y-43670228D01*
X139126740Y-43670228D02*
X139126740Y-43403561D01*
X139126740Y-43403561D02*
X139164836Y-43251180D01*
X139164836Y-43251180D02*
X139241026Y-43174990D01*
X139241026Y-43174990D02*
X139317217Y-43136895D01*
X139964835Y-43213085D02*
X140002931Y-43174990D01*
X140002931Y-43174990D02*
X140079121Y-43136895D01*
X140079121Y-43136895D02*
X140269597Y-43136895D01*
X140269597Y-43136895D02*
X140345788Y-43174990D01*
X140345788Y-43174990D02*
X140383883Y-43213085D01*
X140383883Y-43213085D02*
X140421978Y-43289276D01*
X140421978Y-43289276D02*
X140421978Y-43365466D01*
X140421978Y-43365466D02*
X140383883Y-43479752D01*
X140383883Y-43479752D02*
X139926740Y-43936895D01*
X139926740Y-43936895D02*
X140421978Y-43936895D01*
X140726740Y-43213085D02*
X140764836Y-43174990D01*
X140764836Y-43174990D02*
X140841026Y-43136895D01*
X140841026Y-43136895D02*
X141031502Y-43136895D01*
X141031502Y-43136895D02*
X141107693Y-43174990D01*
X141107693Y-43174990D02*
X141145788Y-43213085D01*
X141145788Y-43213085D02*
X141183883Y-43289276D01*
X141183883Y-43289276D02*
X141183883Y-43365466D01*
X141183883Y-43365466D02*
X141145788Y-43479752D01*
X141145788Y-43479752D02*
X140688645Y-43936895D01*
X140688645Y-43936895D02*
X141183883Y-43936895D01*
X138783884Y-41276895D02*
X138783884Y-40476895D01*
X139317217Y-40476895D02*
X139469598Y-40476895D01*
X139469598Y-40476895D02*
X139545788Y-40514990D01*
X139545788Y-40514990D02*
X139621979Y-40591180D01*
X139621979Y-40591180D02*
X139660074Y-40743561D01*
X139660074Y-40743561D02*
X139660074Y-41010228D01*
X139660074Y-41010228D02*
X139621979Y-41162609D01*
X139621979Y-41162609D02*
X139545788Y-41238800D01*
X139545788Y-41238800D02*
X139469598Y-41276895D01*
X139469598Y-41276895D02*
X139317217Y-41276895D01*
X139317217Y-41276895D02*
X139241026Y-41238800D01*
X139241026Y-41238800D02*
X139164836Y-41162609D01*
X139164836Y-41162609D02*
X139126740Y-41010228D01*
X139126740Y-41010228D02*
X139126740Y-40743561D01*
X139126740Y-40743561D02*
X139164836Y-40591180D01*
X139164836Y-40591180D02*
X139241026Y-40514990D01*
X139241026Y-40514990D02*
X139317217Y-40476895D01*
X139964835Y-40553085D02*
X140002931Y-40514990D01*
X140002931Y-40514990D02*
X140079121Y-40476895D01*
X140079121Y-40476895D02*
X140269597Y-40476895D01*
X140269597Y-40476895D02*
X140345788Y-40514990D01*
X140345788Y-40514990D02*
X140383883Y-40553085D01*
X140383883Y-40553085D02*
X140421978Y-40629276D01*
X140421978Y-40629276D02*
X140421978Y-40705466D01*
X140421978Y-40705466D02*
X140383883Y-40819752D01*
X140383883Y-40819752D02*
X139926740Y-41276895D01*
X139926740Y-41276895D02*
X140421978Y-41276895D01*
X140688645Y-40476895D02*
X141183883Y-40476895D01*
X141183883Y-40476895D02*
X140917217Y-40781657D01*
X140917217Y-40781657D02*
X141031502Y-40781657D01*
X141031502Y-40781657D02*
X141107693Y-40819752D01*
X141107693Y-40819752D02*
X141145788Y-40857847D01*
X141145788Y-40857847D02*
X141183883Y-40934038D01*
X141183883Y-40934038D02*
X141183883Y-41124514D01*
X141183883Y-41124514D02*
X141145788Y-41200704D01*
X141145788Y-41200704D02*
X141107693Y-41238800D01*
X141107693Y-41238800D02*
X141031502Y-41276895D01*
X141031502Y-41276895D02*
X140802931Y-41276895D01*
X140802931Y-41276895D02*
X140726740Y-41238800D01*
X140726740Y-41238800D02*
X140688645Y-41200704D01*
X139355312Y-37844990D02*
X139279122Y-37806895D01*
X139279122Y-37806895D02*
X139164836Y-37806895D01*
X139164836Y-37806895D02*
X139050550Y-37844990D01*
X139050550Y-37844990D02*
X138974360Y-37921180D01*
X138974360Y-37921180D02*
X138936265Y-37997371D01*
X138936265Y-37997371D02*
X138898169Y-38149752D01*
X138898169Y-38149752D02*
X138898169Y-38264038D01*
X138898169Y-38264038D02*
X138936265Y-38416419D01*
X138936265Y-38416419D02*
X138974360Y-38492609D01*
X138974360Y-38492609D02*
X139050550Y-38568800D01*
X139050550Y-38568800D02*
X139164836Y-38606895D01*
X139164836Y-38606895D02*
X139241027Y-38606895D01*
X139241027Y-38606895D02*
X139355312Y-38568800D01*
X139355312Y-38568800D02*
X139393408Y-38530704D01*
X139393408Y-38530704D02*
X139393408Y-38264038D01*
X139393408Y-38264038D02*
X139241027Y-38264038D01*
X139736265Y-38606895D02*
X139736265Y-37806895D01*
X139736265Y-37806895D02*
X140193408Y-38606895D01*
X140193408Y-38606895D02*
X140193408Y-37806895D01*
X140574360Y-38606895D02*
X140574360Y-37806895D01*
X140574360Y-37806895D02*
X140764836Y-37806895D01*
X140764836Y-37806895D02*
X140879122Y-37844990D01*
X140879122Y-37844990D02*
X140955312Y-37921180D01*
X140955312Y-37921180D02*
X140993407Y-37997371D01*
X140993407Y-37997371D02*
X141031503Y-38149752D01*
X141031503Y-38149752D02*
X141031503Y-38264038D01*
X141031503Y-38264038D02*
X140993407Y-38416419D01*
X140993407Y-38416419D02*
X140955312Y-38492609D01*
X140955312Y-38492609D02*
X140879122Y-38568800D01*
X140879122Y-38568800D02*
X140764836Y-38606895D01*
X140764836Y-38606895D02*
X140574360Y-38606895D01*
X97384836Y-83616895D02*
X97003884Y-83616895D01*
X97003884Y-83616895D02*
X96965788Y-83997847D01*
X96965788Y-83997847D02*
X97003884Y-83959752D01*
X97003884Y-83959752D02*
X97080074Y-83921657D01*
X97080074Y-83921657D02*
X97270550Y-83921657D01*
X97270550Y-83921657D02*
X97346741Y-83959752D01*
X97346741Y-83959752D02*
X97384836Y-83997847D01*
X97384836Y-83997847D02*
X97422931Y-84074038D01*
X97422931Y-84074038D02*
X97422931Y-84264514D01*
X97422931Y-84264514D02*
X97384836Y-84340704D01*
X97384836Y-84340704D02*
X97346741Y-84378800D01*
X97346741Y-84378800D02*
X97270550Y-84416895D01*
X97270550Y-84416895D02*
X97080074Y-84416895D01*
X97080074Y-84416895D02*
X97003884Y-84378800D01*
X97003884Y-84378800D02*
X96965788Y-84340704D01*
X97651503Y-83616895D02*
X97918170Y-84416895D01*
X97918170Y-84416895D02*
X98184836Y-83616895D01*
X96356265Y-81876895D02*
X96356265Y-81076895D01*
X96889598Y-81076895D02*
X97041979Y-81076895D01*
X97041979Y-81076895D02*
X97118169Y-81114990D01*
X97118169Y-81114990D02*
X97194360Y-81191180D01*
X97194360Y-81191180D02*
X97232455Y-81343561D01*
X97232455Y-81343561D02*
X97232455Y-81610228D01*
X97232455Y-81610228D02*
X97194360Y-81762609D01*
X97194360Y-81762609D02*
X97118169Y-81838800D01*
X97118169Y-81838800D02*
X97041979Y-81876895D01*
X97041979Y-81876895D02*
X96889598Y-81876895D01*
X96889598Y-81876895D02*
X96813407Y-81838800D01*
X96813407Y-81838800D02*
X96737217Y-81762609D01*
X96737217Y-81762609D02*
X96699121Y-81610228D01*
X96699121Y-81610228D02*
X96699121Y-81343561D01*
X96699121Y-81343561D02*
X96737217Y-81191180D01*
X96737217Y-81191180D02*
X96813407Y-81114990D01*
X96813407Y-81114990D02*
X96889598Y-81076895D01*
X97994359Y-81876895D02*
X97537216Y-81876895D01*
X97765788Y-81876895D02*
X97765788Y-81076895D01*
X97765788Y-81076895D02*
X97689597Y-81191180D01*
X97689597Y-81191180D02*
X97613407Y-81267371D01*
X97613407Y-81267371D02*
X97537216Y-81305466D01*
X98756264Y-81876895D02*
X98299121Y-81876895D01*
X98527693Y-81876895D02*
X98527693Y-81076895D01*
X98527693Y-81076895D02*
X98451502Y-81191180D01*
X98451502Y-81191180D02*
X98375312Y-81267371D01*
X98375312Y-81267371D02*
X98299121Y-81305466D01*
X96356265Y-79276895D02*
X96356265Y-78476895D01*
X96889598Y-78476895D02*
X97041979Y-78476895D01*
X97041979Y-78476895D02*
X97118169Y-78514990D01*
X97118169Y-78514990D02*
X97194360Y-78591180D01*
X97194360Y-78591180D02*
X97232455Y-78743561D01*
X97232455Y-78743561D02*
X97232455Y-79010228D01*
X97232455Y-79010228D02*
X97194360Y-79162609D01*
X97194360Y-79162609D02*
X97118169Y-79238800D01*
X97118169Y-79238800D02*
X97041979Y-79276895D01*
X97041979Y-79276895D02*
X96889598Y-79276895D01*
X96889598Y-79276895D02*
X96813407Y-79238800D01*
X96813407Y-79238800D02*
X96737217Y-79162609D01*
X96737217Y-79162609D02*
X96699121Y-79010228D01*
X96699121Y-79010228D02*
X96699121Y-78743561D01*
X96699121Y-78743561D02*
X96737217Y-78591180D01*
X96737217Y-78591180D02*
X96813407Y-78514990D01*
X96813407Y-78514990D02*
X96889598Y-78476895D01*
X97994359Y-79276895D02*
X97537216Y-79276895D01*
X97765788Y-79276895D02*
X97765788Y-78476895D01*
X97765788Y-78476895D02*
X97689597Y-78591180D01*
X97689597Y-78591180D02*
X97613407Y-78667371D01*
X97613407Y-78667371D02*
X97537216Y-78705466D01*
X98489598Y-78476895D02*
X98565788Y-78476895D01*
X98565788Y-78476895D02*
X98641979Y-78514990D01*
X98641979Y-78514990D02*
X98680074Y-78553085D01*
X98680074Y-78553085D02*
X98718169Y-78629276D01*
X98718169Y-78629276D02*
X98756264Y-78781657D01*
X98756264Y-78781657D02*
X98756264Y-78972133D01*
X98756264Y-78972133D02*
X98718169Y-79124514D01*
X98718169Y-79124514D02*
X98680074Y-79200704D01*
X98680074Y-79200704D02*
X98641979Y-79238800D01*
X98641979Y-79238800D02*
X98565788Y-79276895D01*
X98565788Y-79276895D02*
X98489598Y-79276895D01*
X98489598Y-79276895D02*
X98413407Y-79238800D01*
X98413407Y-79238800D02*
X98375312Y-79200704D01*
X98375312Y-79200704D02*
X98337217Y-79124514D01*
X98337217Y-79124514D02*
X98299121Y-78972133D01*
X98299121Y-78972133D02*
X98299121Y-78781657D01*
X98299121Y-78781657D02*
X98337217Y-78629276D01*
X98337217Y-78629276D02*
X98375312Y-78553085D01*
X98375312Y-78553085D02*
X98413407Y-78514990D01*
X98413407Y-78514990D02*
X98489598Y-78476895D01*
X96737217Y-76676895D02*
X96737217Y-75876895D01*
X97270550Y-75876895D02*
X97422931Y-75876895D01*
X97422931Y-75876895D02*
X97499121Y-75914990D01*
X97499121Y-75914990D02*
X97575312Y-75991180D01*
X97575312Y-75991180D02*
X97613407Y-76143561D01*
X97613407Y-76143561D02*
X97613407Y-76410228D01*
X97613407Y-76410228D02*
X97575312Y-76562609D01*
X97575312Y-76562609D02*
X97499121Y-76638800D01*
X97499121Y-76638800D02*
X97422931Y-76676895D01*
X97422931Y-76676895D02*
X97270550Y-76676895D01*
X97270550Y-76676895D02*
X97194359Y-76638800D01*
X97194359Y-76638800D02*
X97118169Y-76562609D01*
X97118169Y-76562609D02*
X97080073Y-76410228D01*
X97080073Y-76410228D02*
X97080073Y-76143561D01*
X97080073Y-76143561D02*
X97118169Y-75991180D01*
X97118169Y-75991180D02*
X97194359Y-75914990D01*
X97194359Y-75914990D02*
X97270550Y-75876895D01*
X97994359Y-76676895D02*
X98146740Y-76676895D01*
X98146740Y-76676895D02*
X98222930Y-76638800D01*
X98222930Y-76638800D02*
X98261026Y-76600704D01*
X98261026Y-76600704D02*
X98337216Y-76486419D01*
X98337216Y-76486419D02*
X98375311Y-76334038D01*
X98375311Y-76334038D02*
X98375311Y-76029276D01*
X98375311Y-76029276D02*
X98337216Y-75953085D01*
X98337216Y-75953085D02*
X98299121Y-75914990D01*
X98299121Y-75914990D02*
X98222930Y-75876895D01*
X98222930Y-75876895D02*
X98070549Y-75876895D01*
X98070549Y-75876895D02*
X97994359Y-75914990D01*
X97994359Y-75914990D02*
X97956264Y-75953085D01*
X97956264Y-75953085D02*
X97918168Y-76029276D01*
X97918168Y-76029276D02*
X97918168Y-76219752D01*
X97918168Y-76219752D02*
X97956264Y-76295942D01*
X97956264Y-76295942D02*
X97994359Y-76334038D01*
X97994359Y-76334038D02*
X98070549Y-76372133D01*
X98070549Y-76372133D02*
X98222930Y-76372133D01*
X98222930Y-76372133D02*
X98299121Y-76334038D01*
X98299121Y-76334038D02*
X98337216Y-76295942D01*
X98337216Y-76295942D02*
X98375311Y-76219752D01*
X96356265Y-74166895D02*
X96356265Y-73366895D01*
X96889598Y-73366895D02*
X97041979Y-73366895D01*
X97041979Y-73366895D02*
X97118169Y-73404990D01*
X97118169Y-73404990D02*
X97194360Y-73481180D01*
X97194360Y-73481180D02*
X97232455Y-73633561D01*
X97232455Y-73633561D02*
X97232455Y-73900228D01*
X97232455Y-73900228D02*
X97194360Y-74052609D01*
X97194360Y-74052609D02*
X97118169Y-74128800D01*
X97118169Y-74128800D02*
X97041979Y-74166895D01*
X97041979Y-74166895D02*
X96889598Y-74166895D01*
X96889598Y-74166895D02*
X96813407Y-74128800D01*
X96813407Y-74128800D02*
X96737217Y-74052609D01*
X96737217Y-74052609D02*
X96699121Y-73900228D01*
X96699121Y-73900228D02*
X96699121Y-73633561D01*
X96699121Y-73633561D02*
X96737217Y-73481180D01*
X96737217Y-73481180D02*
X96813407Y-73404990D01*
X96813407Y-73404990D02*
X96889598Y-73366895D01*
X97994359Y-74166895D02*
X97537216Y-74166895D01*
X97765788Y-74166895D02*
X97765788Y-73366895D01*
X97765788Y-73366895D02*
X97689597Y-73481180D01*
X97689597Y-73481180D02*
X97613407Y-73557371D01*
X97613407Y-73557371D02*
X97537216Y-73595466D01*
X98261026Y-73366895D02*
X98756264Y-73366895D01*
X98756264Y-73366895D02*
X98489598Y-73671657D01*
X98489598Y-73671657D02*
X98603883Y-73671657D01*
X98603883Y-73671657D02*
X98680074Y-73709752D01*
X98680074Y-73709752D02*
X98718169Y-73747847D01*
X98718169Y-73747847D02*
X98756264Y-73824038D01*
X98756264Y-73824038D02*
X98756264Y-74014514D01*
X98756264Y-74014514D02*
X98718169Y-74090704D01*
X98718169Y-74090704D02*
X98680074Y-74128800D01*
X98680074Y-74128800D02*
X98603883Y-74166895D01*
X98603883Y-74166895D02*
X98375312Y-74166895D01*
X98375312Y-74166895D02*
X98299121Y-74128800D01*
X98299121Y-74128800D02*
X98261026Y-74090704D01*
X96927693Y-70854990D02*
X96851503Y-70816895D01*
X96851503Y-70816895D02*
X96737217Y-70816895D01*
X96737217Y-70816895D02*
X96622931Y-70854990D01*
X96622931Y-70854990D02*
X96546741Y-70931180D01*
X96546741Y-70931180D02*
X96508646Y-71007371D01*
X96508646Y-71007371D02*
X96470550Y-71159752D01*
X96470550Y-71159752D02*
X96470550Y-71274038D01*
X96470550Y-71274038D02*
X96508646Y-71426419D01*
X96508646Y-71426419D02*
X96546741Y-71502609D01*
X96546741Y-71502609D02*
X96622931Y-71578800D01*
X96622931Y-71578800D02*
X96737217Y-71616895D01*
X96737217Y-71616895D02*
X96813408Y-71616895D01*
X96813408Y-71616895D02*
X96927693Y-71578800D01*
X96927693Y-71578800D02*
X96965789Y-71540704D01*
X96965789Y-71540704D02*
X96965789Y-71274038D01*
X96965789Y-71274038D02*
X96813408Y-71274038D01*
X97308646Y-71616895D02*
X97308646Y-70816895D01*
X97308646Y-70816895D02*
X97765789Y-71616895D01*
X97765789Y-71616895D02*
X97765789Y-70816895D01*
X98146741Y-71616895D02*
X98146741Y-70816895D01*
X98146741Y-70816895D02*
X98337217Y-70816895D01*
X98337217Y-70816895D02*
X98451503Y-70854990D01*
X98451503Y-70854990D02*
X98527693Y-70931180D01*
X98527693Y-70931180D02*
X98565788Y-71007371D01*
X98565788Y-71007371D02*
X98603884Y-71159752D01*
X98603884Y-71159752D02*
X98603884Y-71274038D01*
X98603884Y-71274038D02*
X98565788Y-71426419D01*
X98565788Y-71426419D02*
X98527693Y-71502609D01*
X98527693Y-71502609D02*
X98451503Y-71578800D01*
X98451503Y-71578800D02*
X98337217Y-71616895D01*
X98337217Y-71616895D02*
X98146741Y-71616895D01*
X96356265Y-69136895D02*
X96356265Y-68336895D01*
X96889598Y-68336895D02*
X97041979Y-68336895D01*
X97041979Y-68336895D02*
X97118169Y-68374990D01*
X97118169Y-68374990D02*
X97194360Y-68451180D01*
X97194360Y-68451180D02*
X97232455Y-68603561D01*
X97232455Y-68603561D02*
X97232455Y-68870228D01*
X97232455Y-68870228D02*
X97194360Y-69022609D01*
X97194360Y-69022609D02*
X97118169Y-69098800D01*
X97118169Y-69098800D02*
X97041979Y-69136895D01*
X97041979Y-69136895D02*
X96889598Y-69136895D01*
X96889598Y-69136895D02*
X96813407Y-69098800D01*
X96813407Y-69098800D02*
X96737217Y-69022609D01*
X96737217Y-69022609D02*
X96699121Y-68870228D01*
X96699121Y-68870228D02*
X96699121Y-68603561D01*
X96699121Y-68603561D02*
X96737217Y-68451180D01*
X96737217Y-68451180D02*
X96813407Y-68374990D01*
X96813407Y-68374990D02*
X96889598Y-68336895D01*
X97994359Y-69136895D02*
X97537216Y-69136895D01*
X97765788Y-69136895D02*
X97765788Y-68336895D01*
X97765788Y-68336895D02*
X97689597Y-68451180D01*
X97689597Y-68451180D02*
X97613407Y-68527371D01*
X97613407Y-68527371D02*
X97537216Y-68565466D01*
X98299121Y-68413085D02*
X98337217Y-68374990D01*
X98337217Y-68374990D02*
X98413407Y-68336895D01*
X98413407Y-68336895D02*
X98603883Y-68336895D01*
X98603883Y-68336895D02*
X98680074Y-68374990D01*
X98680074Y-68374990D02*
X98718169Y-68413085D01*
X98718169Y-68413085D02*
X98756264Y-68489276D01*
X98756264Y-68489276D02*
X98756264Y-68565466D01*
X98756264Y-68565466D02*
X98718169Y-68679752D01*
X98718169Y-68679752D02*
X98261026Y-69136895D01*
X98261026Y-69136895D02*
X98756264Y-69136895D01*
X96356265Y-66626895D02*
X96356265Y-65826895D01*
X96889598Y-65826895D02*
X97041979Y-65826895D01*
X97041979Y-65826895D02*
X97118169Y-65864990D01*
X97118169Y-65864990D02*
X97194360Y-65941180D01*
X97194360Y-65941180D02*
X97232455Y-66093561D01*
X97232455Y-66093561D02*
X97232455Y-66360228D01*
X97232455Y-66360228D02*
X97194360Y-66512609D01*
X97194360Y-66512609D02*
X97118169Y-66588800D01*
X97118169Y-66588800D02*
X97041979Y-66626895D01*
X97041979Y-66626895D02*
X96889598Y-66626895D01*
X96889598Y-66626895D02*
X96813407Y-66588800D01*
X96813407Y-66588800D02*
X96737217Y-66512609D01*
X96737217Y-66512609D02*
X96699121Y-66360228D01*
X96699121Y-66360228D02*
X96699121Y-66093561D01*
X96699121Y-66093561D02*
X96737217Y-65941180D01*
X96737217Y-65941180D02*
X96813407Y-65864990D01*
X96813407Y-65864990D02*
X96889598Y-65826895D01*
X97994359Y-66626895D02*
X97537216Y-66626895D01*
X97765788Y-66626895D02*
X97765788Y-65826895D01*
X97765788Y-65826895D02*
X97689597Y-65941180D01*
X97689597Y-65941180D02*
X97613407Y-66017371D01*
X97613407Y-66017371D02*
X97537216Y-66055466D01*
X98680074Y-66093561D02*
X98680074Y-66626895D01*
X98489598Y-65788800D02*
X98299121Y-66360228D01*
X98299121Y-66360228D02*
X98794360Y-66360228D01*
X96356265Y-63976895D02*
X96356265Y-63176895D01*
X96889598Y-63176895D02*
X97041979Y-63176895D01*
X97041979Y-63176895D02*
X97118169Y-63214990D01*
X97118169Y-63214990D02*
X97194360Y-63291180D01*
X97194360Y-63291180D02*
X97232455Y-63443561D01*
X97232455Y-63443561D02*
X97232455Y-63710228D01*
X97232455Y-63710228D02*
X97194360Y-63862609D01*
X97194360Y-63862609D02*
X97118169Y-63938800D01*
X97118169Y-63938800D02*
X97041979Y-63976895D01*
X97041979Y-63976895D02*
X96889598Y-63976895D01*
X96889598Y-63976895D02*
X96813407Y-63938800D01*
X96813407Y-63938800D02*
X96737217Y-63862609D01*
X96737217Y-63862609D02*
X96699121Y-63710228D01*
X96699121Y-63710228D02*
X96699121Y-63443561D01*
X96699121Y-63443561D02*
X96737217Y-63291180D01*
X96737217Y-63291180D02*
X96813407Y-63214990D01*
X96813407Y-63214990D02*
X96889598Y-63176895D01*
X97537216Y-63253085D02*
X97575312Y-63214990D01*
X97575312Y-63214990D02*
X97651502Y-63176895D01*
X97651502Y-63176895D02*
X97841978Y-63176895D01*
X97841978Y-63176895D02*
X97918169Y-63214990D01*
X97918169Y-63214990D02*
X97956264Y-63253085D01*
X97956264Y-63253085D02*
X97994359Y-63329276D01*
X97994359Y-63329276D02*
X97994359Y-63405466D01*
X97994359Y-63405466D02*
X97956264Y-63519752D01*
X97956264Y-63519752D02*
X97499121Y-63976895D01*
X97499121Y-63976895D02*
X97994359Y-63976895D01*
X98261026Y-63176895D02*
X98794360Y-63176895D01*
X98794360Y-63176895D02*
X98451502Y-63976895D01*
X96356265Y-61546895D02*
X96356265Y-60746895D01*
X96889598Y-60746895D02*
X97041979Y-60746895D01*
X97041979Y-60746895D02*
X97118169Y-60784990D01*
X97118169Y-60784990D02*
X97194360Y-60861180D01*
X97194360Y-60861180D02*
X97232455Y-61013561D01*
X97232455Y-61013561D02*
X97232455Y-61280228D01*
X97232455Y-61280228D02*
X97194360Y-61432609D01*
X97194360Y-61432609D02*
X97118169Y-61508800D01*
X97118169Y-61508800D02*
X97041979Y-61546895D01*
X97041979Y-61546895D02*
X96889598Y-61546895D01*
X96889598Y-61546895D02*
X96813407Y-61508800D01*
X96813407Y-61508800D02*
X96737217Y-61432609D01*
X96737217Y-61432609D02*
X96699121Y-61280228D01*
X96699121Y-61280228D02*
X96699121Y-61013561D01*
X96699121Y-61013561D02*
X96737217Y-60861180D01*
X96737217Y-60861180D02*
X96813407Y-60784990D01*
X96813407Y-60784990D02*
X96889598Y-60746895D01*
X97537216Y-60823085D02*
X97575312Y-60784990D01*
X97575312Y-60784990D02*
X97651502Y-60746895D01*
X97651502Y-60746895D02*
X97841978Y-60746895D01*
X97841978Y-60746895D02*
X97918169Y-60784990D01*
X97918169Y-60784990D02*
X97956264Y-60823085D01*
X97956264Y-60823085D02*
X97994359Y-60899276D01*
X97994359Y-60899276D02*
X97994359Y-60975466D01*
X97994359Y-60975466D02*
X97956264Y-61089752D01*
X97956264Y-61089752D02*
X97499121Y-61546895D01*
X97499121Y-61546895D02*
X97994359Y-61546895D01*
X98680074Y-60746895D02*
X98527693Y-60746895D01*
X98527693Y-60746895D02*
X98451502Y-60784990D01*
X98451502Y-60784990D02*
X98413407Y-60823085D01*
X98413407Y-60823085D02*
X98337217Y-60937371D01*
X98337217Y-60937371D02*
X98299121Y-61089752D01*
X98299121Y-61089752D02*
X98299121Y-61394514D01*
X98299121Y-61394514D02*
X98337217Y-61470704D01*
X98337217Y-61470704D02*
X98375312Y-61508800D01*
X98375312Y-61508800D02*
X98451502Y-61546895D01*
X98451502Y-61546895D02*
X98603883Y-61546895D01*
X98603883Y-61546895D02*
X98680074Y-61508800D01*
X98680074Y-61508800D02*
X98718169Y-61470704D01*
X98718169Y-61470704D02*
X98756264Y-61394514D01*
X98756264Y-61394514D02*
X98756264Y-61204038D01*
X98756264Y-61204038D02*
X98718169Y-61127847D01*
X98718169Y-61127847D02*
X98680074Y-61089752D01*
X98680074Y-61089752D02*
X98603883Y-61051657D01*
X98603883Y-61051657D02*
X98451502Y-61051657D01*
X98451502Y-61051657D02*
X98375312Y-61089752D01*
X98375312Y-61089752D02*
X98337217Y-61127847D01*
X98337217Y-61127847D02*
X98299121Y-61204038D01*
X96356265Y-58996895D02*
X96356265Y-58196895D01*
X96889598Y-58196895D02*
X97041979Y-58196895D01*
X97041979Y-58196895D02*
X97118169Y-58234990D01*
X97118169Y-58234990D02*
X97194360Y-58311180D01*
X97194360Y-58311180D02*
X97232455Y-58463561D01*
X97232455Y-58463561D02*
X97232455Y-58730228D01*
X97232455Y-58730228D02*
X97194360Y-58882609D01*
X97194360Y-58882609D02*
X97118169Y-58958800D01*
X97118169Y-58958800D02*
X97041979Y-58996895D01*
X97041979Y-58996895D02*
X96889598Y-58996895D01*
X96889598Y-58996895D02*
X96813407Y-58958800D01*
X96813407Y-58958800D02*
X96737217Y-58882609D01*
X96737217Y-58882609D02*
X96699121Y-58730228D01*
X96699121Y-58730228D02*
X96699121Y-58463561D01*
X96699121Y-58463561D02*
X96737217Y-58311180D01*
X96737217Y-58311180D02*
X96813407Y-58234990D01*
X96813407Y-58234990D02*
X96889598Y-58196895D01*
X97537216Y-58273085D02*
X97575312Y-58234990D01*
X97575312Y-58234990D02*
X97651502Y-58196895D01*
X97651502Y-58196895D02*
X97841978Y-58196895D01*
X97841978Y-58196895D02*
X97918169Y-58234990D01*
X97918169Y-58234990D02*
X97956264Y-58273085D01*
X97956264Y-58273085D02*
X97994359Y-58349276D01*
X97994359Y-58349276D02*
X97994359Y-58425466D01*
X97994359Y-58425466D02*
X97956264Y-58539752D01*
X97956264Y-58539752D02*
X97499121Y-58996895D01*
X97499121Y-58996895D02*
X97994359Y-58996895D01*
X98718169Y-58196895D02*
X98337217Y-58196895D01*
X98337217Y-58196895D02*
X98299121Y-58577847D01*
X98299121Y-58577847D02*
X98337217Y-58539752D01*
X98337217Y-58539752D02*
X98413407Y-58501657D01*
X98413407Y-58501657D02*
X98603883Y-58501657D01*
X98603883Y-58501657D02*
X98680074Y-58539752D01*
X98680074Y-58539752D02*
X98718169Y-58577847D01*
X98718169Y-58577847D02*
X98756264Y-58654038D01*
X98756264Y-58654038D02*
X98756264Y-58844514D01*
X98756264Y-58844514D02*
X98718169Y-58920704D01*
X98718169Y-58920704D02*
X98680074Y-58958800D01*
X98680074Y-58958800D02*
X98603883Y-58996895D01*
X98603883Y-58996895D02*
X98413407Y-58996895D01*
X98413407Y-58996895D02*
X98337217Y-58958800D01*
X98337217Y-58958800D02*
X98299121Y-58920704D01*
X96356265Y-56466895D02*
X96356265Y-55666895D01*
X96889598Y-55666895D02*
X97041979Y-55666895D01*
X97041979Y-55666895D02*
X97118169Y-55704990D01*
X97118169Y-55704990D02*
X97194360Y-55781180D01*
X97194360Y-55781180D02*
X97232455Y-55933561D01*
X97232455Y-55933561D02*
X97232455Y-56200228D01*
X97232455Y-56200228D02*
X97194360Y-56352609D01*
X97194360Y-56352609D02*
X97118169Y-56428800D01*
X97118169Y-56428800D02*
X97041979Y-56466895D01*
X97041979Y-56466895D02*
X96889598Y-56466895D01*
X96889598Y-56466895D02*
X96813407Y-56428800D01*
X96813407Y-56428800D02*
X96737217Y-56352609D01*
X96737217Y-56352609D02*
X96699121Y-56200228D01*
X96699121Y-56200228D02*
X96699121Y-55933561D01*
X96699121Y-55933561D02*
X96737217Y-55781180D01*
X96737217Y-55781180D02*
X96813407Y-55704990D01*
X96813407Y-55704990D02*
X96889598Y-55666895D01*
X97499121Y-55666895D02*
X97994359Y-55666895D01*
X97994359Y-55666895D02*
X97727693Y-55971657D01*
X97727693Y-55971657D02*
X97841978Y-55971657D01*
X97841978Y-55971657D02*
X97918169Y-56009752D01*
X97918169Y-56009752D02*
X97956264Y-56047847D01*
X97956264Y-56047847D02*
X97994359Y-56124038D01*
X97994359Y-56124038D02*
X97994359Y-56314514D01*
X97994359Y-56314514D02*
X97956264Y-56390704D01*
X97956264Y-56390704D02*
X97918169Y-56428800D01*
X97918169Y-56428800D02*
X97841978Y-56466895D01*
X97841978Y-56466895D02*
X97613407Y-56466895D01*
X97613407Y-56466895D02*
X97537216Y-56428800D01*
X97537216Y-56428800D02*
X97499121Y-56390704D01*
X98261026Y-55666895D02*
X98756264Y-55666895D01*
X98756264Y-55666895D02*
X98489598Y-55971657D01*
X98489598Y-55971657D02*
X98603883Y-55971657D01*
X98603883Y-55971657D02*
X98680074Y-56009752D01*
X98680074Y-56009752D02*
X98718169Y-56047847D01*
X98718169Y-56047847D02*
X98756264Y-56124038D01*
X98756264Y-56124038D02*
X98756264Y-56314514D01*
X98756264Y-56314514D02*
X98718169Y-56390704D01*
X98718169Y-56390704D02*
X98680074Y-56428800D01*
X98680074Y-56428800D02*
X98603883Y-56466895D01*
X98603883Y-56466895D02*
X98375312Y-56466895D01*
X98375312Y-56466895D02*
X98299121Y-56428800D01*
X98299121Y-56428800D02*
X98261026Y-56390704D01*
X96356265Y-53886895D02*
X96356265Y-53086895D01*
X96889598Y-53086895D02*
X97041979Y-53086895D01*
X97041979Y-53086895D02*
X97118169Y-53124990D01*
X97118169Y-53124990D02*
X97194360Y-53201180D01*
X97194360Y-53201180D02*
X97232455Y-53353561D01*
X97232455Y-53353561D02*
X97232455Y-53620228D01*
X97232455Y-53620228D02*
X97194360Y-53772609D01*
X97194360Y-53772609D02*
X97118169Y-53848800D01*
X97118169Y-53848800D02*
X97041979Y-53886895D01*
X97041979Y-53886895D02*
X96889598Y-53886895D01*
X96889598Y-53886895D02*
X96813407Y-53848800D01*
X96813407Y-53848800D02*
X96737217Y-53772609D01*
X96737217Y-53772609D02*
X96699121Y-53620228D01*
X96699121Y-53620228D02*
X96699121Y-53353561D01*
X96699121Y-53353561D02*
X96737217Y-53201180D01*
X96737217Y-53201180D02*
X96813407Y-53124990D01*
X96813407Y-53124990D02*
X96889598Y-53086895D01*
X97499121Y-53086895D02*
X97994359Y-53086895D01*
X97994359Y-53086895D02*
X97727693Y-53391657D01*
X97727693Y-53391657D02*
X97841978Y-53391657D01*
X97841978Y-53391657D02*
X97918169Y-53429752D01*
X97918169Y-53429752D02*
X97956264Y-53467847D01*
X97956264Y-53467847D02*
X97994359Y-53544038D01*
X97994359Y-53544038D02*
X97994359Y-53734514D01*
X97994359Y-53734514D02*
X97956264Y-53810704D01*
X97956264Y-53810704D02*
X97918169Y-53848800D01*
X97918169Y-53848800D02*
X97841978Y-53886895D01*
X97841978Y-53886895D02*
X97613407Y-53886895D01*
X97613407Y-53886895D02*
X97537216Y-53848800D01*
X97537216Y-53848800D02*
X97499121Y-53810704D01*
X98299121Y-53163085D02*
X98337217Y-53124990D01*
X98337217Y-53124990D02*
X98413407Y-53086895D01*
X98413407Y-53086895D02*
X98603883Y-53086895D01*
X98603883Y-53086895D02*
X98680074Y-53124990D01*
X98680074Y-53124990D02*
X98718169Y-53163085D01*
X98718169Y-53163085D02*
X98756264Y-53239276D01*
X98756264Y-53239276D02*
X98756264Y-53315466D01*
X98756264Y-53315466D02*
X98718169Y-53429752D01*
X98718169Y-53429752D02*
X98261026Y-53886895D01*
X98261026Y-53886895D02*
X98756264Y-53886895D01*
X96356265Y-51296895D02*
X96356265Y-50496895D01*
X96889598Y-50496895D02*
X97041979Y-50496895D01*
X97041979Y-50496895D02*
X97118169Y-50534990D01*
X97118169Y-50534990D02*
X97194360Y-50611180D01*
X97194360Y-50611180D02*
X97232455Y-50763561D01*
X97232455Y-50763561D02*
X97232455Y-51030228D01*
X97232455Y-51030228D02*
X97194360Y-51182609D01*
X97194360Y-51182609D02*
X97118169Y-51258800D01*
X97118169Y-51258800D02*
X97041979Y-51296895D01*
X97041979Y-51296895D02*
X96889598Y-51296895D01*
X96889598Y-51296895D02*
X96813407Y-51258800D01*
X96813407Y-51258800D02*
X96737217Y-51182609D01*
X96737217Y-51182609D02*
X96699121Y-51030228D01*
X96699121Y-51030228D02*
X96699121Y-50763561D01*
X96699121Y-50763561D02*
X96737217Y-50611180D01*
X96737217Y-50611180D02*
X96813407Y-50534990D01*
X96813407Y-50534990D02*
X96889598Y-50496895D01*
X97499121Y-50496895D02*
X97994359Y-50496895D01*
X97994359Y-50496895D02*
X97727693Y-50801657D01*
X97727693Y-50801657D02*
X97841978Y-50801657D01*
X97841978Y-50801657D02*
X97918169Y-50839752D01*
X97918169Y-50839752D02*
X97956264Y-50877847D01*
X97956264Y-50877847D02*
X97994359Y-50954038D01*
X97994359Y-50954038D02*
X97994359Y-51144514D01*
X97994359Y-51144514D02*
X97956264Y-51220704D01*
X97956264Y-51220704D02*
X97918169Y-51258800D01*
X97918169Y-51258800D02*
X97841978Y-51296895D01*
X97841978Y-51296895D02*
X97613407Y-51296895D01*
X97613407Y-51296895D02*
X97537216Y-51258800D01*
X97537216Y-51258800D02*
X97499121Y-51220704D01*
X98718169Y-50496895D02*
X98337217Y-50496895D01*
X98337217Y-50496895D02*
X98299121Y-50877847D01*
X98299121Y-50877847D02*
X98337217Y-50839752D01*
X98337217Y-50839752D02*
X98413407Y-50801657D01*
X98413407Y-50801657D02*
X98603883Y-50801657D01*
X98603883Y-50801657D02*
X98680074Y-50839752D01*
X98680074Y-50839752D02*
X98718169Y-50877847D01*
X98718169Y-50877847D02*
X98756264Y-50954038D01*
X98756264Y-50954038D02*
X98756264Y-51144514D01*
X98756264Y-51144514D02*
X98718169Y-51220704D01*
X98718169Y-51220704D02*
X98680074Y-51258800D01*
X98680074Y-51258800D02*
X98603883Y-51296895D01*
X98603883Y-51296895D02*
X98413407Y-51296895D01*
X98413407Y-51296895D02*
X98337217Y-51258800D01*
X98337217Y-51258800D02*
X98299121Y-51220704D01*
X96356265Y-48816895D02*
X96356265Y-48016895D01*
X96889598Y-48016895D02*
X97041979Y-48016895D01*
X97041979Y-48016895D02*
X97118169Y-48054990D01*
X97118169Y-48054990D02*
X97194360Y-48131180D01*
X97194360Y-48131180D02*
X97232455Y-48283561D01*
X97232455Y-48283561D02*
X97232455Y-48550228D01*
X97232455Y-48550228D02*
X97194360Y-48702609D01*
X97194360Y-48702609D02*
X97118169Y-48778800D01*
X97118169Y-48778800D02*
X97041979Y-48816895D01*
X97041979Y-48816895D02*
X96889598Y-48816895D01*
X96889598Y-48816895D02*
X96813407Y-48778800D01*
X96813407Y-48778800D02*
X96737217Y-48702609D01*
X96737217Y-48702609D02*
X96699121Y-48550228D01*
X96699121Y-48550228D02*
X96699121Y-48283561D01*
X96699121Y-48283561D02*
X96737217Y-48131180D01*
X96737217Y-48131180D02*
X96813407Y-48054990D01*
X96813407Y-48054990D02*
X96889598Y-48016895D01*
X97499121Y-48016895D02*
X97994359Y-48016895D01*
X97994359Y-48016895D02*
X97727693Y-48321657D01*
X97727693Y-48321657D02*
X97841978Y-48321657D01*
X97841978Y-48321657D02*
X97918169Y-48359752D01*
X97918169Y-48359752D02*
X97956264Y-48397847D01*
X97956264Y-48397847D02*
X97994359Y-48474038D01*
X97994359Y-48474038D02*
X97994359Y-48664514D01*
X97994359Y-48664514D02*
X97956264Y-48740704D01*
X97956264Y-48740704D02*
X97918169Y-48778800D01*
X97918169Y-48778800D02*
X97841978Y-48816895D01*
X97841978Y-48816895D02*
X97613407Y-48816895D01*
X97613407Y-48816895D02*
X97537216Y-48778800D01*
X97537216Y-48778800D02*
X97499121Y-48740704D01*
X98680074Y-48283561D02*
X98680074Y-48816895D01*
X98489598Y-47978800D02*
X98299121Y-48550228D01*
X98299121Y-48550228D02*
X98794360Y-48550228D01*
X96356265Y-46306895D02*
X96356265Y-45506895D01*
X96889598Y-45506895D02*
X97041979Y-45506895D01*
X97041979Y-45506895D02*
X97118169Y-45544990D01*
X97118169Y-45544990D02*
X97194360Y-45621180D01*
X97194360Y-45621180D02*
X97232455Y-45773561D01*
X97232455Y-45773561D02*
X97232455Y-46040228D01*
X97232455Y-46040228D02*
X97194360Y-46192609D01*
X97194360Y-46192609D02*
X97118169Y-46268800D01*
X97118169Y-46268800D02*
X97041979Y-46306895D01*
X97041979Y-46306895D02*
X96889598Y-46306895D01*
X96889598Y-46306895D02*
X96813407Y-46268800D01*
X96813407Y-46268800D02*
X96737217Y-46192609D01*
X96737217Y-46192609D02*
X96699121Y-46040228D01*
X96699121Y-46040228D02*
X96699121Y-45773561D01*
X96699121Y-45773561D02*
X96737217Y-45621180D01*
X96737217Y-45621180D02*
X96813407Y-45544990D01*
X96813407Y-45544990D02*
X96889598Y-45506895D01*
X97499121Y-45506895D02*
X97994359Y-45506895D01*
X97994359Y-45506895D02*
X97727693Y-45811657D01*
X97727693Y-45811657D02*
X97841978Y-45811657D01*
X97841978Y-45811657D02*
X97918169Y-45849752D01*
X97918169Y-45849752D02*
X97956264Y-45887847D01*
X97956264Y-45887847D02*
X97994359Y-45964038D01*
X97994359Y-45964038D02*
X97994359Y-46154514D01*
X97994359Y-46154514D02*
X97956264Y-46230704D01*
X97956264Y-46230704D02*
X97918169Y-46268800D01*
X97918169Y-46268800D02*
X97841978Y-46306895D01*
X97841978Y-46306895D02*
X97613407Y-46306895D01*
X97613407Y-46306895D02*
X97537216Y-46268800D01*
X97537216Y-46268800D02*
X97499121Y-46230704D01*
X98375312Y-46306895D02*
X98527693Y-46306895D01*
X98527693Y-46306895D02*
X98603883Y-46268800D01*
X98603883Y-46268800D02*
X98641979Y-46230704D01*
X98641979Y-46230704D02*
X98718169Y-46116419D01*
X98718169Y-46116419D02*
X98756264Y-45964038D01*
X98756264Y-45964038D02*
X98756264Y-45659276D01*
X98756264Y-45659276D02*
X98718169Y-45583085D01*
X98718169Y-45583085D02*
X98680074Y-45544990D01*
X98680074Y-45544990D02*
X98603883Y-45506895D01*
X98603883Y-45506895D02*
X98451502Y-45506895D01*
X98451502Y-45506895D02*
X98375312Y-45544990D01*
X98375312Y-45544990D02*
X98337217Y-45583085D01*
X98337217Y-45583085D02*
X98299121Y-45659276D01*
X98299121Y-45659276D02*
X98299121Y-45849752D01*
X98299121Y-45849752D02*
X98337217Y-45925942D01*
X98337217Y-45925942D02*
X98375312Y-45964038D01*
X98375312Y-45964038D02*
X98451502Y-46002133D01*
X98451502Y-46002133D02*
X98603883Y-46002133D01*
X98603883Y-46002133D02*
X98680074Y-45964038D01*
X98680074Y-45964038D02*
X98718169Y-45925942D01*
X98718169Y-45925942D02*
X98756264Y-45849752D01*
X96356265Y-43776895D02*
X96356265Y-42976895D01*
X96889598Y-42976895D02*
X97041979Y-42976895D01*
X97041979Y-42976895D02*
X97118169Y-43014990D01*
X97118169Y-43014990D02*
X97194360Y-43091180D01*
X97194360Y-43091180D02*
X97232455Y-43243561D01*
X97232455Y-43243561D02*
X97232455Y-43510228D01*
X97232455Y-43510228D02*
X97194360Y-43662609D01*
X97194360Y-43662609D02*
X97118169Y-43738800D01*
X97118169Y-43738800D02*
X97041979Y-43776895D01*
X97041979Y-43776895D02*
X96889598Y-43776895D01*
X96889598Y-43776895D02*
X96813407Y-43738800D01*
X96813407Y-43738800D02*
X96737217Y-43662609D01*
X96737217Y-43662609D02*
X96699121Y-43510228D01*
X96699121Y-43510228D02*
X96699121Y-43243561D01*
X96699121Y-43243561D02*
X96737217Y-43091180D01*
X96737217Y-43091180D02*
X96813407Y-43014990D01*
X96813407Y-43014990D02*
X96889598Y-42976895D01*
X97499121Y-42976895D02*
X97994359Y-42976895D01*
X97994359Y-42976895D02*
X97727693Y-43281657D01*
X97727693Y-43281657D02*
X97841978Y-43281657D01*
X97841978Y-43281657D02*
X97918169Y-43319752D01*
X97918169Y-43319752D02*
X97956264Y-43357847D01*
X97956264Y-43357847D02*
X97994359Y-43434038D01*
X97994359Y-43434038D02*
X97994359Y-43624514D01*
X97994359Y-43624514D02*
X97956264Y-43700704D01*
X97956264Y-43700704D02*
X97918169Y-43738800D01*
X97918169Y-43738800D02*
X97841978Y-43776895D01*
X97841978Y-43776895D02*
X97613407Y-43776895D01*
X97613407Y-43776895D02*
X97537216Y-43738800D01*
X97537216Y-43738800D02*
X97499121Y-43700704D01*
X98680074Y-42976895D02*
X98527693Y-42976895D01*
X98527693Y-42976895D02*
X98451502Y-43014990D01*
X98451502Y-43014990D02*
X98413407Y-43053085D01*
X98413407Y-43053085D02*
X98337217Y-43167371D01*
X98337217Y-43167371D02*
X98299121Y-43319752D01*
X98299121Y-43319752D02*
X98299121Y-43624514D01*
X98299121Y-43624514D02*
X98337217Y-43700704D01*
X98337217Y-43700704D02*
X98375312Y-43738800D01*
X98375312Y-43738800D02*
X98451502Y-43776895D01*
X98451502Y-43776895D02*
X98603883Y-43776895D01*
X98603883Y-43776895D02*
X98680074Y-43738800D01*
X98680074Y-43738800D02*
X98718169Y-43700704D01*
X98718169Y-43700704D02*
X98756264Y-43624514D01*
X98756264Y-43624514D02*
X98756264Y-43434038D01*
X98756264Y-43434038D02*
X98718169Y-43357847D01*
X98718169Y-43357847D02*
X98680074Y-43319752D01*
X98680074Y-43319752D02*
X98603883Y-43281657D01*
X98603883Y-43281657D02*
X98451502Y-43281657D01*
X98451502Y-43281657D02*
X98375312Y-43319752D01*
X98375312Y-43319752D02*
X98337217Y-43357847D01*
X98337217Y-43357847D02*
X98299121Y-43434038D01*
X96946741Y-40767847D02*
X97213407Y-40767847D01*
X97327693Y-41186895D02*
X96946741Y-41186895D01*
X96946741Y-41186895D02*
X96946741Y-40386895D01*
X96946741Y-40386895D02*
X97327693Y-40386895D01*
X97670551Y-41186895D02*
X97670551Y-40386895D01*
X97670551Y-40386895D02*
X98127694Y-41186895D01*
X98127694Y-41186895D02*
X98127694Y-40386895D01*
X96546740Y-37846895D02*
X97041978Y-37846895D01*
X97041978Y-37846895D02*
X96775312Y-38151657D01*
X96775312Y-38151657D02*
X96889597Y-38151657D01*
X96889597Y-38151657D02*
X96965788Y-38189752D01*
X96965788Y-38189752D02*
X97003883Y-38227847D01*
X97003883Y-38227847D02*
X97041978Y-38304038D01*
X97041978Y-38304038D02*
X97041978Y-38494514D01*
X97041978Y-38494514D02*
X97003883Y-38570704D01*
X97003883Y-38570704D02*
X96965788Y-38608800D01*
X96965788Y-38608800D02*
X96889597Y-38646895D01*
X96889597Y-38646895D02*
X96661026Y-38646895D01*
X96661026Y-38646895D02*
X96584835Y-38608800D01*
X96584835Y-38608800D02*
X96546740Y-38570704D01*
X97270550Y-37846895D02*
X97537217Y-38646895D01*
X97537217Y-38646895D02*
X97803883Y-37846895D01*
X97994359Y-37846895D02*
X98489597Y-37846895D01*
X98489597Y-37846895D02*
X98222931Y-38151657D01*
X98222931Y-38151657D02*
X98337216Y-38151657D01*
X98337216Y-38151657D02*
X98413407Y-38189752D01*
X98413407Y-38189752D02*
X98451502Y-38227847D01*
X98451502Y-38227847D02*
X98489597Y-38304038D01*
X98489597Y-38304038D02*
X98489597Y-38494514D01*
X98489597Y-38494514D02*
X98451502Y-38570704D01*
X98451502Y-38570704D02*
X98413407Y-38608800D01*
X98413407Y-38608800D02*
X98337216Y-38646895D01*
X98337216Y-38646895D02*
X98108645Y-38646895D01*
X98108645Y-38646895D02*
X98032454Y-38608800D01*
X98032454Y-38608800D02*
X97994359Y-38570704D01*
D12*
X95436779Y-124499819D02*
X95436779Y-123499819D01*
X95436779Y-123499819D02*
X95817731Y-123499819D01*
X95817731Y-123499819D02*
X95912969Y-123547438D01*
X95912969Y-123547438D02*
X95960588Y-123595057D01*
X95960588Y-123595057D02*
X96008207Y-123690295D01*
X96008207Y-123690295D02*
X96008207Y-123833152D01*
X96008207Y-123833152D02*
X95960588Y-123928390D01*
X95960588Y-123928390D02*
X95912969Y-123976009D01*
X95912969Y-123976009D02*
X95817731Y-124023628D01*
X95817731Y-124023628D02*
X95436779Y-124023628D01*
X96341541Y-123499819D02*
X96579636Y-124499819D01*
X96579636Y-124499819D02*
X96770112Y-123785533D01*
X96770112Y-123785533D02*
X96960588Y-124499819D01*
X96960588Y-124499819D02*
X97198684Y-123499819D01*
X97579636Y-124499819D02*
X97579636Y-123499819D01*
X97579636Y-123499819D02*
X97912969Y-124214104D01*
X97912969Y-124214104D02*
X98246302Y-123499819D01*
X98246302Y-123499819D02*
X98246302Y-124499819D01*
X140329819Y-113183220D02*
X139329819Y-113183220D01*
X139425057Y-112754649D02*
X139377438Y-112707030D01*
X139377438Y-112707030D02*
X139329819Y-112611792D01*
X139329819Y-112611792D02*
X139329819Y-112373697D01*
X139329819Y-112373697D02*
X139377438Y-112278459D01*
X139377438Y-112278459D02*
X139425057Y-112230840D01*
X139425057Y-112230840D02*
X139520295Y-112183221D01*
X139520295Y-112183221D02*
X139615533Y-112183221D01*
X139615533Y-112183221D02*
X139758390Y-112230840D01*
X139758390Y-112230840D02*
X140329819Y-112802268D01*
X140329819Y-112802268D02*
X140329819Y-112183221D01*
X140234580Y-111183221D02*
X140282200Y-111230840D01*
X140282200Y-111230840D02*
X140329819Y-111373697D01*
X140329819Y-111373697D02*
X140329819Y-111468935D01*
X140329819Y-111468935D02*
X140282200Y-111611792D01*
X140282200Y-111611792D02*
X140186961Y-111707030D01*
X140186961Y-111707030D02*
X140091723Y-111754649D01*
X140091723Y-111754649D02*
X139901247Y-111802268D01*
X139901247Y-111802268D02*
X139758390Y-111802268D01*
X139758390Y-111802268D02*
X139567914Y-111754649D01*
X139567914Y-111754649D02*
X139472676Y-111707030D01*
X139472676Y-111707030D02*
X139377438Y-111611792D01*
X139377438Y-111611792D02*
X139329819Y-111468935D01*
X139329819Y-111468935D02*
X139329819Y-111373697D01*
X139329819Y-111373697D02*
X139377438Y-111230840D01*
X139377438Y-111230840D02*
X139425057Y-111183221D01*
X139792200Y-98290839D02*
X139839819Y-98147982D01*
X139839819Y-98147982D02*
X139839819Y-97909887D01*
X139839819Y-97909887D02*
X139792200Y-97814649D01*
X139792200Y-97814649D02*
X139744580Y-97767030D01*
X139744580Y-97767030D02*
X139649342Y-97719411D01*
X139649342Y-97719411D02*
X139554104Y-97719411D01*
X139554104Y-97719411D02*
X139458866Y-97767030D01*
X139458866Y-97767030D02*
X139411247Y-97814649D01*
X139411247Y-97814649D02*
X139363628Y-97909887D01*
X139363628Y-97909887D02*
X139316009Y-98100363D01*
X139316009Y-98100363D02*
X139268390Y-98195601D01*
X139268390Y-98195601D02*
X139220771Y-98243220D01*
X139220771Y-98243220D02*
X139125533Y-98290839D01*
X139125533Y-98290839D02*
X139030295Y-98290839D01*
X139030295Y-98290839D02*
X138935057Y-98243220D01*
X138935057Y-98243220D02*
X138887438Y-98195601D01*
X138887438Y-98195601D02*
X138839819Y-98100363D01*
X138839819Y-98100363D02*
X138839819Y-97862268D01*
X138839819Y-97862268D02*
X138887438Y-97719411D01*
X139839819Y-97290839D02*
X138839819Y-97290839D01*
X138839819Y-97290839D02*
X138839819Y-96909887D01*
X138839819Y-96909887D02*
X138887438Y-96814649D01*
X138887438Y-96814649D02*
X138935057Y-96767030D01*
X138935057Y-96767030D02*
X139030295Y-96719411D01*
X139030295Y-96719411D02*
X139173152Y-96719411D01*
X139173152Y-96719411D02*
X139268390Y-96767030D01*
X139268390Y-96767030D02*
X139316009Y-96814649D01*
X139316009Y-96814649D02*
X139363628Y-96909887D01*
X139363628Y-96909887D02*
X139363628Y-97290839D01*
X139839819Y-96290839D02*
X138839819Y-96290839D01*
D13*
X117039673Y-65009659D02*
X117373006Y-65009659D01*
X117515863Y-65533469D02*
X117039673Y-65533469D01*
X117039673Y-65533469D02*
X117039673Y-64533469D01*
X117039673Y-64533469D02*
X117515863Y-64533469D01*
X117896816Y-65485850D02*
X118039673Y-65533469D01*
X118039673Y-65533469D02*
X118277768Y-65533469D01*
X118277768Y-65533469D02*
X118373006Y-65485850D01*
X118373006Y-65485850D02*
X118420625Y-65438230D01*
X118420625Y-65438230D02*
X118468244Y-65342992D01*
X118468244Y-65342992D02*
X118468244Y-65247754D01*
X118468244Y-65247754D02*
X118420625Y-65152516D01*
X118420625Y-65152516D02*
X118373006Y-65104897D01*
X118373006Y-65104897D02*
X118277768Y-65057278D01*
X118277768Y-65057278D02*
X118087292Y-65009659D01*
X118087292Y-65009659D02*
X117992054Y-64962040D01*
X117992054Y-64962040D02*
X117944435Y-64914421D01*
X117944435Y-64914421D02*
X117896816Y-64819183D01*
X117896816Y-64819183D02*
X117896816Y-64723945D01*
X117896816Y-64723945D02*
X117944435Y-64628707D01*
X117944435Y-64628707D02*
X117992054Y-64581088D01*
X117992054Y-64581088D02*
X118087292Y-64533469D01*
X118087292Y-64533469D02*
X118325387Y-64533469D01*
X118325387Y-64533469D02*
X118468244Y-64581088D01*
X118896816Y-65533469D02*
X118896816Y-64533469D01*
X118896816Y-64533469D02*
X119277768Y-64533469D01*
X119277768Y-64533469D02*
X119373006Y-64581088D01*
X119373006Y-64581088D02*
X119420625Y-64628707D01*
X119420625Y-64628707D02*
X119468244Y-64723945D01*
X119468244Y-64723945D02*
X119468244Y-64866802D01*
X119468244Y-64866802D02*
X119420625Y-64962040D01*
X119420625Y-64962040D02*
X119373006Y-65009659D01*
X119373006Y-65009659D02*
X119277768Y-65057278D01*
X119277768Y-65057278D02*
X118896816Y-65057278D01*
X119801578Y-64533469D02*
X120420625Y-64533469D01*
X120420625Y-64533469D02*
X120087292Y-64914421D01*
X120087292Y-64914421D02*
X120230149Y-64914421D01*
X120230149Y-64914421D02*
X120325387Y-64962040D01*
X120325387Y-64962040D02*
X120373006Y-65009659D01*
X120373006Y-65009659D02*
X120420625Y-65104897D01*
X120420625Y-65104897D02*
X120420625Y-65342992D01*
X120420625Y-65342992D02*
X120373006Y-65438230D01*
X120373006Y-65438230D02*
X120325387Y-65485850D01*
X120325387Y-65485850D02*
X120230149Y-65533469D01*
X120230149Y-65533469D02*
X119944435Y-65533469D01*
X119944435Y-65533469D02*
X119849197Y-65485850D01*
X119849197Y-65485850D02*
X119801578Y-65438230D01*
X120801578Y-64628707D02*
X120849197Y-64581088D01*
X120849197Y-64581088D02*
X120944435Y-64533469D01*
X120944435Y-64533469D02*
X121182530Y-64533469D01*
X121182530Y-64533469D02*
X121277768Y-64581088D01*
X121277768Y-64581088D02*
X121325387Y-64628707D01*
X121325387Y-64628707D02*
X121373006Y-64723945D01*
X121373006Y-64723945D02*
X121373006Y-64819183D01*
X121373006Y-64819183D02*
X121325387Y-64962040D01*
X121325387Y-64962040D02*
X120753959Y-65533469D01*
X120753959Y-65533469D02*
X121373006Y-65533469D01*
D12*
X105996779Y-124499819D02*
X105996779Y-123499819D01*
X105996779Y-123499819D02*
X106234874Y-123499819D01*
X106234874Y-123499819D02*
X106377731Y-123547438D01*
X106377731Y-123547438D02*
X106472969Y-123642676D01*
X106472969Y-123642676D02*
X106520588Y-123737914D01*
X106520588Y-123737914D02*
X106568207Y-123928390D01*
X106568207Y-123928390D02*
X106568207Y-124071247D01*
X106568207Y-124071247D02*
X106520588Y-124261723D01*
X106520588Y-124261723D02*
X106472969Y-124356961D01*
X106472969Y-124356961D02*
X106377731Y-124452200D01*
X106377731Y-124452200D02*
X106234874Y-124499819D01*
X106234874Y-124499819D02*
X105996779Y-124499819D01*
X106949160Y-124214104D02*
X107425350Y-124214104D01*
X106853922Y-124499819D02*
X107187255Y-123499819D01*
X107187255Y-123499819D02*
X107520588Y-124499819D01*
X108425350Y-124404580D02*
X108377731Y-124452200D01*
X108377731Y-124452200D02*
X108234874Y-124499819D01*
X108234874Y-124499819D02*
X108139636Y-124499819D01*
X108139636Y-124499819D02*
X107996779Y-124452200D01*
X107996779Y-124452200D02*
X107901541Y-124356961D01*
X107901541Y-124356961D02*
X107853922Y-124261723D01*
X107853922Y-124261723D02*
X107806303Y-124071247D01*
X107806303Y-124071247D02*
X107806303Y-123928390D01*
X107806303Y-123928390D02*
X107853922Y-123737914D01*
X107853922Y-123737914D02*
X107901541Y-123642676D01*
X107901541Y-123642676D02*
X107996779Y-123547438D01*
X107996779Y-123547438D02*
X108139636Y-123499819D01*
X108139636Y-123499819D02*
X108234874Y-123499819D01*
X108234874Y-123499819D02*
X108377731Y-123547438D01*
X108377731Y-123547438D02*
X108425350Y-123595057D01*
X128819160Y-124214104D02*
X129295350Y-124214104D01*
X128723922Y-124499819D02*
X129057255Y-123499819D01*
X129057255Y-123499819D02*
X129390588Y-124499819D01*
X129723922Y-124499819D02*
X129723922Y-123499819D01*
X129723922Y-123499819D02*
X129962017Y-123499819D01*
X129962017Y-123499819D02*
X130104874Y-123547438D01*
X130104874Y-123547438D02*
X130200112Y-123642676D01*
X130200112Y-123642676D02*
X130247731Y-123737914D01*
X130247731Y-123737914D02*
X130295350Y-123928390D01*
X130295350Y-123928390D02*
X130295350Y-124071247D01*
X130295350Y-124071247D02*
X130247731Y-124261723D01*
X130247731Y-124261723D02*
X130200112Y-124356961D01*
X130200112Y-124356961D02*
X130104874Y-124452200D01*
X130104874Y-124452200D02*
X129962017Y-124499819D01*
X129962017Y-124499819D02*
X129723922Y-124499819D01*
X131295350Y-124404580D02*
X131247731Y-124452200D01*
X131247731Y-124452200D02*
X131104874Y-124499819D01*
X131104874Y-124499819D02*
X131009636Y-124499819D01*
X131009636Y-124499819D02*
X130866779Y-124452200D01*
X130866779Y-124452200D02*
X130771541Y-124356961D01*
X130771541Y-124356961D02*
X130723922Y-124261723D01*
X130723922Y-124261723D02*
X130676303Y-124071247D01*
X130676303Y-124071247D02*
X130676303Y-123928390D01*
X130676303Y-123928390D02*
X130723922Y-123737914D01*
X130723922Y-123737914D02*
X130771541Y-123642676D01*
X130771541Y-123642676D02*
X130866779Y-123547438D01*
X130866779Y-123547438D02*
X131009636Y-123499819D01*
X131009636Y-123499819D02*
X131104874Y-123499819D01*
X131104874Y-123499819D02*
X131247731Y-123547438D01*
X131247731Y-123547438D02*
X131295350Y-123595057D01*
X138896779Y-123499819D02*
X138896779Y-124309342D01*
X138896779Y-124309342D02*
X138944398Y-124404580D01*
X138944398Y-124404580D02*
X138992017Y-124452200D01*
X138992017Y-124452200D02*
X139087255Y-124499819D01*
X139087255Y-124499819D02*
X139277731Y-124499819D01*
X139277731Y-124499819D02*
X139372969Y-124452200D01*
X139372969Y-124452200D02*
X139420588Y-124404580D01*
X139420588Y-124404580D02*
X139468207Y-124309342D01*
X139468207Y-124309342D02*
X139468207Y-123499819D01*
X139896779Y-124452200D02*
X140039636Y-124499819D01*
X140039636Y-124499819D02*
X140277731Y-124499819D01*
X140277731Y-124499819D02*
X140372969Y-124452200D01*
X140372969Y-124452200D02*
X140420588Y-124404580D01*
X140420588Y-124404580D02*
X140468207Y-124309342D01*
X140468207Y-124309342D02*
X140468207Y-124214104D01*
X140468207Y-124214104D02*
X140420588Y-124118866D01*
X140420588Y-124118866D02*
X140372969Y-124071247D01*
X140372969Y-124071247D02*
X140277731Y-124023628D01*
X140277731Y-124023628D02*
X140087255Y-123976009D01*
X140087255Y-123976009D02*
X139992017Y-123928390D01*
X139992017Y-123928390D02*
X139944398Y-123880771D01*
X139944398Y-123880771D02*
X139896779Y-123785533D01*
X139896779Y-123785533D02*
X139896779Y-123690295D01*
X139896779Y-123690295D02*
X139944398Y-123595057D01*
X139944398Y-123595057D02*
X139992017Y-123547438D01*
X139992017Y-123547438D02*
X140087255Y-123499819D01*
X140087255Y-123499819D02*
X140325350Y-123499819D01*
X140325350Y-123499819D02*
X140468207Y-123547438D01*
X140849160Y-124214104D02*
X141325350Y-124214104D01*
X140753922Y-124499819D02*
X141087255Y-123499819D01*
X141087255Y-123499819D02*
X141420588Y-124499819D01*
X142325350Y-124499819D02*
X141992017Y-124023628D01*
X141753922Y-124499819D02*
X141753922Y-123499819D01*
X141753922Y-123499819D02*
X142134874Y-123499819D01*
X142134874Y-123499819D02*
X142230112Y-123547438D01*
X142230112Y-123547438D02*
X142277731Y-123595057D01*
X142277731Y-123595057D02*
X142325350Y-123690295D01*
X142325350Y-123690295D02*
X142325350Y-123833152D01*
X142325350Y-123833152D02*
X142277731Y-123928390D01*
X142277731Y-123928390D02*
X142230112Y-123976009D01*
X142230112Y-123976009D02*
X142134874Y-124023628D01*
X142134874Y-124023628D02*
X141753922Y-124023628D01*
X142611065Y-123499819D02*
X143182493Y-123499819D01*
X142896779Y-124499819D02*
X142896779Y-123499819D01*
%TO.C,JP1*%
X125006666Y-89234819D02*
X125006666Y-89949104D01*
X125006666Y-89949104D02*
X124959047Y-90091961D01*
X124959047Y-90091961D02*
X124863809Y-90187200D01*
X124863809Y-90187200D02*
X124720952Y-90234819D01*
X124720952Y-90234819D02*
X124625714Y-90234819D01*
X125482857Y-90234819D02*
X125482857Y-89234819D01*
X125482857Y-89234819D02*
X125863809Y-89234819D01*
X125863809Y-89234819D02*
X125959047Y-89282438D01*
X125959047Y-89282438D02*
X126006666Y-89330057D01*
X126006666Y-89330057D02*
X126054285Y-89425295D01*
X126054285Y-89425295D02*
X126054285Y-89568152D01*
X126054285Y-89568152D02*
X126006666Y-89663390D01*
X126006666Y-89663390D02*
X125959047Y-89711009D01*
X125959047Y-89711009D02*
X125863809Y-89758628D01*
X125863809Y-89758628D02*
X125482857Y-89758628D01*
X127006666Y-90234819D02*
X126435238Y-90234819D01*
X126720952Y-90234819D02*
X126720952Y-89234819D01*
X126720952Y-89234819D02*
X126625714Y-89377676D01*
X126625714Y-89377676D02*
X126530476Y-89472914D01*
X126530476Y-89472914D02*
X126435238Y-89520533D01*
%TO.C,BUTTON3*%
X109346904Y-120921009D02*
X109489761Y-120968628D01*
X109489761Y-120968628D02*
X109537380Y-121016247D01*
X109537380Y-121016247D02*
X109584999Y-121111485D01*
X109584999Y-121111485D02*
X109584999Y-121254342D01*
X109584999Y-121254342D02*
X109537380Y-121349580D01*
X109537380Y-121349580D02*
X109489761Y-121397200D01*
X109489761Y-121397200D02*
X109394523Y-121444819D01*
X109394523Y-121444819D02*
X109013571Y-121444819D01*
X109013571Y-121444819D02*
X109013571Y-120444819D01*
X109013571Y-120444819D02*
X109346904Y-120444819D01*
X109346904Y-120444819D02*
X109442142Y-120492438D01*
X109442142Y-120492438D02*
X109489761Y-120540057D01*
X109489761Y-120540057D02*
X109537380Y-120635295D01*
X109537380Y-120635295D02*
X109537380Y-120730533D01*
X109537380Y-120730533D02*
X109489761Y-120825771D01*
X109489761Y-120825771D02*
X109442142Y-120873390D01*
X109442142Y-120873390D02*
X109346904Y-120921009D01*
X109346904Y-120921009D02*
X109013571Y-120921009D01*
X110013571Y-120444819D02*
X110013571Y-121254342D01*
X110013571Y-121254342D02*
X110061190Y-121349580D01*
X110061190Y-121349580D02*
X110108809Y-121397200D01*
X110108809Y-121397200D02*
X110204047Y-121444819D01*
X110204047Y-121444819D02*
X110394523Y-121444819D01*
X110394523Y-121444819D02*
X110489761Y-121397200D01*
X110489761Y-121397200D02*
X110537380Y-121349580D01*
X110537380Y-121349580D02*
X110584999Y-121254342D01*
X110584999Y-121254342D02*
X110584999Y-120444819D01*
X110918333Y-120444819D02*
X111489761Y-120444819D01*
X111204047Y-121444819D02*
X111204047Y-120444819D01*
X111680238Y-120444819D02*
X112251666Y-120444819D01*
X111965952Y-121444819D02*
X111965952Y-120444819D01*
X112775476Y-120444819D02*
X112965952Y-120444819D01*
X112965952Y-120444819D02*
X113061190Y-120492438D01*
X113061190Y-120492438D02*
X113156428Y-120587676D01*
X113156428Y-120587676D02*
X113204047Y-120778152D01*
X113204047Y-120778152D02*
X113204047Y-121111485D01*
X113204047Y-121111485D02*
X113156428Y-121301961D01*
X113156428Y-121301961D02*
X113061190Y-121397200D01*
X113061190Y-121397200D02*
X112965952Y-121444819D01*
X112965952Y-121444819D02*
X112775476Y-121444819D01*
X112775476Y-121444819D02*
X112680238Y-121397200D01*
X112680238Y-121397200D02*
X112585000Y-121301961D01*
X112585000Y-121301961D02*
X112537381Y-121111485D01*
X112537381Y-121111485D02*
X112537381Y-120778152D01*
X112537381Y-120778152D02*
X112585000Y-120587676D01*
X112585000Y-120587676D02*
X112680238Y-120492438D01*
X112680238Y-120492438D02*
X112775476Y-120444819D01*
X113632619Y-121444819D02*
X113632619Y-120444819D01*
X113632619Y-120444819D02*
X114204047Y-121444819D01*
X114204047Y-121444819D02*
X114204047Y-120444819D01*
X114585000Y-120444819D02*
X115204047Y-120444819D01*
X115204047Y-120444819D02*
X114870714Y-120825771D01*
X114870714Y-120825771D02*
X115013571Y-120825771D01*
X115013571Y-120825771D02*
X115108809Y-120873390D01*
X115108809Y-120873390D02*
X115156428Y-120921009D01*
X115156428Y-120921009D02*
X115204047Y-121016247D01*
X115204047Y-121016247D02*
X115204047Y-121254342D01*
X115204047Y-121254342D02*
X115156428Y-121349580D01*
X115156428Y-121349580D02*
X115108809Y-121397200D01*
X115108809Y-121397200D02*
X115013571Y-121444819D01*
X115013571Y-121444819D02*
X114727857Y-121444819D01*
X114727857Y-121444819D02*
X114632619Y-121397200D01*
X114632619Y-121397200D02*
X114585000Y-121349580D01*
%TO.C,BUTTON2*%
X100971904Y-120761009D02*
X101114761Y-120808628D01*
X101114761Y-120808628D02*
X101162380Y-120856247D01*
X101162380Y-120856247D02*
X101209999Y-120951485D01*
X101209999Y-120951485D02*
X101209999Y-121094342D01*
X101209999Y-121094342D02*
X101162380Y-121189580D01*
X101162380Y-121189580D02*
X101114761Y-121237200D01*
X101114761Y-121237200D02*
X101019523Y-121284819D01*
X101019523Y-121284819D02*
X100638571Y-121284819D01*
X100638571Y-121284819D02*
X100638571Y-120284819D01*
X100638571Y-120284819D02*
X100971904Y-120284819D01*
X100971904Y-120284819D02*
X101067142Y-120332438D01*
X101067142Y-120332438D02*
X101114761Y-120380057D01*
X101114761Y-120380057D02*
X101162380Y-120475295D01*
X101162380Y-120475295D02*
X101162380Y-120570533D01*
X101162380Y-120570533D02*
X101114761Y-120665771D01*
X101114761Y-120665771D02*
X101067142Y-120713390D01*
X101067142Y-120713390D02*
X100971904Y-120761009D01*
X100971904Y-120761009D02*
X100638571Y-120761009D01*
X101638571Y-120284819D02*
X101638571Y-121094342D01*
X101638571Y-121094342D02*
X101686190Y-121189580D01*
X101686190Y-121189580D02*
X101733809Y-121237200D01*
X101733809Y-121237200D02*
X101829047Y-121284819D01*
X101829047Y-121284819D02*
X102019523Y-121284819D01*
X102019523Y-121284819D02*
X102114761Y-121237200D01*
X102114761Y-121237200D02*
X102162380Y-121189580D01*
X102162380Y-121189580D02*
X102209999Y-121094342D01*
X102209999Y-121094342D02*
X102209999Y-120284819D01*
X102543333Y-120284819D02*
X103114761Y-120284819D01*
X102829047Y-121284819D02*
X102829047Y-120284819D01*
X103305238Y-120284819D02*
X103876666Y-120284819D01*
X103590952Y-121284819D02*
X103590952Y-120284819D01*
X104400476Y-120284819D02*
X104590952Y-120284819D01*
X104590952Y-120284819D02*
X104686190Y-120332438D01*
X104686190Y-120332438D02*
X104781428Y-120427676D01*
X104781428Y-120427676D02*
X104829047Y-120618152D01*
X104829047Y-120618152D02*
X104829047Y-120951485D01*
X104829047Y-120951485D02*
X104781428Y-121141961D01*
X104781428Y-121141961D02*
X104686190Y-121237200D01*
X104686190Y-121237200D02*
X104590952Y-121284819D01*
X104590952Y-121284819D02*
X104400476Y-121284819D01*
X104400476Y-121284819D02*
X104305238Y-121237200D01*
X104305238Y-121237200D02*
X104210000Y-121141961D01*
X104210000Y-121141961D02*
X104162381Y-120951485D01*
X104162381Y-120951485D02*
X104162381Y-120618152D01*
X104162381Y-120618152D02*
X104210000Y-120427676D01*
X104210000Y-120427676D02*
X104305238Y-120332438D01*
X104305238Y-120332438D02*
X104400476Y-120284819D01*
X105257619Y-121284819D02*
X105257619Y-120284819D01*
X105257619Y-120284819D02*
X105829047Y-121284819D01*
X105829047Y-121284819D02*
X105829047Y-120284819D01*
X106257619Y-120380057D02*
X106305238Y-120332438D01*
X106305238Y-120332438D02*
X106400476Y-120284819D01*
X106400476Y-120284819D02*
X106638571Y-120284819D01*
X106638571Y-120284819D02*
X106733809Y-120332438D01*
X106733809Y-120332438D02*
X106781428Y-120380057D01*
X106781428Y-120380057D02*
X106829047Y-120475295D01*
X106829047Y-120475295D02*
X106829047Y-120570533D01*
X106829047Y-120570533D02*
X106781428Y-120713390D01*
X106781428Y-120713390D02*
X106210000Y-121284819D01*
X106210000Y-121284819D02*
X106829047Y-121284819D01*
%TO.C,BUTTON1*%
X92666904Y-120791009D02*
X92809761Y-120838628D01*
X92809761Y-120838628D02*
X92857380Y-120886247D01*
X92857380Y-120886247D02*
X92904999Y-120981485D01*
X92904999Y-120981485D02*
X92904999Y-121124342D01*
X92904999Y-121124342D02*
X92857380Y-121219580D01*
X92857380Y-121219580D02*
X92809761Y-121267200D01*
X92809761Y-121267200D02*
X92714523Y-121314819D01*
X92714523Y-121314819D02*
X92333571Y-121314819D01*
X92333571Y-121314819D02*
X92333571Y-120314819D01*
X92333571Y-120314819D02*
X92666904Y-120314819D01*
X92666904Y-120314819D02*
X92762142Y-120362438D01*
X92762142Y-120362438D02*
X92809761Y-120410057D01*
X92809761Y-120410057D02*
X92857380Y-120505295D01*
X92857380Y-120505295D02*
X92857380Y-120600533D01*
X92857380Y-120600533D02*
X92809761Y-120695771D01*
X92809761Y-120695771D02*
X92762142Y-120743390D01*
X92762142Y-120743390D02*
X92666904Y-120791009D01*
X92666904Y-120791009D02*
X92333571Y-120791009D01*
X93333571Y-120314819D02*
X93333571Y-121124342D01*
X93333571Y-121124342D02*
X93381190Y-121219580D01*
X93381190Y-121219580D02*
X93428809Y-121267200D01*
X93428809Y-121267200D02*
X93524047Y-121314819D01*
X93524047Y-121314819D02*
X93714523Y-121314819D01*
X93714523Y-121314819D02*
X93809761Y-121267200D01*
X93809761Y-121267200D02*
X93857380Y-121219580D01*
X93857380Y-121219580D02*
X93904999Y-121124342D01*
X93904999Y-121124342D02*
X93904999Y-120314819D01*
X94238333Y-120314819D02*
X94809761Y-120314819D01*
X94524047Y-121314819D02*
X94524047Y-120314819D01*
X95000238Y-120314819D02*
X95571666Y-120314819D01*
X95285952Y-121314819D02*
X95285952Y-120314819D01*
X96095476Y-120314819D02*
X96285952Y-120314819D01*
X96285952Y-120314819D02*
X96381190Y-120362438D01*
X96381190Y-120362438D02*
X96476428Y-120457676D01*
X96476428Y-120457676D02*
X96524047Y-120648152D01*
X96524047Y-120648152D02*
X96524047Y-120981485D01*
X96524047Y-120981485D02*
X96476428Y-121171961D01*
X96476428Y-121171961D02*
X96381190Y-121267200D01*
X96381190Y-121267200D02*
X96285952Y-121314819D01*
X96285952Y-121314819D02*
X96095476Y-121314819D01*
X96095476Y-121314819D02*
X96000238Y-121267200D01*
X96000238Y-121267200D02*
X95905000Y-121171961D01*
X95905000Y-121171961D02*
X95857381Y-120981485D01*
X95857381Y-120981485D02*
X95857381Y-120648152D01*
X95857381Y-120648152D02*
X95905000Y-120457676D01*
X95905000Y-120457676D02*
X96000238Y-120362438D01*
X96000238Y-120362438D02*
X96095476Y-120314819D01*
X96952619Y-121314819D02*
X96952619Y-120314819D01*
X96952619Y-120314819D02*
X97524047Y-121314819D01*
X97524047Y-121314819D02*
X97524047Y-120314819D01*
X98524047Y-121314819D02*
X97952619Y-121314819D01*
X98238333Y-121314819D02*
X98238333Y-120314819D01*
X98238333Y-120314819D02*
X98143095Y-120457676D01*
X98143095Y-120457676D02*
X98047857Y-120552914D01*
X98047857Y-120552914D02*
X97952619Y-120600533D01*
%TO.C,RGB1*%
X131903333Y-119668276D02*
X131689999Y-119363514D01*
X131537618Y-119668276D02*
X131537618Y-119028276D01*
X131537618Y-119028276D02*
X131781428Y-119028276D01*
X131781428Y-119028276D02*
X131842380Y-119058752D01*
X131842380Y-119058752D02*
X131872857Y-119089228D01*
X131872857Y-119089228D02*
X131903333Y-119150180D01*
X131903333Y-119150180D02*
X131903333Y-119241609D01*
X131903333Y-119241609D02*
X131872857Y-119302561D01*
X131872857Y-119302561D02*
X131842380Y-119333038D01*
X131842380Y-119333038D02*
X131781428Y-119363514D01*
X131781428Y-119363514D02*
X131537618Y-119363514D01*
X132512857Y-119058752D02*
X132451904Y-119028276D01*
X132451904Y-119028276D02*
X132360476Y-119028276D01*
X132360476Y-119028276D02*
X132269047Y-119058752D01*
X132269047Y-119058752D02*
X132208095Y-119119704D01*
X132208095Y-119119704D02*
X132177618Y-119180657D01*
X132177618Y-119180657D02*
X132147142Y-119302561D01*
X132147142Y-119302561D02*
X132147142Y-119393990D01*
X132147142Y-119393990D02*
X132177618Y-119515895D01*
X132177618Y-119515895D02*
X132208095Y-119576847D01*
X132208095Y-119576847D02*
X132269047Y-119637800D01*
X132269047Y-119637800D02*
X132360476Y-119668276D01*
X132360476Y-119668276D02*
X132421428Y-119668276D01*
X132421428Y-119668276D02*
X132512857Y-119637800D01*
X132512857Y-119637800D02*
X132543333Y-119607323D01*
X132543333Y-119607323D02*
X132543333Y-119393990D01*
X132543333Y-119393990D02*
X132421428Y-119393990D01*
X133030952Y-119333038D02*
X133122380Y-119363514D01*
X133122380Y-119363514D02*
X133152857Y-119393990D01*
X133152857Y-119393990D02*
X133183333Y-119454942D01*
X133183333Y-119454942D02*
X133183333Y-119546371D01*
X133183333Y-119546371D02*
X133152857Y-119607323D01*
X133152857Y-119607323D02*
X133122380Y-119637800D01*
X133122380Y-119637800D02*
X133061428Y-119668276D01*
X133061428Y-119668276D02*
X132817618Y-119668276D01*
X132817618Y-119668276D02*
X132817618Y-119028276D01*
X132817618Y-119028276D02*
X133030952Y-119028276D01*
X133030952Y-119028276D02*
X133091904Y-119058752D01*
X133091904Y-119058752D02*
X133122380Y-119089228D01*
X133122380Y-119089228D02*
X133152857Y-119150180D01*
X133152857Y-119150180D02*
X133152857Y-119211133D01*
X133152857Y-119211133D02*
X133122380Y-119272085D01*
X133122380Y-119272085D02*
X133091904Y-119302561D01*
X133091904Y-119302561D02*
X133030952Y-119333038D01*
X133030952Y-119333038D02*
X132817618Y-119333038D01*
X133792857Y-119668276D02*
X133427142Y-119668276D01*
X133609999Y-119668276D02*
X133609999Y-119028276D01*
X133609999Y-119028276D02*
X133549047Y-119119704D01*
X133549047Y-119119704D02*
X133488095Y-119180657D01*
X133488095Y-119180657D02*
X133427142Y-119211133D01*
%TO.C,RGB2*%
X122213333Y-119568276D02*
X121999999Y-119263514D01*
X121847618Y-119568276D02*
X121847618Y-118928276D01*
X121847618Y-118928276D02*
X122091428Y-118928276D01*
X122091428Y-118928276D02*
X122152380Y-118958752D01*
X122152380Y-118958752D02*
X122182857Y-118989228D01*
X122182857Y-118989228D02*
X122213333Y-119050180D01*
X122213333Y-119050180D02*
X122213333Y-119141609D01*
X122213333Y-119141609D02*
X122182857Y-119202561D01*
X122182857Y-119202561D02*
X122152380Y-119233038D01*
X122152380Y-119233038D02*
X122091428Y-119263514D01*
X122091428Y-119263514D02*
X121847618Y-119263514D01*
X122822857Y-118958752D02*
X122761904Y-118928276D01*
X122761904Y-118928276D02*
X122670476Y-118928276D01*
X122670476Y-118928276D02*
X122579047Y-118958752D01*
X122579047Y-118958752D02*
X122518095Y-119019704D01*
X122518095Y-119019704D02*
X122487618Y-119080657D01*
X122487618Y-119080657D02*
X122457142Y-119202561D01*
X122457142Y-119202561D02*
X122457142Y-119293990D01*
X122457142Y-119293990D02*
X122487618Y-119415895D01*
X122487618Y-119415895D02*
X122518095Y-119476847D01*
X122518095Y-119476847D02*
X122579047Y-119537800D01*
X122579047Y-119537800D02*
X122670476Y-119568276D01*
X122670476Y-119568276D02*
X122731428Y-119568276D01*
X122731428Y-119568276D02*
X122822857Y-119537800D01*
X122822857Y-119537800D02*
X122853333Y-119507323D01*
X122853333Y-119507323D02*
X122853333Y-119293990D01*
X122853333Y-119293990D02*
X122731428Y-119293990D01*
X123340952Y-119233038D02*
X123432380Y-119263514D01*
X123432380Y-119263514D02*
X123462857Y-119293990D01*
X123462857Y-119293990D02*
X123493333Y-119354942D01*
X123493333Y-119354942D02*
X123493333Y-119446371D01*
X123493333Y-119446371D02*
X123462857Y-119507323D01*
X123462857Y-119507323D02*
X123432380Y-119537800D01*
X123432380Y-119537800D02*
X123371428Y-119568276D01*
X123371428Y-119568276D02*
X123127618Y-119568276D01*
X123127618Y-119568276D02*
X123127618Y-118928276D01*
X123127618Y-118928276D02*
X123340952Y-118928276D01*
X123340952Y-118928276D02*
X123401904Y-118958752D01*
X123401904Y-118958752D02*
X123432380Y-118989228D01*
X123432380Y-118989228D02*
X123462857Y-119050180D01*
X123462857Y-119050180D02*
X123462857Y-119111133D01*
X123462857Y-119111133D02*
X123432380Y-119172085D01*
X123432380Y-119172085D02*
X123401904Y-119202561D01*
X123401904Y-119202561D02*
X123340952Y-119233038D01*
X123340952Y-119233038D02*
X123127618Y-119233038D01*
X123737142Y-118989228D02*
X123767618Y-118958752D01*
X123767618Y-118958752D02*
X123828571Y-118928276D01*
X123828571Y-118928276D02*
X123980952Y-118928276D01*
X123980952Y-118928276D02*
X124041904Y-118958752D01*
X124041904Y-118958752D02*
X124072380Y-118989228D01*
X124072380Y-118989228D02*
X124102857Y-119050180D01*
X124102857Y-119050180D02*
X124102857Y-119111133D01*
X124102857Y-119111133D02*
X124072380Y-119202561D01*
X124072380Y-119202561D02*
X123706666Y-119568276D01*
X123706666Y-119568276D02*
X124102857Y-119568276D01*
%TO.C,J10*%
X117620476Y-122592319D02*
X117620476Y-123306604D01*
X117620476Y-123306604D02*
X117572857Y-123449461D01*
X117572857Y-123449461D02*
X117477619Y-123544700D01*
X117477619Y-123544700D02*
X117334762Y-123592319D01*
X117334762Y-123592319D02*
X117239524Y-123592319D01*
X118620476Y-123592319D02*
X118049048Y-123592319D01*
X118334762Y-123592319D02*
X118334762Y-122592319D01*
X118334762Y-122592319D02*
X118239524Y-122735176D01*
X118239524Y-122735176D02*
X118144286Y-122830414D01*
X118144286Y-122830414D02*
X118049048Y-122878033D01*
X119239524Y-122592319D02*
X119334762Y-122592319D01*
X119334762Y-122592319D02*
X119430000Y-122639938D01*
X119430000Y-122639938D02*
X119477619Y-122687557D01*
X119477619Y-122687557D02*
X119525238Y-122782795D01*
X119525238Y-122782795D02*
X119572857Y-122973271D01*
X119572857Y-122973271D02*
X119572857Y-123211366D01*
X119572857Y-123211366D02*
X119525238Y-123401842D01*
X119525238Y-123401842D02*
X119477619Y-123497080D01*
X119477619Y-123497080D02*
X119430000Y-123544700D01*
X119430000Y-123544700D02*
X119334762Y-123592319D01*
X119334762Y-123592319D02*
X119239524Y-123592319D01*
X119239524Y-123592319D02*
X119144286Y-123544700D01*
X119144286Y-123544700D02*
X119096667Y-123497080D01*
X119096667Y-123497080D02*
X119049048Y-123401842D01*
X119049048Y-123401842D02*
X119001429Y-123211366D01*
X119001429Y-123211366D02*
X119001429Y-122973271D01*
X119001429Y-122973271D02*
X119049048Y-122782795D01*
X119049048Y-122782795D02*
X119096667Y-122687557D01*
X119096667Y-122687557D02*
X119144286Y-122639938D01*
X119144286Y-122639938D02*
X119239524Y-122592319D01*
%TO.C,C2*%
X101080333Y-102619580D02*
X101032714Y-102667200D01*
X101032714Y-102667200D02*
X100889857Y-102714819D01*
X100889857Y-102714819D02*
X100794619Y-102714819D01*
X100794619Y-102714819D02*
X100651762Y-102667200D01*
X100651762Y-102667200D02*
X100556524Y-102571961D01*
X100556524Y-102571961D02*
X100508905Y-102476723D01*
X100508905Y-102476723D02*
X100461286Y-102286247D01*
X100461286Y-102286247D02*
X100461286Y-102143390D01*
X100461286Y-102143390D02*
X100508905Y-101952914D01*
X100508905Y-101952914D02*
X100556524Y-101857676D01*
X100556524Y-101857676D02*
X100651762Y-101762438D01*
X100651762Y-101762438D02*
X100794619Y-101714819D01*
X100794619Y-101714819D02*
X100889857Y-101714819D01*
X100889857Y-101714819D02*
X101032714Y-101762438D01*
X101032714Y-101762438D02*
X101080333Y-101810057D01*
X101461286Y-101810057D02*
X101508905Y-101762438D01*
X101508905Y-101762438D02*
X101604143Y-101714819D01*
X101604143Y-101714819D02*
X101842238Y-101714819D01*
X101842238Y-101714819D02*
X101937476Y-101762438D01*
X101937476Y-101762438D02*
X101985095Y-101810057D01*
X101985095Y-101810057D02*
X102032714Y-101905295D01*
X102032714Y-101905295D02*
X102032714Y-102000533D01*
X102032714Y-102000533D02*
X101985095Y-102143390D01*
X101985095Y-102143390D02*
X101413667Y-102714819D01*
X101413667Y-102714819D02*
X102032714Y-102714819D01*
%TO.C,LED2*%
X103954819Y-92121547D02*
X103954819Y-92597737D01*
X103954819Y-92597737D02*
X102954819Y-92597737D01*
X103431009Y-91788213D02*
X103431009Y-91454880D01*
X103954819Y-91312023D02*
X103954819Y-91788213D01*
X103954819Y-91788213D02*
X102954819Y-91788213D01*
X102954819Y-91788213D02*
X102954819Y-91312023D01*
X103954819Y-90883451D02*
X102954819Y-90883451D01*
X102954819Y-90883451D02*
X102954819Y-90645356D01*
X102954819Y-90645356D02*
X103002438Y-90502499D01*
X103002438Y-90502499D02*
X103097676Y-90407261D01*
X103097676Y-90407261D02*
X103192914Y-90359642D01*
X103192914Y-90359642D02*
X103383390Y-90312023D01*
X103383390Y-90312023D02*
X103526247Y-90312023D01*
X103526247Y-90312023D02*
X103716723Y-90359642D01*
X103716723Y-90359642D02*
X103811961Y-90407261D01*
X103811961Y-90407261D02*
X103907200Y-90502499D01*
X103907200Y-90502499D02*
X103954819Y-90645356D01*
X103954819Y-90645356D02*
X103954819Y-90883451D01*
X103050057Y-89931070D02*
X103002438Y-89883451D01*
X103002438Y-89883451D02*
X102954819Y-89788213D01*
X102954819Y-89788213D02*
X102954819Y-89550118D01*
X102954819Y-89550118D02*
X103002438Y-89454880D01*
X103002438Y-89454880D02*
X103050057Y-89407261D01*
X103050057Y-89407261D02*
X103145295Y-89359642D01*
X103145295Y-89359642D02*
X103240533Y-89359642D01*
X103240533Y-89359642D02*
X103383390Y-89407261D01*
X103383390Y-89407261D02*
X103954819Y-89978689D01*
X103954819Y-89978689D02*
X103954819Y-89359642D01*
%TO.C,R1*%
X97816333Y-102714819D02*
X97483000Y-102238628D01*
X97244905Y-102714819D02*
X97244905Y-101714819D01*
X97244905Y-101714819D02*
X97625857Y-101714819D01*
X97625857Y-101714819D02*
X97721095Y-101762438D01*
X97721095Y-101762438D02*
X97768714Y-101810057D01*
X97768714Y-101810057D02*
X97816333Y-101905295D01*
X97816333Y-101905295D02*
X97816333Y-102048152D01*
X97816333Y-102048152D02*
X97768714Y-102143390D01*
X97768714Y-102143390D02*
X97721095Y-102191009D01*
X97721095Y-102191009D02*
X97625857Y-102238628D01*
X97625857Y-102238628D02*
X97244905Y-102238628D01*
X98768714Y-102714819D02*
X98197286Y-102714819D01*
X98483000Y-102714819D02*
X98483000Y-101714819D01*
X98483000Y-101714819D02*
X98387762Y-101857676D01*
X98387762Y-101857676D02*
X98292524Y-101952914D01*
X98292524Y-101952914D02*
X98197286Y-102000533D01*
%TO.C,J2*%
X142426666Y-90914819D02*
X142426666Y-91629104D01*
X142426666Y-91629104D02*
X142379047Y-91771961D01*
X142379047Y-91771961D02*
X142283809Y-91867200D01*
X142283809Y-91867200D02*
X142140952Y-91914819D01*
X142140952Y-91914819D02*
X142045714Y-91914819D01*
X142855238Y-91010057D02*
X142902857Y-90962438D01*
X142902857Y-90962438D02*
X142998095Y-90914819D01*
X142998095Y-90914819D02*
X143236190Y-90914819D01*
X143236190Y-90914819D02*
X143331428Y-90962438D01*
X143331428Y-90962438D02*
X143379047Y-91010057D01*
X143379047Y-91010057D02*
X143426666Y-91105295D01*
X143426666Y-91105295D02*
X143426666Y-91200533D01*
X143426666Y-91200533D02*
X143379047Y-91343390D01*
X143379047Y-91343390D02*
X142807619Y-91914819D01*
X142807619Y-91914819D02*
X143426666Y-91914819D01*
%TO.C,J7*%
X109864819Y-127283333D02*
X110579104Y-127283333D01*
X110579104Y-127283333D02*
X110721961Y-127330952D01*
X110721961Y-127330952D02*
X110817200Y-127426190D01*
X110817200Y-127426190D02*
X110864819Y-127569047D01*
X110864819Y-127569047D02*
X110864819Y-127664285D01*
X109864819Y-126902380D02*
X109864819Y-126235714D01*
X109864819Y-126235714D02*
X110864819Y-126664285D01*
%TO.C,J4*%
X105426666Y-35601069D02*
X105426666Y-36315354D01*
X105426666Y-36315354D02*
X105379047Y-36458211D01*
X105379047Y-36458211D02*
X105283809Y-36553450D01*
X105283809Y-36553450D02*
X105140952Y-36601069D01*
X105140952Y-36601069D02*
X105045714Y-36601069D01*
X106331428Y-35934402D02*
X106331428Y-36601069D01*
X106093333Y-35553450D02*
X105855238Y-36267735D01*
X105855238Y-36267735D02*
X106474285Y-36267735D01*
%TO.C,R2*%
X104456333Y-102714819D02*
X104123000Y-102238628D01*
X103884905Y-102714819D02*
X103884905Y-101714819D01*
X103884905Y-101714819D02*
X104265857Y-101714819D01*
X104265857Y-101714819D02*
X104361095Y-101762438D01*
X104361095Y-101762438D02*
X104408714Y-101810057D01*
X104408714Y-101810057D02*
X104456333Y-101905295D01*
X104456333Y-101905295D02*
X104456333Y-102048152D01*
X104456333Y-102048152D02*
X104408714Y-102143390D01*
X104408714Y-102143390D02*
X104361095Y-102191009D01*
X104361095Y-102191009D02*
X104265857Y-102238628D01*
X104265857Y-102238628D02*
X103884905Y-102238628D01*
X104837286Y-101810057D02*
X104884905Y-101762438D01*
X104884905Y-101762438D02*
X104980143Y-101714819D01*
X104980143Y-101714819D02*
X105218238Y-101714819D01*
X105218238Y-101714819D02*
X105313476Y-101762438D01*
X105313476Y-101762438D02*
X105361095Y-101810057D01*
X105361095Y-101810057D02*
X105408714Y-101905295D01*
X105408714Y-101905295D02*
X105408714Y-102000533D01*
X105408714Y-102000533D02*
X105361095Y-102143390D01*
X105361095Y-102143390D02*
X104789667Y-102714819D01*
X104789667Y-102714819D02*
X105408714Y-102714819D01*
%TO.C,J9*%
X143316666Y-35394819D02*
X143316666Y-36109104D01*
X143316666Y-36109104D02*
X143269047Y-36251961D01*
X143269047Y-36251961D02*
X143173809Y-36347200D01*
X143173809Y-36347200D02*
X143030952Y-36394819D01*
X143030952Y-36394819D02*
X142935714Y-36394819D01*
X143840476Y-36394819D02*
X144030952Y-36394819D01*
X144030952Y-36394819D02*
X144126190Y-36347200D01*
X144126190Y-36347200D02*
X144173809Y-36299580D01*
X144173809Y-36299580D02*
X144269047Y-36156723D01*
X144269047Y-36156723D02*
X144316666Y-35966247D01*
X144316666Y-35966247D02*
X144316666Y-35585295D01*
X144316666Y-35585295D02*
X144269047Y-35490057D01*
X144269047Y-35490057D02*
X144221428Y-35442438D01*
X144221428Y-35442438D02*
X144126190Y-35394819D01*
X144126190Y-35394819D02*
X143935714Y-35394819D01*
X143935714Y-35394819D02*
X143840476Y-35442438D01*
X143840476Y-35442438D02*
X143792857Y-35490057D01*
X143792857Y-35490057D02*
X143745238Y-35585295D01*
X143745238Y-35585295D02*
X143745238Y-35823390D01*
X143745238Y-35823390D02*
X143792857Y-35918628D01*
X143792857Y-35918628D02*
X143840476Y-35966247D01*
X143840476Y-35966247D02*
X143935714Y-36013866D01*
X143935714Y-36013866D02*
X144126190Y-36013866D01*
X144126190Y-36013866D02*
X144221428Y-35966247D01*
X144221428Y-35966247D02*
X144269047Y-35918628D01*
X144269047Y-35918628D02*
X144316666Y-35823390D01*
%TO.C,R3*%
X111096333Y-102714819D02*
X110763000Y-102238628D01*
X110524905Y-102714819D02*
X110524905Y-101714819D01*
X110524905Y-101714819D02*
X110905857Y-101714819D01*
X110905857Y-101714819D02*
X111001095Y-101762438D01*
X111001095Y-101762438D02*
X111048714Y-101810057D01*
X111048714Y-101810057D02*
X111096333Y-101905295D01*
X111096333Y-101905295D02*
X111096333Y-102048152D01*
X111096333Y-102048152D02*
X111048714Y-102143390D01*
X111048714Y-102143390D02*
X111001095Y-102191009D01*
X111001095Y-102191009D02*
X110905857Y-102238628D01*
X110905857Y-102238628D02*
X110524905Y-102238628D01*
X111429667Y-101714819D02*
X112048714Y-101714819D01*
X112048714Y-101714819D02*
X111715381Y-102095771D01*
X111715381Y-102095771D02*
X111858238Y-102095771D01*
X111858238Y-102095771D02*
X111953476Y-102143390D01*
X111953476Y-102143390D02*
X112001095Y-102191009D01*
X112001095Y-102191009D02*
X112048714Y-102286247D01*
X112048714Y-102286247D02*
X112048714Y-102524342D01*
X112048714Y-102524342D02*
X112001095Y-102619580D01*
X112001095Y-102619580D02*
X111953476Y-102667200D01*
X111953476Y-102667200D02*
X111858238Y-102714819D01*
X111858238Y-102714819D02*
X111572524Y-102714819D01*
X111572524Y-102714819D02*
X111477286Y-102667200D01*
X111477286Y-102667200D02*
X111429667Y-102619580D01*
%TO.C,J3*%
X136724819Y-127283333D02*
X137439104Y-127283333D01*
X137439104Y-127283333D02*
X137581961Y-127330952D01*
X137581961Y-127330952D02*
X137677200Y-127426190D01*
X137677200Y-127426190D02*
X137724819Y-127569047D01*
X137724819Y-127569047D02*
X137724819Y-127664285D01*
X136724819Y-126902380D02*
X136724819Y-126283333D01*
X136724819Y-126283333D02*
X137105771Y-126616666D01*
X137105771Y-126616666D02*
X137105771Y-126473809D01*
X137105771Y-126473809D02*
X137153390Y-126378571D01*
X137153390Y-126378571D02*
X137201009Y-126330952D01*
X137201009Y-126330952D02*
X137296247Y-126283333D01*
X137296247Y-126283333D02*
X137534342Y-126283333D01*
X137534342Y-126283333D02*
X137629580Y-126330952D01*
X137629580Y-126330952D02*
X137677200Y-126378571D01*
X137677200Y-126378571D02*
X137724819Y-126473809D01*
X137724819Y-126473809D02*
X137724819Y-126759523D01*
X137724819Y-126759523D02*
X137677200Y-126854761D01*
X137677200Y-126854761D02*
X137629580Y-126902380D01*
%TO.C,J6*%
X126054819Y-127283333D02*
X126769104Y-127283333D01*
X126769104Y-127283333D02*
X126911961Y-127330952D01*
X126911961Y-127330952D02*
X127007200Y-127426190D01*
X127007200Y-127426190D02*
X127054819Y-127569047D01*
X127054819Y-127569047D02*
X127054819Y-127664285D01*
X126054819Y-126378571D02*
X126054819Y-126569047D01*
X126054819Y-126569047D02*
X126102438Y-126664285D01*
X126102438Y-126664285D02*
X126150057Y-126711904D01*
X126150057Y-126711904D02*
X126292914Y-126807142D01*
X126292914Y-126807142D02*
X126483390Y-126854761D01*
X126483390Y-126854761D02*
X126864342Y-126854761D01*
X126864342Y-126854761D02*
X126959580Y-126807142D01*
X126959580Y-126807142D02*
X127007200Y-126759523D01*
X127007200Y-126759523D02*
X127054819Y-126664285D01*
X127054819Y-126664285D02*
X127054819Y-126473809D01*
X127054819Y-126473809D02*
X127007200Y-126378571D01*
X127007200Y-126378571D02*
X126959580Y-126330952D01*
X126959580Y-126330952D02*
X126864342Y-126283333D01*
X126864342Y-126283333D02*
X126626247Y-126283333D01*
X126626247Y-126283333D02*
X126531009Y-126330952D01*
X126531009Y-126330952D02*
X126483390Y-126378571D01*
X126483390Y-126378571D02*
X126435771Y-126473809D01*
X126435771Y-126473809D02*
X126435771Y-126664285D01*
X126435771Y-126664285D02*
X126483390Y-126759523D01*
X126483390Y-126759523D02*
X126531009Y-126807142D01*
X126531009Y-126807142D02*
X126626247Y-126854761D01*
%TO.C,R5*%
X104024819Y-96929166D02*
X103548628Y-97262499D01*
X104024819Y-97500594D02*
X103024819Y-97500594D01*
X103024819Y-97500594D02*
X103024819Y-97119642D01*
X103024819Y-97119642D02*
X103072438Y-97024404D01*
X103072438Y-97024404D02*
X103120057Y-96976785D01*
X103120057Y-96976785D02*
X103215295Y-96929166D01*
X103215295Y-96929166D02*
X103358152Y-96929166D01*
X103358152Y-96929166D02*
X103453390Y-96976785D01*
X103453390Y-96976785D02*
X103501009Y-97024404D01*
X103501009Y-97024404D02*
X103548628Y-97119642D01*
X103548628Y-97119642D02*
X103548628Y-97500594D01*
X103024819Y-96024404D02*
X103024819Y-96500594D01*
X103024819Y-96500594D02*
X103501009Y-96548213D01*
X103501009Y-96548213D02*
X103453390Y-96500594D01*
X103453390Y-96500594D02*
X103405771Y-96405356D01*
X103405771Y-96405356D02*
X103405771Y-96167261D01*
X103405771Y-96167261D02*
X103453390Y-96072023D01*
X103453390Y-96072023D02*
X103501009Y-96024404D01*
X103501009Y-96024404D02*
X103596247Y-95976785D01*
X103596247Y-95976785D02*
X103834342Y-95976785D01*
X103834342Y-95976785D02*
X103929580Y-96024404D01*
X103929580Y-96024404D02*
X103977200Y-96072023D01*
X103977200Y-96072023D02*
X104024819Y-96167261D01*
X104024819Y-96167261D02*
X104024819Y-96405356D01*
X104024819Y-96405356D02*
X103977200Y-96500594D01*
X103977200Y-96500594D02*
X103929580Y-96548213D01*
%TO.C,C3*%
X107720333Y-102619580D02*
X107672714Y-102667200D01*
X107672714Y-102667200D02*
X107529857Y-102714819D01*
X107529857Y-102714819D02*
X107434619Y-102714819D01*
X107434619Y-102714819D02*
X107291762Y-102667200D01*
X107291762Y-102667200D02*
X107196524Y-102571961D01*
X107196524Y-102571961D02*
X107148905Y-102476723D01*
X107148905Y-102476723D02*
X107101286Y-102286247D01*
X107101286Y-102286247D02*
X107101286Y-102143390D01*
X107101286Y-102143390D02*
X107148905Y-101952914D01*
X107148905Y-101952914D02*
X107196524Y-101857676D01*
X107196524Y-101857676D02*
X107291762Y-101762438D01*
X107291762Y-101762438D02*
X107434619Y-101714819D01*
X107434619Y-101714819D02*
X107529857Y-101714819D01*
X107529857Y-101714819D02*
X107672714Y-101762438D01*
X107672714Y-101762438D02*
X107720333Y-101810057D01*
X108053667Y-101714819D02*
X108672714Y-101714819D01*
X108672714Y-101714819D02*
X108339381Y-102095771D01*
X108339381Y-102095771D02*
X108482238Y-102095771D01*
X108482238Y-102095771D02*
X108577476Y-102143390D01*
X108577476Y-102143390D02*
X108625095Y-102191009D01*
X108625095Y-102191009D02*
X108672714Y-102286247D01*
X108672714Y-102286247D02*
X108672714Y-102524342D01*
X108672714Y-102524342D02*
X108625095Y-102619580D01*
X108625095Y-102619580D02*
X108577476Y-102667200D01*
X108577476Y-102667200D02*
X108482238Y-102714819D01*
X108482238Y-102714819D02*
X108196524Y-102714819D01*
X108196524Y-102714819D02*
X108101286Y-102667200D01*
X108101286Y-102667200D02*
X108053667Y-102619580D01*
%TO.C,C1*%
X94440333Y-102619580D02*
X94392714Y-102667200D01*
X94392714Y-102667200D02*
X94249857Y-102714819D01*
X94249857Y-102714819D02*
X94154619Y-102714819D01*
X94154619Y-102714819D02*
X94011762Y-102667200D01*
X94011762Y-102667200D02*
X93916524Y-102571961D01*
X93916524Y-102571961D02*
X93868905Y-102476723D01*
X93868905Y-102476723D02*
X93821286Y-102286247D01*
X93821286Y-102286247D02*
X93821286Y-102143390D01*
X93821286Y-102143390D02*
X93868905Y-101952914D01*
X93868905Y-101952914D02*
X93916524Y-101857676D01*
X93916524Y-101857676D02*
X94011762Y-101762438D01*
X94011762Y-101762438D02*
X94154619Y-101714819D01*
X94154619Y-101714819D02*
X94249857Y-101714819D01*
X94249857Y-101714819D02*
X94392714Y-101762438D01*
X94392714Y-101762438D02*
X94440333Y-101810057D01*
X95392714Y-102714819D02*
X94821286Y-102714819D01*
X95107000Y-102714819D02*
X95107000Y-101714819D01*
X95107000Y-101714819D02*
X95011762Y-101857676D01*
X95011762Y-101857676D02*
X94916524Y-101952914D01*
X94916524Y-101952914D02*
X94821286Y-102000533D01*
%TO.C,LED1*%
X98454819Y-92061547D02*
X98454819Y-92537737D01*
X98454819Y-92537737D02*
X97454819Y-92537737D01*
X97931009Y-91728213D02*
X97931009Y-91394880D01*
X98454819Y-91252023D02*
X98454819Y-91728213D01*
X98454819Y-91728213D02*
X97454819Y-91728213D01*
X97454819Y-91728213D02*
X97454819Y-91252023D01*
X98454819Y-90823451D02*
X97454819Y-90823451D01*
X97454819Y-90823451D02*
X97454819Y-90585356D01*
X97454819Y-90585356D02*
X97502438Y-90442499D01*
X97502438Y-90442499D02*
X97597676Y-90347261D01*
X97597676Y-90347261D02*
X97692914Y-90299642D01*
X97692914Y-90299642D02*
X97883390Y-90252023D01*
X97883390Y-90252023D02*
X98026247Y-90252023D01*
X98026247Y-90252023D02*
X98216723Y-90299642D01*
X98216723Y-90299642D02*
X98311961Y-90347261D01*
X98311961Y-90347261D02*
X98407200Y-90442499D01*
X98407200Y-90442499D02*
X98454819Y-90585356D01*
X98454819Y-90585356D02*
X98454819Y-90823451D01*
X98454819Y-89299642D02*
X98454819Y-89871070D01*
X98454819Y-89585356D02*
X97454819Y-89585356D01*
X97454819Y-89585356D02*
X97597676Y-89680594D01*
X97597676Y-89680594D02*
X97692914Y-89775832D01*
X97692914Y-89775832D02*
X97740533Y-89871070D01*
%TO.C,J5*%
X131226666Y-35941069D02*
X131226666Y-36655354D01*
X131226666Y-36655354D02*
X131179047Y-36798211D01*
X131179047Y-36798211D02*
X131083809Y-36893450D01*
X131083809Y-36893450D02*
X130940952Y-36941069D01*
X130940952Y-36941069D02*
X130845714Y-36941069D01*
X132179047Y-35941069D02*
X131702857Y-35941069D01*
X131702857Y-35941069D02*
X131655238Y-36417259D01*
X131655238Y-36417259D02*
X131702857Y-36369640D01*
X131702857Y-36369640D02*
X131798095Y-36322021D01*
X131798095Y-36322021D02*
X132036190Y-36322021D01*
X132036190Y-36322021D02*
X132131428Y-36369640D01*
X132131428Y-36369640D02*
X132179047Y-36417259D01*
X132179047Y-36417259D02*
X132226666Y-36512497D01*
X132226666Y-36512497D02*
X132226666Y-36750592D01*
X132226666Y-36750592D02*
X132179047Y-36845830D01*
X132179047Y-36845830D02*
X132131428Y-36893450D01*
X132131428Y-36893450D02*
X132036190Y-36941069D01*
X132036190Y-36941069D02*
X131798095Y-36941069D01*
X131798095Y-36941069D02*
X131702857Y-36893450D01*
X131702857Y-36893450D02*
X131655238Y-36845830D01*
%TO.C,J12*%
X98974819Y-127759523D02*
X99689104Y-127759523D01*
X99689104Y-127759523D02*
X99831961Y-127807142D01*
X99831961Y-127807142D02*
X99927200Y-127902380D01*
X99927200Y-127902380D02*
X99974819Y-128045237D01*
X99974819Y-128045237D02*
X99974819Y-128140475D01*
X99974819Y-126759523D02*
X99974819Y-127330951D01*
X99974819Y-127045237D02*
X98974819Y-127045237D01*
X98974819Y-127045237D02*
X99117676Y-127140475D01*
X99117676Y-127140475D02*
X99212914Y-127235713D01*
X99212914Y-127235713D02*
X99260533Y-127330951D01*
X99070057Y-126378570D02*
X99022438Y-126330951D01*
X99022438Y-126330951D02*
X98974819Y-126235713D01*
X98974819Y-126235713D02*
X98974819Y-125997618D01*
X98974819Y-125997618D02*
X99022438Y-125902380D01*
X99022438Y-125902380D02*
X99070057Y-125854761D01*
X99070057Y-125854761D02*
X99165295Y-125807142D01*
X99165295Y-125807142D02*
X99260533Y-125807142D01*
X99260533Y-125807142D02*
X99403390Y-125854761D01*
X99403390Y-125854761D02*
X99974819Y-126426189D01*
X99974819Y-126426189D02*
X99974819Y-125807142D01*
%TO.C,J8*%
X93496666Y-35394819D02*
X93496666Y-36109104D01*
X93496666Y-36109104D02*
X93449047Y-36251961D01*
X93449047Y-36251961D02*
X93353809Y-36347200D01*
X93353809Y-36347200D02*
X93210952Y-36394819D01*
X93210952Y-36394819D02*
X93115714Y-36394819D01*
X94115714Y-35823390D02*
X94020476Y-35775771D01*
X94020476Y-35775771D02*
X93972857Y-35728152D01*
X93972857Y-35728152D02*
X93925238Y-35632914D01*
X93925238Y-35632914D02*
X93925238Y-35585295D01*
X93925238Y-35585295D02*
X93972857Y-35490057D01*
X93972857Y-35490057D02*
X94020476Y-35442438D01*
X94020476Y-35442438D02*
X94115714Y-35394819D01*
X94115714Y-35394819D02*
X94306190Y-35394819D01*
X94306190Y-35394819D02*
X94401428Y-35442438D01*
X94401428Y-35442438D02*
X94449047Y-35490057D01*
X94449047Y-35490057D02*
X94496666Y-35585295D01*
X94496666Y-35585295D02*
X94496666Y-35632914D01*
X94496666Y-35632914D02*
X94449047Y-35728152D01*
X94449047Y-35728152D02*
X94401428Y-35775771D01*
X94401428Y-35775771D02*
X94306190Y-35823390D01*
X94306190Y-35823390D02*
X94115714Y-35823390D01*
X94115714Y-35823390D02*
X94020476Y-35871009D01*
X94020476Y-35871009D02*
X93972857Y-35918628D01*
X93972857Y-35918628D02*
X93925238Y-36013866D01*
X93925238Y-36013866D02*
X93925238Y-36204342D01*
X93925238Y-36204342D02*
X93972857Y-36299580D01*
X93972857Y-36299580D02*
X94020476Y-36347200D01*
X94020476Y-36347200D02*
X94115714Y-36394819D01*
X94115714Y-36394819D02*
X94306190Y-36394819D01*
X94306190Y-36394819D02*
X94401428Y-36347200D01*
X94401428Y-36347200D02*
X94449047Y-36299580D01*
X94449047Y-36299580D02*
X94496666Y-36204342D01*
X94496666Y-36204342D02*
X94496666Y-36013866D01*
X94496666Y-36013866D02*
X94449047Y-35918628D01*
X94449047Y-35918628D02*
X94401428Y-35871009D01*
X94401428Y-35871009D02*
X94306190Y-35823390D01*
%TO.C,J1*%
X142236666Y-118754819D02*
X142236666Y-119469104D01*
X142236666Y-119469104D02*
X142189047Y-119611961D01*
X142189047Y-119611961D02*
X142093809Y-119707200D01*
X142093809Y-119707200D02*
X141950952Y-119754819D01*
X141950952Y-119754819D02*
X141855714Y-119754819D01*
X143236666Y-119754819D02*
X142665238Y-119754819D01*
X142950952Y-119754819D02*
X142950952Y-118754819D01*
X142950952Y-118754819D02*
X142855714Y-118897676D01*
X142855714Y-118897676D02*
X142760476Y-118992914D01*
X142760476Y-118992914D02*
X142665238Y-119040533D01*
%TO.C,R4*%
X98444819Y-96879166D02*
X97968628Y-97212499D01*
X98444819Y-97450594D02*
X97444819Y-97450594D01*
X97444819Y-97450594D02*
X97444819Y-97069642D01*
X97444819Y-97069642D02*
X97492438Y-96974404D01*
X97492438Y-96974404D02*
X97540057Y-96926785D01*
X97540057Y-96926785D02*
X97635295Y-96879166D01*
X97635295Y-96879166D02*
X97778152Y-96879166D01*
X97778152Y-96879166D02*
X97873390Y-96926785D01*
X97873390Y-96926785D02*
X97921009Y-96974404D01*
X97921009Y-96974404D02*
X97968628Y-97069642D01*
X97968628Y-97069642D02*
X97968628Y-97450594D01*
X97778152Y-96022023D02*
X98444819Y-96022023D01*
X97397200Y-96260118D02*
X98111485Y-96498213D01*
X98111485Y-96498213D02*
X98111485Y-95879166D01*
%TO.C,BUZZER1*%
X127166666Y-109891009D02*
X127309523Y-109938628D01*
X127309523Y-109938628D02*
X127357142Y-109986247D01*
X127357142Y-109986247D02*
X127404761Y-110081485D01*
X127404761Y-110081485D02*
X127404761Y-110224342D01*
X127404761Y-110224342D02*
X127357142Y-110319580D01*
X127357142Y-110319580D02*
X127309523Y-110367200D01*
X127309523Y-110367200D02*
X127214285Y-110414819D01*
X127214285Y-110414819D02*
X126833333Y-110414819D01*
X126833333Y-110414819D02*
X126833333Y-109414819D01*
X126833333Y-109414819D02*
X127166666Y-109414819D01*
X127166666Y-109414819D02*
X127261904Y-109462438D01*
X127261904Y-109462438D02*
X127309523Y-109510057D01*
X127309523Y-109510057D02*
X127357142Y-109605295D01*
X127357142Y-109605295D02*
X127357142Y-109700533D01*
X127357142Y-109700533D02*
X127309523Y-109795771D01*
X127309523Y-109795771D02*
X127261904Y-109843390D01*
X127261904Y-109843390D02*
X127166666Y-109891009D01*
X127166666Y-109891009D02*
X126833333Y-109891009D01*
X127833333Y-109414819D02*
X127833333Y-110224342D01*
X127833333Y-110224342D02*
X127880952Y-110319580D01*
X127880952Y-110319580D02*
X127928571Y-110367200D01*
X127928571Y-110367200D02*
X128023809Y-110414819D01*
X128023809Y-110414819D02*
X128214285Y-110414819D01*
X128214285Y-110414819D02*
X128309523Y-110367200D01*
X128309523Y-110367200D02*
X128357142Y-110319580D01*
X128357142Y-110319580D02*
X128404761Y-110224342D01*
X128404761Y-110224342D02*
X128404761Y-109414819D01*
X128785714Y-109414819D02*
X129452380Y-109414819D01*
X129452380Y-109414819D02*
X128785714Y-110414819D01*
X128785714Y-110414819D02*
X129452380Y-110414819D01*
X129738095Y-109414819D02*
X130404761Y-109414819D01*
X130404761Y-109414819D02*
X129738095Y-110414819D01*
X129738095Y-110414819D02*
X130404761Y-110414819D01*
X130785714Y-109891009D02*
X131119047Y-109891009D01*
X131261904Y-110414819D02*
X130785714Y-110414819D01*
X130785714Y-110414819D02*
X130785714Y-109414819D01*
X130785714Y-109414819D02*
X131261904Y-109414819D01*
X132261904Y-110414819D02*
X131928571Y-109938628D01*
X131690476Y-110414819D02*
X131690476Y-109414819D01*
X131690476Y-109414819D02*
X132071428Y-109414819D01*
X132071428Y-109414819D02*
X132166666Y-109462438D01*
X132166666Y-109462438D02*
X132214285Y-109510057D01*
X132214285Y-109510057D02*
X132261904Y-109605295D01*
X132261904Y-109605295D02*
X132261904Y-109748152D01*
X132261904Y-109748152D02*
X132214285Y-109843390D01*
X132214285Y-109843390D02*
X132166666Y-109891009D01*
X132166666Y-109891009D02*
X132071428Y-109938628D01*
X132071428Y-109938628D02*
X131690476Y-109938628D01*
X133214285Y-110414819D02*
X132642857Y-110414819D01*
X132928571Y-110414819D02*
X132928571Y-109414819D01*
X132928571Y-109414819D02*
X132833333Y-109557676D01*
X132833333Y-109557676D02*
X132738095Y-109652914D01*
X132738095Y-109652914D02*
X132642857Y-109700533D01*
X132603866Y-99020951D02*
X132603866Y-98259047D01*
X132984819Y-98639999D02*
X132222914Y-98639999D01*
D14*
%TO.C,JP1*%
X124510000Y-92110000D02*
X124510000Y-90780000D01*
X124510000Y-95980000D02*
X127170000Y-95980000D01*
X124510000Y-93380000D02*
X124510000Y-95980000D01*
X124510000Y-93380000D02*
X127170000Y-93380000D01*
X124510000Y-90780000D02*
X125840000Y-90780000D01*
X127170000Y-93380000D02*
X127170000Y-95980000D01*
%TO.C,BUTTON3*%
X115245000Y-111150000D02*
X115245000Y-117610000D01*
X108785000Y-111150000D02*
X108815000Y-111150000D01*
X113315000Y-111150000D02*
X110715000Y-111150000D01*
X115245000Y-117610000D02*
X115215000Y-117610000D01*
X108785000Y-111150000D02*
X108785000Y-117610000D01*
X115215000Y-111150000D02*
X115245000Y-111150000D01*
X108785000Y-117610000D02*
X108815000Y-117610000D01*
X113315000Y-117610000D02*
X110715000Y-117610000D01*
%TO.C,BUTTON2*%
X106860000Y-111150000D02*
X106860000Y-117610000D01*
X100400000Y-111150000D02*
X100430000Y-111150000D01*
X104930000Y-111150000D02*
X102330000Y-111150000D01*
X106860000Y-117610000D02*
X106830000Y-117610000D01*
X100400000Y-111150000D02*
X100400000Y-117610000D01*
X106830000Y-111150000D02*
X106860000Y-111150000D01*
X100400000Y-117610000D02*
X100430000Y-117610000D01*
X104930000Y-117610000D02*
X102330000Y-117610000D01*
%TO.C,BUTTON1*%
X98475000Y-111150000D02*
X98475000Y-117610000D01*
X92015000Y-111150000D02*
X92045000Y-111150000D01*
X96545000Y-111150000D02*
X93945000Y-111150000D01*
X98475000Y-117610000D02*
X98445000Y-117610000D01*
X92015000Y-111150000D02*
X92015000Y-117610000D01*
X98445000Y-111150000D02*
X98475000Y-111150000D01*
X92015000Y-117610000D02*
X92045000Y-117610000D01*
X96545000Y-117610000D02*
X93945000Y-117610000D01*
D15*
%TO.C,RGB1*%
X135190000Y-118290000D02*
X130190000Y-118290000D01*
X130190000Y-118290000D02*
X130190000Y-114190000D01*
X130190000Y-114190000D02*
X130190000Y-113290000D01*
X130190000Y-113290000D02*
X131090000Y-113290000D01*
X131090000Y-113290000D02*
X135190000Y-113290000D01*
X135190000Y-113290000D02*
X135190000Y-118290000D01*
X130190000Y-114190000D02*
X131090000Y-113290000D01*
X134410460Y-115790000D02*
G75*
G03*
X134410460Y-115790000I-1720460J0D01*
G01*
X131090000Y-113290000D02*
X131390000Y-112990000D01*
X131390000Y-112990000D02*
X130990000Y-112590000D01*
X130990000Y-112590000D02*
X130190000Y-113290000D01*
%TO.C,RGB2*%
X125460000Y-118290000D02*
X120460000Y-118290000D01*
X120460000Y-118290000D02*
X120460000Y-114190000D01*
X120460000Y-114190000D02*
X120460000Y-113290000D01*
X120460000Y-113290000D02*
X121360000Y-113290000D01*
X121360000Y-113290000D02*
X125460000Y-113290000D01*
X125460000Y-113290000D02*
X125460000Y-118290000D01*
X120460000Y-114190000D02*
X121360000Y-113290000D01*
X124680460Y-115790000D02*
G75*
G03*
X124680460Y-115790000I-1720460J0D01*
G01*
X121360000Y-113290000D02*
X121660000Y-112990000D01*
X121660000Y-112990000D02*
X121260000Y-112590000D01*
X121260000Y-112590000D02*
X120460000Y-113290000D01*
D14*
%TO.C,J10*%
X114530000Y-128887500D02*
X114530000Y-128637500D01*
X122330000Y-124487500D02*
X121880000Y-124487500D01*
X122330000Y-126337500D02*
X122330000Y-124487500D01*
X116730000Y-123937500D02*
X117180000Y-123937500D01*
X122330000Y-128887500D02*
X122330000Y-128637500D01*
X114530000Y-126337500D02*
X114530000Y-124487500D01*
X116730000Y-123937500D02*
X116730000Y-124387500D01*
X114530000Y-124487500D02*
X114980000Y-124487500D01*
%TO.C,C2*%
X100347000Y-105931252D02*
X100347000Y-104508748D01*
X102167000Y-105931252D02*
X102167000Y-104508748D01*
%TO.C,LED2*%
X104185000Y-93287500D02*
X106455000Y-93287500D01*
X106455000Y-93287500D02*
X106455000Y-89402500D01*
X104185000Y-89402500D02*
X104185000Y-93287500D01*
%TO.C,R1*%
X98819000Y-104492936D02*
X98819000Y-105947064D01*
X96999000Y-104492936D02*
X96999000Y-105947064D01*
%TO.C,J2*%
X141430000Y-92460000D02*
X142760000Y-92460000D01*
X141430000Y-93790000D02*
X141430000Y-92460000D01*
X141430000Y-95060000D02*
X141430000Y-102740000D01*
X141430000Y-95060000D02*
X144090000Y-95060000D01*
X141430000Y-102740000D02*
X144090000Y-102740000D01*
X144090000Y-95060000D02*
X144090000Y-102740000D01*
%TO.C,J7*%
X109410000Y-125620000D02*
X109410000Y-126950000D01*
X108080000Y-125620000D02*
X109410000Y-125620000D01*
X106810000Y-125620000D02*
X104210000Y-125620000D01*
X106810000Y-125620000D02*
X106810000Y-128280000D01*
X104210000Y-125620000D02*
X104210000Y-128280000D01*
X106810000Y-128280000D02*
X104210000Y-128280000D01*
%TO.C,J4*%
X104430000Y-40186250D02*
X104430000Y-85966250D01*
X104430000Y-40186250D02*
X107090000Y-40186250D01*
X104430000Y-85966250D02*
X107090000Y-85966250D01*
X105760000Y-37586250D02*
X107090000Y-37586250D01*
X107090000Y-37586250D02*
X107090000Y-38916250D01*
X107090000Y-40186250D02*
X107090000Y-85966250D01*
%TO.C,G\u002A\u002A\u002A*%
G36*
X117083576Y-61052765D02*
G01*
X117122761Y-61054593D01*
X117153161Y-61058497D01*
X117180385Y-61065405D01*
X117210038Y-61076245D01*
X117232885Y-61085677D01*
X117331798Y-61136970D01*
X117416069Y-61201251D01*
X117485064Y-61277908D01*
X117538150Y-61366327D01*
X117549563Y-61391873D01*
X117582540Y-61495465D01*
X117596211Y-61599627D01*
X117591106Y-61702376D01*
X117567754Y-61801728D01*
X117526687Y-61895699D01*
X117468433Y-61982305D01*
X117393523Y-62059561D01*
X117365000Y-62082848D01*
X117284848Y-62132728D01*
X117194319Y-62168724D01*
X117097839Y-62190058D01*
X116999836Y-62195954D01*
X116904740Y-62185633D01*
X116854479Y-62172504D01*
X116809854Y-62156337D01*
X116764160Y-62137089D01*
X116731832Y-62121282D01*
X116662076Y-62073350D01*
X116597307Y-62009938D01*
X116540928Y-61935500D01*
X116496346Y-61854492D01*
X116468213Y-61776250D01*
X116457403Y-61718519D01*
X116451696Y-61651710D01*
X116451139Y-61582849D01*
X116455781Y-61518968D01*
X116465668Y-61467094D01*
X116466115Y-61465565D01*
X116506254Y-61364063D01*
X116562536Y-61273709D01*
X116633661Y-61195862D01*
X116718330Y-61131886D01*
X116815243Y-61083140D01*
X116840000Y-61073921D01*
X116872065Y-61063863D01*
X116903050Y-61057303D01*
X116938527Y-61053601D01*
X116984070Y-61052116D01*
X117030000Y-61052083D01*
X117083576Y-61052765D01*
G37*
G36*
X119193376Y-56072833D02*
G01*
X119440284Y-56082050D01*
X119686912Y-56109244D01*
X119931069Y-56153836D01*
X120170568Y-56215245D01*
X120403220Y-56292891D01*
X120626836Y-56386193D01*
X120839229Y-56494572D01*
X120886564Y-56521748D01*
X121108272Y-56663132D01*
X121316610Y-56818942D01*
X121511044Y-56988443D01*
X121691038Y-57170900D01*
X121856059Y-57365578D01*
X122005571Y-57571742D01*
X122139040Y-57788658D01*
X122255931Y-58015590D01*
X122355710Y-58251804D01*
X122437841Y-58496565D01*
X122499521Y-58738583D01*
X122518601Y-58831351D01*
X122533728Y-58916912D01*
X122545312Y-58999576D01*
X122553760Y-59083651D01*
X122559479Y-59173448D01*
X122562877Y-59273275D01*
X122564362Y-59387443D01*
X122564496Y-59425436D01*
X122565000Y-59709623D01*
X122460000Y-59747789D01*
X122417931Y-59763049D01*
X122383627Y-59775434D01*
X122360918Y-59783563D01*
X122353569Y-59786102D01*
X122349278Y-59778410D01*
X122345193Y-59768750D01*
X122339073Y-59752905D01*
X122327538Y-59722685D01*
X122312239Y-59682421D01*
X122294824Y-59636449D01*
X122294748Y-59636250D01*
X122166682Y-59325733D01*
X122021022Y-59024634D01*
X121858023Y-58733350D01*
X121677942Y-58452278D01*
X121481035Y-58181815D01*
X121267557Y-57922357D01*
X121037764Y-57674301D01*
X121015000Y-57651247D01*
X120775667Y-57423628D01*
X120525705Y-57212282D01*
X120264469Y-57016785D01*
X119991311Y-56836717D01*
X119705585Y-56671652D01*
X119406646Y-56521171D01*
X119093847Y-56384848D01*
X119055000Y-56369282D01*
X119003582Y-56348673D01*
X118956849Y-56329583D01*
X118918888Y-56313708D01*
X118893788Y-56302743D01*
X118888177Y-56300068D01*
X118861355Y-56286437D01*
X118891723Y-56195888D01*
X118904212Y-56158721D01*
X118915442Y-56129897D01*
X118928008Y-56108357D01*
X118944504Y-56093043D01*
X118967526Y-56082898D01*
X118999666Y-56076861D01*
X119043521Y-56073876D01*
X119101684Y-56072884D01*
X119176750Y-56072826D01*
X119193376Y-56072833D01*
G37*
G36*
X117762670Y-56475933D02*
G01*
X118082951Y-56532970D01*
X118396502Y-56608630D01*
X118702698Y-56702514D01*
X119000916Y-56814223D01*
X119290531Y-56943361D01*
X119570919Y-57089527D01*
X119841457Y-57252325D01*
X120101521Y-57431355D01*
X120350485Y-57626219D01*
X120587727Y-57836519D01*
X120812622Y-58061857D01*
X121024546Y-58301835D01*
X121222876Y-58556053D01*
X121382405Y-58786250D01*
X121530817Y-59027171D01*
X121664493Y-59274905D01*
X121785067Y-59532764D01*
X121894174Y-59804062D01*
X121922307Y-59881250D01*
X121941242Y-59934918D01*
X121958798Y-59985778D01*
X121973338Y-60029013D01*
X121983228Y-60059804D01*
X121985145Y-60066250D01*
X121993966Y-60096702D01*
X122006301Y-60138828D01*
X122019953Y-60185134D01*
X122024727Y-60201250D01*
X122055673Y-60313512D01*
X122086507Y-60440345D01*
X122116051Y-60576346D01*
X122143123Y-60716113D01*
X122164508Y-60841335D01*
X122173773Y-60903190D01*
X122179002Y-60949571D01*
X122180205Y-60984595D01*
X122177390Y-61012374D01*
X122170567Y-61037022D01*
X122164992Y-61051007D01*
X122144389Y-61092347D01*
X122113310Y-61146258D01*
X122073796Y-61209714D01*
X122027889Y-61279687D01*
X121977629Y-61353152D01*
X121925060Y-61427081D01*
X121872221Y-61498449D01*
X121821156Y-61564227D01*
X121806749Y-61582098D01*
X121734163Y-61671250D01*
X121457160Y-61672162D01*
X121384749Y-61672223D01*
X121319038Y-61671940D01*
X121262634Y-61671352D01*
X121218143Y-61670496D01*
X121188171Y-61669411D01*
X121175325Y-61668135D01*
X121175078Y-61667995D01*
X121172634Y-61656241D01*
X121170805Y-61629794D01*
X121169930Y-61593958D01*
X121169901Y-61587083D01*
X121168602Y-61527779D01*
X121165100Y-61454045D01*
X121159791Y-61371285D01*
X121153070Y-61284899D01*
X121145333Y-61200288D01*
X121136975Y-61122855D01*
X121134332Y-61101250D01*
X121100791Y-60882109D01*
X121055916Y-60669432D01*
X120998060Y-60456055D01*
X120953755Y-60316705D01*
X120852656Y-60045706D01*
X120734127Y-59783966D01*
X120598637Y-59532194D01*
X120446656Y-59291100D01*
X120278654Y-59061392D01*
X120095100Y-58843779D01*
X119896463Y-58638971D01*
X119760000Y-58513502D01*
X119536656Y-58330044D01*
X119304196Y-58164271D01*
X119062195Y-58015952D01*
X118810227Y-57884852D01*
X118547870Y-57770739D01*
X118274698Y-57673382D01*
X118170000Y-57641325D01*
X117901300Y-57572800D01*
X117625401Y-57522638D01*
X117341863Y-57490768D01*
X117170000Y-57480482D01*
X117114919Y-57478129D01*
X117065761Y-57475844D01*
X117026534Y-57473826D01*
X117001242Y-57472276D01*
X116995000Y-57471730D01*
X116986853Y-57469368D01*
X116980999Y-57462453D01*
X116976823Y-57447804D01*
X116973712Y-57422239D01*
X116971051Y-57382577D01*
X116968681Y-57335284D01*
X116966021Y-57269130D01*
X116963684Y-57193206D01*
X116961952Y-57117742D01*
X116961181Y-57063240D01*
X116960000Y-56925230D01*
X116997500Y-56890056D01*
X117048668Y-56845394D01*
X117113897Y-56793664D01*
X117189670Y-56737340D01*
X117272472Y-56678898D01*
X117358787Y-56620814D01*
X117445100Y-56565564D01*
X117527895Y-56515622D01*
X117535413Y-56511265D01*
X117630341Y-56456461D01*
X117762670Y-56475933D01*
G37*
G36*
X116465675Y-56726923D02*
G01*
X116500553Y-56762299D01*
X116529605Y-56792994D01*
X116550191Y-56816124D01*
X116559668Y-56828804D01*
X116560000Y-56829894D01*
X116553587Y-56840276D01*
X116536061Y-56862183D01*
X116509989Y-56892551D01*
X116477939Y-56928315D01*
X116472976Y-56933736D01*
X116298455Y-57138544D01*
X116139278Y-57355588D01*
X115996037Y-57583600D01*
X115869326Y-57821310D01*
X115759740Y-58067446D01*
X115667870Y-58320741D01*
X115594312Y-58579923D01*
X115539658Y-58843722D01*
X115520226Y-58972272D01*
X115511694Y-59052767D01*
X115505185Y-59147976D01*
X115500702Y-59253770D01*
X115498246Y-59366016D01*
X115497819Y-59480586D01*
X115499421Y-59593349D01*
X115503054Y-59700174D01*
X115508721Y-59796932D01*
X115516422Y-59879491D01*
X115519878Y-59906250D01*
X115565016Y-60169616D01*
X115624118Y-60420072D01*
X115697985Y-60659763D01*
X115787417Y-60890835D01*
X115893215Y-61115436D01*
X116016179Y-61335713D01*
X116106590Y-61478952D01*
X116204520Y-61620953D01*
X116304310Y-61752067D01*
X116410698Y-61878084D01*
X116528420Y-62004791D01*
X116579679Y-62056898D01*
X116780360Y-62244448D01*
X116990682Y-62414536D01*
X117210874Y-62567292D01*
X117441161Y-62702842D01*
X117681771Y-62821316D01*
X117932929Y-62922842D01*
X118194864Y-63007548D01*
X118317534Y-63040521D01*
X118397902Y-63059186D01*
X118491157Y-63078204D01*
X118590252Y-63096310D01*
X118688140Y-63112241D01*
X118777773Y-63124733D01*
X118805000Y-63127959D01*
X118857108Y-63132316D01*
X118924890Y-63135754D01*
X119004556Y-63138272D01*
X119092319Y-63139870D01*
X119184389Y-63140546D01*
X119276980Y-63140299D01*
X119366302Y-63139128D01*
X119448568Y-63137032D01*
X119519990Y-63134011D01*
X119576779Y-63130063D01*
X119595000Y-63128170D01*
X119869385Y-63086087D01*
X120136930Y-63026022D01*
X120396633Y-62948281D01*
X120647494Y-62853166D01*
X120888514Y-62740982D01*
X120916372Y-62726573D01*
X121137765Y-62600440D01*
X121353538Y-62456940D01*
X121560110Y-62298602D01*
X121722653Y-62157133D01*
X121757347Y-62125669D01*
X121786875Y-62099921D01*
X121808095Y-62082558D01*
X121817841Y-62076250D01*
X121827267Y-62082964D01*
X121847909Y-62101382D01*
X121876991Y-62128918D01*
X121911738Y-62162986D01*
X121922754Y-62173996D01*
X122020134Y-62271742D01*
X121962567Y-62327217D01*
X121759233Y-62509372D01*
X121542626Y-62677093D01*
X121313947Y-62829747D01*
X121074399Y-62966701D01*
X120825182Y-63087322D01*
X120567500Y-63190977D01*
X120302553Y-63277033D01*
X120031545Y-63344856D01*
X120030000Y-63345186D01*
X119941615Y-63363636D01*
X119863673Y-63378767D01*
X119792621Y-63390923D01*
X119724907Y-63400448D01*
X119656978Y-63407686D01*
X119585282Y-63412983D01*
X119506265Y-63416681D01*
X119416376Y-63419126D01*
X119312062Y-63420662D01*
X119245000Y-63421261D01*
X119160560Y-63421780D01*
X119081204Y-63422044D01*
X119009464Y-63422062D01*
X118947867Y-63421843D01*
X118898943Y-63421394D01*
X118865223Y-63420725D01*
X118850000Y-63419945D01*
X118578924Y-63382307D01*
X118322561Y-63333151D01*
X118078774Y-63271733D01*
X117845426Y-63197307D01*
X117620380Y-63109130D01*
X117401498Y-63006456D01*
X117186644Y-62888542D01*
X117011045Y-62779353D01*
X116873782Y-62686025D01*
X116747799Y-62592512D01*
X116628037Y-62494652D01*
X116509441Y-62388281D01*
X116386951Y-62269236D01*
X116367486Y-62249578D01*
X116289508Y-62169619D01*
X116223233Y-62099553D01*
X116165560Y-62035825D01*
X116113390Y-61974879D01*
X116063622Y-61913161D01*
X116013157Y-61847113D01*
X115993498Y-61820610D01*
X115836701Y-61593219D01*
X115698048Y-61360914D01*
X115577018Y-61122381D01*
X115473088Y-60876308D01*
X115385734Y-60621384D01*
X115314435Y-60356296D01*
X115258667Y-60079732D01*
X115232920Y-59911250D01*
X115226310Y-59848082D01*
X115221095Y-59768746D01*
X115217276Y-59677025D01*
X115214851Y-59576702D01*
X115213821Y-59471561D01*
X115214184Y-59365384D01*
X115215941Y-59261955D01*
X115219090Y-59165057D01*
X115223631Y-59078472D01*
X115229563Y-59005985D01*
X115233046Y-58976250D01*
X115272760Y-58725271D01*
X115323336Y-58488161D01*
X115385832Y-58261355D01*
X115461307Y-58041287D01*
X115550818Y-57824392D01*
X115616754Y-57683983D01*
X115666116Y-57585496D01*
X115711600Y-57499508D01*
X115756708Y-57419925D01*
X115804937Y-57340656D01*
X115859787Y-57255609D01*
X115882001Y-57222145D01*
X115948711Y-57125488D01*
X116019125Y-57029331D01*
X116090904Y-56936542D01*
X116161712Y-56849988D01*
X116229212Y-56772539D01*
X116291067Y-56707062D01*
X116338175Y-56662327D01*
X116371351Y-56632991D01*
X116465675Y-56726923D01*
G37*
G36*
X117140000Y-57922366D02*
G01*
X117265615Y-57924195D01*
X117378656Y-57929746D01*
X117485908Y-57939751D01*
X117594155Y-57954941D01*
X117710183Y-57976046D01*
X117787605Y-57992121D01*
X118054501Y-58059527D01*
X118313287Y-58144849D01*
X118563260Y-58247626D01*
X118803716Y-58367400D01*
X119033955Y-58503708D01*
X119253272Y-58656092D01*
X119460965Y-58824092D01*
X119656332Y-59007247D01*
X119838671Y-59205096D01*
X120007277Y-59417182D01*
X120046313Y-59471123D01*
X120194407Y-59695798D01*
X120324367Y-59927509D01*
X120436541Y-60167111D01*
X120531278Y-60415460D01*
X120608926Y-60673411D01*
X120669833Y-60941820D01*
X120689412Y-61051250D01*
X120704177Y-61158446D01*
X120715794Y-61280259D01*
X120724088Y-61411527D01*
X120728886Y-61547088D01*
X120730013Y-61681781D01*
X120727295Y-61810445D01*
X120720558Y-61927918D01*
X120719451Y-61941250D01*
X120714006Y-61993986D01*
X120706016Y-62057704D01*
X120696137Y-62128298D01*
X120685024Y-62201662D01*
X120673332Y-62273688D01*
X120661718Y-62340272D01*
X120650836Y-62397307D01*
X120641342Y-62440688D01*
X120637240Y-62456250D01*
X120624128Y-62501250D01*
X120519564Y-62544508D01*
X120465299Y-62565999D01*
X120400475Y-62590154D01*
X120329369Y-62615525D01*
X120256258Y-62640663D01*
X120185419Y-62664120D01*
X120121130Y-62684448D01*
X120067669Y-62700197D01*
X120034625Y-62708744D01*
X119974251Y-62722590D01*
X119755783Y-62640077D01*
X119693417Y-62616298D01*
X119637236Y-62594450D01*
X119589980Y-62575633D01*
X119554388Y-62560947D01*
X119533200Y-62551492D01*
X119528577Y-62548827D01*
X119527651Y-62535886D01*
X119532744Y-62508175D01*
X119543002Y-62469710D01*
X119550459Y-62445669D01*
X119585828Y-62325303D01*
X119618952Y-62190140D01*
X119648580Y-62045362D01*
X119652985Y-62021250D01*
X119659587Y-61982236D01*
X119664698Y-61945432D01*
X119668495Y-61907484D01*
X119671155Y-61865036D01*
X119672853Y-61814734D01*
X119673767Y-61753222D01*
X119674073Y-61677145D01*
X119674035Y-61621250D01*
X119673687Y-61533570D01*
X119672861Y-61462401D01*
X119671365Y-61404252D01*
X119669005Y-61355636D01*
X119665589Y-61313064D01*
X119660923Y-61273047D01*
X119654814Y-61232098D01*
X119651340Y-61211250D01*
X119607530Y-60998507D01*
X119550405Y-60797849D01*
X119478714Y-60605405D01*
X119399545Y-60433734D01*
X119307265Y-60264117D01*
X119207664Y-60108508D01*
X119097211Y-59962037D01*
X118972374Y-59819835D01*
X118900628Y-59745989D01*
X118776053Y-59627404D01*
X118654243Y-59523822D01*
X118530403Y-59431730D01*
X118399733Y-59347615D01*
X118257437Y-59267965D01*
X118224164Y-59250727D01*
X118176075Y-59226387D01*
X118135018Y-59206408D01*
X118096381Y-59188823D01*
X118055555Y-59171664D01*
X118007930Y-59152964D01*
X117948895Y-59130756D01*
X117905000Y-59114531D01*
X117822711Y-59087077D01*
X117728531Y-59060452D01*
X117626813Y-59035515D01*
X117521908Y-59013127D01*
X117418170Y-58994146D01*
X117319951Y-58979435D01*
X117231605Y-58969852D01*
X117157483Y-58966257D01*
X117154505Y-58966250D01*
X117086877Y-58968968D01*
X117034144Y-58978054D01*
X116991826Y-58994903D01*
X116955446Y-59020911D01*
X116943811Y-59031912D01*
X116905227Y-59083483D01*
X116884161Y-59141198D01*
X116880708Y-59201485D01*
X116894964Y-59260774D01*
X116927025Y-59315495D01*
X116935900Y-59325929D01*
X116959935Y-59350035D01*
X116984986Y-59368417D01*
X117014665Y-59382307D01*
X117052590Y-59392935D01*
X117102375Y-59401533D01*
X117167635Y-59409330D01*
X117186621Y-59411282D01*
X117310357Y-59425396D01*
X117419487Y-59441769D01*
X117519371Y-59461530D01*
X117615371Y-59485809D01*
X117712848Y-59515739D01*
X117762596Y-59532746D01*
X117952810Y-59609994D01*
X118133898Y-59704209D01*
X118304822Y-59814286D01*
X118464544Y-59939114D01*
X118612027Y-60077587D01*
X118746232Y-60228596D01*
X118866123Y-60391033D01*
X118970661Y-60563790D01*
X119058808Y-60745759D01*
X119129527Y-60935832D01*
X119153944Y-61018403D01*
X119181513Y-61125017D01*
X119202285Y-61220431D01*
X119217067Y-61310757D01*
X119226665Y-61402110D01*
X119231888Y-61500603D01*
X119233543Y-61612351D01*
X119233546Y-61621250D01*
X119233123Y-61703053D01*
X119231755Y-61769381D01*
X119229159Y-61824750D01*
X119225049Y-61873674D01*
X119219141Y-61920667D01*
X119211774Y-61966648D01*
X119178345Y-62131368D01*
X119136401Y-62283823D01*
X119083763Y-62430720D01*
X119018253Y-62578764D01*
X119002347Y-62611250D01*
X118971235Y-62673383D01*
X118947081Y-62719792D01*
X118928095Y-62752736D01*
X118912488Y-62774475D01*
X118898467Y-62787268D01*
X118884242Y-62793375D01*
X118868022Y-62795056D01*
X118856819Y-62794888D01*
X118823462Y-62793004D01*
X118794396Y-62790088D01*
X118790000Y-62789436D01*
X118699025Y-62774338D01*
X118623579Y-62761264D01*
X118559394Y-62749384D01*
X118502204Y-62737866D01*
X118447740Y-62725881D01*
X118391736Y-62712598D01*
X118378540Y-62709359D01*
X118232080Y-62673223D01*
X118158540Y-62608310D01*
X118116562Y-62571244D01*
X118070619Y-62530656D01*
X118029095Y-62493955D01*
X118020000Y-62485912D01*
X117986949Y-62456897D01*
X117956697Y-62430715D01*
X117934561Y-62411957D01*
X117930517Y-62408640D01*
X117906035Y-62388855D01*
X117972666Y-62289721D01*
X118047825Y-62166794D01*
X118105225Y-62046811D01*
X118146006Y-61926171D01*
X118171311Y-61801277D01*
X118182279Y-61668529D01*
X118182945Y-61626250D01*
X118181686Y-61540778D01*
X118177012Y-61468938D01*
X118168054Y-61404525D01*
X118153943Y-61341335D01*
X118133808Y-61273160D01*
X118133191Y-61271250D01*
X118078486Y-61132977D01*
X118007433Y-61003689D01*
X117921573Y-60884790D01*
X117822447Y-60777686D01*
X117711593Y-60683783D01*
X117590554Y-60604487D01*
X117460868Y-60541203D01*
X117324077Y-60495337D01*
X117268887Y-60482424D01*
X117232630Y-60476075D01*
X117182020Y-60468728D01*
X117122630Y-60461119D01*
X117060031Y-60453982D01*
X117030584Y-60450950D01*
X116965919Y-60443545D01*
X116899426Y-60434196D01*
X116837505Y-60423914D01*
X116786553Y-60413710D01*
X116770584Y-60409853D01*
X116698169Y-60386950D01*
X116616444Y-60354364D01*
X116531548Y-60315069D01*
X116449624Y-60272038D01*
X116376811Y-60228244D01*
X116334694Y-60198832D01*
X116216008Y-60096700D01*
X116110776Y-59980759D01*
X116020324Y-59853003D01*
X115945982Y-59715426D01*
X115889075Y-59570022D01*
X115868623Y-59499124D01*
X115857682Y-59455515D01*
X115849869Y-59420239D01*
X115844770Y-59388530D01*
X115841967Y-59355624D01*
X115841045Y-59316754D01*
X115841589Y-59267156D01*
X115843072Y-59206250D01*
X115849614Y-59080122D01*
X115862070Y-58961547D01*
X115879919Y-58854105D01*
X115902642Y-58761374D01*
X115911771Y-58732703D01*
X115958684Y-58621305D01*
X116022183Y-58509657D01*
X116099272Y-58401593D01*
X116186959Y-58300944D01*
X116282249Y-58211545D01*
X116371322Y-58144349D01*
X116474928Y-58080148D01*
X116576403Y-58028486D01*
X116683009Y-57986091D01*
X116802006Y-57949690D01*
X116805000Y-57948883D01*
X116837912Y-57940284D01*
X116866655Y-57933750D01*
X116894724Y-57929001D01*
X116925614Y-57925763D01*
X116962820Y-57923759D01*
X117009838Y-57922711D01*
X117070161Y-57922343D01*
X117140000Y-57922366D01*
G37*
%TO.C,R2*%
X105515000Y-104492936D02*
X105515000Y-105947064D01*
X103695000Y-104492936D02*
X103695000Y-105947064D01*
%TO.C,J9*%
X142320000Y-36940000D02*
X143650000Y-36940000D01*
X142320000Y-38270000D02*
X142320000Y-36940000D01*
X142320000Y-39540000D02*
X142320000Y-85320000D01*
X142320000Y-39540000D02*
X144980000Y-39540000D01*
X142320000Y-85320000D02*
X144980000Y-85320000D01*
X144980000Y-39540000D02*
X144980000Y-85320000D01*
%TO.C,R3*%
X112211000Y-104492936D02*
X112211000Y-105947064D01*
X110391000Y-104492936D02*
X110391000Y-105947064D01*
%TO.C,J3*%
X140870000Y-125620000D02*
X143470000Y-125620000D01*
X143470000Y-128280000D02*
X143470000Y-125620000D01*
X140870000Y-128280000D02*
X140870000Y-125620000D01*
X140870000Y-128280000D02*
X143470000Y-128280000D01*
X139600000Y-128280000D02*
X138270000Y-128280000D01*
X138270000Y-128280000D02*
X138270000Y-126950000D01*
%TO.C,J6*%
X127600000Y-128280000D02*
X127600000Y-126950000D01*
X128930000Y-128280000D02*
X127600000Y-128280000D01*
X130200000Y-128280000D02*
X132800000Y-128280000D01*
X130200000Y-128280000D02*
X130200000Y-125620000D01*
X132800000Y-128280000D02*
X132800000Y-125620000D01*
X130200000Y-125620000D02*
X132800000Y-125620000D01*
%TO.C,R5*%
X106260000Y-96015436D02*
X106260000Y-97469564D01*
X104440000Y-96015436D02*
X104440000Y-97469564D01*
%TO.C,C3*%
X107043000Y-105931252D02*
X107043000Y-104508748D01*
X108863000Y-105931252D02*
X108863000Y-104508748D01*
%TO.C,C1*%
X93651000Y-105931252D02*
X93651000Y-104508748D01*
X95471000Y-105931252D02*
X95471000Y-104508748D01*
%TO.C,LED1*%
X98685000Y-93227500D02*
X100955000Y-93227500D01*
X100955000Y-93227500D02*
X100955000Y-89342500D01*
X98685000Y-89342500D02*
X98685000Y-93227500D01*
%TO.C,J5*%
X130230000Y-40526250D02*
X130230000Y-86306250D01*
X130230000Y-40526250D02*
X132890000Y-40526250D01*
X130230000Y-86306250D02*
X132890000Y-86306250D01*
X131560000Y-37926250D02*
X132890000Y-37926250D01*
X132890000Y-37926250D02*
X132890000Y-39256250D01*
X132890000Y-40526250D02*
X132890000Y-86306250D01*
%TO.C,J12*%
X98520000Y-125620000D02*
X98520000Y-126950000D01*
X97190000Y-125620000D02*
X98520000Y-125620000D01*
X95920000Y-125620000D02*
X93320000Y-125620000D01*
X95920000Y-125620000D02*
X95920000Y-128280000D01*
X93320000Y-125620000D02*
X93320000Y-128280000D01*
X95920000Y-128280000D02*
X93320000Y-128280000D01*
%TO.C,J8*%
X92500000Y-36940000D02*
X93830000Y-36940000D01*
X92500000Y-38270000D02*
X92500000Y-36940000D01*
X92500000Y-39540000D02*
X92500000Y-85320000D01*
X92500000Y-39540000D02*
X95160000Y-39540000D01*
X92500000Y-85320000D02*
X95160000Y-85320000D01*
X95160000Y-39540000D02*
X95160000Y-85320000D01*
%TO.C,J1*%
X143900000Y-118300000D02*
X142570000Y-118300000D01*
X143900000Y-116970000D02*
X143900000Y-118300000D01*
X143900000Y-115700000D02*
X143900000Y-108020000D01*
X143900000Y-115700000D02*
X141240000Y-115700000D01*
X143900000Y-108020000D02*
X141240000Y-108020000D01*
X141240000Y-115700000D02*
X141240000Y-108020000D01*
%TO.C,R4*%
X100750000Y-95985436D02*
X100750000Y-97439564D01*
X98930000Y-95985436D02*
X98930000Y-97439564D01*
%TO.C,BUZZER1*%
X136090000Y-102450000D02*
G75*
G03*
X136090000Y-102450000I-6100000J0D01*
G01*
%TD*%
M02*
