%TF.GenerationSoftware,KiCad,Pcbnew,7.0.5-7.0.5~ubuntu22.04.1*%
%TF.CreationDate,2023-07-06T21:51:12-03:00*%
%TF.ProjectId,Dev-kit-multiboards,4465762d-6b69-4742-9d6d-756c7469626f,rev?*%
%TF.SameCoordinates,Original*%
%TF.FileFunction,Copper,L1,Top*%
%TF.FilePolarity,Positive*%
%FSLAX46Y46*%
G04 Gerber Fmt 4.6, Leading zero omitted, Abs format (unit mm)*
G04 Created by KiCad (PCBNEW 7.0.5-7.0.5~ubuntu22.04.1) date 2023-07-06 21:51:12*
%MOMM*%
%LPD*%
G01*
G04 APERTURE LIST*
G04 Aperture macros list*
%AMRoundRect*
0 Rectangle with rounded corners*
0 $1 Rounding radius*
0 $2 $3 $4 $5 $6 $7 $8 $9 X,Y pos of 4 corners*
0 Add a 4 corners polygon primitive as box body*
4,1,4,$2,$3,$4,$5,$6,$7,$8,$9,$2,$3,0*
0 Add four circle primitives for the rounded corners*
1,1,$1+$1,$2,$3*
1,1,$1+$1,$4,$5*
1,1,$1+$1,$6,$7*
1,1,$1+$1,$8,$9*
0 Add four rect primitives between the rounded corners*
20,1,$1+$1,$2,$3,$4,$5,0*
20,1,$1+$1,$4,$5,$6,$7,0*
20,1,$1+$1,$6,$7,$8,$9,0*
20,1,$1+$1,$8,$9,$2,$3,0*%
G04 Aperture macros list end*
%TA.AperFunction,ComponentPad*%
%ADD10R,1.700000X1.700000*%
%TD*%
%TA.AperFunction,ComponentPad*%
%ADD11O,1.700000X1.700000*%
%TD*%
%TA.AperFunction,SMDPad,CuDef*%
%ADD12R,1.300000X1.550000*%
%TD*%
%TA.AperFunction,SMDPad,CuDef*%
%ADD13R,1.500000X0.900000*%
%TD*%
%TA.AperFunction,SMDPad,CuDef*%
%ADD14R,1.500000X1.900000*%
%TD*%
%TA.AperFunction,ComponentPad*%
%ADD15C,1.450000*%
%TD*%
%TA.AperFunction,SMDPad,CuDef*%
%ADD16R,1.200000X1.900000*%
%TD*%
%TA.AperFunction,ComponentPad*%
%ADD17O,1.200000X1.900000*%
%TD*%
%TA.AperFunction,SMDPad,CuDef*%
%ADD18R,0.400000X1.350000*%
%TD*%
%TA.AperFunction,SMDPad,CuDef*%
%ADD19RoundRect,0.250000X0.650000X-0.325000X0.650000X0.325000X-0.650000X0.325000X-0.650000X-0.325000X0*%
%TD*%
%TA.AperFunction,SMDPad,CuDef*%
%ADD20RoundRect,0.250000X0.625000X-0.375000X0.625000X0.375000X-0.625000X0.375000X-0.625000X-0.375000X0*%
%TD*%
%TA.AperFunction,SMDPad,CuDef*%
%ADD21RoundRect,0.250000X-0.625000X0.312500X-0.625000X-0.312500X0.625000X-0.312500X0.625000X0.312500X0*%
%TD*%
%TA.AperFunction,ComponentPad*%
%ADD22R,2.000000X2.000000*%
%TD*%
%TA.AperFunction,ComponentPad*%
%ADD23C,2.000000*%
%TD*%
%TA.AperFunction,ViaPad*%
%ADD24C,0.400000*%
%TD*%
%TA.AperFunction,ViaPad*%
%ADD25C,0.800000*%
%TD*%
%TA.AperFunction,Conductor*%
%ADD26C,0.152000*%
%TD*%
%TA.AperFunction,Conductor*%
%ADD27C,0.200000*%
%TD*%
%TA.AperFunction,Conductor*%
%ADD28C,0.250000*%
%TD*%
G04 APERTURE END LIST*
D10*
%TO.P,JP1,1,A*%
%TO.N,Buzzer*%
X125840000Y-92110000D03*
D11*
%TO.P,JP1,2,B*%
%TO.N,Net-(BUZZER1--)*%
X125840000Y-94650000D03*
%TD*%
D12*
%TO.P,BUTTON3,1,1*%
%TO.N,BUTTON3*%
X114265000Y-118355000D03*
X114265000Y-110405000D03*
%TO.P,BUTTON3,2,2*%
%TO.N,Earth*%
X109765000Y-110405000D03*
X109765000Y-118355000D03*
%TD*%
%TO.P,BUTTON2,1,1*%
%TO.N,BUTTON2*%
X105880000Y-118355000D03*
X105880000Y-110405000D03*
%TO.P,BUTTON2,2,2*%
%TO.N,Earth*%
X101380000Y-110405000D03*
X101380000Y-118355000D03*
%TD*%
%TO.P,BUTTON1,1,1*%
%TO.N,BUTTON1*%
X97495000Y-118355000D03*
X97495000Y-110405000D03*
%TO.P,BUTTON1,2,2*%
%TO.N,Earth*%
X92995000Y-110405000D03*
X92995000Y-118355000D03*
%TD*%
D13*
%TO.P,RGB1,1-VDD,VDD*%
%TO.N,+3.3V*%
X135140000Y-117440000D03*
%TO.P,RGB1,2-DOUT,DO*%
%TO.N,unconnected-(RGB1-DO-Pad2-DOUT)*%
X135140000Y-114140000D03*
%TO.P,RGB1,4-DIN,DI*%
%TO.N,IO27*%
X130240000Y-117440000D03*
%TO.P,RGB1,3-GND,GND*%
%TO.N,Earth*%
X130240000Y-114140000D03*
%TD*%
%TO.P,RGB2,1-VDD,VDD*%
%TO.N,+3.3V*%
X125410000Y-117440000D03*
%TO.P,RGB2,2-DOUT,DO*%
%TO.N,unconnected-(RGB2-DO-Pad2-DOUT)*%
X125410000Y-114140000D03*
%TO.P,RGB2,4-DIN,DI*%
%TO.N,IO12*%
X120510000Y-117440000D03*
%TO.P,RGB2,3-GND,GND*%
%TO.N,Earth*%
X120510000Y-114140000D03*
%TD*%
D14*
%TO.P,J10,6,Shield*%
%TO.N,Earth*%
X119430000Y-127487500D03*
D15*
X120930000Y-124787500D03*
D16*
X115530000Y-127487500D03*
D17*
X114930000Y-127487500D03*
D15*
X115930000Y-124787500D03*
D17*
X121930000Y-127487500D03*
D16*
X121330000Y-127487500D03*
D14*
X117430000Y-127487500D03*
D18*
%TO.P,J10,5,GND*%
X119730000Y-124787500D03*
%TO.P,J10,4,ID*%
%TO.N,unconnected-(J10-ID-Pad4)*%
X119080000Y-124787500D03*
%TO.P,J10,3,D+*%
%TO.N,unconnected-(J10-D+-Pad3)*%
X118430000Y-124787500D03*
%TO.P,J10,2,D-*%
%TO.N,unconnected-(J10-D--Pad2)*%
X117780000Y-124787500D03*
%TO.P,J10,1,VBUS*%
%TO.N,+5V*%
X117130000Y-124787500D03*
%TD*%
D19*
%TO.P,C2,1*%
%TO.N,BUTTON2*%
X101257000Y-106695000D03*
%TO.P,C2,2*%
%TO.N,Earth*%
X101257000Y-103745000D03*
%TD*%
D20*
%TO.P,LED2,1,K*%
%TO.N,Net-(LED2-K)*%
X105320000Y-92402500D03*
%TO.P,LED2,2,A*%
%TO.N,IO33*%
X105320000Y-89602500D03*
%TD*%
D21*
%TO.P,R1,1*%
%TO.N,+3.3V*%
X97909000Y-103757500D03*
%TO.P,R1,2*%
%TO.N,BUTTON1*%
X97909000Y-106682500D03*
%TD*%
D10*
%TO.P,J2,1,Pin_1*%
%TO.N,IO23*%
X142760000Y-93790000D03*
D11*
%TO.P,J2,2,Pin_2*%
%TO.N,IO19*%
X142760000Y-96330000D03*
%TO.P,J2,3,Pin_3*%
%TO.N,CLK*%
X142760000Y-98870000D03*
%TO.P,J2,4,Pin_4*%
%TO.N,CS*%
X142760000Y-101410000D03*
%TD*%
D10*
%TO.P,J7,1,Pin_1*%
%TO.N,DAC_1*%
X108080000Y-126950000D03*
D11*
%TO.P,J7,2,Pin_2*%
%TO.N,DAC_2*%
X105540000Y-126950000D03*
%TD*%
D10*
%TO.P,J4,1,Pin_1*%
%TO.N,+3.3V*%
X105760000Y-38916250D03*
D11*
%TO.P,J4,2,Pin_2*%
%TO.N,EN_ESP32*%
X105760000Y-41456250D03*
%TO.P,J4,3,Pin_3*%
%TO.N,ADC1*%
X105760000Y-43996250D03*
%TO.P,J4,4,Pin_4*%
%TO.N,IO39*%
X105760000Y-46536250D03*
%TO.P,J4,5,Pin_5*%
%TO.N,IO34*%
X105760000Y-49076250D03*
%TO.P,J4,6,Pin_6*%
%TO.N,IO35*%
X105760000Y-51616250D03*
%TO.P,J4,7,Pin_7*%
%TO.N,IO32*%
X105760000Y-54156250D03*
%TO.P,J4,8,Pin_8*%
%TO.N,IO33*%
X105760000Y-56696250D03*
%TO.P,J4,9,Pin_9*%
%TO.N,DAC_1*%
X105760000Y-59236250D03*
%TO.P,J4,10,Pin_10*%
%TO.N,DAC_2*%
X105760000Y-61776250D03*
%TO.P,J4,11,Pin_11*%
%TO.N,IO27*%
X105760000Y-64316250D03*
%TO.P,J4,12,Pin_12*%
%TO.N,IO14*%
X105760000Y-66856250D03*
%TO.P,J4,13,Pin_13*%
%TO.N,IO12*%
X105760000Y-69396250D03*
%TO.P,J4,14,Pin_14*%
%TO.N,Earth*%
X105760000Y-71936250D03*
%TO.P,J4,15,Pin_15*%
%TO.N,IO13*%
X105760000Y-74476250D03*
%TO.P,J4,16,Pin_16*%
%TO.N,IO9*%
X105760000Y-77016250D03*
%TO.P,J4,17,Pin_17*%
%TO.N,IO10*%
X105760000Y-79556250D03*
%TO.P,J4,18,Pin_18*%
%TO.N,IO11*%
X105760000Y-82096250D03*
%TO.P,J4,19,Pin_19*%
%TO.N,+5V*%
X105760000Y-84636250D03*
%TD*%
D21*
%TO.P,R2,1*%
%TO.N,+3.3V*%
X104605000Y-103757500D03*
%TO.P,R2,2*%
%TO.N,BUTTON2*%
X104605000Y-106682500D03*
%TD*%
D10*
%TO.P,J9,1,Pin_1*%
%TO.N,Earth*%
X143650000Y-38270000D03*
D11*
%TO.P,J9,2,Pin_2*%
%TO.N,IO23*%
X143650000Y-40810000D03*
%TO.P,J9,3,Pin_3*%
%TO.N,IO22*%
X143650000Y-43350000D03*
%TO.P,J9,4,Pin_4*%
%TO.N,IO1*%
X143650000Y-45890000D03*
%TO.P,J9,5,Pin_5*%
%TO.N,IO3*%
X143650000Y-48430000D03*
%TO.P,J9,6,Pin_6*%
%TO.N,IO21*%
X143650000Y-50970000D03*
%TO.P,J9,7,Pin_7*%
%TO.N,Earth*%
X143650000Y-53510000D03*
%TO.P,J9,8,Pin_8*%
%TO.N,IO19*%
X143650000Y-56050000D03*
%TO.P,J9,9,Pin_9*%
%TO.N,CLK*%
X143650000Y-58590000D03*
%TO.P,J9,10,Pin_10*%
%TO.N,CS*%
X143650000Y-61130000D03*
%TO.P,J9,11,Pin_11*%
%TO.N,IO17*%
X143650000Y-63670000D03*
%TO.P,J9,12,Pin_12*%
%TO.N,IO16*%
X143650000Y-66210000D03*
%TO.P,J9,13,Pin_13*%
%TO.N,ADC2*%
X143650000Y-68750000D03*
%TO.P,J9,14,Pin_14*%
%TO.N,IO0*%
X143650000Y-71290000D03*
%TO.P,J9,15,Pin_15*%
%TO.N,Buzzer*%
X143650000Y-73830000D03*
%TO.P,J9,16,Pin_16*%
%TO.N,BUTTON1*%
X143650000Y-76370000D03*
%TO.P,J9,17,Pin_17*%
%TO.N,BUTTON2*%
X143650000Y-78910000D03*
%TO.P,J9,18,Pin_18*%
%TO.N,BUTTON3*%
X143650000Y-81450000D03*
%TO.P,J9,19,Pin_19*%
%TO.N,IO6*%
X143650000Y-83990000D03*
%TD*%
D21*
%TO.P,R3,1*%
%TO.N,+3.3V*%
X111301000Y-103757500D03*
%TO.P,R3,2*%
%TO.N,BUTTON3*%
X111301000Y-106682500D03*
%TD*%
D11*
%TO.P,J3,2,Pin_2*%
%TO.N,IO16*%
X142140000Y-126950000D03*
D10*
%TO.P,J3,1,Pin_1*%
%TO.N,IO17*%
X139600000Y-126950000D03*
%TD*%
%TO.P,J6,1,Pin_1*%
%TO.N,ADC1*%
X128930000Y-126950000D03*
D11*
%TO.P,J6,2,Pin_2*%
%TO.N,ADC2*%
X131470000Y-126950000D03*
%TD*%
D21*
%TO.P,R5,1*%
%TO.N,Net-(LED2-K)*%
X105350000Y-95280000D03*
%TO.P,R5,2*%
%TO.N,Earth*%
X105350000Y-98205000D03*
%TD*%
D19*
%TO.P,C3,1*%
%TO.N,BUTTON3*%
X107953000Y-106695000D03*
%TO.P,C3,2*%
%TO.N,Earth*%
X107953000Y-103745000D03*
%TD*%
%TO.P,C1,1*%
%TO.N,BUTTON1*%
X94561000Y-106695000D03*
%TO.P,C1,2*%
%TO.N,Earth*%
X94561000Y-103745000D03*
%TD*%
D20*
%TO.P,LED1,1,K*%
%TO.N,Net-(LED1-K)*%
X99820000Y-92342500D03*
%TO.P,LED1,2,A*%
%TO.N,+3.3V*%
X99820000Y-89542500D03*
%TD*%
D10*
%TO.P,J5,1,Pin_1*%
%TO.N,Earth*%
X131560000Y-39256250D03*
D11*
%TO.P,J5,2,Pin_2*%
%TO.N,IO23*%
X131560000Y-41796250D03*
%TO.P,J5,3,Pin_3*%
%TO.N,IO22*%
X131560000Y-44336250D03*
%TO.P,J5,4,Pin_4*%
%TO.N,IO1*%
X131560000Y-46876250D03*
%TO.P,J5,5,Pin_5*%
%TO.N,IO3*%
X131560000Y-49416250D03*
%TO.P,J5,6,Pin_6*%
%TO.N,IO21*%
X131560000Y-51956250D03*
%TO.P,J5,7,Pin_7*%
%TO.N,Earth*%
X131560000Y-54496250D03*
%TO.P,J5,8,Pin_8*%
%TO.N,IO19*%
X131560000Y-57036250D03*
%TO.P,J5,9,Pin_9*%
%TO.N,CLK*%
X131560000Y-59576250D03*
%TO.P,J5,10,Pin_10*%
%TO.N,CS*%
X131560000Y-62116250D03*
%TO.P,J5,11,Pin_11*%
%TO.N,IO17*%
X131560000Y-64656250D03*
%TO.P,J5,12,Pin_12*%
%TO.N,IO16*%
X131560000Y-67196250D03*
%TO.P,J5,13,Pin_13*%
%TO.N,ADC2*%
X131560000Y-69736250D03*
%TO.P,J5,14,Pin_14*%
%TO.N,IO0*%
X131560000Y-72276250D03*
%TO.P,J5,15,Pin_15*%
%TO.N,Buzzer*%
X131560000Y-74816250D03*
%TO.P,J5,16,Pin_16*%
%TO.N,BUTTON1*%
X131560000Y-77356250D03*
%TO.P,J5,17,Pin_17*%
%TO.N,BUTTON2*%
X131560000Y-79896250D03*
%TO.P,J5,18,Pin_18*%
%TO.N,BUTTON3*%
X131560000Y-82436250D03*
%TO.P,J5,19,Pin_19*%
%TO.N,IO6*%
X131560000Y-84976250D03*
%TD*%
D10*
%TO.P,J12,1,Pin_1*%
%TO.N,IO10*%
X97190000Y-126950000D03*
D11*
%TO.P,J12,2,Pin_2*%
%TO.N,IO11*%
X94650000Y-126950000D03*
%TD*%
D10*
%TO.P,J8,1,Pin_1*%
%TO.N,+3.3V*%
X93830000Y-38270000D03*
D11*
%TO.P,J8,2,Pin_2*%
%TO.N,EN_ESP32*%
X93830000Y-40810000D03*
%TO.P,J8,3,Pin_3*%
%TO.N,ADC1*%
X93830000Y-43350000D03*
%TO.P,J8,4,Pin_4*%
%TO.N,IO39*%
X93830000Y-45890000D03*
%TO.P,J8,5,Pin_5*%
%TO.N,IO34*%
X93830000Y-48430000D03*
%TO.P,J8,6,Pin_6*%
%TO.N,IO35*%
X93830000Y-50970000D03*
%TO.P,J8,7,Pin_7*%
%TO.N,IO32*%
X93830000Y-53510000D03*
%TO.P,J8,8,Pin_8*%
%TO.N,IO33*%
X93830000Y-56050000D03*
%TO.P,J8,9,Pin_9*%
%TO.N,DAC_1*%
X93830000Y-58590000D03*
%TO.P,J8,10,Pin_10*%
%TO.N,DAC_2*%
X93830000Y-61130000D03*
%TO.P,J8,11,Pin_11*%
%TO.N,IO27*%
X93830000Y-63670000D03*
%TO.P,J8,12,Pin_12*%
%TO.N,IO14*%
X93830000Y-66210000D03*
%TO.P,J8,13,Pin_13*%
%TO.N,IO12*%
X93830000Y-68750000D03*
%TO.P,J8,14,Pin_14*%
%TO.N,Earth*%
X93830000Y-71290000D03*
%TO.P,J8,15,Pin_15*%
%TO.N,IO13*%
X93830000Y-73830000D03*
%TO.P,J8,16,Pin_16*%
%TO.N,IO9*%
X93830000Y-76370000D03*
%TO.P,J8,17,Pin_17*%
%TO.N,IO10*%
X93830000Y-78910000D03*
%TO.P,J8,18,Pin_18*%
%TO.N,IO11*%
X93830000Y-81450000D03*
%TO.P,J8,19,Pin_19*%
%TO.N,+5V*%
X93830000Y-83990000D03*
%TD*%
D10*
%TO.P,J1,1,Pin_1*%
%TO.N,+3.3V*%
X142570000Y-116970000D03*
D11*
%TO.P,J1,2,Pin_2*%
%TO.N,IO21*%
X142570000Y-114430000D03*
%TO.P,J1,3,Pin_3*%
%TO.N,IO22*%
X142570000Y-111890000D03*
%TO.P,J1,4,Pin_4*%
%TO.N,Earth*%
X142570000Y-109350000D03*
%TD*%
D21*
%TO.P,R4,1*%
%TO.N,Net-(LED1-K)*%
X99840000Y-95250000D03*
%TO.P,R4,2*%
%TO.N,Earth*%
X99840000Y-98175000D03*
%TD*%
D22*
%TO.P,BUZZER1,1,-*%
%TO.N,Net-(BUZZER1--)*%
X129990000Y-98650000D03*
D23*
%TO.P,BUZZER1,2,+*%
%TO.N,Earth*%
X129990000Y-106250000D03*
%TD*%
D24*
%TO.N,+3.3V*%
X105090000Y-101980000D03*
X110170000Y-101840000D03*
X128480000Y-118930000D03*
X125390000Y-119000000D03*
D25*
%TO.N,+5V*%
X117530000Y-86510000D03*
D24*
%TO.N,Buzzer*%
X126340000Y-76030000D03*
%TO.N,Earth*%
X141940000Y-38280000D03*
X128980000Y-114120000D03*
X94550000Y-102610000D03*
X99845000Y-99465000D03*
X127630000Y-106200000D03*
X133360000Y-54500000D03*
X101260000Y-102460000D03*
X119110000Y-114120000D03*
X133810000Y-39280000D03*
X142560000Y-107180000D03*
X105375000Y-99445000D03*
X107960000Y-102550000D03*
X141870000Y-53510000D03*
%TO.N,BUTTON3*%
X114790000Y-96690000D03*
%TO.N,BUTTON1*%
X112855000Y-93075000D03*
%TO.N,BUTTON2*%
X114310000Y-94710000D03*
%TO.N,IO19*%
X145789500Y-58180000D03*
%TO.N,CLK*%
X140300000Y-99800000D03*
%TO.N,IO17*%
X128290000Y-67940000D03*
%TO.N,IO16*%
X128400500Y-68860000D03*
%TO.N,ADC1*%
X111160000Y-76230000D03*
X111270000Y-68230000D03*
%TO.N,DAC_1*%
X109140000Y-73750000D03*
X109140000Y-66330000D03*
%TO.N,DAC_2*%
X107970000Y-65700000D03*
X107990000Y-73060000D03*
%TO.N,ADC2*%
X127234647Y-112375353D03*
X125715000Y-73865000D03*
X127200000Y-113780000D03*
%TD*%
D26*
%TO.N,IO10*%
X116030000Y-89826250D02*
X105760000Y-79556250D01*
X116030000Y-120131744D02*
X116030000Y-89826250D01*
X101720000Y-122630000D02*
X113531744Y-122630000D01*
X97220000Y-127130000D02*
X101720000Y-122630000D01*
X113531744Y-122630000D02*
X116030000Y-120131744D01*
%TO.N,DAC_1*%
X108080000Y-126950000D02*
X108110000Y-126980000D01*
X109140000Y-75460000D02*
X109140000Y-73750000D01*
X108110000Y-126980000D02*
X110860000Y-126980000D01*
X116782000Y-121058000D02*
X116782000Y-83102000D01*
X110860000Y-126980000D02*
X116782000Y-121058000D01*
X116782000Y-83102000D02*
X109140000Y-75460000D01*
%TO.N,DAC_2*%
X107990000Y-73060000D02*
X107990000Y-80159904D01*
X107990000Y-80159904D02*
X116406000Y-88575904D01*
X116406000Y-88575904D02*
X116406000Y-120287488D01*
X116406000Y-120287488D02*
X111513488Y-125180000D01*
X111513488Y-125180000D02*
X106790000Y-125180000D01*
X106790000Y-125180000D02*
X105540000Y-126430000D01*
D27*
%TO.N,ADC2*%
X127200000Y-113780000D02*
X127200000Y-122490000D01*
X131470000Y-126760000D02*
X131470000Y-127180000D01*
X127200000Y-122490000D02*
X131470000Y-126760000D01*
D26*
%TO.N,ADC1*%
X118634000Y-117724000D02*
X118634000Y-113922834D01*
X118640000Y-113916834D02*
X118640000Y-83710000D01*
X118634000Y-113922834D02*
X118640000Y-113916834D01*
X128930000Y-127180000D02*
X128090000Y-127180000D01*
X128090000Y-127180000D02*
X118634000Y-117724000D01*
X118640000Y-83710000D02*
X111160000Y-76230000D01*
%TO.N,IO17*%
X128290000Y-67940000D02*
X127280000Y-68950000D01*
X127280000Y-68950000D02*
X127280000Y-92330000D01*
X127280000Y-92330000D02*
X131266000Y-96316000D01*
X131266000Y-96316000D02*
X131266000Y-122756000D01*
X139590000Y-126960000D02*
X139600000Y-126950000D01*
X131266000Y-122756000D02*
X135470000Y-126960000D01*
X135470000Y-126960000D02*
X139590000Y-126960000D01*
%TO.N,IO16*%
X128160000Y-89847429D02*
X132875000Y-94562429D01*
X132875000Y-118045000D02*
X141780000Y-126950000D01*
X128400500Y-68860000D02*
X128160000Y-69100500D01*
X141780000Y-126950000D02*
X142140000Y-126950000D01*
X132875000Y-94562429D02*
X132875000Y-118045000D01*
X128160000Y-69100500D02*
X128160000Y-89847429D01*
D27*
%TO.N,Earth*%
X142570000Y-109350000D02*
X142570000Y-107190000D01*
X142570000Y-107190000D02*
X142560000Y-107180000D01*
D26*
%TO.N,IO11*%
X94680000Y-126830000D02*
X99440000Y-122070000D01*
X99440000Y-122070000D02*
X113560000Y-122070000D01*
X115520000Y-91856250D02*
X105760000Y-82096250D01*
X113560000Y-122070000D02*
X115520000Y-120110000D01*
X115520000Y-120110000D02*
X115520000Y-91856250D01*
D27*
%TO.N,IO21*%
X142570000Y-114430000D02*
X145220000Y-111780000D01*
X145220000Y-111780000D02*
X145220000Y-105810000D01*
X145220000Y-105810000D02*
X129300000Y-89890000D01*
X129300000Y-89890000D02*
X129300000Y-54216250D01*
X129300000Y-54216250D02*
X131560000Y-51956250D01*
%TO.N,IO22*%
X142570000Y-111890000D02*
X138860000Y-108180000D01*
X138860000Y-108180000D02*
X138860000Y-100015685D01*
X128900000Y-90055685D02*
X128900000Y-46996250D01*
X138860000Y-100015685D02*
X128900000Y-90055685D01*
X128900000Y-46996250D02*
X131560000Y-44336250D01*
%TO.N,Buzzer*%
X126340000Y-76030000D02*
X125840000Y-76530000D01*
X125840000Y-76530000D02*
X125840000Y-92110000D01*
%TO.N,Net-(BUZZER1--)*%
X125990000Y-94650000D02*
X129990000Y-98650000D01*
%TO.N,Earth*%
X129990000Y-106250000D02*
X129940000Y-106200000D01*
X129940000Y-106200000D02*
X127630000Y-106200000D01*
X119730000Y-124787500D02*
X120930000Y-124787500D01*
%TO.N,+3.3V*%
X105090000Y-101980000D02*
X104610000Y-102460000D01*
X104610000Y-102460000D02*
X104610000Y-103752500D01*
X104610000Y-103752500D02*
X104605000Y-103757500D01*
X111301000Y-103757500D02*
X111301000Y-102971000D01*
X111301000Y-102971000D02*
X110170000Y-101840000D01*
D28*
%TO.N,Earth*%
X117430000Y-127487500D02*
X119430000Y-127487500D01*
X119430000Y-127487500D02*
X121930000Y-127487500D01*
X117430000Y-127487500D02*
X115530000Y-127487500D01*
D26*
%TO.N,+3.3V*%
X125410000Y-117440000D02*
X125410000Y-118980000D01*
X125410000Y-118980000D02*
X125390000Y-119000000D01*
D27*
%TO.N,BUTTON3*%
X114265000Y-110405000D02*
X111301000Y-107441000D01*
X111301000Y-107441000D02*
X111301000Y-106682500D01*
%TO.N,BUTTON2*%
X105880000Y-110405000D02*
X105880000Y-107957500D01*
X105880000Y-107957500D02*
X104605000Y-106682500D01*
%TO.N,BUTTON1*%
X97495000Y-110405000D02*
X97495000Y-107096500D01*
X97495000Y-107096500D02*
X97909000Y-106682500D01*
D28*
%TO.N,+5V*%
X117130000Y-124787500D02*
X117130000Y-122020000D01*
X117130000Y-122020000D02*
X117640000Y-121510000D01*
X117640000Y-121510000D02*
X117640000Y-86620000D01*
X117640000Y-86620000D02*
X117530000Y-86510000D01*
D27*
%TO.N,BUTTON1*%
X99370000Y-105066315D02*
X97909000Y-106527315D01*
X112855000Y-93075000D02*
X105070000Y-100860000D01*
X105070000Y-100860000D02*
X100810000Y-100860000D01*
X99370000Y-102300000D02*
X99370000Y-105066315D01*
X100810000Y-100860000D02*
X99370000Y-102300000D01*
X97909000Y-106527315D02*
X97909000Y-106682500D01*
%TO.N,BUTTON2*%
X114310000Y-94710000D02*
X114310000Y-94770000D01*
X114310000Y-94770000D02*
X106160000Y-102920000D01*
X106160000Y-102920000D02*
X106160000Y-104972314D01*
X106160000Y-104972314D02*
X104605000Y-106527314D01*
X104605000Y-106527314D02*
X104605000Y-106682500D01*
%TO.N,BUTTON3*%
X114790000Y-96690000D02*
X114790000Y-103193500D01*
X114790000Y-103193500D02*
X111301000Y-106682500D01*
%TO.N,Buzzer*%
X142663750Y-74816250D02*
X143650000Y-73830000D01*
X131560000Y-74816250D02*
X142663750Y-74816250D01*
%TO.N,Earth*%
X143650000Y-53510000D02*
X141870000Y-53510000D01*
X131560000Y-54496250D02*
X133356250Y-54496250D01*
X94561000Y-103745000D02*
X94561000Y-102621000D01*
X133786250Y-39256250D02*
X133810000Y-39280000D01*
X92995000Y-118355000D02*
X92995000Y-110405000D01*
X101257000Y-103745000D02*
X101257000Y-102463000D01*
X143650000Y-38270000D02*
X141950000Y-38270000D01*
X93830000Y-71290000D02*
X105113750Y-71290000D01*
X107953000Y-102557000D02*
X107960000Y-102550000D01*
X119130000Y-114140000D02*
X119110000Y-114120000D01*
X99840000Y-99460000D02*
X99845000Y-99465000D01*
X106690000Y-105008000D02*
X107953000Y-103745000D01*
X99900000Y-108925000D02*
X99900000Y-105102000D01*
X99840000Y-98175000D02*
X99840000Y-99460000D01*
X94561000Y-102621000D02*
X94550000Y-102610000D01*
X106690000Y-107330000D02*
X106690000Y-105008000D01*
X133356250Y-54496250D02*
X133360000Y-54500000D01*
X109765000Y-118355000D02*
X109765000Y-110405000D01*
X131560000Y-39256250D02*
X133786250Y-39256250D01*
X101257000Y-102463000D02*
X101260000Y-102460000D01*
X129000000Y-114140000D02*
X128980000Y-114120000D01*
X107953000Y-103745000D02*
X107953000Y-102557000D01*
X101380000Y-110405000D02*
X99900000Y-108925000D01*
X99900000Y-105102000D02*
X101257000Y-103745000D01*
X109765000Y-110405000D02*
X106690000Y-107330000D01*
X92995000Y-110405000D02*
X92995000Y-105311000D01*
X101380000Y-118355000D02*
X101380000Y-110405000D01*
X105350000Y-99420000D02*
X105375000Y-99445000D01*
X105350000Y-98205000D02*
X105350000Y-99420000D01*
X141950000Y-38270000D02*
X141940000Y-38280000D01*
X130240000Y-114140000D02*
X129000000Y-114140000D01*
X105113750Y-71290000D02*
X105760000Y-71936250D01*
X92995000Y-105311000D02*
X94561000Y-103745000D01*
X120510000Y-114140000D02*
X119130000Y-114140000D01*
%TO.N,BUTTON3*%
X131560000Y-82436250D02*
X142663750Y-82436250D01*
X107953000Y-106695000D02*
X111288500Y-106695000D01*
X114265000Y-118355000D02*
X114265000Y-110405000D01*
X142663750Y-82436250D02*
X143650000Y-81450000D01*
%TO.N,BUTTON1*%
X97495000Y-118355000D02*
X97495000Y-110405000D01*
X97896500Y-106682500D02*
X97909000Y-106695000D01*
X142663750Y-77356250D02*
X143650000Y-76370000D01*
X97896500Y-106695000D02*
X97909000Y-106682500D01*
X131560000Y-77356250D02*
X142663750Y-77356250D01*
X94561000Y-106695000D02*
X97896500Y-106695000D01*
%TO.N,BUTTON2*%
X104592500Y-106682500D02*
X104605000Y-106695000D01*
X131560000Y-79896250D02*
X142663750Y-79896250D01*
X104592500Y-106695000D02*
X104605000Y-106682500D01*
X142663750Y-79896250D02*
X143650000Y-78910000D01*
X105880000Y-118355000D02*
X105880000Y-110405000D01*
X101257000Y-106695000D02*
X104592500Y-106695000D01*
%TO.N,IO32*%
X105113750Y-53510000D02*
X105760000Y-54156250D01*
X93830000Y-53510000D02*
X105113750Y-53510000D01*
%TO.N,IO33*%
X91680000Y-86140000D02*
X91680000Y-58110000D01*
X93400000Y-87860000D02*
X91680000Y-86140000D01*
X103577500Y-87860000D02*
X93400000Y-87860000D01*
X91680000Y-58110000D02*
X91770000Y-58110000D01*
X93830000Y-56050000D02*
X105113750Y-56050000D01*
X105113750Y-56050000D02*
X105760000Y-56696250D01*
X91770000Y-58110000D02*
X93830000Y-56050000D01*
X105320000Y-89602500D02*
X103577500Y-87860000D01*
%TO.N,+3.3V*%
X104605000Y-103745000D02*
X104555000Y-103745000D01*
X97909000Y-103745000D02*
X97885000Y-103745000D01*
X111301000Y-103745000D02*
X111045000Y-103745000D01*
%TO.N,IO21*%
X131560000Y-51956250D02*
X142663750Y-51956250D01*
X142663750Y-51956250D02*
X143650000Y-50970000D01*
%TO.N,IO22*%
X131560000Y-44336250D02*
X142663750Y-44336250D01*
X142663750Y-44336250D02*
X143650000Y-43350000D01*
%TO.N,IO23*%
X142663750Y-41796250D02*
X143650000Y-40810000D01*
X145289500Y-42449500D02*
X145289500Y-91260500D01*
X143650000Y-40810000D02*
X145289500Y-42449500D01*
X145289500Y-91260500D02*
X142760000Y-93790000D01*
X131560000Y-41796250D02*
X142663750Y-41796250D01*
D26*
%TO.N,IO19*%
X145710000Y-58259500D02*
X145710000Y-93380000D01*
X145710000Y-93380000D02*
X142760000Y-96330000D01*
D27*
X131560000Y-57036250D02*
X142663750Y-57036250D01*
X142663750Y-57036250D02*
X143650000Y-56050000D01*
D26*
X145789500Y-58180000D02*
X145710000Y-58259500D01*
D27*
%TO.N,CLK*%
X142663750Y-59576250D02*
X143650000Y-58590000D01*
X129910000Y-61226250D02*
X129910000Y-89410000D01*
X131560000Y-59576250D02*
X142663750Y-59576250D01*
X131560000Y-59576250D02*
X129910000Y-61226250D01*
X129910000Y-89410000D02*
X140300000Y-99800000D01*
%TO.N,CS*%
X142663750Y-62116250D02*
X143650000Y-61130000D01*
X130310000Y-63366250D02*
X130310000Y-88960000D01*
X131560000Y-62116250D02*
X130310000Y-63366250D01*
X131560000Y-62116250D02*
X142663750Y-62116250D01*
X130310000Y-88960000D02*
X142760000Y-101410000D01*
%TO.N,IO17*%
X131560000Y-64656250D02*
X142663750Y-64656250D01*
X142663750Y-64656250D02*
X143650000Y-63670000D01*
%TO.N,IO16*%
X142663750Y-67196250D02*
X143650000Y-66210000D01*
X131560000Y-67196250D02*
X142663750Y-67196250D01*
%TO.N,EN_ESP32*%
X105113750Y-40810000D02*
X105760000Y-41456250D01*
X93830000Y-40810000D02*
X105113750Y-40810000D01*
%TO.N,ADC1*%
X105113750Y-43350000D02*
X105760000Y-43996250D01*
X93830000Y-43350000D02*
X105113750Y-43350000D01*
D26*
X111270000Y-68230000D02*
X111270000Y-49506250D01*
X111270000Y-49506250D02*
X105760000Y-43996250D01*
D27*
%TO.N,IO39*%
X105113750Y-45890000D02*
X105760000Y-46536250D01*
X93830000Y-45890000D02*
X105113750Y-45890000D01*
%TO.N,IO34*%
X93830000Y-48430000D02*
X105113750Y-48430000D01*
X105113750Y-48430000D02*
X105760000Y-49076250D01*
%TO.N,IO35*%
X105113750Y-50970000D02*
X105760000Y-51616250D01*
X93830000Y-50970000D02*
X105113750Y-50970000D01*
D26*
%TO.N,DAC_1*%
X109140000Y-62616250D02*
X105760000Y-59236250D01*
D27*
X105113750Y-58590000D02*
X105760000Y-59236250D01*
X93830000Y-58590000D02*
X105113750Y-58590000D01*
D26*
X109140000Y-66330000D02*
X109140000Y-62616250D01*
D27*
%TO.N,DAC_2*%
X105113750Y-61130000D02*
X105760000Y-61776250D01*
X105760000Y-61776250D02*
X107970000Y-63986250D01*
X107970000Y-63986250D02*
X107970000Y-65700000D01*
X93830000Y-61130000D02*
X105113750Y-61130000D01*
D26*
%TO.N,IO27*%
X130240000Y-116053166D02*
X120320000Y-106133166D01*
X130240000Y-117440000D02*
X130240000Y-116053166D01*
D27*
X93830000Y-63670000D02*
X105113750Y-63670000D01*
D26*
X120320000Y-106133166D02*
X120320000Y-78876250D01*
X120320000Y-78876250D02*
X105760000Y-64316250D01*
D27*
X105113750Y-63670000D02*
X105760000Y-64316250D01*
%TO.N,IO14*%
X105113750Y-66210000D02*
X105760000Y-66856250D01*
X93830000Y-66210000D02*
X105113750Y-66210000D01*
%TO.N,IO12*%
X105113750Y-68750000D02*
X105760000Y-69396250D01*
D26*
X120510000Y-117440000D02*
X122366583Y-115583417D01*
X119968000Y-110688000D02*
X119968000Y-83604250D01*
D27*
X93830000Y-68750000D02*
X105113750Y-68750000D01*
D26*
X119968000Y-83604250D02*
X105760000Y-69396250D01*
X122366583Y-113086583D02*
X119968000Y-110688000D01*
X122366583Y-115583417D02*
X122366583Y-113086583D01*
D27*
%TO.N,IO13*%
X93830000Y-73830000D02*
X105113750Y-73830000D01*
X105113750Y-73830000D02*
X105760000Y-74476250D01*
%TO.N,IO9*%
X105113750Y-76370000D02*
X105760000Y-77016250D01*
X93830000Y-76370000D02*
X105113750Y-76370000D01*
%TO.N,IO10*%
X105113750Y-78910000D02*
X105760000Y-79556250D01*
X93830000Y-78910000D02*
X105113750Y-78910000D01*
%TO.N,IO11*%
X93830000Y-81450000D02*
X105113750Y-81450000D01*
X105113750Y-81450000D02*
X105760000Y-82096250D01*
%TO.N,+5V*%
X93830000Y-83990000D02*
X105113750Y-83990000D01*
X105113750Y-83990000D02*
X105760000Y-84636250D01*
%TO.N,IO1*%
X131560000Y-46876250D02*
X142663750Y-46876250D01*
X142663750Y-46876250D02*
X143650000Y-45890000D01*
%TO.N,IO3*%
X131560000Y-49416250D02*
X142663750Y-49416250D01*
X142663750Y-49416250D02*
X143650000Y-48430000D01*
%TO.N,ADC2*%
X120870000Y-78710000D02*
X120870000Y-105160000D01*
X125715000Y-73865000D02*
X120870000Y-78710000D01*
X127234647Y-111524647D02*
X127234647Y-112375353D01*
X131560000Y-69736250D02*
X142663750Y-69736250D01*
X142663750Y-69736250D02*
X143650000Y-68750000D01*
X120870000Y-105160000D02*
X127234647Y-111524647D01*
%TO.N,IO0*%
X131560000Y-72276250D02*
X142663750Y-72276250D01*
X142663750Y-72276250D02*
X143650000Y-71290000D01*
%TO.N,IO6*%
X142663750Y-84976250D02*
X143650000Y-83990000D01*
X131560000Y-84976250D02*
X142663750Y-84976250D01*
%TO.N,Net-(LED2-K)*%
X105320000Y-95250000D02*
X105350000Y-95280000D01*
X105320000Y-92402500D02*
X105320000Y-95250000D01*
%TO.N,Net-(LED1-K)*%
X99820000Y-92342500D02*
X99820000Y-95230000D01*
X99820000Y-95230000D02*
X99840000Y-95250000D01*
%TD*%
%TA.AperFunction,Conductor*%
%TO.N,+3.3V*%
G36*
X146272539Y-34090185D02*
G01*
X146318294Y-34142989D01*
X146329500Y-34194500D01*
X146329500Y-57467175D01*
X146309815Y-57534214D01*
X146257011Y-57579969D01*
X146187853Y-57589913D01*
X146147874Y-57576971D01*
X146039726Y-57520210D01*
X145984325Y-57506555D01*
X145923944Y-57471399D01*
X145892156Y-57409179D01*
X145890000Y-57386158D01*
X145890000Y-42492928D01*
X145890531Y-42484826D01*
X145895182Y-42449499D01*
X145895182Y-42449498D01*
X145874544Y-42292739D01*
X145874544Y-42292738D01*
X145814036Y-42146659D01*
X145814035Y-42146658D01*
X145814035Y-42146657D01*
X145777536Y-42099091D01*
X145717782Y-42021218D01*
X145689505Y-41999520D01*
X145683404Y-41994169D01*
X144982766Y-41293531D01*
X144949281Y-41232208D01*
X144950672Y-41173757D01*
X144951863Y-41169309D01*
X144985063Y-41045408D01*
X145005659Y-40810000D01*
X144985063Y-40574592D01*
X144924504Y-40348581D01*
X144923905Y-40346344D01*
X144923904Y-40346343D01*
X144923903Y-40346337D01*
X144824035Y-40132171D01*
X144824034Y-40132169D01*
X144688496Y-39938600D01*
X144663607Y-39913711D01*
X144566567Y-39816671D01*
X144533084Y-39755351D01*
X144538068Y-39685659D01*
X144579939Y-39629725D01*
X144610915Y-39612810D01*
X144742331Y-39563796D01*
X144857546Y-39477546D01*
X144943796Y-39362331D01*
X144994091Y-39227483D01*
X145000500Y-39167873D01*
X145000499Y-37372128D01*
X144994091Y-37312517D01*
X144943884Y-37177906D01*
X144943797Y-37177671D01*
X144943793Y-37177664D01*
X144857547Y-37062455D01*
X144857544Y-37062452D01*
X144742335Y-36976206D01*
X144742328Y-36976202D01*
X144607482Y-36925908D01*
X144607483Y-36925908D01*
X144547883Y-36919501D01*
X144547881Y-36919500D01*
X144547873Y-36919500D01*
X144547864Y-36919500D01*
X142752129Y-36919500D01*
X142752123Y-36919501D01*
X142692516Y-36925908D01*
X142557671Y-36976202D01*
X142557664Y-36976206D01*
X142442455Y-37062452D01*
X142442452Y-37062455D01*
X142356206Y-37177664D01*
X142356202Y-37177671D01*
X142305908Y-37312517D01*
X142299501Y-37372116D01*
X142299501Y-37372123D01*
X142299500Y-37372135D01*
X142299500Y-37488869D01*
X142279815Y-37555908D01*
X142227011Y-37601663D01*
X142157853Y-37611607D01*
X142145826Y-37609266D01*
X142025057Y-37579500D01*
X142025056Y-37579500D01*
X141854944Y-37579500D01*
X141689773Y-37620210D01*
X141539150Y-37699263D01*
X141411816Y-37812072D01*
X141315182Y-37952068D01*
X141254860Y-38111125D01*
X141254859Y-38111130D01*
X141234355Y-38280000D01*
X141254859Y-38448869D01*
X141254860Y-38448874D01*
X141315182Y-38607931D01*
X141375249Y-38694952D01*
X141411817Y-38747929D01*
X141484219Y-38812071D01*
X141539150Y-38860736D01*
X141689773Y-38939789D01*
X141689775Y-38939790D01*
X141854944Y-38980500D01*
X142025056Y-38980500D01*
X142145826Y-38950733D01*
X142215627Y-38953802D01*
X142272689Y-38994122D01*
X142298895Y-39058891D01*
X142299500Y-39071129D01*
X142299500Y-39167869D01*
X142299501Y-39167876D01*
X142305908Y-39227483D01*
X142356202Y-39362328D01*
X142356206Y-39362335D01*
X142442452Y-39477544D01*
X142442455Y-39477547D01*
X142557664Y-39563793D01*
X142557671Y-39563797D01*
X142689081Y-39612810D01*
X142745015Y-39654681D01*
X142769432Y-39720145D01*
X142754580Y-39788418D01*
X142733430Y-39816673D01*
X142611503Y-39938600D01*
X142475965Y-40132169D01*
X142475964Y-40132171D01*
X142376098Y-40346335D01*
X142376094Y-40346344D01*
X142314938Y-40574586D01*
X142314936Y-40574596D01*
X142294341Y-40809999D01*
X142294341Y-40810000D01*
X142314937Y-41045412D01*
X142315785Y-41050219D01*
X142308040Y-41119658D01*
X142263983Y-41173887D01*
X142197602Y-41195688D01*
X142193669Y-41195750D01*
X132849091Y-41195750D01*
X132782052Y-41176065D01*
X132736711Y-41124159D01*
X132734037Y-41118425D01*
X132734034Y-41118420D01*
X132734033Y-41118419D01*
X132645930Y-40992594D01*
X132598496Y-40924850D01*
X132598495Y-40924849D01*
X132476567Y-40802921D01*
X132443084Y-40741601D01*
X132448068Y-40671909D01*
X132489939Y-40615975D01*
X132520915Y-40599060D01*
X132652331Y-40550046D01*
X132767546Y-40463796D01*
X132853796Y-40348581D01*
X132904091Y-40213733D01*
X132910500Y-40154123D01*
X132910500Y-39980749D01*
X132930185Y-39913711D01*
X132982989Y-39867956D01*
X133034500Y-39856750D01*
X133370993Y-39856750D01*
X133428619Y-39870954D01*
X133510086Y-39913711D01*
X133559775Y-39939790D01*
X133724944Y-39980500D01*
X133895056Y-39980500D01*
X134060225Y-39939790D01*
X134186283Y-39873629D01*
X134210849Y-39860736D01*
X134210850Y-39860734D01*
X134210852Y-39860734D01*
X134338183Y-39747929D01*
X134434818Y-39607930D01*
X134495140Y-39448872D01*
X134515645Y-39280000D01*
X134495140Y-39111128D01*
X134434818Y-38952070D01*
X134338183Y-38812071D01*
X134243316Y-38728026D01*
X134210849Y-38699263D01*
X134060226Y-38620210D01*
X133895056Y-38579500D01*
X133724944Y-38579500D01*
X133559775Y-38620209D01*
X133531804Y-38634890D01*
X133519122Y-38641546D01*
X133461497Y-38655750D01*
X133034499Y-38655750D01*
X132967460Y-38636065D01*
X132921705Y-38583261D01*
X132910499Y-38531750D01*
X132910499Y-38358379D01*
X132910498Y-38358373D01*
X132910497Y-38358366D01*
X132904091Y-38298767D01*
X132897091Y-38280000D01*
X132853797Y-38163921D01*
X132853793Y-38163914D01*
X132767547Y-38048705D01*
X132767544Y-38048702D01*
X132652335Y-37962456D01*
X132652328Y-37962452D01*
X132517482Y-37912158D01*
X132517483Y-37912158D01*
X132457883Y-37905751D01*
X132457881Y-37905750D01*
X132457873Y-37905750D01*
X132457864Y-37905750D01*
X130662129Y-37905750D01*
X130662123Y-37905751D01*
X130602516Y-37912158D01*
X130467671Y-37962452D01*
X130467664Y-37962456D01*
X130352455Y-38048702D01*
X130352452Y-38048705D01*
X130266206Y-38163914D01*
X130266202Y-38163921D01*
X130215908Y-38298767D01*
X130209501Y-38358366D01*
X130209501Y-38358373D01*
X130209500Y-38358385D01*
X130209500Y-40154120D01*
X130209501Y-40154126D01*
X130215908Y-40213733D01*
X130266202Y-40348578D01*
X130266206Y-40348585D01*
X130352452Y-40463794D01*
X130352455Y-40463797D01*
X130467664Y-40550043D01*
X130467671Y-40550047D01*
X130599081Y-40599060D01*
X130655015Y-40640931D01*
X130679432Y-40706395D01*
X130664580Y-40774668D01*
X130643430Y-40802923D01*
X130521503Y-40924850D01*
X130385965Y-41118419D01*
X130385964Y-41118421D01*
X130286098Y-41332585D01*
X130286094Y-41332594D01*
X130224938Y-41560836D01*
X130224936Y-41560846D01*
X130204341Y-41796249D01*
X130204341Y-41796250D01*
X130224936Y-42031653D01*
X130224938Y-42031663D01*
X130286094Y-42259905D01*
X130286096Y-42259909D01*
X130286097Y-42259913D01*
X130350595Y-42398229D01*
X130385965Y-42474080D01*
X130385967Y-42474084D01*
X130521501Y-42667645D01*
X130521506Y-42667652D01*
X130688597Y-42834743D01*
X130688603Y-42834748D01*
X130874158Y-42964675D01*
X130917783Y-43019252D01*
X130924977Y-43088750D01*
X130893454Y-43151105D01*
X130874158Y-43167825D01*
X130688597Y-43297755D01*
X130521505Y-43464847D01*
X130385965Y-43658419D01*
X130385964Y-43658421D01*
X130286098Y-43872585D01*
X130286094Y-43872594D01*
X130224938Y-44100836D01*
X130224936Y-44100846D01*
X130204341Y-44336249D01*
X130204341Y-44336250D01*
X130224936Y-44571653D01*
X130224938Y-44571663D01*
X130259327Y-44700006D01*
X130257664Y-44769856D01*
X130227233Y-44819780D01*
X128506096Y-46540918D01*
X128499993Y-46546270D01*
X128471718Y-46567967D01*
X128447549Y-46599463D01*
X128447550Y-46599464D01*
X128375464Y-46693408D01*
X128375461Y-46693413D01*
X128314957Y-46839484D01*
X128314955Y-46839489D01*
X128294693Y-46993398D01*
X128294318Y-46996250D01*
X128294800Y-46999914D01*
X128298969Y-47031576D01*
X128299500Y-47039678D01*
X128299500Y-67119046D01*
X128279815Y-67186085D01*
X128227011Y-67231840D01*
X128205175Y-67239443D01*
X128039773Y-67280210D01*
X127889150Y-67359263D01*
X127761816Y-67472072D01*
X127665182Y-67612068D01*
X127665182Y-67612069D01*
X127604861Y-67771122D01*
X127604859Y-67771131D01*
X127604666Y-67772725D01*
X127604200Y-67773807D01*
X127603067Y-67778405D01*
X127602302Y-67778216D01*
X127577040Y-67836902D01*
X127569252Y-67845452D01*
X126901954Y-68512750D01*
X126895853Y-68518102D01*
X126868835Y-68538834D01*
X126798690Y-68630248D01*
X126776287Y-68659443D01*
X126775646Y-68661148D01*
X126718339Y-68799499D01*
X126718337Y-68799504D01*
X126703500Y-68912211D01*
X126698525Y-68949999D01*
X126702969Y-68983754D01*
X126703500Y-68991856D01*
X126703500Y-75239855D01*
X126683815Y-75306894D01*
X126631011Y-75352649D01*
X126561853Y-75362593D01*
X126549826Y-75360252D01*
X126425057Y-75329500D01*
X126425056Y-75329500D01*
X126254944Y-75329500D01*
X126089773Y-75370210D01*
X125939150Y-75449263D01*
X125811816Y-75562072D01*
X125715182Y-75702068D01*
X125715182Y-75702069D01*
X125661380Y-75843934D01*
X125633119Y-75887644D01*
X125446096Y-76074668D01*
X125439993Y-76080020D01*
X125411718Y-76101717D01*
X125387549Y-76133213D01*
X125387550Y-76133214D01*
X125315464Y-76227158D01*
X125315461Y-76227163D01*
X125254957Y-76373234D01*
X125254955Y-76373239D01*
X125240262Y-76484847D01*
X125234318Y-76530000D01*
X125237291Y-76552585D01*
X125238969Y-76565326D01*
X125239500Y-76573428D01*
X125239500Y-90635500D01*
X125219815Y-90702539D01*
X125167011Y-90748294D01*
X125115501Y-90759500D01*
X124942130Y-90759500D01*
X124942123Y-90759501D01*
X124882516Y-90765908D01*
X124747671Y-90816202D01*
X124747664Y-90816206D01*
X124632455Y-90902452D01*
X124632452Y-90902455D01*
X124546206Y-91017664D01*
X124546202Y-91017671D01*
X124495908Y-91152517D01*
X124489501Y-91212116D01*
X124489500Y-91212135D01*
X124489500Y-93007870D01*
X124489501Y-93007876D01*
X124495908Y-93067483D01*
X124546202Y-93202328D01*
X124546206Y-93202335D01*
X124632452Y-93317544D01*
X124632455Y-93317547D01*
X124747664Y-93403793D01*
X124747671Y-93403797D01*
X124879081Y-93452810D01*
X124935015Y-93494681D01*
X124959432Y-93560145D01*
X124944580Y-93628418D01*
X124923430Y-93656673D01*
X124801503Y-93778600D01*
X124665965Y-93972169D01*
X124665964Y-93972171D01*
X124566098Y-94186335D01*
X124566094Y-94186344D01*
X124504938Y-94414586D01*
X124504936Y-94414596D01*
X124484341Y-94649999D01*
X124484341Y-94650000D01*
X124504936Y-94885403D01*
X124504938Y-94885413D01*
X124566094Y-95113655D01*
X124566096Y-95113659D01*
X124566097Y-95113663D01*
X124656913Y-95308418D01*
X124665965Y-95327830D01*
X124665967Y-95327834D01*
X124757531Y-95458600D01*
X124801505Y-95521401D01*
X124968599Y-95688495D01*
X125064693Y-95755781D01*
X125162165Y-95824032D01*
X125162167Y-95824033D01*
X125162170Y-95824035D01*
X125376337Y-95923903D01*
X125376343Y-95923904D01*
X125376344Y-95923905D01*
X125418028Y-95935074D01*
X125604592Y-95985063D01*
X125792918Y-96001539D01*
X125839999Y-96005659D01*
X125840000Y-96005659D01*
X125840001Y-96005659D01*
X125879234Y-96002226D01*
X126075408Y-95985063D01*
X126303663Y-95923903D01*
X126303666Y-95923901D01*
X126308749Y-95922052D01*
X126309445Y-95923965D01*
X126369746Y-95914803D01*
X126433531Y-95943318D01*
X126440762Y-95949997D01*
X128453181Y-97962416D01*
X128486666Y-98023739D01*
X128489500Y-98050097D01*
X128489500Y-99697870D01*
X128489501Y-99697876D01*
X128495908Y-99757483D01*
X128546202Y-99892328D01*
X128546206Y-99892335D01*
X128632452Y-100007544D01*
X128632455Y-100007547D01*
X128747664Y-100093793D01*
X128747671Y-100093797D01*
X128882517Y-100144091D01*
X128882516Y-100144091D01*
X128889444Y-100144835D01*
X128942127Y-100150500D01*
X130565500Y-100150499D01*
X130632539Y-100170184D01*
X130678294Y-100222987D01*
X130689500Y-100274499D01*
X130689499Y-104730006D01*
X130669814Y-104797045D01*
X130617010Y-104842800D01*
X130547852Y-104852744D01*
X130525236Y-104847287D01*
X130359616Y-104790429D01*
X130114335Y-104749500D01*
X129865665Y-104749500D01*
X129620383Y-104790429D01*
X129385197Y-104871169D01*
X129385188Y-104871172D01*
X129166493Y-104989524D01*
X128970257Y-105142261D01*
X128801833Y-105325217D01*
X128665826Y-105533393D01*
X128665214Y-105534525D01*
X128664842Y-105534898D01*
X128663022Y-105537686D01*
X128662448Y-105537311D01*
X128615991Y-105584112D01*
X128556163Y-105599500D01*
X128023754Y-105599500D01*
X127966128Y-105585296D01*
X127917426Y-105559735D01*
X127880224Y-105540209D01*
X127715056Y-105499500D01*
X127544944Y-105499500D01*
X127379773Y-105540210D01*
X127229150Y-105619263D01*
X127101816Y-105732072D01*
X127005182Y-105872068D01*
X126944860Y-106031125D01*
X126944859Y-106031130D01*
X126924355Y-106199999D01*
X126944859Y-106368869D01*
X126944860Y-106368874D01*
X127005182Y-106527931D01*
X127054420Y-106599263D01*
X127101817Y-106667929D01*
X127207505Y-106761560D01*
X127229150Y-106780736D01*
X127365062Y-106852068D01*
X127379775Y-106859790D01*
X127544944Y-106900500D01*
X127715056Y-106900500D01*
X127880225Y-106859790D01*
X127966128Y-106814703D01*
X128023754Y-106800500D01*
X128511952Y-106800500D01*
X128578991Y-106820185D01*
X128624746Y-106872989D01*
X128625508Y-106874690D01*
X128665826Y-106966606D01*
X128801833Y-107174782D01*
X128801836Y-107174785D01*
X128970256Y-107357738D01*
X129166491Y-107510474D01*
X129253659Y-107557647D01*
X129355406Y-107612710D01*
X129385190Y-107628828D01*
X129533701Y-107679812D01*
X129609232Y-107705742D01*
X129620386Y-107709571D01*
X129865665Y-107750500D01*
X130114335Y-107750500D01*
X130359614Y-107709571D01*
X130370767Y-107705742D01*
X130525238Y-107652711D01*
X130595034Y-107649562D01*
X130655455Y-107684648D01*
X130687316Y-107746830D01*
X130689499Y-107769993D01*
X130689499Y-113065500D01*
X130669814Y-113132539D01*
X130617010Y-113178294D01*
X130565499Y-113189500D01*
X129442129Y-113189500D01*
X129442123Y-113189501D01*
X129382516Y-113195908D01*
X129247671Y-113246202D01*
X129247664Y-113246206D01*
X129132457Y-113332451D01*
X129132450Y-113332457D01*
X129104487Y-113369812D01*
X129048553Y-113411682D01*
X129005221Y-113419500D01*
X128894944Y-113419500D01*
X128729773Y-113460210D01*
X128635178Y-113509858D01*
X128566669Y-113523584D01*
X128501616Y-113498091D01*
X128489871Y-113487743D01*
X127869626Y-112867498D01*
X127836141Y-112806175D01*
X127841125Y-112736483D01*
X127855255Y-112709381D01*
X127859465Y-112703283D01*
X127919787Y-112544225D01*
X127940292Y-112375353D01*
X127919787Y-112206481D01*
X127859465Y-112047423D01*
X127857099Y-112043995D01*
X127856140Y-112041087D01*
X127855978Y-112040779D01*
X127856029Y-112040752D01*
X127835214Y-111977645D01*
X127835146Y-111973607D01*
X127835146Y-111568077D01*
X127835677Y-111559975D01*
X127838630Y-111537546D01*
X127840329Y-111524647D01*
X127819691Y-111367885D01*
X127759183Y-111221806D01*
X127751790Y-111212171D01*
X127662929Y-111096365D01*
X127634652Y-111074667D01*
X127628551Y-111069316D01*
X121506819Y-104947583D01*
X121473334Y-104886260D01*
X121470500Y-104859902D01*
X121470500Y-79010096D01*
X121490185Y-78943057D01*
X121506814Y-78922420D01*
X125860122Y-74569111D01*
X125918124Y-74536398D01*
X125965225Y-74524790D01*
X126115852Y-74445734D01*
X126243183Y-74332929D01*
X126339818Y-74192930D01*
X126400140Y-74033872D01*
X126420645Y-73865000D01*
X126400140Y-73696128D01*
X126339818Y-73537070D01*
X126330622Y-73523748D01*
X126271265Y-73437755D01*
X126243183Y-73397071D01*
X126115852Y-73284266D01*
X126115849Y-73284263D01*
X125965226Y-73205210D01*
X125800056Y-73164500D01*
X125629944Y-73164500D01*
X125464773Y-73205210D01*
X125314150Y-73284263D01*
X125186816Y-73397072D01*
X125090182Y-73537068D01*
X125090182Y-73537069D01*
X125036380Y-73678934D01*
X125008119Y-73722644D01*
X120582585Y-78148179D01*
X120521262Y-78181664D01*
X120451570Y-78176680D01*
X120407223Y-78148179D01*
X111377735Y-69118691D01*
X111344250Y-69057368D01*
X111349234Y-68987676D01*
X111391106Y-68931743D01*
X111435742Y-68910613D01*
X111520225Y-68889790D01*
X111670849Y-68810736D01*
X111670850Y-68810734D01*
X111670852Y-68810734D01*
X111798183Y-68697929D01*
X111894818Y-68557930D01*
X111955140Y-68398872D01*
X111975645Y-68230000D01*
X111955140Y-68061128D01*
X111894818Y-67902070D01*
X111868449Y-67863868D01*
X111846566Y-67797516D01*
X111846499Y-67793489D01*
X111846499Y-49548107D01*
X111847030Y-49540005D01*
X111847900Y-49533398D01*
X111851475Y-49506250D01*
X111841502Y-49430500D01*
X111831662Y-49355753D01*
X111793642Y-49263965D01*
X111773573Y-49215513D01*
X111704368Y-49125324D01*
X111681165Y-49095085D01*
X111656619Y-49076250D01*
X111654151Y-49074356D01*
X111648055Y-49069011D01*
X107085592Y-44506549D01*
X107052108Y-44445226D01*
X107053498Y-44386779D01*
X107095063Y-44231658D01*
X107115659Y-43996250D01*
X107095063Y-43760842D01*
X107033903Y-43532587D01*
X106934035Y-43318421D01*
X106919566Y-43297756D01*
X106798494Y-43124847D01*
X106631402Y-42957756D01*
X106631396Y-42957751D01*
X106445842Y-42827825D01*
X106402217Y-42773248D01*
X106395023Y-42703750D01*
X106426546Y-42641395D01*
X106445842Y-42624675D01*
X106511784Y-42578502D01*
X106631401Y-42494745D01*
X106798495Y-42327651D01*
X106934035Y-42134080D01*
X107033903Y-41919913D01*
X107095063Y-41691658D01*
X107115659Y-41456250D01*
X107095063Y-41220842D01*
X107033903Y-40992587D01*
X106934035Y-40778421D01*
X106931407Y-40774668D01*
X106798496Y-40584850D01*
X106763689Y-40550043D01*
X106676179Y-40462533D01*
X106642696Y-40401213D01*
X106647680Y-40331521D01*
X106689551Y-40275587D01*
X106720529Y-40258672D01*
X106852086Y-40209604D01*
X106852093Y-40209600D01*
X106967187Y-40123440D01*
X106967190Y-40123437D01*
X107053350Y-40008343D01*
X107053354Y-40008336D01*
X107103596Y-39873629D01*
X107103598Y-39873622D01*
X107109999Y-39814094D01*
X107110000Y-39814077D01*
X107110000Y-39166250D01*
X106193686Y-39166250D01*
X106219493Y-39126094D01*
X106260000Y-38988139D01*
X106260000Y-38844361D01*
X106219493Y-38706406D01*
X106193686Y-38666250D01*
X107110000Y-38666250D01*
X107110000Y-38018422D01*
X107109999Y-38018405D01*
X107103598Y-37958877D01*
X107103596Y-37958870D01*
X107053354Y-37824163D01*
X107053350Y-37824156D01*
X106967190Y-37709062D01*
X106967187Y-37709059D01*
X106852093Y-37622899D01*
X106852086Y-37622895D01*
X106717379Y-37572653D01*
X106717372Y-37572651D01*
X106657844Y-37566250D01*
X106010000Y-37566250D01*
X106010000Y-38480748D01*
X105902315Y-38431570D01*
X105795763Y-38416250D01*
X105724237Y-38416250D01*
X105617685Y-38431570D01*
X105510000Y-38480748D01*
X105510000Y-37566250D01*
X104862155Y-37566250D01*
X104802627Y-37572651D01*
X104802620Y-37572653D01*
X104667913Y-37622895D01*
X104667906Y-37622899D01*
X104552812Y-37709059D01*
X104552809Y-37709062D01*
X104466649Y-37824156D01*
X104466645Y-37824163D01*
X104416403Y-37958870D01*
X104416401Y-37958877D01*
X104410000Y-38018405D01*
X104410000Y-38666250D01*
X105326314Y-38666250D01*
X105300507Y-38706406D01*
X105260000Y-38844361D01*
X105260000Y-38988139D01*
X105300507Y-39126094D01*
X105326314Y-39166250D01*
X104410000Y-39166250D01*
X104410000Y-39814094D01*
X104416401Y-39873622D01*
X104416403Y-39873629D01*
X104466645Y-40008336D01*
X104468779Y-40011186D01*
X104470023Y-40014522D01*
X104470897Y-40016122D01*
X104470667Y-40016247D01*
X104493198Y-40076650D01*
X104478348Y-40144923D01*
X104428945Y-40194330D01*
X104369514Y-40209500D01*
X95119091Y-40209500D01*
X95052052Y-40189815D01*
X95006711Y-40137909D01*
X95004037Y-40132175D01*
X95004034Y-40132170D01*
X95004033Y-40132169D01*
X94936264Y-40035385D01*
X94868496Y-39938600D01*
X94843607Y-39913711D01*
X94746179Y-39816283D01*
X94712696Y-39754963D01*
X94717680Y-39685271D01*
X94759551Y-39629337D01*
X94790529Y-39612422D01*
X94922086Y-39563354D01*
X94922093Y-39563350D01*
X95037187Y-39477190D01*
X95037190Y-39477187D01*
X95123350Y-39362093D01*
X95123354Y-39362086D01*
X95173596Y-39227379D01*
X95173598Y-39227372D01*
X95179999Y-39167844D01*
X95180000Y-39167827D01*
X95180000Y-38520000D01*
X94263686Y-38520000D01*
X94289493Y-38479844D01*
X94330000Y-38341889D01*
X94330000Y-38198111D01*
X94289493Y-38060156D01*
X94263686Y-38020000D01*
X95179999Y-38020000D01*
X95180000Y-37372172D01*
X95179999Y-37372155D01*
X95173598Y-37312627D01*
X95173596Y-37312620D01*
X95123354Y-37177913D01*
X95123350Y-37177906D01*
X95037190Y-37062812D01*
X95037187Y-37062809D01*
X94922093Y-36976649D01*
X94922086Y-36976645D01*
X94787379Y-36926403D01*
X94787372Y-36926401D01*
X94727844Y-36920000D01*
X94080000Y-36920000D01*
X94080000Y-37834498D01*
X93972315Y-37785320D01*
X93865763Y-37770000D01*
X93794237Y-37770000D01*
X93687685Y-37785320D01*
X93580000Y-37834498D01*
X93580000Y-36920000D01*
X92932155Y-36920000D01*
X92872627Y-36926401D01*
X92872620Y-36926403D01*
X92737913Y-36976645D01*
X92737906Y-36976649D01*
X92622812Y-37062809D01*
X92622809Y-37062812D01*
X92536649Y-37177906D01*
X92536645Y-37177913D01*
X92486403Y-37312620D01*
X92486401Y-37312627D01*
X92480000Y-37372155D01*
X92480000Y-38020000D01*
X93396314Y-38020000D01*
X93370507Y-38060156D01*
X93330000Y-38198111D01*
X93330000Y-38341889D01*
X93370507Y-38479844D01*
X93396314Y-38520000D01*
X92480000Y-38520000D01*
X92480000Y-39167844D01*
X92486401Y-39227372D01*
X92486403Y-39227379D01*
X92536645Y-39362086D01*
X92536649Y-39362093D01*
X92622809Y-39477187D01*
X92622812Y-39477190D01*
X92737906Y-39563350D01*
X92737913Y-39563354D01*
X92869470Y-39612421D01*
X92925403Y-39654292D01*
X92949821Y-39719756D01*
X92934970Y-39788029D01*
X92913819Y-39816284D01*
X92791503Y-39938600D01*
X92655965Y-40132169D01*
X92655964Y-40132171D01*
X92556098Y-40346335D01*
X92556094Y-40346344D01*
X92494938Y-40574586D01*
X92494936Y-40574596D01*
X92474341Y-40809999D01*
X92474341Y-40810000D01*
X92494936Y-41045403D01*
X92494938Y-41045413D01*
X92556094Y-41273655D01*
X92556096Y-41273659D01*
X92556097Y-41273663D01*
X92641239Y-41456250D01*
X92655965Y-41487830D01*
X92655967Y-41487834D01*
X92791501Y-41681395D01*
X92791506Y-41681402D01*
X92958597Y-41848493D01*
X92958603Y-41848498D01*
X93144158Y-41978425D01*
X93187783Y-42033002D01*
X93194977Y-42102500D01*
X93163454Y-42164855D01*
X93144158Y-42181575D01*
X92958597Y-42311505D01*
X92791505Y-42478597D01*
X92655965Y-42672169D01*
X92655964Y-42672171D01*
X92556098Y-42886335D01*
X92556094Y-42886344D01*
X92494938Y-43114586D01*
X92494936Y-43114596D01*
X92474341Y-43349999D01*
X92474341Y-43350000D01*
X92494936Y-43585403D01*
X92494938Y-43585413D01*
X92556094Y-43813655D01*
X92556096Y-43813659D01*
X92556097Y-43813663D01*
X92641239Y-43996250D01*
X92655965Y-44027830D01*
X92655967Y-44027834D01*
X92707091Y-44100846D01*
X92790999Y-44220679D01*
X92791501Y-44221395D01*
X92791506Y-44221402D01*
X92958597Y-44388493D01*
X92958603Y-44388498D01*
X93144158Y-44518425D01*
X93187783Y-44573002D01*
X93194977Y-44642500D01*
X93163454Y-44704855D01*
X93144158Y-44721575D01*
X92958597Y-44851505D01*
X92791505Y-45018597D01*
X92655965Y-45212169D01*
X92655964Y-45212171D01*
X92556098Y-45426335D01*
X92556094Y-45426344D01*
X92494938Y-45654586D01*
X92494936Y-45654596D01*
X92474341Y-45889999D01*
X92474341Y-45890000D01*
X92494936Y-46125403D01*
X92494938Y-46125413D01*
X92556094Y-46353655D01*
X92556096Y-46353659D01*
X92556097Y-46353663D01*
X92628839Y-46509658D01*
X92655965Y-46567830D01*
X92655967Y-46567834D01*
X92743896Y-46693408D01*
X92790999Y-46760679D01*
X92791501Y-46761395D01*
X92791506Y-46761402D01*
X92958597Y-46928493D01*
X92958603Y-46928498D01*
X93144158Y-47058425D01*
X93187783Y-47113002D01*
X93194977Y-47182500D01*
X93163454Y-47244855D01*
X93144158Y-47261575D01*
X92958597Y-47391505D01*
X92791505Y-47558597D01*
X92655965Y-47752169D01*
X92655964Y-47752171D01*
X92556098Y-47966335D01*
X92556094Y-47966344D01*
X92494938Y-48194586D01*
X92494936Y-48194596D01*
X92474341Y-48429999D01*
X92474341Y-48430000D01*
X92494936Y-48665403D01*
X92494938Y-48665413D01*
X92556094Y-48893655D01*
X92556096Y-48893659D01*
X92556097Y-48893663D01*
X92641239Y-49076250D01*
X92655965Y-49107830D01*
X92655967Y-49107834D01*
X92731366Y-49215514D01*
X92790999Y-49300679D01*
X92791501Y-49301395D01*
X92791506Y-49301402D01*
X92958597Y-49468493D01*
X92958603Y-49468498D01*
X93144158Y-49598425D01*
X93187783Y-49653002D01*
X93194977Y-49722500D01*
X93163454Y-49784855D01*
X93144158Y-49801575D01*
X92958597Y-49931505D01*
X92791505Y-50098597D01*
X92655965Y-50292169D01*
X92655964Y-50292171D01*
X92556098Y-50506335D01*
X92556094Y-50506344D01*
X92494938Y-50734586D01*
X92494936Y-50734596D01*
X92474341Y-50969999D01*
X92474341Y-50970000D01*
X92494936Y-51205403D01*
X92494938Y-51205413D01*
X92556094Y-51433655D01*
X92556096Y-51433659D01*
X92556097Y-51433663D01*
X92641239Y-51616250D01*
X92655965Y-51647830D01*
X92655967Y-51647834D01*
X92707091Y-51720846D01*
X92790999Y-51840679D01*
X92791501Y-51841395D01*
X92791506Y-51841402D01*
X92958597Y-52008493D01*
X92958603Y-52008498D01*
X93144158Y-52138425D01*
X93187783Y-52193002D01*
X93194977Y-52262500D01*
X93163454Y-52324855D01*
X93144158Y-52341575D01*
X92958597Y-52471505D01*
X92791505Y-52638597D01*
X92655965Y-52832169D01*
X92655964Y-52832171D01*
X92556098Y-53046335D01*
X92556094Y-53046344D01*
X92494938Y-53274586D01*
X92494936Y-53274596D01*
X92474341Y-53509999D01*
X92474341Y-53510000D01*
X92494936Y-53745403D01*
X92494938Y-53745413D01*
X92556094Y-53973655D01*
X92556096Y-53973659D01*
X92556097Y-53973663D01*
X92641239Y-54156250D01*
X92655965Y-54187830D01*
X92655967Y-54187834D01*
X92756301Y-54331125D01*
X92790999Y-54380679D01*
X92791501Y-54381395D01*
X92791506Y-54381402D01*
X92958597Y-54548493D01*
X92958603Y-54548498D01*
X93144158Y-54678425D01*
X93187783Y-54733002D01*
X93194977Y-54802500D01*
X93163454Y-54864855D01*
X93144158Y-54881575D01*
X92958597Y-55011505D01*
X92791505Y-55178597D01*
X92655965Y-55372169D01*
X92655964Y-55372171D01*
X92556098Y-55586335D01*
X92556094Y-55586344D01*
X92494938Y-55814586D01*
X92494936Y-55814596D01*
X92474341Y-56049999D01*
X92474341Y-56050000D01*
X92494936Y-56285403D01*
X92494938Y-56285413D01*
X92529327Y-56413756D01*
X92527664Y-56483606D01*
X92497233Y-56533530D01*
X91510925Y-57519838D01*
X91470698Y-57546718D01*
X91377159Y-57585463D01*
X91377158Y-57585464D01*
X91251719Y-57681716D01*
X91155463Y-57807160D01*
X91094956Y-57953237D01*
X91094955Y-57953239D01*
X91074318Y-58109998D01*
X91074318Y-58109999D01*
X91078969Y-58145326D01*
X91079500Y-58153428D01*
X91079500Y-86096571D01*
X91078969Y-86104673D01*
X91074318Y-86139999D01*
X91074318Y-86140000D01*
X91079500Y-86179360D01*
X91094955Y-86296760D01*
X91094956Y-86296762D01*
X91155464Y-86442841D01*
X91251718Y-86568282D01*
X91279995Y-86589980D01*
X91286085Y-86595320D01*
X92122483Y-87431718D01*
X92944669Y-88253904D01*
X92950020Y-88260005D01*
X92971718Y-88288282D01*
X93057778Y-88354318D01*
X93097159Y-88384536D01*
X93243238Y-88445044D01*
X93321619Y-88455363D01*
X93399999Y-88465682D01*
X93400000Y-88465682D01*
X93435329Y-88461030D01*
X93443428Y-88460500D01*
X98541977Y-88460500D01*
X98609016Y-88480185D01*
X98654771Y-88532989D01*
X98664715Y-88602147D01*
X98635690Y-88665703D01*
X98629658Y-88672181D01*
X98602684Y-88699154D01*
X98510643Y-88848375D01*
X98510641Y-88848380D01*
X98455494Y-89014802D01*
X98455493Y-89014809D01*
X98445000Y-89117513D01*
X98445000Y-89292500D01*
X101194999Y-89292500D01*
X101194999Y-89117528D01*
X101194998Y-89117513D01*
X101184505Y-89014802D01*
X101129358Y-88848380D01*
X101129356Y-88848375D01*
X101037315Y-88699154D01*
X101010342Y-88672181D01*
X100976857Y-88610858D01*
X100981841Y-88541166D01*
X101023713Y-88485233D01*
X101089177Y-88460816D01*
X101098023Y-88460500D01*
X103277403Y-88460500D01*
X103344442Y-88480185D01*
X103365084Y-88496819D01*
X103912219Y-89043954D01*
X103945704Y-89105277D01*
X103947896Y-89144234D01*
X103944501Y-89177474D01*
X103944500Y-89177497D01*
X103944500Y-90027501D01*
X103944501Y-90027519D01*
X103955000Y-90130296D01*
X103955001Y-90130299D01*
X103990234Y-90236624D01*
X104010186Y-90296834D01*
X104102288Y-90446156D01*
X104226344Y-90570212D01*
X104375666Y-90662314D01*
X104542203Y-90717499D01*
X104644991Y-90728000D01*
X105995008Y-90727999D01*
X106097797Y-90717499D01*
X106264334Y-90662314D01*
X106413656Y-90570212D01*
X106537712Y-90446156D01*
X106629814Y-90296834D01*
X106684999Y-90130297D01*
X106695500Y-90027509D01*
X106695499Y-89177492D01*
X106684999Y-89074703D01*
X106629814Y-88908166D01*
X106537712Y-88758844D01*
X106413656Y-88634788D01*
X106264334Y-88542686D01*
X106097797Y-88487501D01*
X106097795Y-88487500D01*
X105995016Y-88477000D01*
X105995009Y-88477000D01*
X105095097Y-88477000D01*
X105028058Y-88457315D01*
X105007416Y-88440681D01*
X104032828Y-87466093D01*
X104027474Y-87459988D01*
X104005786Y-87431722D01*
X104005783Y-87431720D01*
X104005782Y-87431718D01*
X103880341Y-87335464D01*
X103734262Y-87274956D01*
X103734260Y-87274955D01*
X103616861Y-87259500D01*
X103577500Y-87254318D01*
X103542170Y-87258969D01*
X103534072Y-87259500D01*
X93700097Y-87259500D01*
X93633058Y-87239815D01*
X93612416Y-87223181D01*
X92316819Y-85927583D01*
X92283334Y-85866260D01*
X92280500Y-85839902D01*
X92280500Y-84366993D01*
X92300185Y-84299954D01*
X92352989Y-84254199D01*
X92422147Y-84244255D01*
X92485703Y-84273280D01*
X92523477Y-84332058D01*
X92524275Y-84334900D01*
X92556094Y-84453655D01*
X92556096Y-84453659D01*
X92556097Y-84453663D01*
X92628839Y-84609658D01*
X92655965Y-84667830D01*
X92655967Y-84667834D01*
X92764281Y-84822521D01*
X92791505Y-84861401D01*
X92958599Y-85028495D01*
X93051290Y-85093398D01*
X93152165Y-85164032D01*
X93152167Y-85164033D01*
X93152170Y-85164035D01*
X93366337Y-85263903D01*
X93594592Y-85325063D01*
X93782918Y-85341539D01*
X93829999Y-85345659D01*
X93830000Y-85345659D01*
X93830001Y-85345659D01*
X93869234Y-85342226D01*
X94065408Y-85325063D01*
X94293663Y-85263903D01*
X94507830Y-85164035D01*
X94701401Y-85028495D01*
X94868495Y-84861401D01*
X95004035Y-84667830D01*
X95006707Y-84662097D01*
X95052878Y-84609658D01*
X95119091Y-84590500D01*
X104286714Y-84590500D01*
X104353753Y-84610185D01*
X104399508Y-84662989D01*
X104410242Y-84703693D01*
X104424936Y-84871652D01*
X104424938Y-84871663D01*
X104486094Y-85099905D01*
X104486096Y-85099909D01*
X104486097Y-85099913D01*
X104574401Y-85289280D01*
X104585965Y-85314080D01*
X104585967Y-85314084D01*
X104649300Y-85404532D01*
X104721505Y-85507651D01*
X104888599Y-85674745D01*
X104961583Y-85725849D01*
X105082165Y-85810282D01*
X105082167Y-85810283D01*
X105082170Y-85810285D01*
X105296337Y-85910153D01*
X105524592Y-85971313D01*
X105712918Y-85987789D01*
X105759999Y-85991909D01*
X105760000Y-85991909D01*
X105760001Y-85991909D01*
X105799234Y-85988476D01*
X105995408Y-85971313D01*
X106223663Y-85910153D01*
X106437830Y-85810285D01*
X106631401Y-85674745D01*
X106798495Y-85507651D01*
X106934035Y-85314080D01*
X107033903Y-85099913D01*
X107095063Y-84871658D01*
X107115659Y-84636250D01*
X107109968Y-84571208D01*
X107123734Y-84502711D01*
X107172349Y-84452527D01*
X107240377Y-84436593D01*
X107306221Y-84459968D01*
X107321177Y-84472721D01*
X114907181Y-92058725D01*
X114940666Y-92120048D01*
X114943500Y-92146406D01*
X114943500Y-94059857D01*
X114923815Y-94126896D01*
X114871011Y-94172651D01*
X114801853Y-94182595D01*
X114738297Y-94153570D01*
X114737274Y-94152673D01*
X114710852Y-94129266D01*
X114710850Y-94129264D01*
X114560226Y-94050210D01*
X114395056Y-94009500D01*
X114224944Y-94009500D01*
X114059773Y-94050210D01*
X113909150Y-94129263D01*
X113781816Y-94242072D01*
X113685182Y-94382068D01*
X113685182Y-94382069D01*
X113624860Y-94541124D01*
X113624857Y-94541136D01*
X113621063Y-94572383D01*
X113593440Y-94636560D01*
X113585649Y-94645114D01*
X105766096Y-102464668D01*
X105759994Y-102470019D01*
X105731716Y-102491719D01*
X105660881Y-102584032D01*
X105660882Y-102584033D01*
X105635463Y-102617159D01*
X105635461Y-102617163D01*
X105616905Y-102661963D01*
X105573064Y-102716367D01*
X105506770Y-102738432D01*
X105463340Y-102732217D01*
X105382697Y-102705494D01*
X105382690Y-102705493D01*
X105279986Y-102695000D01*
X104855000Y-102695000D01*
X104855000Y-104819999D01*
X105163717Y-104819999D01*
X105230756Y-104839684D01*
X105276511Y-104892488D01*
X105286455Y-104961646D01*
X105257430Y-105025202D01*
X105251398Y-105031680D01*
X104699896Y-105583181D01*
X104638573Y-105616666D01*
X104612215Y-105619500D01*
X103929998Y-105619500D01*
X103929980Y-105619501D01*
X103827203Y-105630000D01*
X103827200Y-105630001D01*
X103660668Y-105685185D01*
X103660663Y-105685187D01*
X103511342Y-105777289D01*
X103387289Y-105901342D01*
X103304481Y-106035597D01*
X103252533Y-106082321D01*
X103198942Y-106094500D01*
X102688058Y-106094500D01*
X102621019Y-106074815D01*
X102582519Y-106035597D01*
X102551958Y-105986049D01*
X102499712Y-105901344D01*
X102375656Y-105777288D01*
X102226334Y-105685186D01*
X102059797Y-105630001D01*
X102059795Y-105630000D01*
X101957016Y-105619500D01*
X100624500Y-105619500D01*
X100557461Y-105599815D01*
X100511706Y-105547011D01*
X100500500Y-105495500D01*
X100500500Y-105402096D01*
X100520185Y-105335057D01*
X100536819Y-105314415D01*
X100994416Y-104856818D01*
X101055739Y-104823333D01*
X101082097Y-104820499D01*
X101957002Y-104820499D01*
X101957008Y-104820499D01*
X102059797Y-104809999D01*
X102226334Y-104754814D01*
X102375656Y-104662712D01*
X102499712Y-104538656D01*
X102591814Y-104389334D01*
X102646999Y-104222797D01*
X102657500Y-104120009D01*
X102657500Y-104007500D01*
X103230001Y-104007500D01*
X103230001Y-104119986D01*
X103240494Y-104222697D01*
X103295641Y-104389119D01*
X103295643Y-104389124D01*
X103387684Y-104538345D01*
X103511654Y-104662315D01*
X103660875Y-104754356D01*
X103660880Y-104754358D01*
X103827302Y-104809505D01*
X103827309Y-104809506D01*
X103930019Y-104819999D01*
X104354999Y-104819999D01*
X104355000Y-104819998D01*
X104355000Y-104007500D01*
X103230001Y-104007500D01*
X102657500Y-104007500D01*
X102657499Y-103507500D01*
X103230000Y-103507500D01*
X104355000Y-103507500D01*
X104355000Y-102695000D01*
X103930028Y-102695000D01*
X103930012Y-102695001D01*
X103827302Y-102705494D01*
X103660880Y-102760641D01*
X103660875Y-102760643D01*
X103511654Y-102852684D01*
X103387684Y-102976654D01*
X103295643Y-103125875D01*
X103295641Y-103125880D01*
X103240494Y-103292302D01*
X103240493Y-103292309D01*
X103230000Y-103395013D01*
X103230000Y-103507500D01*
X102657499Y-103507500D01*
X102657499Y-103369992D01*
X102646999Y-103267203D01*
X102591814Y-103100666D01*
X102499712Y-102951344D01*
X102375656Y-102827288D01*
X102226334Y-102735186D01*
X102059797Y-102680001D01*
X102059793Y-102680000D01*
X102053173Y-102678583D01*
X102053797Y-102675668D01*
X102001215Y-102654066D01*
X101961201Y-102596789D01*
X101955646Y-102542345D01*
X101965645Y-102460000D01*
X101945140Y-102291128D01*
X101941451Y-102281402D01*
X101884817Y-102132068D01*
X101813855Y-102029263D01*
X101788183Y-101992071D01*
X101687883Y-101903213D01*
X101660849Y-101879263D01*
X101510226Y-101800210D01*
X101345056Y-101759500D01*
X101174944Y-101759500D01*
X101174942Y-101759500D01*
X101055803Y-101788864D01*
X100986001Y-101785794D01*
X100928939Y-101745474D01*
X100902734Y-101680704D01*
X100915707Y-101612050D01*
X100938442Y-101580792D01*
X101022418Y-101496816D01*
X101083740Y-101463334D01*
X101110097Y-101460500D01*
X105026572Y-101460500D01*
X105034670Y-101461030D01*
X105070000Y-101465682D01*
X105070001Y-101465682D01*
X105122254Y-101458802D01*
X105226762Y-101445044D01*
X105372841Y-101384536D01*
X105406037Y-101359064D01*
X105498282Y-101288282D01*
X105519983Y-101259999D01*
X105525311Y-101253922D01*
X113000122Y-93779111D01*
X113058124Y-93746398D01*
X113105225Y-93734790D01*
X113255852Y-93655734D01*
X113383183Y-93542929D01*
X113479818Y-93402930D01*
X113540140Y-93243872D01*
X113560645Y-93075000D01*
X113540140Y-92906128D01*
X113479818Y-92747070D01*
X113383183Y-92607071D01*
X113258040Y-92496204D01*
X113255849Y-92494263D01*
X113105226Y-92415210D01*
X112940056Y-92374500D01*
X112769944Y-92374500D01*
X112604773Y-92415210D01*
X112454150Y-92494263D01*
X112326816Y-92607072D01*
X112230182Y-92747068D01*
X112230182Y-92747069D01*
X112176380Y-92888934D01*
X112148119Y-92932644D01*
X106937180Y-98143584D01*
X106875857Y-98177069D01*
X106806165Y-98172085D01*
X106750232Y-98130213D01*
X106725815Y-98064749D01*
X106725499Y-98055903D01*
X106725499Y-97842498D01*
X106725498Y-97842481D01*
X106714999Y-97739703D01*
X106714998Y-97739700D01*
X106705057Y-97709700D01*
X106659814Y-97573166D01*
X106567712Y-97423844D01*
X106443656Y-97299788D01*
X106294334Y-97207686D01*
X106127797Y-97152501D01*
X106127795Y-97152500D01*
X106025010Y-97142000D01*
X104674998Y-97142000D01*
X104674981Y-97142001D01*
X104572203Y-97152500D01*
X104572200Y-97152501D01*
X104405668Y-97207685D01*
X104405663Y-97207687D01*
X104256342Y-97299789D01*
X104132289Y-97423842D01*
X104040187Y-97573163D01*
X104040185Y-97573166D01*
X104040186Y-97573166D01*
X103985001Y-97739703D01*
X103985001Y-97739704D01*
X103985000Y-97739704D01*
X103974500Y-97842483D01*
X103974500Y-98567501D01*
X103974501Y-98567519D01*
X103985000Y-98670296D01*
X103985001Y-98670299D01*
X104030244Y-98806831D01*
X104040186Y-98836834D01*
X104132288Y-98986156D01*
X104256344Y-99110212D01*
X104405666Y-99202314D01*
X104572203Y-99257499D01*
X104572208Y-99257499D01*
X104578289Y-99258802D01*
X104639722Y-99292084D01*
X104673409Y-99353297D01*
X104675426Y-99395000D01*
X104669355Y-99444999D01*
X104689859Y-99613869D01*
X104689860Y-99613874D01*
X104750182Y-99772931D01*
X104812475Y-99863177D01*
X104846817Y-99912929D01*
X104918436Y-99976378D01*
X104955563Y-100035567D01*
X104954795Y-100105432D01*
X104923891Y-100156872D01*
X104857582Y-100223182D01*
X104796262Y-100256666D01*
X104769903Y-100259500D01*
X100853434Y-100259500D01*
X100845334Y-100258969D01*
X100810000Y-100254317D01*
X100809999Y-100254317D01*
X100605011Y-100281305D01*
X100582467Y-100303583D01*
X100571144Y-100308959D01*
X100507162Y-100335462D01*
X100507159Y-100335463D01*
X100507159Y-100335464D01*
X100460188Y-100371506D01*
X100381714Y-100431721D01*
X100360024Y-100459990D01*
X100354671Y-100466094D01*
X98976096Y-101844668D01*
X98969993Y-101850020D01*
X98941718Y-101871717D01*
X98917549Y-101903213D01*
X98917550Y-101903214D01*
X98845464Y-101997158D01*
X98845461Y-101997163D01*
X98784957Y-102143234D01*
X98784955Y-102143239D01*
X98764318Y-102299998D01*
X98764318Y-102299999D01*
X98768969Y-102335326D01*
X98769500Y-102343428D01*
X98769500Y-102576639D01*
X98749815Y-102643678D01*
X98697011Y-102689433D01*
X98632899Y-102699997D01*
X98583990Y-102695000D01*
X98158999Y-102695000D01*
X98159000Y-103507500D01*
X98158999Y-104819998D01*
X98159000Y-104819999D01*
X98467718Y-104819999D01*
X98534757Y-104839684D01*
X98580512Y-104892488D01*
X98590456Y-104961646D01*
X98561431Y-105025202D01*
X98555399Y-105031680D01*
X98003897Y-105583181D01*
X97942574Y-105616666D01*
X97916216Y-105619500D01*
X97233998Y-105619500D01*
X97233980Y-105619501D01*
X97131203Y-105630000D01*
X97131200Y-105630001D01*
X96964668Y-105685185D01*
X96964663Y-105685187D01*
X96815342Y-105777289D01*
X96691289Y-105901342D01*
X96608481Y-106035597D01*
X96556533Y-106082321D01*
X96502942Y-106094500D01*
X95992058Y-106094500D01*
X95925019Y-106074815D01*
X95886519Y-106035597D01*
X95855958Y-105986049D01*
X95803712Y-105901344D01*
X95679656Y-105777288D01*
X95530334Y-105685186D01*
X95363797Y-105630001D01*
X95363795Y-105630000D01*
X95261010Y-105619500D01*
X93860998Y-105619500D01*
X93860973Y-105619502D01*
X93845466Y-105621086D01*
X93776774Y-105608315D01*
X93725891Y-105560433D01*
X93708972Y-105492642D01*
X93731390Y-105426467D01*
X93745182Y-105410051D01*
X94298416Y-104856817D01*
X94359739Y-104823333D01*
X94386097Y-104820499D01*
X95261002Y-104820499D01*
X95261008Y-104820499D01*
X95363797Y-104809999D01*
X95530334Y-104754814D01*
X95679656Y-104662712D01*
X95803712Y-104538656D01*
X95895814Y-104389334D01*
X95950999Y-104222797D01*
X95961500Y-104120009D01*
X95961500Y-104007500D01*
X96534001Y-104007500D01*
X96534001Y-104119986D01*
X96544494Y-104222697D01*
X96599641Y-104389119D01*
X96599643Y-104389124D01*
X96691684Y-104538345D01*
X96815654Y-104662315D01*
X96964875Y-104754356D01*
X96964880Y-104754358D01*
X97131302Y-104809505D01*
X97131309Y-104809506D01*
X97234019Y-104819999D01*
X97658999Y-104819999D01*
X97659000Y-104819998D01*
X97659000Y-104007500D01*
X96534001Y-104007500D01*
X95961500Y-104007500D01*
X95961499Y-103507500D01*
X96534000Y-103507500D01*
X97659000Y-103507500D01*
X97659000Y-102695000D01*
X97234028Y-102695000D01*
X97234012Y-102695001D01*
X97131302Y-102705494D01*
X96964880Y-102760641D01*
X96964875Y-102760643D01*
X96815654Y-102852684D01*
X96691684Y-102976654D01*
X96599643Y-103125875D01*
X96599641Y-103125880D01*
X96544494Y-103292302D01*
X96544493Y-103292309D01*
X96534000Y-103395013D01*
X96534000Y-103507500D01*
X95961499Y-103507500D01*
X95961499Y-103369992D01*
X95950999Y-103267203D01*
X95895814Y-103100666D01*
X95803712Y-102951344D01*
X95679656Y-102827288D01*
X95530334Y-102735186D01*
X95363797Y-102680001D01*
X95363794Y-102680000D01*
X95363789Y-102679999D01*
X95361436Y-102679759D01*
X95360079Y-102679205D01*
X95357173Y-102678583D01*
X95357284Y-102678064D01*
X95296746Y-102653358D01*
X95256599Y-102596175D01*
X95250952Y-102571355D01*
X95235140Y-102441128D01*
X95174818Y-102282070D01*
X95174356Y-102281401D01*
X95131850Y-102219820D01*
X95078183Y-102142071D01*
X94950852Y-102029266D01*
X94950849Y-102029263D01*
X94800226Y-101950210D01*
X94635056Y-101909500D01*
X94464944Y-101909500D01*
X94299773Y-101950210D01*
X94149150Y-102029263D01*
X94021816Y-102142072D01*
X93925182Y-102282068D01*
X93864860Y-102441125D01*
X93864859Y-102441131D01*
X93848585Y-102575158D01*
X93820963Y-102639336D01*
X93764493Y-102677917D01*
X93758204Y-102680000D01*
X93758203Y-102680001D01*
X93712939Y-102695000D01*
X93591668Y-102735185D01*
X93591663Y-102735187D01*
X93442342Y-102827289D01*
X93318289Y-102951342D01*
X93226187Y-103100663D01*
X93226185Y-103100668D01*
X93217831Y-103125880D01*
X93171001Y-103267203D01*
X93171001Y-103267204D01*
X93171000Y-103267204D01*
X93160500Y-103369983D01*
X93160500Y-104120001D01*
X93160501Y-104120019D01*
X93170849Y-104221309D01*
X93158079Y-104290001D01*
X93135172Y-104321591D01*
X92601096Y-104855668D01*
X92594993Y-104861020D01*
X92566718Y-104882717D01*
X92542549Y-104914213D01*
X92542550Y-104914214D01*
X92470464Y-105008158D01*
X92470461Y-105008163D01*
X92409957Y-105154234D01*
X92409955Y-105154239D01*
X92398526Y-105241057D01*
X92389318Y-105311000D01*
X92391189Y-105325215D01*
X92393969Y-105346326D01*
X92394500Y-105354428D01*
X92394500Y-109007648D01*
X92374815Y-109074687D01*
X92322011Y-109120442D01*
X92283755Y-109130938D01*
X92237516Y-109135909D01*
X92102671Y-109186202D01*
X92102664Y-109186206D01*
X91987455Y-109272452D01*
X91987452Y-109272455D01*
X91901206Y-109387664D01*
X91901202Y-109387671D01*
X91850908Y-109522517D01*
X91844501Y-109582116D01*
X91844501Y-109582123D01*
X91844500Y-109582135D01*
X91844500Y-111227870D01*
X91844501Y-111227876D01*
X91850908Y-111287483D01*
X91901202Y-111422328D01*
X91901206Y-111422335D01*
X91987452Y-111537544D01*
X91987455Y-111537547D01*
X92102664Y-111623793D01*
X92102671Y-111623797D01*
X92237516Y-111674091D01*
X92283757Y-111679063D01*
X92348307Y-111705801D01*
X92388155Y-111763194D01*
X92394500Y-111802352D01*
X92394500Y-116957648D01*
X92374815Y-117024687D01*
X92322011Y-117070442D01*
X92283755Y-117080938D01*
X92237516Y-117085909D01*
X92102671Y-117136202D01*
X92102664Y-117136206D01*
X91987455Y-117222452D01*
X91987452Y-117222455D01*
X91901206Y-117337664D01*
X91901202Y-117337671D01*
X91850908Y-117472517D01*
X91844501Y-117532116D01*
X91844501Y-117532123D01*
X91844500Y-117532135D01*
X91844500Y-119177870D01*
X91844501Y-119177876D01*
X91850908Y-119237483D01*
X91901202Y-119372328D01*
X91901206Y-119372335D01*
X91987452Y-119487544D01*
X91987455Y-119487547D01*
X92102664Y-119573793D01*
X92102671Y-119573797D01*
X92237517Y-119624091D01*
X92237516Y-119624091D01*
X92244444Y-119624835D01*
X92297127Y-119630500D01*
X93692872Y-119630499D01*
X93752483Y-119624091D01*
X93887331Y-119573796D01*
X94002546Y-119487546D01*
X94088796Y-119372331D01*
X94139091Y-119237483D01*
X94145500Y-119177873D01*
X94145499Y-117532128D01*
X94139091Y-117472517D01*
X94138152Y-117470000D01*
X94088797Y-117337671D01*
X94088793Y-117337664D01*
X94002547Y-117222455D01*
X94002544Y-117222452D01*
X93887335Y-117136206D01*
X93887328Y-117136202D01*
X93752483Y-117085908D01*
X93706243Y-117080937D01*
X93641693Y-117054199D01*
X93601845Y-116996806D01*
X93595500Y-116957648D01*
X93595500Y-111802351D01*
X93615185Y-111735312D01*
X93667989Y-111689557D01*
X93706247Y-111679061D01*
X93752483Y-111674091D01*
X93887331Y-111623796D01*
X94002546Y-111537546D01*
X94088796Y-111422331D01*
X94139091Y-111287483D01*
X94145500Y-111227873D01*
X94145499Y-109582128D01*
X94139091Y-109522517D01*
X94135340Y-109512461D01*
X94088797Y-109387671D01*
X94088793Y-109387664D01*
X94002547Y-109272455D01*
X94002544Y-109272452D01*
X93887335Y-109186206D01*
X93887328Y-109186202D01*
X93752483Y-109135908D01*
X93706243Y-109130937D01*
X93641693Y-109104199D01*
X93601845Y-109046806D01*
X93595500Y-109007648D01*
X93595500Y-107877804D01*
X93615185Y-107810765D01*
X93667989Y-107765010D01*
X93737147Y-107755066D01*
X93756844Y-107759707D01*
X93758193Y-107759995D01*
X93758203Y-107759999D01*
X93860991Y-107770500D01*
X95261008Y-107770499D01*
X95265962Y-107769993D01*
X95278895Y-107768671D01*
X95363797Y-107759999D01*
X95530334Y-107704814D01*
X95679656Y-107612712D01*
X95803712Y-107488656D01*
X95886519Y-107354402D01*
X95938467Y-107307679D01*
X95992058Y-107295500D01*
X96518362Y-107295500D01*
X96585401Y-107315185D01*
X96623899Y-107354401D01*
X96691288Y-107463656D01*
X96815344Y-107587712D01*
X96835596Y-107600203D01*
X96882320Y-107652148D01*
X96894500Y-107705742D01*
X96894500Y-109007648D01*
X96874815Y-109074687D01*
X96822011Y-109120442D01*
X96783755Y-109130938D01*
X96737516Y-109135909D01*
X96602671Y-109186202D01*
X96602664Y-109186206D01*
X96487455Y-109272452D01*
X96487452Y-109272455D01*
X96401206Y-109387664D01*
X96401202Y-109387671D01*
X96350908Y-109522517D01*
X96344501Y-109582116D01*
X96344501Y-109582123D01*
X96344500Y-109582135D01*
X96344500Y-111227870D01*
X96344501Y-111227876D01*
X96350908Y-111287483D01*
X96401202Y-111422328D01*
X96401206Y-111422335D01*
X96487452Y-111537544D01*
X96487455Y-111537547D01*
X96602664Y-111623793D01*
X96602671Y-111623797D01*
X96737516Y-111674091D01*
X96783757Y-111679063D01*
X96848307Y-111705801D01*
X96888155Y-111763194D01*
X96894500Y-111802352D01*
X96894500Y-116957648D01*
X96874815Y-117024687D01*
X96822011Y-117070442D01*
X96783755Y-117080938D01*
X96737516Y-117085909D01*
X96602671Y-117136202D01*
X96602664Y-117136206D01*
X96487455Y-117222452D01*
X96487452Y-117222455D01*
X96401206Y-117337664D01*
X96401202Y-117337671D01*
X96350908Y-117472517D01*
X96344501Y-117532116D01*
X96344501Y-117532123D01*
X96344500Y-117532135D01*
X96344500Y-119177870D01*
X96344501Y-119177876D01*
X96350908Y-119237483D01*
X96401202Y-119372328D01*
X96401206Y-119372335D01*
X96487452Y-119487544D01*
X96487455Y-119487547D01*
X96602664Y-119573793D01*
X96602671Y-119573797D01*
X96737517Y-119624091D01*
X96737516Y-119624091D01*
X96744444Y-119624835D01*
X96797127Y-119630500D01*
X98192872Y-119630499D01*
X98252483Y-119624091D01*
X98387331Y-119573796D01*
X98502546Y-119487546D01*
X98588796Y-119372331D01*
X98639091Y-119237483D01*
X98645500Y-119177873D01*
X98645499Y-117532128D01*
X98639091Y-117472517D01*
X98638152Y-117470000D01*
X98588797Y-117337671D01*
X98588793Y-117337664D01*
X98502547Y-117222455D01*
X98502544Y-117222452D01*
X98387335Y-117136206D01*
X98387328Y-117136202D01*
X98252482Y-117085908D01*
X98252483Y-117085908D01*
X98206243Y-117080937D01*
X98141692Y-117054199D01*
X98101844Y-116996806D01*
X98095500Y-116957654D01*
X98095500Y-111802347D01*
X98115184Y-111735312D01*
X98167988Y-111689557D01*
X98206245Y-111679061D01*
X98252483Y-111674091D01*
X98387331Y-111623796D01*
X98502546Y-111537546D01*
X98588796Y-111422331D01*
X98639091Y-111287483D01*
X98645500Y-111227873D01*
X98645499Y-109582128D01*
X98639091Y-109522517D01*
X98635340Y-109512461D01*
X98588797Y-109387671D01*
X98588793Y-109387664D01*
X98502547Y-109272455D01*
X98502544Y-109272452D01*
X98387335Y-109186206D01*
X98387328Y-109186202D01*
X98252483Y-109135908D01*
X98206243Y-109130937D01*
X98141693Y-109104199D01*
X98101845Y-109046806D01*
X98095500Y-109007648D01*
X98095500Y-107869499D01*
X98115185Y-107802460D01*
X98167989Y-107756705D01*
X98219500Y-107745499D01*
X98584002Y-107745499D01*
X98584008Y-107745499D01*
X98686797Y-107734999D01*
X98853334Y-107679814D01*
X99002656Y-107587712D01*
X99087819Y-107502549D01*
X99149142Y-107469064D01*
X99218834Y-107474048D01*
X99274767Y-107515920D01*
X99299184Y-107581384D01*
X99299500Y-107590230D01*
X99299500Y-108881571D01*
X99298969Y-108889673D01*
X99294318Y-108924999D01*
X99294318Y-108925000D01*
X99299500Y-108964360D01*
X99314955Y-109081760D01*
X99314956Y-109081762D01*
X99358216Y-109186202D01*
X99375464Y-109227841D01*
X99471718Y-109353282D01*
X99499995Y-109374980D01*
X99506085Y-109380320D01*
X99875496Y-109749731D01*
X100193181Y-110067416D01*
X100226666Y-110128739D01*
X100229500Y-110155097D01*
X100229500Y-111227870D01*
X100229501Y-111227876D01*
X100235908Y-111287483D01*
X100286202Y-111422328D01*
X100286206Y-111422335D01*
X100372452Y-111537544D01*
X100372455Y-111537547D01*
X100487664Y-111623793D01*
X100487671Y-111623797D01*
X100622516Y-111674091D01*
X100668757Y-111679063D01*
X100733307Y-111705801D01*
X100773155Y-111763194D01*
X100779500Y-111802352D01*
X100779500Y-116957648D01*
X100759815Y-117024687D01*
X100707011Y-117070442D01*
X100668755Y-117080938D01*
X100622516Y-117085909D01*
X100487671Y-117136202D01*
X100487664Y-117136206D01*
X100372455Y-117222452D01*
X100372452Y-117222455D01*
X100286206Y-117337664D01*
X100286202Y-117337671D01*
X100235908Y-117472517D01*
X100229501Y-117532116D01*
X100229501Y-117532123D01*
X100229500Y-117532135D01*
X100229500Y-119177870D01*
X100229501Y-119177876D01*
X100235908Y-119237483D01*
X100286202Y-119372328D01*
X100286206Y-119372335D01*
X100372452Y-119487544D01*
X100372455Y-119487547D01*
X100487664Y-119573793D01*
X100487671Y-119573797D01*
X100622517Y-119624091D01*
X100622516Y-119624091D01*
X100629444Y-119624835D01*
X100682127Y-119630500D01*
X102077872Y-119630499D01*
X102137483Y-119624091D01*
X102272331Y-119573796D01*
X102387546Y-119487546D01*
X102473796Y-119372331D01*
X102524091Y-119237483D01*
X102530500Y-119177873D01*
X102530499Y-117532128D01*
X102524091Y-117472517D01*
X102523152Y-117470000D01*
X102473797Y-117337671D01*
X102473793Y-117337664D01*
X102387547Y-117222455D01*
X102387544Y-117222452D01*
X102272335Y-117136206D01*
X102272328Y-117136202D01*
X102137483Y-117085908D01*
X102091243Y-117080937D01*
X102026693Y-117054199D01*
X101986845Y-116996806D01*
X101980500Y-116957648D01*
X101980500Y-111802351D01*
X102000185Y-111735312D01*
X102052989Y-111689557D01*
X102091247Y-111679061D01*
X102137483Y-111674091D01*
X102272331Y-111623796D01*
X102387546Y-111537546D01*
X102473796Y-111422331D01*
X102524091Y-111287483D01*
X102530500Y-111227873D01*
X102530499Y-109582128D01*
X102524091Y-109522517D01*
X102520340Y-109512461D01*
X102473797Y-109387671D01*
X102473793Y-109387664D01*
X102387547Y-109272455D01*
X102387544Y-109272452D01*
X102272335Y-109186206D01*
X102272328Y-109186202D01*
X102137482Y-109135908D01*
X102137483Y-109135908D01*
X102077883Y-109129501D01*
X102077881Y-109129500D01*
X102077873Y-109129500D01*
X102077865Y-109129500D01*
X101005097Y-109129500D01*
X100938058Y-109109815D01*
X100917416Y-109093181D01*
X100536819Y-108712583D01*
X100503334Y-108651260D01*
X100500500Y-108624902D01*
X100500500Y-107894499D01*
X100520185Y-107827460D01*
X100572989Y-107781705D01*
X100624495Y-107770499D01*
X101957008Y-107770499D01*
X101961962Y-107769993D01*
X101974895Y-107768671D01*
X102059797Y-107759999D01*
X102226334Y-107704814D01*
X102375656Y-107612712D01*
X102499712Y-107488656D01*
X102582519Y-107354402D01*
X102634467Y-107307679D01*
X102688058Y-107295500D01*
X103214362Y-107295500D01*
X103281401Y-107315185D01*
X103319899Y-107354401D01*
X103387288Y-107463656D01*
X103511344Y-107587712D01*
X103660666Y-107679814D01*
X103827203Y-107734999D01*
X103929991Y-107745500D01*
X104767402Y-107745499D01*
X104834441Y-107765183D01*
X104855083Y-107781818D01*
X105243181Y-108169915D01*
X105276666Y-108231238D01*
X105279500Y-108257596D01*
X105279500Y-109007648D01*
X105259815Y-109074687D01*
X105207011Y-109120442D01*
X105168755Y-109130938D01*
X105122516Y-109135909D01*
X104987671Y-109186202D01*
X104987664Y-109186206D01*
X104872455Y-109272452D01*
X104872452Y-109272455D01*
X104786206Y-109387664D01*
X104786202Y-109387671D01*
X104735908Y-109522517D01*
X104729501Y-109582116D01*
X104729501Y-109582123D01*
X104729500Y-109582135D01*
X104729500Y-111227870D01*
X104729501Y-111227876D01*
X104735908Y-111287483D01*
X104786202Y-111422328D01*
X104786206Y-111422335D01*
X104872452Y-111537544D01*
X104872455Y-111537547D01*
X104987664Y-111623793D01*
X104987671Y-111623797D01*
X105122516Y-111674091D01*
X105168757Y-111679063D01*
X105233307Y-111705801D01*
X105273155Y-111763194D01*
X105279500Y-111802352D01*
X105279500Y-116957648D01*
X105259815Y-117024687D01*
X105207011Y-117070442D01*
X105168755Y-117080938D01*
X105122516Y-117085909D01*
X104987671Y-117136202D01*
X104987664Y-117136206D01*
X104872455Y-117222452D01*
X104872452Y-117222455D01*
X104786206Y-117337664D01*
X104786202Y-117337671D01*
X104735908Y-117472517D01*
X104729501Y-117532116D01*
X104729501Y-117532123D01*
X104729500Y-117532135D01*
X104729500Y-119177870D01*
X104729501Y-119177876D01*
X104735908Y-119237483D01*
X104786202Y-119372328D01*
X104786206Y-119372335D01*
X104872452Y-119487544D01*
X104872455Y-119487547D01*
X104987664Y-119573793D01*
X104987671Y-119573797D01*
X105122517Y-119624091D01*
X105122516Y-119624091D01*
X105129444Y-119624835D01*
X105182127Y-119630500D01*
X106577872Y-119630499D01*
X106637483Y-119624091D01*
X106772331Y-119573796D01*
X106887546Y-119487546D01*
X106973796Y-119372331D01*
X107024091Y-119237483D01*
X107030500Y-119177873D01*
X107030499Y-117532128D01*
X107024091Y-117472517D01*
X107023152Y-117470000D01*
X106973797Y-117337671D01*
X106973793Y-117337664D01*
X106887547Y-117222455D01*
X106887544Y-117222452D01*
X106772335Y-117136206D01*
X106772328Y-117136202D01*
X106637483Y-117085908D01*
X106591243Y-117080937D01*
X106526693Y-117054199D01*
X106486845Y-116996806D01*
X106480500Y-116957648D01*
X106480500Y-111802351D01*
X106500185Y-111735312D01*
X106552989Y-111689557D01*
X106591247Y-111679061D01*
X106637483Y-111674091D01*
X106772331Y-111623796D01*
X106887546Y-111537546D01*
X106973796Y-111422331D01*
X107024091Y-111287483D01*
X107030500Y-111227873D01*
X107030499Y-109582128D01*
X107024091Y-109522517D01*
X107020340Y-109512461D01*
X106973797Y-109387671D01*
X106973793Y-109387664D01*
X106887547Y-109272455D01*
X106887544Y-109272452D01*
X106772335Y-109186206D01*
X106772328Y-109186202D01*
X106637483Y-109135908D01*
X106591243Y-109130937D01*
X106526693Y-109104199D01*
X106486845Y-109046806D01*
X106480500Y-109007648D01*
X106480500Y-108269097D01*
X106500185Y-108202058D01*
X106552989Y-108156303D01*
X106622147Y-108146359D01*
X106685703Y-108175384D01*
X106692181Y-108181416D01*
X108578181Y-110067416D01*
X108611666Y-110128739D01*
X108614500Y-110155097D01*
X108614500Y-111227870D01*
X108614501Y-111227876D01*
X108620908Y-111287483D01*
X108671202Y-111422328D01*
X108671206Y-111422335D01*
X108757452Y-111537544D01*
X108757455Y-111537547D01*
X108872664Y-111623793D01*
X108872671Y-111623797D01*
X109007516Y-111674091D01*
X109053757Y-111679063D01*
X109118307Y-111705801D01*
X109158155Y-111763194D01*
X109164500Y-111802352D01*
X109164500Y-116957648D01*
X109144815Y-117024687D01*
X109092011Y-117070442D01*
X109053755Y-117080938D01*
X109007516Y-117085909D01*
X108872671Y-117136202D01*
X108872664Y-117136206D01*
X108757455Y-117222452D01*
X108757452Y-117222455D01*
X108671206Y-117337664D01*
X108671202Y-117337671D01*
X108620908Y-117472517D01*
X108614501Y-117532116D01*
X108614501Y-117532123D01*
X108614500Y-117532135D01*
X108614500Y-119177870D01*
X108614501Y-119177876D01*
X108620908Y-119237483D01*
X108671202Y-119372328D01*
X108671206Y-119372335D01*
X108757452Y-119487544D01*
X108757455Y-119487547D01*
X108872664Y-119573793D01*
X108872671Y-119573797D01*
X109007517Y-119624091D01*
X109007516Y-119624091D01*
X109014444Y-119624835D01*
X109067127Y-119630500D01*
X110462872Y-119630499D01*
X110522483Y-119624091D01*
X110657331Y-119573796D01*
X110772546Y-119487546D01*
X110858796Y-119372331D01*
X110909091Y-119237483D01*
X110915500Y-119177873D01*
X110915499Y-117532128D01*
X110909091Y-117472517D01*
X110908152Y-117470000D01*
X110858797Y-117337671D01*
X110858793Y-117337664D01*
X110772547Y-117222455D01*
X110772544Y-117222452D01*
X110657335Y-117136206D01*
X110657328Y-117136202D01*
X110522483Y-117085908D01*
X110476243Y-117080937D01*
X110411693Y-117054199D01*
X110371845Y-116996806D01*
X110365500Y-116957648D01*
X110365500Y-111802351D01*
X110385185Y-111735312D01*
X110437989Y-111689557D01*
X110476247Y-111679061D01*
X110522483Y-111674091D01*
X110657331Y-111623796D01*
X110772546Y-111537546D01*
X110858796Y-111422331D01*
X110909091Y-111287483D01*
X110915500Y-111227873D01*
X110915499Y-109582128D01*
X110909091Y-109522517D01*
X110905340Y-109512461D01*
X110858797Y-109387671D01*
X110858793Y-109387664D01*
X110772547Y-109272455D01*
X110772544Y-109272452D01*
X110657335Y-109186206D01*
X110657328Y-109186202D01*
X110522482Y-109135908D01*
X110522483Y-109135908D01*
X110462883Y-109129501D01*
X110462881Y-109129500D01*
X110462873Y-109129500D01*
X110462865Y-109129500D01*
X109390097Y-109129500D01*
X109323058Y-109109815D01*
X109302416Y-109093181D01*
X108191415Y-107982180D01*
X108157930Y-107920857D01*
X108162914Y-107851165D01*
X108204786Y-107795232D01*
X108270250Y-107770815D01*
X108279096Y-107770499D01*
X108653002Y-107770499D01*
X108653008Y-107770499D01*
X108657962Y-107769993D01*
X108670895Y-107768671D01*
X108755797Y-107759999D01*
X108922334Y-107704814D01*
X109071656Y-107612712D01*
X109195712Y-107488656D01*
X109278519Y-107354402D01*
X109330467Y-107307679D01*
X109384058Y-107295500D01*
X109910362Y-107295500D01*
X109977401Y-107315185D01*
X110015899Y-107354401D01*
X110083288Y-107463656D01*
X110207344Y-107587712D01*
X110356666Y-107679814D01*
X110523203Y-107734999D01*
X110625991Y-107745500D01*
X110716586Y-107745499D01*
X110783624Y-107765183D01*
X110814959Y-107794009D01*
X110872718Y-107869282D01*
X110872720Y-107869283D01*
X110872722Y-107869286D01*
X110900988Y-107890974D01*
X110907093Y-107896328D01*
X113078181Y-110067416D01*
X113111666Y-110128739D01*
X113114500Y-110155097D01*
X113114500Y-111227870D01*
X113114501Y-111227876D01*
X113120908Y-111287483D01*
X113171202Y-111422328D01*
X113171206Y-111422335D01*
X113257452Y-111537544D01*
X113257455Y-111537547D01*
X113372664Y-111623793D01*
X113372671Y-111623797D01*
X113507516Y-111674091D01*
X113553757Y-111679063D01*
X113618307Y-111705801D01*
X113658155Y-111763194D01*
X113664500Y-111802352D01*
X113664500Y-116957648D01*
X113644815Y-117024687D01*
X113592011Y-117070442D01*
X113553755Y-117080938D01*
X113507516Y-117085909D01*
X113372671Y-117136202D01*
X113372664Y-117136206D01*
X113257455Y-117222452D01*
X113257452Y-117222455D01*
X113171206Y-117337664D01*
X113171202Y-117337671D01*
X113120908Y-117472517D01*
X113114501Y-117532116D01*
X113114501Y-117532123D01*
X113114500Y-117532135D01*
X113114500Y-119177870D01*
X113114501Y-119177876D01*
X113120908Y-119237483D01*
X113171202Y-119372328D01*
X113171206Y-119372335D01*
X113257452Y-119487544D01*
X113257455Y-119487547D01*
X113372664Y-119573793D01*
X113372671Y-119573797D01*
X113507517Y-119624091D01*
X113507516Y-119624091D01*
X113514444Y-119624835D01*
X113567127Y-119630500D01*
X114819500Y-119630499D01*
X114886539Y-119650184D01*
X114932294Y-119702987D01*
X114943500Y-119754499D01*
X114943500Y-119819843D01*
X114923815Y-119886882D01*
X114907181Y-119907524D01*
X113357525Y-121457181D01*
X113296202Y-121490666D01*
X113269844Y-121493500D01*
X99481856Y-121493500D01*
X99473757Y-121492969D01*
X99440000Y-121488525D01*
X99439999Y-121488525D01*
X99289504Y-121508337D01*
X99289499Y-121508339D01*
X99149265Y-121566425D01*
X99062244Y-121633199D01*
X99028837Y-121658832D01*
X99008102Y-121685853D01*
X99002750Y-121691954D01*
X95089318Y-125605386D01*
X95027995Y-125638871D01*
X94969545Y-125637480D01*
X94885408Y-125614937D01*
X94650001Y-125594341D01*
X94649999Y-125594341D01*
X94414596Y-125614936D01*
X94414586Y-125614938D01*
X94186344Y-125676094D01*
X94186335Y-125676098D01*
X93972171Y-125775964D01*
X93972169Y-125775965D01*
X93778597Y-125911505D01*
X93611505Y-126078597D01*
X93475965Y-126272169D01*
X93475964Y-126272171D01*
X93376098Y-126486335D01*
X93376094Y-126486344D01*
X93314938Y-126714586D01*
X93314936Y-126714596D01*
X93294341Y-126949999D01*
X93294341Y-126950000D01*
X93314936Y-127185403D01*
X93314938Y-127185413D01*
X93376094Y-127413655D01*
X93376096Y-127413659D01*
X93376097Y-127413663D01*
X93426458Y-127521662D01*
X93475965Y-127627830D01*
X93475967Y-127627834D01*
X93584281Y-127782521D01*
X93611505Y-127821401D01*
X93778599Y-127988495D01*
X93861749Y-128046717D01*
X93972165Y-128124032D01*
X93972167Y-128124033D01*
X93972170Y-128124035D01*
X94186337Y-128223903D01*
X94414592Y-128285063D01*
X94591034Y-128300500D01*
X94649999Y-128305659D01*
X94650000Y-128305659D01*
X94650001Y-128305659D01*
X94708966Y-128300500D01*
X94885408Y-128285063D01*
X95113663Y-128223903D01*
X95327830Y-128124035D01*
X95521401Y-127988495D01*
X95643329Y-127866566D01*
X95704648Y-127833084D01*
X95774340Y-127838068D01*
X95830274Y-127879939D01*
X95847189Y-127910917D01*
X95896202Y-128042328D01*
X95896206Y-128042335D01*
X95982452Y-128157544D01*
X95982455Y-128157547D01*
X96097664Y-128243793D01*
X96097671Y-128243797D01*
X96232517Y-128294091D01*
X96232516Y-128294091D01*
X96239444Y-128294835D01*
X96292127Y-128300500D01*
X98087872Y-128300499D01*
X98147483Y-128294091D01*
X98282331Y-128243796D01*
X98397546Y-128157546D01*
X98483796Y-128042331D01*
X98534091Y-127907483D01*
X98540500Y-127847873D01*
X98540499Y-126676154D01*
X98560184Y-126609116D01*
X98576813Y-126588479D01*
X101922474Y-123242819D01*
X101983798Y-123209334D01*
X102010156Y-123206500D01*
X112372332Y-123206500D01*
X112439371Y-123226185D01*
X112485126Y-123278989D01*
X112495070Y-123348147D01*
X112466045Y-123411703D01*
X112460013Y-123418181D01*
X111311013Y-124567181D01*
X111249690Y-124600666D01*
X111223332Y-124603500D01*
X106831855Y-124603500D01*
X106823755Y-124602969D01*
X106806262Y-124600666D01*
X106790001Y-124598525D01*
X106789995Y-124598525D01*
X106756262Y-124602965D01*
X106756236Y-124602970D01*
X106639499Y-124618338D01*
X106540338Y-124659411D01*
X106540339Y-124659412D01*
X106499261Y-124676428D01*
X106413162Y-124742494D01*
X106413161Y-124742493D01*
X106378837Y-124768832D01*
X106358102Y-124795853D01*
X106352750Y-124801954D01*
X105594230Y-125560474D01*
X105532907Y-125593959D01*
X105517357Y-125596321D01*
X105304596Y-125614936D01*
X105304586Y-125614938D01*
X105076344Y-125676094D01*
X105076335Y-125676098D01*
X104862171Y-125775964D01*
X104862169Y-125775965D01*
X104668597Y-125911505D01*
X104501505Y-126078597D01*
X104365965Y-126272169D01*
X104365964Y-126272171D01*
X104266098Y-126486335D01*
X104266094Y-126486344D01*
X104204938Y-126714586D01*
X104204936Y-126714596D01*
X104184341Y-126949999D01*
X104184341Y-126950000D01*
X104204936Y-127185403D01*
X104204938Y-127185413D01*
X104266094Y-127413655D01*
X104266096Y-127413659D01*
X104266097Y-127413663D01*
X104316458Y-127521662D01*
X104365965Y-127627830D01*
X104365967Y-127627834D01*
X104474281Y-127782521D01*
X104501505Y-127821401D01*
X104668599Y-127988495D01*
X104751749Y-128046717D01*
X104862165Y-128124032D01*
X104862167Y-128124033D01*
X104862170Y-128124035D01*
X105076337Y-128223903D01*
X105304592Y-128285063D01*
X105481034Y-128300500D01*
X105539999Y-128305659D01*
X105540000Y-128305659D01*
X105540001Y-128305659D01*
X105598966Y-128300500D01*
X105775408Y-128285063D01*
X106003663Y-128223903D01*
X106217830Y-128124035D01*
X106411401Y-127988495D01*
X106533329Y-127866566D01*
X106594648Y-127833084D01*
X106664340Y-127838068D01*
X106720274Y-127879939D01*
X106737189Y-127910917D01*
X106786202Y-128042328D01*
X106786206Y-128042335D01*
X106872452Y-128157544D01*
X106872455Y-128157547D01*
X106987664Y-128243793D01*
X106987671Y-128243797D01*
X107122517Y-128294091D01*
X107122516Y-128294091D01*
X107129444Y-128294835D01*
X107182127Y-128300500D01*
X108977872Y-128300499D01*
X109037483Y-128294091D01*
X109172331Y-128243796D01*
X109287546Y-128157546D01*
X109373796Y-128042331D01*
X109424091Y-127907483D01*
X109430500Y-127847873D01*
X109430500Y-127680500D01*
X109450185Y-127613461D01*
X109502989Y-127567706D01*
X109554500Y-127556500D01*
X110818145Y-127556500D01*
X110826244Y-127557030D01*
X110840691Y-127558932D01*
X110859999Y-127561475D01*
X110860000Y-127561475D01*
X110897788Y-127556500D01*
X110897789Y-127556500D01*
X111010497Y-127541662D01*
X111109662Y-127500586D01*
X111150738Y-127483572D01*
X111240926Y-127414368D01*
X111266989Y-127394369D01*
X111271165Y-127391165D01*
X111271165Y-127391164D01*
X111279375Y-127384865D01*
X111285080Y-127373029D01*
X111291901Y-127364140D01*
X111297235Y-127358057D01*
X114754061Y-123901231D01*
X114815381Y-123867749D01*
X114885073Y-123872733D01*
X114941006Y-123914605D01*
X114965423Y-123980069D01*
X114950571Y-124048342D01*
X114943314Y-124060038D01*
X114864632Y-124172408D01*
X114864631Y-124172410D01*
X114774009Y-124366751D01*
X114774005Y-124366760D01*
X114718509Y-124573875D01*
X114718507Y-124573886D01*
X114699819Y-124787498D01*
X114699819Y-124787501D01*
X114718507Y-125001113D01*
X114718509Y-125001124D01*
X114774005Y-125208239D01*
X114774007Y-125208243D01*
X114774008Y-125208247D01*
X114819320Y-125305419D01*
X114864631Y-125402590D01*
X114903327Y-125457853D01*
X114987627Y-125578245D01*
X115139255Y-125729873D01*
X115255723Y-125811425D01*
X115299348Y-125866003D01*
X115306540Y-125935501D01*
X115275018Y-125997856D01*
X115214788Y-126033269D01*
X115184599Y-126037000D01*
X115017583Y-126037000D01*
X114999939Y-126035738D01*
X114992622Y-126034686D01*
X114982604Y-126033246D01*
X114982600Y-126033245D01*
X114905237Y-126036930D01*
X114902290Y-126037000D01*
X114882126Y-126037000D01*
X114866745Y-126038654D01*
X114863070Y-126038939D01*
X114772672Y-126043245D01*
X114568421Y-126092796D01*
X114568417Y-126092798D01*
X114377256Y-126180098D01*
X114377251Y-126180101D01*
X114206046Y-126302015D01*
X114206040Y-126302020D01*
X114061014Y-126454120D01*
X113947388Y-126630925D01*
X113869274Y-126826044D01*
X113849570Y-126928282D01*
X113829500Y-127032415D01*
X113829500Y-127889925D01*
X113844472Y-128046717D01*
X113844473Y-128046721D01*
X113902338Y-128243793D01*
X113903684Y-128248375D01*
X113922597Y-128285061D01*
X113999991Y-128435186D01*
X114129905Y-128600383D01*
X114129909Y-128600387D01*
X114288746Y-128738021D01*
X114470750Y-128843101D01*
X114470752Y-128843101D01*
X114470756Y-128843104D01*
X114669367Y-128911844D01*
X114877398Y-128941754D01*
X114877402Y-128941753D01*
X114877404Y-128941754D01*
X114898628Y-128940742D01*
X114954753Y-128938068D01*
X114957674Y-128937999D01*
X116177871Y-128937999D01*
X116177872Y-128937999D01*
X116237483Y-128931591D01*
X116361668Y-128885272D01*
X116431357Y-128880288D01*
X116448324Y-128885270D01*
X116519570Y-128911843D01*
X116572513Y-128931590D01*
X116572516Y-128931591D01*
X116579444Y-128932335D01*
X116632127Y-128938000D01*
X118227872Y-128937999D01*
X118287483Y-128931591D01*
X118386669Y-128894596D01*
X118456358Y-128889613D01*
X118473319Y-128894592D01*
X118572517Y-128931591D01*
X118632127Y-128938000D01*
X120227872Y-128937999D01*
X120287483Y-128931591D01*
X120411668Y-128885272D01*
X120481357Y-128880289D01*
X120498332Y-128885273D01*
X120622517Y-128931591D01*
X120622516Y-128931591D01*
X120629444Y-128932335D01*
X120682127Y-128938000D01*
X121842410Y-128937999D01*
X121860057Y-128939261D01*
X121864910Y-128939958D01*
X121877396Y-128941753D01*
X121877397Y-128941754D01*
X121877397Y-128941753D01*
X121877398Y-128941754D01*
X121891424Y-128941085D01*
X121954762Y-128938069D01*
X121957712Y-128937999D01*
X121977864Y-128937999D01*
X121977872Y-128937999D01*
X121993283Y-128936341D01*
X121996899Y-128936061D01*
X122087330Y-128931754D01*
X122291576Y-128882204D01*
X122377199Y-128843101D01*
X122482743Y-128794901D01*
X122482746Y-128794899D01*
X122482753Y-128794896D01*
X122653952Y-128672986D01*
X122723179Y-128600383D01*
X122798985Y-128520879D01*
X122854057Y-128435186D01*
X122912613Y-128344072D01*
X122990725Y-128148957D01*
X123030500Y-127942585D01*
X123030500Y-127085075D01*
X123015528Y-126928282D01*
X122956316Y-126726625D01*
X122860011Y-126539818D01*
X122860009Y-126539816D01*
X122860008Y-126539813D01*
X122730094Y-126374616D01*
X122730090Y-126374612D01*
X122571253Y-126236978D01*
X122389249Y-126131898D01*
X122389245Y-126131896D01*
X122389244Y-126131896D01*
X122190633Y-126063156D01*
X121982602Y-126033246D01*
X121982598Y-126033246D01*
X121905257Y-126036930D01*
X121902307Y-126037000D01*
X121675400Y-126037000D01*
X121608361Y-126017315D01*
X121562606Y-125964511D01*
X121552662Y-125895353D01*
X121581687Y-125831797D01*
X121604271Y-125811429D01*
X121720745Y-125729873D01*
X121872373Y-125578245D01*
X121995368Y-125402591D01*
X122085992Y-125208247D01*
X122141492Y-125001119D01*
X122157511Y-124818017D01*
X122160181Y-124787501D01*
X122160181Y-124787498D01*
X122154841Y-124726466D01*
X122141492Y-124573881D01*
X122085992Y-124366753D01*
X121995368Y-124172410D01*
X121916684Y-124060038D01*
X121872376Y-123996759D01*
X121872371Y-123996753D01*
X121720745Y-123845127D01*
X121545090Y-123722131D01*
X121430510Y-123668702D01*
X121350747Y-123631508D01*
X121350743Y-123631507D01*
X121350739Y-123631505D01*
X121143624Y-123576009D01*
X121143620Y-123576008D01*
X121143619Y-123576008D01*
X121143618Y-123576007D01*
X121143613Y-123576007D01*
X120930002Y-123557319D01*
X120929998Y-123557319D01*
X120716386Y-123576007D01*
X120716375Y-123576009D01*
X120509260Y-123631505D01*
X120509251Y-123631509D01*
X120338317Y-123711217D01*
X120269239Y-123721709D01*
X120211600Y-123698101D01*
X120172331Y-123668704D01*
X120172328Y-123668702D01*
X120037486Y-123618410D01*
X120037485Y-123618409D01*
X120037483Y-123618409D01*
X119977873Y-123612000D01*
X119977863Y-123612000D01*
X119482129Y-123612000D01*
X119482120Y-123612001D01*
X119418248Y-123618867D01*
X119391742Y-123618867D01*
X119387483Y-123618409D01*
X119327873Y-123612000D01*
X119327864Y-123612000D01*
X118832129Y-123612000D01*
X118832120Y-123612001D01*
X118768248Y-123618867D01*
X118741742Y-123618867D01*
X118737483Y-123618409D01*
X118677873Y-123612000D01*
X118677864Y-123612000D01*
X118182129Y-123612000D01*
X118182120Y-123612001D01*
X118118248Y-123618867D01*
X118091742Y-123618867D01*
X118087483Y-123618409D01*
X118027873Y-123612000D01*
X118027867Y-123612000D01*
X117879499Y-123612000D01*
X117812460Y-123592315D01*
X117766705Y-123539511D01*
X117755499Y-123488000D01*
X117755499Y-123005660D01*
X117755499Y-122330447D01*
X117775184Y-122263412D01*
X117791810Y-122242779D01*
X118023785Y-122010803D01*
X118036041Y-122000987D01*
X118035858Y-122000765D01*
X118041870Y-121995790D01*
X118041877Y-121995786D01*
X118088607Y-121946022D01*
X118089846Y-121944743D01*
X118110120Y-121924471D01*
X118114379Y-121918978D01*
X118118152Y-121914561D01*
X118150062Y-121880582D01*
X118159715Y-121863020D01*
X118170389Y-121846770D01*
X118182673Y-121830936D01*
X118201180Y-121788167D01*
X118203749Y-121782924D01*
X118226196Y-121742093D01*
X118226197Y-121742092D01*
X118231177Y-121722691D01*
X118237478Y-121704288D01*
X118245438Y-121685896D01*
X118252730Y-121639849D01*
X118253911Y-121634152D01*
X118254156Y-121633198D01*
X118265500Y-121589019D01*
X118265499Y-121568986D01*
X118267027Y-121549583D01*
X118270159Y-121529808D01*
X118270160Y-121529806D01*
X118265775Y-121483415D01*
X118265500Y-121477577D01*
X118265500Y-118470156D01*
X118285185Y-118403117D01*
X118337989Y-118357362D01*
X118407147Y-118347418D01*
X118470703Y-118376443D01*
X118477180Y-118382474D01*
X123012987Y-122918282D01*
X127543181Y-127448476D01*
X127576666Y-127509799D01*
X127579500Y-127536157D01*
X127579500Y-127847869D01*
X127579501Y-127847876D01*
X127585908Y-127907483D01*
X127636202Y-128042328D01*
X127636206Y-128042335D01*
X127722452Y-128157544D01*
X127722455Y-128157547D01*
X127837664Y-128243793D01*
X127837671Y-128243797D01*
X127972517Y-128294091D01*
X127972516Y-128294091D01*
X127979444Y-128294835D01*
X128032127Y-128300500D01*
X129827872Y-128300499D01*
X129887483Y-128294091D01*
X130022331Y-128243796D01*
X130137546Y-128157546D01*
X130223796Y-128042331D01*
X130272810Y-127910916D01*
X130314681Y-127854984D01*
X130380145Y-127830566D01*
X130448418Y-127845417D01*
X130476672Y-127866569D01*
X130598599Y-127988495D01*
X130681749Y-128046717D01*
X130792165Y-128124032D01*
X130792167Y-128124033D01*
X130792170Y-128124035D01*
X131006337Y-128223903D01*
X131234592Y-128285063D01*
X131411034Y-128300500D01*
X131469999Y-128305659D01*
X131470000Y-128305659D01*
X131470001Y-128305659D01*
X131528966Y-128300500D01*
X131705408Y-128285063D01*
X131933663Y-128223903D01*
X132147830Y-128124035D01*
X132341401Y-127988495D01*
X132508495Y-127821401D01*
X132644035Y-127627830D01*
X132743903Y-127413663D01*
X132805063Y-127185408D01*
X132825659Y-126950000D01*
X132805063Y-126714592D01*
X132743903Y-126486337D01*
X132644035Y-126272171D01*
X132579570Y-126180104D01*
X132508494Y-126078597D01*
X132341402Y-125911506D01*
X132341395Y-125911501D01*
X132319894Y-125896446D01*
X132302521Y-125884281D01*
X132147834Y-125775967D01*
X132147830Y-125775965D01*
X132106087Y-125756500D01*
X131933663Y-125676097D01*
X131933659Y-125676096D01*
X131933655Y-125676094D01*
X131705413Y-125614938D01*
X131705403Y-125614936D01*
X131470001Y-125594341D01*
X131469998Y-125594341D01*
X131236634Y-125614758D01*
X131168134Y-125600991D01*
X131138146Y-125578911D01*
X127836818Y-122277583D01*
X127803333Y-122216260D01*
X127800499Y-122189902D01*
X127800499Y-118335736D01*
X127800499Y-114728317D01*
X127820184Y-114661282D01*
X127872988Y-114615527D01*
X127942146Y-114605583D01*
X128005702Y-114634608D01*
X128012180Y-114640640D01*
X129627180Y-116255640D01*
X129660665Y-116316963D01*
X129663499Y-116343321D01*
X129663499Y-116365500D01*
X129643814Y-116432539D01*
X129591010Y-116478294D01*
X129539500Y-116489500D01*
X129442130Y-116489500D01*
X129442123Y-116489501D01*
X129382516Y-116495908D01*
X129247671Y-116546202D01*
X129247664Y-116546206D01*
X129132455Y-116632452D01*
X129132452Y-116632455D01*
X129046206Y-116747664D01*
X129046202Y-116747671D01*
X128995908Y-116882517D01*
X128989501Y-116942116D01*
X128989500Y-116942135D01*
X128989500Y-117937870D01*
X128989501Y-117937876D01*
X128995908Y-117997483D01*
X129046202Y-118132328D01*
X129046206Y-118132335D01*
X129132452Y-118247544D01*
X129132454Y-118247546D01*
X129247664Y-118333793D01*
X129247671Y-118333797D01*
X129382517Y-118384091D01*
X129382516Y-118384091D01*
X129389444Y-118384835D01*
X129442127Y-118390500D01*
X130565499Y-118390499D01*
X130632538Y-118410184D01*
X130678293Y-118462987D01*
X130689499Y-118514499D01*
X130689499Y-122714143D01*
X130688968Y-122722242D01*
X130684524Y-122756000D01*
X130684525Y-122756003D01*
X130688968Y-122789756D01*
X130688970Y-122789764D01*
X130704337Y-122906495D01*
X130704339Y-122906500D01*
X130745412Y-123005660D01*
X130762428Y-123046738D01*
X130828492Y-123132833D01*
X130828493Y-123132836D01*
X130828494Y-123132836D01*
X130854835Y-123167165D01*
X130881853Y-123187896D01*
X130887943Y-123193237D01*
X135032761Y-127338055D01*
X135038106Y-127344151D01*
X135053456Y-127364155D01*
X135058835Y-127371165D01*
X135076690Y-127384865D01*
X135089073Y-127394367D01*
X135089074Y-127394369D01*
X135179261Y-127463572D01*
X135179262Y-127463572D01*
X135179263Y-127463573D01*
X135249380Y-127492615D01*
X135249382Y-127492616D01*
X135249383Y-127492616D01*
X135319503Y-127521662D01*
X135432211Y-127536500D01*
X135432212Y-127536500D01*
X135451106Y-127538987D01*
X135469999Y-127541475D01*
X135470000Y-127541475D01*
X135503757Y-127537030D01*
X135511856Y-127536500D01*
X138125501Y-127536500D01*
X138192540Y-127556185D01*
X138238295Y-127608989D01*
X138249501Y-127660500D01*
X138249501Y-127847876D01*
X138255908Y-127907483D01*
X138306202Y-128042328D01*
X138306206Y-128042335D01*
X138392452Y-128157544D01*
X138392455Y-128157547D01*
X138507664Y-128243793D01*
X138507671Y-128243797D01*
X138642517Y-128294091D01*
X138642516Y-128294091D01*
X138649444Y-128294835D01*
X138702127Y-128300500D01*
X140497872Y-128300499D01*
X140557483Y-128294091D01*
X140692331Y-128243796D01*
X140807546Y-128157546D01*
X140893796Y-128042331D01*
X140942810Y-127910916D01*
X140984681Y-127854984D01*
X141050145Y-127830566D01*
X141118418Y-127845417D01*
X141146673Y-127866569D01*
X141268599Y-127988495D01*
X141351749Y-128046717D01*
X141462165Y-128124032D01*
X141462167Y-128124033D01*
X141462170Y-128124035D01*
X141676337Y-128223903D01*
X141904592Y-128285063D01*
X142081034Y-128300500D01*
X142139999Y-128305659D01*
X142140000Y-128305659D01*
X142140001Y-128305659D01*
X142198966Y-128300500D01*
X142375408Y-128285063D01*
X142603663Y-128223903D01*
X142817830Y-128124035D01*
X143011401Y-127988495D01*
X143178495Y-127821401D01*
X143314035Y-127627830D01*
X143413903Y-127413663D01*
X143475063Y-127185408D01*
X143495659Y-126950000D01*
X143475063Y-126714592D01*
X143413903Y-126486337D01*
X143314035Y-126272171D01*
X143249570Y-126180104D01*
X143178494Y-126078597D01*
X143011402Y-125911506D01*
X143011395Y-125911501D01*
X142989894Y-125896446D01*
X142972521Y-125884281D01*
X142817834Y-125775967D01*
X142817830Y-125775965D01*
X142776087Y-125756500D01*
X142603663Y-125676097D01*
X142603659Y-125676096D01*
X142603655Y-125676094D01*
X142375413Y-125614938D01*
X142375403Y-125614936D01*
X142140001Y-125594341D01*
X142139999Y-125594341D01*
X141904596Y-125614936D01*
X141904586Y-125614938D01*
X141676344Y-125676094D01*
X141676335Y-125676098D01*
X141512960Y-125752281D01*
X141443882Y-125762773D01*
X141380098Y-125734253D01*
X141372874Y-125727580D01*
X134246737Y-118601443D01*
X134213252Y-118540120D01*
X134218236Y-118470428D01*
X134260108Y-118414495D01*
X134325572Y-118390078D01*
X134341066Y-118389940D01*
X134342184Y-118390000D01*
X134890000Y-118390000D01*
X134890000Y-117690000D01*
X135390000Y-117690000D01*
X135390000Y-118390000D01*
X135937828Y-118390000D01*
X135937844Y-118389999D01*
X135997372Y-118383598D01*
X135997379Y-118383596D01*
X136132086Y-118333354D01*
X136132093Y-118333350D01*
X136247187Y-118247190D01*
X136247190Y-118247187D01*
X136333350Y-118132093D01*
X136333354Y-118132086D01*
X136383596Y-117997379D01*
X136383598Y-117997372D01*
X136389999Y-117937844D01*
X136390000Y-117937827D01*
X136390000Y-117690000D01*
X135390000Y-117690000D01*
X134890000Y-117690000D01*
X133890000Y-117690000D01*
X133890000Y-117937837D01*
X133890060Y-117938960D01*
X133890000Y-117939213D01*
X133890000Y-117941149D01*
X133889542Y-117941149D01*
X133873983Y-118006955D01*
X133823698Y-118055464D01*
X133755169Y-118069086D01*
X133690154Y-118043496D01*
X133678556Y-118033262D01*
X133487819Y-117842524D01*
X133454334Y-117781201D01*
X133451500Y-117754843D01*
X133451500Y-117190000D01*
X133890000Y-117190000D01*
X134890000Y-117190000D01*
X134890000Y-116490000D01*
X135390000Y-116490000D01*
X135390000Y-117190000D01*
X136390000Y-117190000D01*
X136390000Y-116942172D01*
X136389999Y-116942155D01*
X136383598Y-116882627D01*
X136383596Y-116882620D01*
X136333354Y-116747913D01*
X136333350Y-116747906D01*
X136247190Y-116632812D01*
X136247187Y-116632809D01*
X136132093Y-116546649D01*
X136132086Y-116546645D01*
X135997379Y-116496403D01*
X135997372Y-116496401D01*
X135937844Y-116490000D01*
X135390000Y-116490000D01*
X134890000Y-116490000D01*
X134342155Y-116490000D01*
X134282627Y-116496401D01*
X134282620Y-116496403D01*
X134147913Y-116546645D01*
X134147906Y-116546649D01*
X134032812Y-116632809D01*
X134032809Y-116632812D01*
X133946649Y-116747906D01*
X133946645Y-116747913D01*
X133896403Y-116882620D01*
X133896401Y-116882627D01*
X133890000Y-116942155D01*
X133890000Y-117190000D01*
X133451500Y-117190000D01*
X133451500Y-114637870D01*
X133889500Y-114637870D01*
X133889501Y-114637876D01*
X133895908Y-114697483D01*
X133946202Y-114832328D01*
X133946206Y-114832335D01*
X134032452Y-114947544D01*
X134032455Y-114947547D01*
X134147664Y-115033793D01*
X134147671Y-115033797D01*
X134282517Y-115084091D01*
X134282516Y-115084091D01*
X134289444Y-115084835D01*
X134342127Y-115090500D01*
X135937872Y-115090499D01*
X135997483Y-115084091D01*
X136132331Y-115033796D01*
X136247546Y-114947546D01*
X136333796Y-114832331D01*
X136384091Y-114697483D01*
X136390500Y-114637873D01*
X136390499Y-113642128D01*
X136384091Y-113582517D01*
X136375170Y-113558599D01*
X136333797Y-113447671D01*
X136333793Y-113447664D01*
X136247547Y-113332455D01*
X136247544Y-113332452D01*
X136132335Y-113246206D01*
X136132328Y-113246202D01*
X135997482Y-113195908D01*
X135997483Y-113195908D01*
X135937883Y-113189501D01*
X135937881Y-113189500D01*
X135937873Y-113189500D01*
X135937864Y-113189500D01*
X134342129Y-113189500D01*
X134342123Y-113189501D01*
X134282516Y-113195908D01*
X134147671Y-113246202D01*
X134147664Y-113246206D01*
X134032455Y-113332452D01*
X134032452Y-113332455D01*
X133946206Y-113447664D01*
X133946202Y-113447671D01*
X133895908Y-113582517D01*
X133889501Y-113642116D01*
X133889501Y-113642123D01*
X133889500Y-113642135D01*
X133889500Y-114637870D01*
X133451500Y-114637870D01*
X133451500Y-95755781D01*
X133471185Y-95688742D01*
X133523989Y-95642987D01*
X133593147Y-95633043D01*
X133656703Y-95662068D01*
X133663167Y-95668087D01*
X135957497Y-97962416D01*
X138223181Y-100228100D01*
X138256666Y-100289423D01*
X138259500Y-100315781D01*
X138259500Y-108136571D01*
X138258969Y-108144673D01*
X138254318Y-108179999D01*
X138254318Y-108180000D01*
X138259500Y-108219360D01*
X138274955Y-108336760D01*
X138274956Y-108336762D01*
X138335464Y-108482841D01*
X138431718Y-108608282D01*
X138459995Y-108629980D01*
X138466085Y-108635320D01*
X139858595Y-110027830D01*
X141237233Y-111406468D01*
X141270718Y-111467791D01*
X141269327Y-111526241D01*
X141234939Y-111654583D01*
X141234936Y-111654596D01*
X141214341Y-111889999D01*
X141214341Y-111890000D01*
X141234936Y-112125403D01*
X141234938Y-112125413D01*
X141296094Y-112353655D01*
X141296096Y-112353659D01*
X141296097Y-112353663D01*
X141384956Y-112544222D01*
X141395965Y-112567830D01*
X141395967Y-112567834D01*
X141531501Y-112761395D01*
X141531506Y-112761402D01*
X141698597Y-112928493D01*
X141698603Y-112928498D01*
X141884158Y-113058425D01*
X141927783Y-113113002D01*
X141934977Y-113182500D01*
X141903454Y-113244855D01*
X141884158Y-113261575D01*
X141698597Y-113391505D01*
X141531505Y-113558597D01*
X141395965Y-113752169D01*
X141395964Y-113752171D01*
X141296098Y-113966335D01*
X141296094Y-113966344D01*
X141234938Y-114194586D01*
X141234936Y-114194596D01*
X141214341Y-114429999D01*
X141214341Y-114430000D01*
X141234936Y-114665403D01*
X141234938Y-114665413D01*
X141296094Y-114893655D01*
X141296096Y-114893659D01*
X141296097Y-114893663D01*
X141360149Y-115031022D01*
X141395965Y-115107830D01*
X141395967Y-115107834D01*
X141504281Y-115262521D01*
X141531501Y-115301396D01*
X141531506Y-115301402D01*
X141653818Y-115423714D01*
X141687303Y-115485037D01*
X141682319Y-115554729D01*
X141640447Y-115610662D01*
X141609471Y-115627577D01*
X141477912Y-115676646D01*
X141477906Y-115676649D01*
X141362812Y-115762809D01*
X141362809Y-115762812D01*
X141276649Y-115877906D01*
X141276645Y-115877913D01*
X141226403Y-116012620D01*
X141226401Y-116012627D01*
X141220000Y-116072155D01*
X141220000Y-116720000D01*
X142136314Y-116720000D01*
X142110507Y-116760156D01*
X142070000Y-116898111D01*
X142070000Y-117041889D01*
X142110507Y-117179844D01*
X142136314Y-117220000D01*
X141220000Y-117220000D01*
X141220000Y-117867844D01*
X141226401Y-117927372D01*
X141226403Y-117927379D01*
X141276645Y-118062086D01*
X141276649Y-118062093D01*
X141362809Y-118177187D01*
X141362812Y-118177190D01*
X141477906Y-118263350D01*
X141477913Y-118263354D01*
X141612620Y-118313596D01*
X141612627Y-118313598D01*
X141672155Y-118319999D01*
X141672172Y-118320000D01*
X142320000Y-118320000D01*
X142320000Y-117405501D01*
X142427685Y-117454680D01*
X142534237Y-117470000D01*
X142605763Y-117470000D01*
X142712315Y-117454680D01*
X142820000Y-117405501D01*
X142820000Y-118320000D01*
X143467828Y-118320000D01*
X143467844Y-118319999D01*
X143527372Y-118313598D01*
X143527379Y-118313596D01*
X143662086Y-118263354D01*
X143662093Y-118263350D01*
X143777187Y-118177190D01*
X143777190Y-118177187D01*
X143863350Y-118062093D01*
X143863354Y-118062086D01*
X143913596Y-117927379D01*
X143913598Y-117927372D01*
X143919999Y-117867844D01*
X143920000Y-117867827D01*
X143920000Y-117220000D01*
X143003686Y-117220000D01*
X143029493Y-117179844D01*
X143070000Y-117041889D01*
X143070000Y-116898111D01*
X143029493Y-116760156D01*
X143003686Y-116720000D01*
X143920000Y-116720000D01*
X143920000Y-116072172D01*
X143919999Y-116072155D01*
X143913598Y-116012627D01*
X143913596Y-116012620D01*
X143863354Y-115877913D01*
X143863350Y-115877906D01*
X143777190Y-115762812D01*
X143777187Y-115762809D01*
X143662093Y-115676649D01*
X143662088Y-115676646D01*
X143530528Y-115627577D01*
X143474595Y-115585705D01*
X143450178Y-115520241D01*
X143465030Y-115451968D01*
X143486175Y-115423720D01*
X143608495Y-115301401D01*
X143744035Y-115107830D01*
X143843903Y-114893663D01*
X143905063Y-114665408D01*
X143925659Y-114430000D01*
X143905063Y-114194592D01*
X143870671Y-114066239D01*
X143872334Y-113996393D01*
X143902763Y-113946470D01*
X145613922Y-112235311D01*
X145619999Y-112229983D01*
X145648282Y-112208282D01*
X145744536Y-112082841D01*
X145805044Y-111936762D01*
X145820500Y-111819361D01*
X145825682Y-111780000D01*
X145821030Y-111744669D01*
X145820500Y-111736571D01*
X145820500Y-105853428D01*
X145821031Y-105845326D01*
X145825682Y-105809999D01*
X145825682Y-105809998D01*
X145805044Y-105653239D01*
X145805042Y-105653234D01*
X145793459Y-105625271D01*
X145757181Y-105537686D01*
X145744538Y-105507163D01*
X145744535Y-105507158D01*
X145738659Y-105499500D01*
X145710728Y-105463100D01*
X145648282Y-105381718D01*
X145620005Y-105360020D01*
X145613904Y-105354669D01*
X143154288Y-102895053D01*
X143120803Y-102833730D01*
X143125787Y-102764038D01*
X143167659Y-102708105D01*
X143209877Y-102687596D01*
X143223663Y-102683903D01*
X143437830Y-102584035D01*
X143631401Y-102448495D01*
X143798495Y-102281401D01*
X143934035Y-102087830D01*
X144033903Y-101873663D01*
X144095063Y-101645408D01*
X144115659Y-101410000D01*
X144095063Y-101174592D01*
X144033903Y-100946337D01*
X143934035Y-100732171D01*
X143798495Y-100538599D01*
X143798494Y-100538597D01*
X143631402Y-100371506D01*
X143631396Y-100371501D01*
X143445842Y-100241575D01*
X143402217Y-100186998D01*
X143395023Y-100117500D01*
X143426546Y-100055145D01*
X143445842Y-100038425D01*
X143489942Y-100007546D01*
X143631401Y-99908495D01*
X143798495Y-99741401D01*
X143934035Y-99547830D01*
X144033903Y-99333663D01*
X144095063Y-99105408D01*
X144115659Y-98870000D01*
X144095063Y-98634592D01*
X144033903Y-98406337D01*
X143934035Y-98192171D01*
X143900015Y-98143584D01*
X143798494Y-97998597D01*
X143631402Y-97831506D01*
X143631396Y-97831501D01*
X143445842Y-97701575D01*
X143402217Y-97646998D01*
X143395023Y-97577500D01*
X143426546Y-97515145D01*
X143445842Y-97498425D01*
X143468026Y-97482891D01*
X143631401Y-97368495D01*
X143798495Y-97201401D01*
X143934035Y-97007830D01*
X144033903Y-96793663D01*
X144095063Y-96565408D01*
X144115659Y-96330000D01*
X144114171Y-96312998D01*
X144101267Y-96165503D01*
X144095063Y-96094592D01*
X144053499Y-95939470D01*
X144055162Y-95869624D01*
X144085591Y-95819701D01*
X146088065Y-93817227D01*
X146094140Y-93811901D01*
X146121165Y-93791165D01*
X146121165Y-93791163D01*
X146127616Y-93786215D01*
X146129209Y-93788291D01*
X146179142Y-93761026D01*
X146248834Y-93766010D01*
X146304767Y-93807882D01*
X146329184Y-93873346D01*
X146329500Y-93882192D01*
X146329500Y-130235500D01*
X146309815Y-130302539D01*
X146257011Y-130348294D01*
X146205500Y-130359500D01*
X90654500Y-130359500D01*
X90587461Y-130339815D01*
X90541706Y-130287011D01*
X90530500Y-130235500D01*
X90530500Y-129557954D01*
X90533090Y-125402590D01*
X90549837Y-98537501D01*
X98464500Y-98537501D01*
X98464501Y-98537519D01*
X98475000Y-98640296D01*
X98475001Y-98640299D01*
X98530185Y-98806831D01*
X98530186Y-98806834D01*
X98622288Y-98956156D01*
X98746344Y-99080212D01*
X98895666Y-99172314D01*
X99062203Y-99227499D01*
X99062206Y-99227499D01*
X99067770Y-99229343D01*
X99125215Y-99269115D01*
X99152038Y-99333631D01*
X99151862Y-99361995D01*
X99139355Y-99464999D01*
X99159859Y-99633869D01*
X99159860Y-99633874D01*
X99220182Y-99792931D01*
X99282475Y-99883177D01*
X99316817Y-99932929D01*
X99401044Y-100007547D01*
X99444150Y-100045736D01*
X99580885Y-100117500D01*
X99594775Y-100124790D01*
X99759944Y-100165500D01*
X99930056Y-100165500D01*
X100095225Y-100124790D01*
X100174692Y-100083081D01*
X100245849Y-100045736D01*
X100245850Y-100045734D01*
X100245852Y-100045734D01*
X100373183Y-99932929D01*
X100469818Y-99792930D01*
X100530140Y-99633872D01*
X100550645Y-99465000D01*
X100537751Y-99358810D01*
X100549211Y-99289887D01*
X100596115Y-99238101D01*
X100621840Y-99226158D01*
X100784334Y-99172314D01*
X100933656Y-99080212D01*
X101057712Y-98956156D01*
X101149814Y-98806834D01*
X101204999Y-98640297D01*
X101215500Y-98537509D01*
X101215499Y-97812492D01*
X101204999Y-97709703D01*
X101149814Y-97543166D01*
X101057712Y-97393844D01*
X100933656Y-97269788D01*
X100784334Y-97177686D01*
X100617797Y-97122501D01*
X100617795Y-97122500D01*
X100515010Y-97112000D01*
X99164998Y-97112000D01*
X99164981Y-97112001D01*
X99062203Y-97122500D01*
X99062200Y-97122501D01*
X98895668Y-97177685D01*
X98895663Y-97177687D01*
X98746342Y-97269789D01*
X98622289Y-97393842D01*
X98530187Y-97543163D01*
X98530185Y-97543168D01*
X98520246Y-97573163D01*
X98475001Y-97709703D01*
X98475001Y-97709704D01*
X98475000Y-97709704D01*
X98464500Y-97812483D01*
X98464500Y-98537501D01*
X90549837Y-98537501D01*
X90553434Y-92767501D01*
X98444500Y-92767501D01*
X98444501Y-92767519D01*
X98455000Y-92870296D01*
X98455001Y-92870299D01*
X98510185Y-93036831D01*
X98510187Y-93036836D01*
X98529090Y-93067483D01*
X98602288Y-93186156D01*
X98726344Y-93310212D01*
X98875666Y-93402314D01*
X99042203Y-93457499D01*
X99108103Y-93464231D01*
X99172794Y-93490627D01*
X99212945Y-93547807D01*
X99219500Y-93587589D01*
X99219500Y-94069454D01*
X99199815Y-94136493D01*
X99147011Y-94182248D01*
X99108102Y-94192812D01*
X99062202Y-94197501D01*
X99062200Y-94197501D01*
X98895668Y-94252685D01*
X98895663Y-94252687D01*
X98746342Y-94344789D01*
X98622289Y-94468842D01*
X98530187Y-94618163D01*
X98530185Y-94618168D01*
X98519637Y-94650000D01*
X98475001Y-94784703D01*
X98475001Y-94784704D01*
X98475000Y-94784704D01*
X98464500Y-94887483D01*
X98464500Y-95612501D01*
X98464501Y-95612519D01*
X98475000Y-95715296D01*
X98475001Y-95715299D01*
X98530185Y-95881831D01*
X98530187Y-95881836D01*
X98556133Y-95923901D01*
X98622288Y-96031156D01*
X98746344Y-96155212D01*
X98895666Y-96247314D01*
X99062203Y-96302499D01*
X99164991Y-96313000D01*
X100515008Y-96312999D01*
X100617797Y-96302499D01*
X100784334Y-96247314D01*
X100933656Y-96155212D01*
X101057712Y-96031156D01*
X101149814Y-95881834D01*
X101204999Y-95715297D01*
X101215500Y-95612509D01*
X101215499Y-94887492D01*
X101214971Y-94882328D01*
X101204999Y-94784703D01*
X101204998Y-94784700D01*
X101192665Y-94747483D01*
X101149814Y-94618166D01*
X101057712Y-94468844D01*
X100933656Y-94344788D01*
X100784334Y-94252686D01*
X100617797Y-94197501D01*
X100617794Y-94197500D01*
X100531897Y-94188725D01*
X100467205Y-94162329D01*
X100427054Y-94105148D01*
X100420500Y-94065367D01*
X100420500Y-93587588D01*
X100440185Y-93520549D01*
X100492989Y-93474794D01*
X100531897Y-93464230D01*
X100597797Y-93457499D01*
X100764334Y-93402314D01*
X100913656Y-93310212D01*
X101037712Y-93186156D01*
X101129814Y-93036834D01*
X101184999Y-92870297D01*
X101189371Y-92827501D01*
X103944500Y-92827501D01*
X103944501Y-92827519D01*
X103955000Y-92930296D01*
X103955001Y-92930299D01*
X104002951Y-93075000D01*
X104010186Y-93096834D01*
X104102288Y-93246156D01*
X104226344Y-93370212D01*
X104375666Y-93462314D01*
X104542203Y-93517499D01*
X104608103Y-93524231D01*
X104672794Y-93550627D01*
X104712945Y-93607807D01*
X104719500Y-93647589D01*
X104719500Y-94100475D01*
X104699815Y-94167514D01*
X104647011Y-94213269D01*
X104608104Y-94223833D01*
X104572201Y-94227501D01*
X104572200Y-94227501D01*
X104405668Y-94282685D01*
X104405663Y-94282687D01*
X104256342Y-94374789D01*
X104132289Y-94498842D01*
X104040187Y-94648163D01*
X104040185Y-94648168D01*
X104039578Y-94650000D01*
X103985001Y-94814703D01*
X103985001Y-94814704D01*
X103985000Y-94814704D01*
X103974500Y-94917483D01*
X103974500Y-95642501D01*
X103974501Y-95642519D01*
X103985000Y-95745296D01*
X103985001Y-95745299D01*
X104009655Y-95819699D01*
X104040186Y-95911834D01*
X104132288Y-96061156D01*
X104256344Y-96185212D01*
X104405666Y-96277314D01*
X104572203Y-96332499D01*
X104674991Y-96343000D01*
X106025008Y-96342999D01*
X106127797Y-96332499D01*
X106294334Y-96277314D01*
X106443656Y-96185212D01*
X106567712Y-96061156D01*
X106659814Y-95911834D01*
X106714999Y-95745297D01*
X106725500Y-95642509D01*
X106725499Y-94917492D01*
X106722434Y-94887492D01*
X106714999Y-94814703D01*
X106714998Y-94814700D01*
X106692724Y-94747483D01*
X106659814Y-94648166D01*
X106567712Y-94498844D01*
X106443656Y-94374788D01*
X106294334Y-94282686D01*
X106127797Y-94227501D01*
X106127794Y-94227500D01*
X106031897Y-94217703D01*
X105967205Y-94191306D01*
X105927054Y-94134125D01*
X105920500Y-94094345D01*
X105920500Y-93647588D01*
X105940185Y-93580549D01*
X105992989Y-93534794D01*
X106031897Y-93524230D01*
X106097797Y-93517499D01*
X106264334Y-93462314D01*
X106413656Y-93370212D01*
X106537712Y-93246156D01*
X106629814Y-93096834D01*
X106684999Y-92930297D01*
X106695500Y-92827509D01*
X106695499Y-91977492D01*
X106684999Y-91874703D01*
X106629814Y-91708166D01*
X106537712Y-91558844D01*
X106413656Y-91434788D01*
X106264334Y-91342686D01*
X106097797Y-91287501D01*
X106097795Y-91287500D01*
X105995010Y-91277000D01*
X104644998Y-91277000D01*
X104644981Y-91277001D01*
X104542203Y-91287500D01*
X104542200Y-91287501D01*
X104375668Y-91342685D01*
X104375663Y-91342687D01*
X104226342Y-91434789D01*
X104102289Y-91558842D01*
X104010187Y-91708163D01*
X104010185Y-91708166D01*
X104010186Y-91708166D01*
X103955001Y-91874703D01*
X103955001Y-91874704D01*
X103955000Y-91874704D01*
X103944500Y-91977483D01*
X103944500Y-92827501D01*
X101189371Y-92827501D01*
X101195500Y-92767509D01*
X101195499Y-91917492D01*
X101184999Y-91814703D01*
X101129814Y-91648166D01*
X101037712Y-91498844D01*
X100913656Y-91374788D01*
X100820888Y-91317568D01*
X100764336Y-91282687D01*
X100764331Y-91282685D01*
X100747175Y-91277000D01*
X100597797Y-91227501D01*
X100597795Y-91227500D01*
X100495010Y-91217000D01*
X99144998Y-91217000D01*
X99144981Y-91217001D01*
X99042203Y-91227500D01*
X99042200Y-91227501D01*
X98875668Y-91282685D01*
X98875663Y-91282687D01*
X98726342Y-91374789D01*
X98602289Y-91498842D01*
X98510187Y-91648163D01*
X98510185Y-91648166D01*
X98510186Y-91648166D01*
X98455001Y-91814703D01*
X98455001Y-91814704D01*
X98455000Y-91814704D01*
X98444500Y-91917483D01*
X98444500Y-92767501D01*
X90553434Y-92767501D01*
X90555289Y-89792500D01*
X98445001Y-89792500D01*
X98445001Y-89967486D01*
X98455494Y-90070197D01*
X98510641Y-90236619D01*
X98510643Y-90236624D01*
X98602684Y-90385845D01*
X98726654Y-90509815D01*
X98875875Y-90601856D01*
X98875880Y-90601858D01*
X99042302Y-90657005D01*
X99042309Y-90657006D01*
X99145019Y-90667499D01*
X99569999Y-90667499D01*
X99570000Y-90667498D01*
X99570000Y-89792500D01*
X100070000Y-89792500D01*
X100070000Y-90667499D01*
X100494972Y-90667499D01*
X100494986Y-90667498D01*
X100597697Y-90657005D01*
X100764119Y-90601858D01*
X100764124Y-90601856D01*
X100913345Y-90509815D01*
X101037315Y-90385845D01*
X101129356Y-90236624D01*
X101129358Y-90236619D01*
X101184505Y-90070197D01*
X101184506Y-90070190D01*
X101194999Y-89967486D01*
X101195000Y-89967473D01*
X101195000Y-89792500D01*
X100070000Y-89792500D01*
X99570000Y-89792500D01*
X98445001Y-89792500D01*
X90555289Y-89792500D01*
X90589922Y-34233786D01*
X90609648Y-34166762D01*
X90662481Y-34121040D01*
X90713785Y-34109866D01*
X124395628Y-34073630D01*
X127305316Y-34070500D01*
X146205500Y-34070500D01*
X146272539Y-34090185D01*
G37*
%TD.AperFunction*%
%TA.AperFunction,Conductor*%
G36*
X120749702Y-107378608D02*
G01*
X120756180Y-107384640D01*
X126355040Y-112983500D01*
X126388525Y-113044823D01*
X126383541Y-113114515D01*
X126341669Y-113170448D01*
X126276205Y-113194865D01*
X126254108Y-113194471D01*
X126207873Y-113189500D01*
X126207865Y-113189500D01*
X124612129Y-113189500D01*
X124612123Y-113189501D01*
X124552516Y-113195908D01*
X124417671Y-113246202D01*
X124417664Y-113246206D01*
X124302455Y-113332452D01*
X124302452Y-113332455D01*
X124216206Y-113447664D01*
X124216202Y-113447671D01*
X124165908Y-113582517D01*
X124159501Y-113642116D01*
X124159501Y-113642123D01*
X124159500Y-113642135D01*
X124159500Y-114637870D01*
X124159501Y-114637876D01*
X124165908Y-114697483D01*
X124216202Y-114832328D01*
X124216206Y-114832335D01*
X124302452Y-114947544D01*
X124302455Y-114947547D01*
X124417664Y-115033793D01*
X124417671Y-115033797D01*
X124552517Y-115084091D01*
X124552516Y-115084091D01*
X124559444Y-115084835D01*
X124612127Y-115090500D01*
X126207872Y-115090499D01*
X126267483Y-115084091D01*
X126402331Y-115033796D01*
X126402334Y-115033793D01*
X126410114Y-115029546D01*
X126410920Y-115031022D01*
X126466642Y-115010234D01*
X126534916Y-115025079D01*
X126584326Y-115074480D01*
X126599500Y-115133917D01*
X126599500Y-116446706D01*
X126579815Y-116513745D01*
X126527011Y-116559500D01*
X126457853Y-116569444D01*
X126410462Y-116549814D01*
X126409872Y-116550897D01*
X126402086Y-116546645D01*
X126267379Y-116496403D01*
X126267372Y-116496401D01*
X126207844Y-116490000D01*
X125660000Y-116490000D01*
X125660000Y-118390000D01*
X126207828Y-118390000D01*
X126207844Y-118389999D01*
X126267372Y-118383598D01*
X126267379Y-118383596D01*
X126402086Y-118333354D01*
X126409872Y-118329103D01*
X126410637Y-118330504D01*
X126466645Y-118309610D01*
X126534919Y-118324456D01*
X126584328Y-118373858D01*
X126599500Y-118433293D01*
X126599500Y-122446571D01*
X126598969Y-122454669D01*
X126594318Y-122490000D01*
X126605320Y-122573572D01*
X126614956Y-122646762D01*
X126675464Y-122792841D01*
X126771718Y-122918282D01*
X126799995Y-122939980D01*
X126806085Y-122945320D01*
X128033173Y-124172408D01*
X129248584Y-125387819D01*
X129282069Y-125449142D01*
X129277085Y-125518834D01*
X129235213Y-125574767D01*
X129169749Y-125599184D01*
X129160903Y-125599500D01*
X128032129Y-125599500D01*
X128032123Y-125599501D01*
X127972516Y-125605908D01*
X127837671Y-125656202D01*
X127837664Y-125656206D01*
X127722455Y-125742452D01*
X127722454Y-125742453D01*
X127699168Y-125773559D01*
X127643234Y-125815429D01*
X127573542Y-125820412D01*
X127512222Y-125786927D01*
X123941555Y-122216260D01*
X120327473Y-118602179D01*
X120293989Y-118540857D01*
X120298973Y-118471165D01*
X120340845Y-118415232D01*
X120406309Y-118390815D01*
X120415155Y-118390499D01*
X121307871Y-118390499D01*
X121307872Y-118390499D01*
X121367483Y-118384091D01*
X121502331Y-118333796D01*
X121617546Y-118247546D01*
X121703796Y-118132331D01*
X121754091Y-117997483D01*
X121760500Y-117937873D01*
X121760500Y-117690000D01*
X124160000Y-117690000D01*
X124160000Y-117937844D01*
X124166401Y-117997372D01*
X124166403Y-117997379D01*
X124216645Y-118132086D01*
X124216649Y-118132093D01*
X124302809Y-118247187D01*
X124302812Y-118247190D01*
X124417906Y-118333350D01*
X124417913Y-118333354D01*
X124552620Y-118383596D01*
X124552627Y-118383598D01*
X124612155Y-118389999D01*
X124612172Y-118390000D01*
X125160000Y-118390000D01*
X125160000Y-117690000D01*
X124160000Y-117690000D01*
X121760500Y-117690000D01*
X121760499Y-117190000D01*
X124160000Y-117190000D01*
X125160000Y-117190000D01*
X125160000Y-116490000D01*
X124612155Y-116490000D01*
X124552627Y-116496401D01*
X124552620Y-116496403D01*
X124417913Y-116546645D01*
X124417906Y-116546649D01*
X124302812Y-116632809D01*
X124302809Y-116632812D01*
X124216649Y-116747906D01*
X124216645Y-116747913D01*
X124166403Y-116882620D01*
X124166401Y-116882627D01*
X124160000Y-116942155D01*
X124160000Y-117190000D01*
X121760499Y-117190000D01*
X121760499Y-117056154D01*
X121780183Y-116989116D01*
X121796813Y-116968479D01*
X122744648Y-116020644D01*
X122750723Y-116015318D01*
X122777748Y-115994582D01*
X122848275Y-115902669D01*
X122870156Y-115874154D01*
X122906811Y-115785659D01*
X122928245Y-115733914D01*
X122943083Y-115621206D01*
X122943083Y-115621204D01*
X122948058Y-115583417D01*
X122943613Y-115549658D01*
X122943083Y-115541560D01*
X122943083Y-113128439D01*
X122943614Y-113120337D01*
X122944381Y-113114515D01*
X122948058Y-113086583D01*
X122928245Y-112936086D01*
X122899835Y-112867498D01*
X122870157Y-112795847D01*
X122870155Y-112795845D01*
X122869065Y-112794425D01*
X122824605Y-112736483D01*
X122800953Y-112705659D01*
X122800950Y-112705656D01*
X122777747Y-112675417D01*
X122750734Y-112654689D01*
X122744638Y-112649344D01*
X120580819Y-110485525D01*
X120547334Y-110424202D01*
X120544500Y-110397844D01*
X120544500Y-108964360D01*
X120544500Y-107472317D01*
X120564184Y-107405282D01*
X120616987Y-107359527D01*
X120686146Y-107349583D01*
X120749702Y-107378608D01*
G37*
%TD.AperFunction*%
%TA.AperFunction,Conductor*%
G36*
X114869768Y-95246788D02*
G01*
X114923072Y-95291960D01*
X114943493Y-95358779D01*
X114943500Y-95360142D01*
X114943500Y-95865500D01*
X114923815Y-95932539D01*
X114871011Y-95978294D01*
X114819500Y-95989500D01*
X114704944Y-95989500D01*
X114539773Y-96030210D01*
X114389150Y-96109263D01*
X114261816Y-96222072D01*
X114165182Y-96362068D01*
X114104860Y-96521125D01*
X114104859Y-96521130D01*
X114084355Y-96690000D01*
X114104859Y-96858869D01*
X114104860Y-96858874D01*
X114161353Y-97007834D01*
X114165182Y-97017930D01*
X114167549Y-97021360D01*
X114168509Y-97024269D01*
X114168668Y-97024572D01*
X114168617Y-97024598D01*
X114189433Y-97087713D01*
X114189500Y-97091800D01*
X114189500Y-102893402D01*
X114169815Y-102960441D01*
X114153181Y-102981083D01*
X112883971Y-104250293D01*
X112822648Y-104283778D01*
X112752956Y-104278794D01*
X112697023Y-104236922D01*
X112672606Y-104171458D01*
X112672932Y-104150009D01*
X112675999Y-104119986D01*
X112676000Y-104119973D01*
X112676000Y-104007500D01*
X111551000Y-104007500D01*
X111551000Y-104819999D01*
X111975972Y-104819999D01*
X111975986Y-104819998D01*
X112006011Y-104816931D01*
X112074704Y-104829700D01*
X112125588Y-104877581D01*
X112142509Y-104945371D01*
X112120093Y-105011547D01*
X112106294Y-105027970D01*
X111551082Y-105583181D01*
X111489759Y-105616666D01*
X111463401Y-105619500D01*
X110625998Y-105619500D01*
X110625980Y-105619501D01*
X110523203Y-105630000D01*
X110523200Y-105630001D01*
X110356668Y-105685185D01*
X110356663Y-105685187D01*
X110207342Y-105777289D01*
X110083289Y-105901342D01*
X110000481Y-106035597D01*
X109948533Y-106082321D01*
X109894942Y-106094500D01*
X109384058Y-106094500D01*
X109317019Y-106074815D01*
X109278519Y-106035597D01*
X109247958Y-105986049D01*
X109195712Y-105901344D01*
X109071656Y-105777288D01*
X108922334Y-105685186D01*
X108755797Y-105630001D01*
X108755795Y-105630000D01*
X108653016Y-105619500D01*
X108653009Y-105619500D01*
X107414500Y-105619500D01*
X107347461Y-105599815D01*
X107301706Y-105547011D01*
X107290500Y-105495500D01*
X107290500Y-105308096D01*
X107310185Y-105241057D01*
X107326819Y-105220415D01*
X107690416Y-104856818D01*
X107751739Y-104823333D01*
X107778097Y-104820499D01*
X108653002Y-104820499D01*
X108653008Y-104820499D01*
X108755797Y-104809999D01*
X108922334Y-104754814D01*
X109071656Y-104662712D01*
X109195712Y-104538656D01*
X109287814Y-104389334D01*
X109342999Y-104222797D01*
X109353500Y-104120009D01*
X109353500Y-104007500D01*
X109926001Y-104007500D01*
X109926001Y-104119986D01*
X109936494Y-104222697D01*
X109991641Y-104389119D01*
X109991643Y-104389124D01*
X110083684Y-104538345D01*
X110207654Y-104662315D01*
X110356875Y-104754356D01*
X110356880Y-104754358D01*
X110523302Y-104809505D01*
X110523309Y-104809506D01*
X110626019Y-104819999D01*
X111050999Y-104819999D01*
X111051000Y-104819998D01*
X111051000Y-104007500D01*
X109926001Y-104007500D01*
X109353500Y-104007500D01*
X109353499Y-103507500D01*
X109926000Y-103507500D01*
X111051000Y-103507500D01*
X111051000Y-102695000D01*
X111551000Y-102695000D01*
X111551000Y-103507500D01*
X112675999Y-103507500D01*
X112675999Y-103395028D01*
X112675998Y-103395013D01*
X112665505Y-103292302D01*
X112610358Y-103125880D01*
X112610356Y-103125875D01*
X112518315Y-102976654D01*
X112394345Y-102852684D01*
X112245124Y-102760643D01*
X112245119Y-102760641D01*
X112078697Y-102705494D01*
X112078690Y-102705493D01*
X111975986Y-102695000D01*
X111551000Y-102695000D01*
X111051000Y-102695000D01*
X110626028Y-102695000D01*
X110626012Y-102695001D01*
X110523302Y-102705494D01*
X110356880Y-102760641D01*
X110356875Y-102760643D01*
X110207654Y-102852684D01*
X110083684Y-102976654D01*
X109991643Y-103125875D01*
X109991641Y-103125880D01*
X109936494Y-103292302D01*
X109936493Y-103292309D01*
X109926000Y-103395013D01*
X109926000Y-103507500D01*
X109353499Y-103507500D01*
X109353499Y-103369992D01*
X109342999Y-103267203D01*
X109287814Y-103100666D01*
X109195712Y-102951344D01*
X109071656Y-102827288D01*
X108922334Y-102735186D01*
X108755797Y-102680001D01*
X108755796Y-102680000D01*
X108750280Y-102678173D01*
X108692835Y-102638400D01*
X108666012Y-102573884D01*
X108666116Y-102557501D01*
X108665645Y-102557501D01*
X108665645Y-102550001D01*
X108653320Y-102448495D01*
X108645140Y-102381128D01*
X108584818Y-102222070D01*
X108488183Y-102082071D01*
X108360852Y-101969266D01*
X108360849Y-101969263D01*
X108247167Y-101909598D01*
X108196954Y-101861013D01*
X108180980Y-101792994D01*
X108204316Y-101727137D01*
X108217106Y-101712127D01*
X114545238Y-95383995D01*
X114575284Y-95361886D01*
X114710852Y-95290734D01*
X114737274Y-95267325D01*
X114800505Y-95237606D01*
X114869768Y-95246788D01*
G37*
%TD.AperFunction*%
%TD*%
M02*
