%TF.GenerationSoftware,KiCad,Pcbnew,7.0.5-7.0.5~ubuntu22.04.1*%
%TF.CreationDate,2023-07-06T21:51:07-03:00*%
%TF.ProjectId,Dev-kit-multiboards,4465762d-6b69-4742-9d6d-756c7469626f,rev?*%
%TF.SameCoordinates,Original*%
%TF.FileFunction,Drillmap*%
%TF.FilePolarity,Positive*%
%FSLAX45Y45*%
G04 Gerber Fmt 4.5, Leading zero omitted, Abs format (unit mm)*
G04 Created by KiCad (PCBNEW 7.0.5-7.0.5~ubuntu22.04.1) date 2023-07-06 21:51:07*
%MOMM*%
%LPD*%
G01*
G04 APERTURE LIST*
%ADD10C,0.100000*%
%ADD11C,0.200000*%
%ADD12C,0.020000*%
%ADD13C,0.040000*%
%ADD14C,0.060000*%
%ADD15C,0.085000*%
G04 APERTURE END LIST*
D10*
X9053000Y-3407000D02*
X14633000Y-3407000D01*
X14633000Y-13036000D01*
X9053000Y-13036000D01*
X9053000Y-3407000D01*
D11*
D12*
X9445000Y-10251000D02*
X9465000Y-10271000D01*
X9465000Y-10251000D02*
X9445000Y-10271000D01*
X9974500Y-9936500D02*
X9994500Y-9956500D01*
X9994500Y-9936500D02*
X9974500Y-9956500D01*
X10116000Y-10236000D02*
X10136000Y-10256000D01*
X10136000Y-10236000D02*
X10116000Y-10256000D01*
X10499000Y-10188000D02*
X10519000Y-10208000D01*
X10519000Y-10188000D02*
X10499000Y-10208000D01*
X10527500Y-9934500D02*
X10547500Y-9954500D01*
X10547500Y-9934500D02*
X10527500Y-9954500D01*
X10786000Y-10245000D02*
X10806000Y-10265000D01*
X10806000Y-10245000D02*
X10786000Y-10265000D01*
X10787000Y-6560000D02*
X10807000Y-6580000D01*
X10807000Y-6560000D02*
X10787000Y-6580000D01*
X10789000Y-7296000D02*
X10809000Y-7316000D01*
X10809000Y-7296000D02*
X10789000Y-7316000D01*
X10904000Y-6623000D02*
X10924000Y-6643000D01*
X10924000Y-6623000D02*
X10904000Y-6643000D01*
X10904000Y-7365000D02*
X10924000Y-7385000D01*
X10924000Y-7365000D02*
X10904000Y-7385000D01*
X11007000Y-10174000D02*
X11027000Y-10194000D01*
X11027000Y-10174000D02*
X11007000Y-10194000D01*
X11106000Y-7613000D02*
X11126000Y-7633000D01*
X11126000Y-7613000D02*
X11106000Y-7633000D01*
X11117000Y-6813000D02*
X11137000Y-6833000D01*
X11137000Y-6813000D02*
X11117000Y-6833000D01*
X11275500Y-9297500D02*
X11295500Y-9317500D01*
X11295500Y-9297500D02*
X11275500Y-9317500D01*
X11421000Y-9461000D02*
X11441000Y-9481000D01*
X11441000Y-9461000D02*
X11421000Y-9481000D01*
X11469000Y-9659000D02*
X11489000Y-9679000D01*
X11489000Y-9659000D02*
X11469000Y-9679000D01*
X11901000Y-11402000D02*
X11921000Y-11422000D01*
X11921000Y-11402000D02*
X11901000Y-11422000D01*
X12529000Y-11890000D02*
X12549000Y-11910000D01*
X12549000Y-11890000D02*
X12529000Y-11910000D01*
X12561500Y-7376500D02*
X12581500Y-7396500D01*
X12581500Y-7376500D02*
X12561500Y-7396500D01*
X12624000Y-7593000D02*
X12644000Y-7613000D01*
X12644000Y-7593000D02*
X12624000Y-7613000D01*
X12710000Y-11368000D02*
X12730000Y-11388000D01*
X12730000Y-11368000D02*
X12710000Y-11388000D01*
X12713465Y-11227535D02*
X12733465Y-11247535D01*
X12733465Y-11227535D02*
X12713465Y-11247535D01*
X12753000Y-10610000D02*
X12773000Y-10630000D01*
X12773000Y-10610000D02*
X12753000Y-10630000D01*
X12819000Y-6784000D02*
X12839000Y-6804000D01*
X12839000Y-6784000D02*
X12819000Y-6804000D01*
X12830050Y-6876000D02*
X12850050Y-6896000D01*
X12850050Y-6876000D02*
X12830050Y-6896000D01*
X12838000Y-11883000D02*
X12858000Y-11903000D01*
X12858000Y-11883000D02*
X12838000Y-11903000D01*
X12888000Y-11402000D02*
X12908000Y-11422000D01*
X12908000Y-11402000D02*
X12888000Y-11422000D01*
X13326000Y-5440000D02*
X13346000Y-5460000D01*
X13346000Y-5440000D02*
X13326000Y-5460000D01*
X13371000Y-3918000D02*
X13391000Y-3938000D01*
X13391000Y-3918000D02*
X13371000Y-3938000D01*
X14020000Y-9970000D02*
X14040000Y-9990000D01*
X14040000Y-9970000D02*
X14020000Y-9990000D01*
X14177000Y-5341000D02*
X14197000Y-5361000D01*
X14197000Y-5341000D02*
X14177000Y-5361000D01*
X14184000Y-3818000D02*
X14204000Y-3838000D01*
X14204000Y-3818000D02*
X14184000Y-3838000D01*
X14246000Y-10708000D02*
X14266000Y-10728000D01*
X14266000Y-10708000D02*
X14246000Y-10728000D01*
X14568950Y-5808000D02*
X14588950Y-5828000D01*
X14588950Y-5808000D02*
X14568950Y-5828000D01*
D13*
X11773000Y-8651000D02*
G75*
G03*
X11773000Y-8651000I-20000J0D01*
G01*
D14*
X11493000Y-12718750D02*
X11493000Y-12778750D01*
X11463000Y-12748750D02*
X11523000Y-12748750D01*
D11*
X11523000Y-12783750D02*
X11523000Y-12713750D01*
X11523000Y-12713750D02*
G75*
G03*
X11463000Y-12713750I-30000J0D01*
G01*
X11463000Y-12713750D02*
X11463000Y-12783750D01*
X11463000Y-12783750D02*
G75*
G03*
X11523000Y-12783750I30000J0D01*
G01*
D14*
X12193000Y-12718750D02*
X12193000Y-12778750D01*
X12163000Y-12748750D02*
X12223000Y-12748750D01*
D11*
X12163000Y-12713750D02*
X12163000Y-12783750D01*
X12163000Y-12783750D02*
G75*
G03*
X12223000Y-12783750I30000J0D01*
G01*
X12223000Y-12783750D02*
X12223000Y-12713750D01*
X12223000Y-12713750D02*
G75*
G03*
X12163000Y-12713750I-30000J0D01*
G01*
D15*
X11623052Y-12508802D02*
X11623052Y-12448698D01*
X11562948Y-12448698D01*
X11562948Y-12508802D01*
X11623052Y-12508802D01*
X12123052Y-12508802D02*
X12123052Y-12448698D01*
X12062948Y-12448698D01*
X12062948Y-12508802D01*
X12123052Y-12508802D01*
D10*
X9383000Y-3877000D02*
X9433000Y-3827000D01*
X9383000Y-3777000D01*
X9333000Y-3827000D01*
X9383000Y-3877000D01*
X9383000Y-4131000D02*
X9433000Y-4081000D01*
X9383000Y-4031000D01*
X9333000Y-4081000D01*
X9383000Y-4131000D01*
X9383000Y-4385000D02*
X9433000Y-4335000D01*
X9383000Y-4285000D01*
X9333000Y-4335000D01*
X9383000Y-4385000D01*
X9383000Y-4639000D02*
X9433000Y-4589000D01*
X9383000Y-4539000D01*
X9333000Y-4589000D01*
X9383000Y-4639000D01*
X9383000Y-4893000D02*
X9433000Y-4843000D01*
X9383000Y-4793000D01*
X9333000Y-4843000D01*
X9383000Y-4893000D01*
X9383000Y-5147000D02*
X9433000Y-5097000D01*
X9383000Y-5047000D01*
X9333000Y-5097000D01*
X9383000Y-5147000D01*
X9383000Y-5401000D02*
X9433000Y-5351000D01*
X9383000Y-5301000D01*
X9333000Y-5351000D01*
X9383000Y-5401000D01*
X9383000Y-5655000D02*
X9433000Y-5605000D01*
X9383000Y-5555000D01*
X9333000Y-5605000D01*
X9383000Y-5655000D01*
X9383000Y-5909000D02*
X9433000Y-5859000D01*
X9383000Y-5809000D01*
X9333000Y-5859000D01*
X9383000Y-5909000D01*
X9383000Y-6163000D02*
X9433000Y-6113000D01*
X9383000Y-6063000D01*
X9333000Y-6113000D01*
X9383000Y-6163000D01*
X9383000Y-6417000D02*
X9433000Y-6367000D01*
X9383000Y-6317000D01*
X9333000Y-6367000D01*
X9383000Y-6417000D01*
X9383000Y-6671000D02*
X9433000Y-6621000D01*
X9383000Y-6571000D01*
X9333000Y-6621000D01*
X9383000Y-6671000D01*
X9383000Y-6925000D02*
X9433000Y-6875000D01*
X9383000Y-6825000D01*
X9333000Y-6875000D01*
X9383000Y-6925000D01*
X9383000Y-7179000D02*
X9433000Y-7129000D01*
X9383000Y-7079000D01*
X9333000Y-7129000D01*
X9383000Y-7179000D01*
X9383000Y-7433000D02*
X9433000Y-7383000D01*
X9383000Y-7333000D01*
X9333000Y-7383000D01*
X9383000Y-7433000D01*
X9383000Y-7687000D02*
X9433000Y-7637000D01*
X9383000Y-7587000D01*
X9333000Y-7637000D01*
X9383000Y-7687000D01*
X9383000Y-7941000D02*
X9433000Y-7891000D01*
X9383000Y-7841000D01*
X9333000Y-7891000D01*
X9383000Y-7941000D01*
X9383000Y-8195000D02*
X9433000Y-8145000D01*
X9383000Y-8095000D01*
X9333000Y-8145000D01*
X9383000Y-8195000D01*
X9383000Y-8449000D02*
X9433000Y-8399000D01*
X9383000Y-8349000D01*
X9333000Y-8399000D01*
X9383000Y-8449000D01*
X9465000Y-12745000D02*
X9515000Y-12695000D01*
X9465000Y-12645000D01*
X9415000Y-12695000D01*
X9465000Y-12745000D01*
X9719000Y-12745000D02*
X9769000Y-12695000D01*
X9719000Y-12645000D01*
X9669000Y-12695000D01*
X9719000Y-12745000D01*
X10554000Y-12745000D02*
X10604000Y-12695000D01*
X10554000Y-12645000D01*
X10504000Y-12695000D01*
X10554000Y-12745000D01*
X10576000Y-3941625D02*
X10626000Y-3891625D01*
X10576000Y-3841625D01*
X10526000Y-3891625D01*
X10576000Y-3941625D01*
X10576000Y-4195625D02*
X10626000Y-4145625D01*
X10576000Y-4095625D01*
X10526000Y-4145625D01*
X10576000Y-4195625D01*
X10576000Y-4449625D02*
X10626000Y-4399625D01*
X10576000Y-4349625D01*
X10526000Y-4399625D01*
X10576000Y-4449625D01*
X10576000Y-4703625D02*
X10626000Y-4653625D01*
X10576000Y-4603625D01*
X10526000Y-4653625D01*
X10576000Y-4703625D01*
X10576000Y-4957625D02*
X10626000Y-4907625D01*
X10576000Y-4857625D01*
X10526000Y-4907625D01*
X10576000Y-4957625D01*
X10576000Y-5211625D02*
X10626000Y-5161625D01*
X10576000Y-5111625D01*
X10526000Y-5161625D01*
X10576000Y-5211625D01*
X10576000Y-5465625D02*
X10626000Y-5415625D01*
X10576000Y-5365625D01*
X10526000Y-5415625D01*
X10576000Y-5465625D01*
X10576000Y-5719625D02*
X10626000Y-5669625D01*
X10576000Y-5619625D01*
X10526000Y-5669625D01*
X10576000Y-5719625D01*
X10576000Y-5973625D02*
X10626000Y-5923625D01*
X10576000Y-5873625D01*
X10526000Y-5923625D01*
X10576000Y-5973625D01*
X10576000Y-6227625D02*
X10626000Y-6177625D01*
X10576000Y-6127625D01*
X10526000Y-6177625D01*
X10576000Y-6227625D01*
X10576000Y-6481625D02*
X10626000Y-6431625D01*
X10576000Y-6381625D01*
X10526000Y-6431625D01*
X10576000Y-6481625D01*
X10576000Y-6735625D02*
X10626000Y-6685625D01*
X10576000Y-6635625D01*
X10526000Y-6685625D01*
X10576000Y-6735625D01*
X10576000Y-6989625D02*
X10626000Y-6939625D01*
X10576000Y-6889625D01*
X10526000Y-6939625D01*
X10576000Y-6989625D01*
X10576000Y-7243625D02*
X10626000Y-7193625D01*
X10576000Y-7143625D01*
X10526000Y-7193625D01*
X10576000Y-7243625D01*
X10576000Y-7497625D02*
X10626000Y-7447625D01*
X10576000Y-7397625D01*
X10526000Y-7447625D01*
X10576000Y-7497625D01*
X10576000Y-7751625D02*
X10626000Y-7701625D01*
X10576000Y-7651625D01*
X10526000Y-7701625D01*
X10576000Y-7751625D01*
X10576000Y-8005625D02*
X10626000Y-7955625D01*
X10576000Y-7905625D01*
X10526000Y-7955625D01*
X10576000Y-8005625D01*
X10576000Y-8259625D02*
X10626000Y-8209625D01*
X10576000Y-8159625D01*
X10526000Y-8209625D01*
X10576000Y-8259625D01*
X10576000Y-8513625D02*
X10626000Y-8463625D01*
X10576000Y-8413625D01*
X10526000Y-8463625D01*
X10576000Y-8513625D01*
X10808000Y-12745000D02*
X10858000Y-12695000D01*
X10808000Y-12645000D01*
X10758000Y-12695000D01*
X10808000Y-12745000D01*
X12584000Y-9261000D02*
X12634000Y-9211000D01*
X12584000Y-9161000D01*
X12534000Y-9211000D01*
X12584000Y-9261000D01*
X12584000Y-9515000D02*
X12634000Y-9465000D01*
X12584000Y-9415000D01*
X12534000Y-9465000D01*
X12584000Y-9515000D01*
X12893000Y-12745000D02*
X12943000Y-12695000D01*
X12893000Y-12645000D01*
X12843000Y-12695000D01*
X12893000Y-12745000D01*
X12999000Y-9915000D02*
X13049000Y-9865000D01*
X12999000Y-9815000D01*
X12949000Y-9865000D01*
X12999000Y-9915000D01*
X12999000Y-10675000D02*
X13049000Y-10625000D01*
X12999000Y-10575000D01*
X12949000Y-10625000D01*
X12999000Y-10675000D01*
X13147000Y-12745000D02*
X13197000Y-12695000D01*
X13147000Y-12645000D01*
X13097000Y-12695000D01*
X13147000Y-12745000D01*
X13156000Y-3975625D02*
X13206000Y-3925625D01*
X13156000Y-3875625D01*
X13106000Y-3925625D01*
X13156000Y-3975625D01*
X13156000Y-4229625D02*
X13206000Y-4179625D01*
X13156000Y-4129625D01*
X13106000Y-4179625D01*
X13156000Y-4229625D01*
X13156000Y-4483625D02*
X13206000Y-4433625D01*
X13156000Y-4383625D01*
X13106000Y-4433625D01*
X13156000Y-4483625D01*
X13156000Y-4737625D02*
X13206000Y-4687625D01*
X13156000Y-4637625D01*
X13106000Y-4687625D01*
X13156000Y-4737625D01*
X13156000Y-4991625D02*
X13206000Y-4941625D01*
X13156000Y-4891625D01*
X13106000Y-4941625D01*
X13156000Y-4991625D01*
X13156000Y-5245625D02*
X13206000Y-5195625D01*
X13156000Y-5145625D01*
X13106000Y-5195625D01*
X13156000Y-5245625D01*
X13156000Y-5499625D02*
X13206000Y-5449625D01*
X13156000Y-5399625D01*
X13106000Y-5449625D01*
X13156000Y-5499625D01*
X13156000Y-5753625D02*
X13206000Y-5703625D01*
X13156000Y-5653625D01*
X13106000Y-5703625D01*
X13156000Y-5753625D01*
X13156000Y-6007625D02*
X13206000Y-5957625D01*
X13156000Y-5907625D01*
X13106000Y-5957625D01*
X13156000Y-6007625D01*
X13156000Y-6261625D02*
X13206000Y-6211625D01*
X13156000Y-6161625D01*
X13106000Y-6211625D01*
X13156000Y-6261625D01*
X13156000Y-6515625D02*
X13206000Y-6465625D01*
X13156000Y-6415625D01*
X13106000Y-6465625D01*
X13156000Y-6515625D01*
X13156000Y-6769625D02*
X13206000Y-6719625D01*
X13156000Y-6669625D01*
X13106000Y-6719625D01*
X13156000Y-6769625D01*
X13156000Y-7023625D02*
X13206000Y-6973625D01*
X13156000Y-6923625D01*
X13106000Y-6973625D01*
X13156000Y-7023625D01*
X13156000Y-7277625D02*
X13206000Y-7227625D01*
X13156000Y-7177625D01*
X13106000Y-7227625D01*
X13156000Y-7277625D01*
X13156000Y-7531625D02*
X13206000Y-7481625D01*
X13156000Y-7431625D01*
X13106000Y-7481625D01*
X13156000Y-7531625D01*
X13156000Y-7785625D02*
X13206000Y-7735625D01*
X13156000Y-7685625D01*
X13106000Y-7735625D01*
X13156000Y-7785625D01*
X13156000Y-8039625D02*
X13206000Y-7989625D01*
X13156000Y-7939625D01*
X13106000Y-7989625D01*
X13156000Y-8039625D01*
X13156000Y-8293625D02*
X13206000Y-8243625D01*
X13156000Y-8193625D01*
X13106000Y-8243625D01*
X13156000Y-8293625D01*
X13156000Y-8547625D02*
X13206000Y-8497625D01*
X13156000Y-8447625D01*
X13106000Y-8497625D01*
X13156000Y-8547625D01*
X13960000Y-12745000D02*
X14010000Y-12695000D01*
X13960000Y-12645000D01*
X13910000Y-12695000D01*
X13960000Y-12745000D01*
X14214000Y-12745000D02*
X14264000Y-12695000D01*
X14214000Y-12645000D01*
X14164000Y-12695000D01*
X14214000Y-12745000D01*
X14257000Y-10985000D02*
X14307000Y-10935000D01*
X14257000Y-10885000D01*
X14207000Y-10935000D01*
X14257000Y-10985000D01*
X14257000Y-11239000D02*
X14307000Y-11189000D01*
X14257000Y-11139000D01*
X14207000Y-11189000D01*
X14257000Y-11239000D01*
X14257000Y-11493000D02*
X14307000Y-11443000D01*
X14257000Y-11393000D01*
X14207000Y-11443000D01*
X14257000Y-11493000D01*
X14257000Y-11747000D02*
X14307000Y-11697000D01*
X14257000Y-11647000D01*
X14207000Y-11697000D01*
X14257000Y-11747000D01*
X14276000Y-9429000D02*
X14326000Y-9379000D01*
X14276000Y-9329000D01*
X14226000Y-9379000D01*
X14276000Y-9429000D01*
X14276000Y-9683000D02*
X14326000Y-9633000D01*
X14276000Y-9583000D01*
X14226000Y-9633000D01*
X14276000Y-9683000D01*
X14276000Y-9937000D02*
X14326000Y-9887000D01*
X14276000Y-9837000D01*
X14226000Y-9887000D01*
X14276000Y-9937000D01*
X14276000Y-10191000D02*
X14326000Y-10141000D01*
X14276000Y-10091000D01*
X14226000Y-10141000D01*
X14276000Y-10191000D01*
X14365000Y-3877000D02*
X14415000Y-3827000D01*
X14365000Y-3777000D01*
X14315000Y-3827000D01*
X14365000Y-3877000D01*
X14365000Y-4131000D02*
X14415000Y-4081000D01*
X14365000Y-4031000D01*
X14315000Y-4081000D01*
X14365000Y-4131000D01*
X14365000Y-4385000D02*
X14415000Y-4335000D01*
X14365000Y-4285000D01*
X14315000Y-4335000D01*
X14365000Y-4385000D01*
X14365000Y-4639000D02*
X14415000Y-4589000D01*
X14365000Y-4539000D01*
X14315000Y-4589000D01*
X14365000Y-4639000D01*
X14365000Y-4893000D02*
X14415000Y-4843000D01*
X14365000Y-4793000D01*
X14315000Y-4843000D01*
X14365000Y-4893000D01*
X14365000Y-5147000D02*
X14415000Y-5097000D01*
X14365000Y-5047000D01*
X14315000Y-5097000D01*
X14365000Y-5147000D01*
X14365000Y-5401000D02*
X14415000Y-5351000D01*
X14365000Y-5301000D01*
X14315000Y-5351000D01*
X14365000Y-5401000D01*
X14365000Y-5655000D02*
X14415000Y-5605000D01*
X14365000Y-5555000D01*
X14315000Y-5605000D01*
X14365000Y-5655000D01*
X14365000Y-5909000D02*
X14415000Y-5859000D01*
X14365000Y-5809000D01*
X14315000Y-5859000D01*
X14365000Y-5909000D01*
X14365000Y-6163000D02*
X14415000Y-6113000D01*
X14365000Y-6063000D01*
X14315000Y-6113000D01*
X14365000Y-6163000D01*
X14365000Y-6417000D02*
X14415000Y-6367000D01*
X14365000Y-6317000D01*
X14315000Y-6367000D01*
X14365000Y-6417000D01*
X14365000Y-6671000D02*
X14415000Y-6621000D01*
X14365000Y-6571000D01*
X14315000Y-6621000D01*
X14365000Y-6671000D01*
X14365000Y-6925000D02*
X14415000Y-6875000D01*
X14365000Y-6825000D01*
X14315000Y-6875000D01*
X14365000Y-6925000D01*
X14365000Y-7179000D02*
X14415000Y-7129000D01*
X14365000Y-7079000D01*
X14315000Y-7129000D01*
X14365000Y-7179000D01*
X14365000Y-7433000D02*
X14415000Y-7383000D01*
X14365000Y-7333000D01*
X14315000Y-7383000D01*
X14365000Y-7433000D01*
X14365000Y-7687000D02*
X14415000Y-7637000D01*
X14365000Y-7587000D01*
X14315000Y-7637000D01*
X14365000Y-7687000D01*
X14365000Y-7941000D02*
X14415000Y-7891000D01*
X14365000Y-7841000D01*
X14315000Y-7891000D01*
X14365000Y-7941000D01*
X14365000Y-8195000D02*
X14415000Y-8145000D01*
X14365000Y-8095000D01*
X14315000Y-8145000D01*
X14365000Y-8195000D01*
X14365000Y-8449000D02*
X14415000Y-8399000D01*
X14365000Y-8349000D01*
X14315000Y-8399000D01*
X14365000Y-8449000D01*
D11*
X9308777Y-13352484D02*
X9308777Y-13152484D01*
X9308777Y-13152484D02*
X9356396Y-13152484D01*
X9356396Y-13152484D02*
X9384967Y-13162008D01*
X9384967Y-13162008D02*
X9404015Y-13181055D01*
X9404015Y-13181055D02*
X9413539Y-13200103D01*
X9413539Y-13200103D02*
X9423063Y-13238198D01*
X9423063Y-13238198D02*
X9423063Y-13266769D01*
X9423063Y-13266769D02*
X9413539Y-13304865D01*
X9413539Y-13304865D02*
X9404015Y-13323912D01*
X9404015Y-13323912D02*
X9384967Y-13342960D01*
X9384967Y-13342960D02*
X9356396Y-13352484D01*
X9356396Y-13352484D02*
X9308777Y-13352484D01*
X9508777Y-13352484D02*
X9508777Y-13219150D01*
X9508777Y-13257246D02*
X9518301Y-13238198D01*
X9518301Y-13238198D02*
X9527824Y-13228674D01*
X9527824Y-13228674D02*
X9546872Y-13219150D01*
X9546872Y-13219150D02*
X9565920Y-13219150D01*
X9632586Y-13352484D02*
X9632586Y-13219150D01*
X9632586Y-13152484D02*
X9623063Y-13162008D01*
X9623063Y-13162008D02*
X9632586Y-13171531D01*
X9632586Y-13171531D02*
X9642110Y-13162008D01*
X9642110Y-13162008D02*
X9632586Y-13152484D01*
X9632586Y-13152484D02*
X9632586Y-13171531D01*
X9756396Y-13352484D02*
X9737348Y-13342960D01*
X9737348Y-13342960D02*
X9727824Y-13323912D01*
X9727824Y-13323912D02*
X9727824Y-13152484D01*
X9861158Y-13352484D02*
X9842110Y-13342960D01*
X9842110Y-13342960D02*
X9832586Y-13323912D01*
X9832586Y-13323912D02*
X9832586Y-13152484D01*
X10089729Y-13352484D02*
X10089729Y-13152484D01*
X10089729Y-13152484D02*
X10156396Y-13295341D01*
X10156396Y-13295341D02*
X10223063Y-13152484D01*
X10223063Y-13152484D02*
X10223063Y-13352484D01*
X10404015Y-13352484D02*
X10404015Y-13247722D01*
X10404015Y-13247722D02*
X10394491Y-13228674D01*
X10394491Y-13228674D02*
X10375444Y-13219150D01*
X10375444Y-13219150D02*
X10337348Y-13219150D01*
X10337348Y-13219150D02*
X10318301Y-13228674D01*
X10404015Y-13342960D02*
X10384967Y-13352484D01*
X10384967Y-13352484D02*
X10337348Y-13352484D01*
X10337348Y-13352484D02*
X10318301Y-13342960D01*
X10318301Y-13342960D02*
X10308777Y-13323912D01*
X10308777Y-13323912D02*
X10308777Y-13304865D01*
X10308777Y-13304865D02*
X10318301Y-13285817D01*
X10318301Y-13285817D02*
X10337348Y-13276293D01*
X10337348Y-13276293D02*
X10384967Y-13276293D01*
X10384967Y-13276293D02*
X10404015Y-13266769D01*
X10499253Y-13219150D02*
X10499253Y-13419150D01*
X10499253Y-13228674D02*
X10518301Y-13219150D01*
X10518301Y-13219150D02*
X10556396Y-13219150D01*
X10556396Y-13219150D02*
X10575444Y-13228674D01*
X10575444Y-13228674D02*
X10584967Y-13238198D01*
X10584967Y-13238198D02*
X10594491Y-13257246D01*
X10594491Y-13257246D02*
X10594491Y-13314388D01*
X10594491Y-13314388D02*
X10584967Y-13333436D01*
X10584967Y-13333436D02*
X10575444Y-13342960D01*
X10575444Y-13342960D02*
X10556396Y-13352484D01*
X10556396Y-13352484D02*
X10518301Y-13352484D01*
X10518301Y-13352484D02*
X10499253Y-13342960D01*
X10680205Y-13333436D02*
X10689729Y-13342960D01*
X10689729Y-13342960D02*
X10680205Y-13352484D01*
X10680205Y-13352484D02*
X10670682Y-13342960D01*
X10670682Y-13342960D02*
X10680205Y-13333436D01*
X10680205Y-13333436D02*
X10680205Y-13352484D01*
X10680205Y-13228674D02*
X10689729Y-13238198D01*
X10689729Y-13238198D02*
X10680205Y-13247722D01*
X10680205Y-13247722D02*
X10670682Y-13238198D01*
X10670682Y-13238198D02*
X10680205Y-13228674D01*
X10680205Y-13228674D02*
X10680205Y-13247722D01*
D12*
X9028000Y-13671000D02*
X9048000Y-13691000D01*
X9048000Y-13671000D02*
X9028000Y-13691000D01*
D11*
X9346872Y-13572484D02*
X9365920Y-13572484D01*
X9365920Y-13572484D02*
X9384967Y-13582008D01*
X9384967Y-13582008D02*
X9394491Y-13591531D01*
X9394491Y-13591531D02*
X9404015Y-13610579D01*
X9404015Y-13610579D02*
X9413539Y-13648674D01*
X9413539Y-13648674D02*
X9413539Y-13696293D01*
X9413539Y-13696293D02*
X9404015Y-13734388D01*
X9404015Y-13734388D02*
X9394491Y-13753436D01*
X9394491Y-13753436D02*
X9384967Y-13762960D01*
X9384967Y-13762960D02*
X9365920Y-13772484D01*
X9365920Y-13772484D02*
X9346872Y-13772484D01*
X9346872Y-13772484D02*
X9327824Y-13762960D01*
X9327824Y-13762960D02*
X9318301Y-13753436D01*
X9318301Y-13753436D02*
X9308777Y-13734388D01*
X9308777Y-13734388D02*
X9299253Y-13696293D01*
X9299253Y-13696293D02*
X9299253Y-13648674D01*
X9299253Y-13648674D02*
X9308777Y-13610579D01*
X9308777Y-13610579D02*
X9318301Y-13591531D01*
X9318301Y-13591531D02*
X9327824Y-13582008D01*
X9327824Y-13582008D02*
X9346872Y-13572484D01*
X9499253Y-13753436D02*
X9508777Y-13762960D01*
X9508777Y-13762960D02*
X9499253Y-13772484D01*
X9499253Y-13772484D02*
X9489729Y-13762960D01*
X9489729Y-13762960D02*
X9499253Y-13753436D01*
X9499253Y-13753436D02*
X9499253Y-13772484D01*
X9584967Y-13591531D02*
X9594491Y-13582008D01*
X9594491Y-13582008D02*
X9613539Y-13572484D01*
X9613539Y-13572484D02*
X9661158Y-13572484D01*
X9661158Y-13572484D02*
X9680205Y-13582008D01*
X9680205Y-13582008D02*
X9689729Y-13591531D01*
X9689729Y-13591531D02*
X9699253Y-13610579D01*
X9699253Y-13610579D02*
X9699253Y-13629627D01*
X9699253Y-13629627D02*
X9689729Y-13658198D01*
X9689729Y-13658198D02*
X9575444Y-13772484D01*
X9575444Y-13772484D02*
X9699253Y-13772484D01*
X9823063Y-13572484D02*
X9842110Y-13572484D01*
X9842110Y-13572484D02*
X9861158Y-13582008D01*
X9861158Y-13582008D02*
X9870682Y-13591531D01*
X9870682Y-13591531D02*
X9880205Y-13610579D01*
X9880205Y-13610579D02*
X9889729Y-13648674D01*
X9889729Y-13648674D02*
X9889729Y-13696293D01*
X9889729Y-13696293D02*
X9880205Y-13734388D01*
X9880205Y-13734388D02*
X9870682Y-13753436D01*
X9870682Y-13753436D02*
X9861158Y-13762960D01*
X9861158Y-13762960D02*
X9842110Y-13772484D01*
X9842110Y-13772484D02*
X9823063Y-13772484D01*
X9823063Y-13772484D02*
X9804015Y-13762960D01*
X9804015Y-13762960D02*
X9794491Y-13753436D01*
X9794491Y-13753436D02*
X9784967Y-13734388D01*
X9784967Y-13734388D02*
X9775444Y-13696293D01*
X9775444Y-13696293D02*
X9775444Y-13648674D01*
X9775444Y-13648674D02*
X9784967Y-13610579D01*
X9784967Y-13610579D02*
X9794491Y-13591531D01*
X9794491Y-13591531D02*
X9804015Y-13582008D01*
X9804015Y-13582008D02*
X9823063Y-13572484D01*
X10013539Y-13572484D02*
X10032586Y-13572484D01*
X10032586Y-13572484D02*
X10051634Y-13582008D01*
X10051634Y-13582008D02*
X10061158Y-13591531D01*
X10061158Y-13591531D02*
X10070682Y-13610579D01*
X10070682Y-13610579D02*
X10080205Y-13648674D01*
X10080205Y-13648674D02*
X10080205Y-13696293D01*
X10080205Y-13696293D02*
X10070682Y-13734388D01*
X10070682Y-13734388D02*
X10061158Y-13753436D01*
X10061158Y-13753436D02*
X10051634Y-13762960D01*
X10051634Y-13762960D02*
X10032586Y-13772484D01*
X10032586Y-13772484D02*
X10013539Y-13772484D01*
X10013539Y-13772484D02*
X9994491Y-13762960D01*
X9994491Y-13762960D02*
X9984967Y-13753436D01*
X9984967Y-13753436D02*
X9975444Y-13734388D01*
X9975444Y-13734388D02*
X9965920Y-13696293D01*
X9965920Y-13696293D02*
X9965920Y-13648674D01*
X9965920Y-13648674D02*
X9975444Y-13610579D01*
X9975444Y-13610579D02*
X9984967Y-13591531D01*
X9984967Y-13591531D02*
X9994491Y-13582008D01*
X9994491Y-13582008D02*
X10013539Y-13572484D01*
X10165920Y-13772484D02*
X10165920Y-13639150D01*
X10165920Y-13658198D02*
X10175444Y-13648674D01*
X10175444Y-13648674D02*
X10194491Y-13639150D01*
X10194491Y-13639150D02*
X10223063Y-13639150D01*
X10223063Y-13639150D02*
X10242110Y-13648674D01*
X10242110Y-13648674D02*
X10251634Y-13667722D01*
X10251634Y-13667722D02*
X10251634Y-13772484D01*
X10251634Y-13667722D02*
X10261158Y-13648674D01*
X10261158Y-13648674D02*
X10280205Y-13639150D01*
X10280205Y-13639150D02*
X10308777Y-13639150D01*
X10308777Y-13639150D02*
X10327825Y-13648674D01*
X10327825Y-13648674D02*
X10337348Y-13667722D01*
X10337348Y-13667722D02*
X10337348Y-13772484D01*
X10432586Y-13772484D02*
X10432586Y-13639150D01*
X10432586Y-13658198D02*
X10442110Y-13648674D01*
X10442110Y-13648674D02*
X10461158Y-13639150D01*
X10461158Y-13639150D02*
X10489729Y-13639150D01*
X10489729Y-13639150D02*
X10508777Y-13648674D01*
X10508777Y-13648674D02*
X10518301Y-13667722D01*
X10518301Y-13667722D02*
X10518301Y-13772484D01*
X10518301Y-13667722D02*
X10527825Y-13648674D01*
X10527825Y-13648674D02*
X10546872Y-13639150D01*
X10546872Y-13639150D02*
X10575444Y-13639150D01*
X10575444Y-13639150D02*
X10594491Y-13648674D01*
X10594491Y-13648674D02*
X10604015Y-13667722D01*
X10604015Y-13667722D02*
X10604015Y-13772484D01*
X10994491Y-13562960D02*
X10823063Y-13820103D01*
X11251634Y-13572484D02*
X11270682Y-13572484D01*
X11270682Y-13572484D02*
X11289729Y-13582008D01*
X11289729Y-13582008D02*
X11299253Y-13591531D01*
X11299253Y-13591531D02*
X11308777Y-13610579D01*
X11308777Y-13610579D02*
X11318301Y-13648674D01*
X11318301Y-13648674D02*
X11318301Y-13696293D01*
X11318301Y-13696293D02*
X11308777Y-13734388D01*
X11308777Y-13734388D02*
X11299253Y-13753436D01*
X11299253Y-13753436D02*
X11289729Y-13762960D01*
X11289729Y-13762960D02*
X11270682Y-13772484D01*
X11270682Y-13772484D02*
X11251634Y-13772484D01*
X11251634Y-13772484D02*
X11232586Y-13762960D01*
X11232586Y-13762960D02*
X11223063Y-13753436D01*
X11223063Y-13753436D02*
X11213539Y-13734388D01*
X11213539Y-13734388D02*
X11204015Y-13696293D01*
X11204015Y-13696293D02*
X11204015Y-13648674D01*
X11204015Y-13648674D02*
X11213539Y-13610579D01*
X11213539Y-13610579D02*
X11223063Y-13591531D01*
X11223063Y-13591531D02*
X11232586Y-13582008D01*
X11232586Y-13582008D02*
X11251634Y-13572484D01*
X11404015Y-13753436D02*
X11413539Y-13762960D01*
X11413539Y-13762960D02*
X11404015Y-13772484D01*
X11404015Y-13772484D02*
X11394491Y-13762960D01*
X11394491Y-13762960D02*
X11404015Y-13753436D01*
X11404015Y-13753436D02*
X11404015Y-13772484D01*
X11537348Y-13572484D02*
X11556396Y-13572484D01*
X11556396Y-13572484D02*
X11575444Y-13582008D01*
X11575444Y-13582008D02*
X11584967Y-13591531D01*
X11584967Y-13591531D02*
X11594491Y-13610579D01*
X11594491Y-13610579D02*
X11604015Y-13648674D01*
X11604015Y-13648674D02*
X11604015Y-13696293D01*
X11604015Y-13696293D02*
X11594491Y-13734388D01*
X11594491Y-13734388D02*
X11584967Y-13753436D01*
X11584967Y-13753436D02*
X11575444Y-13762960D01*
X11575444Y-13762960D02*
X11556396Y-13772484D01*
X11556396Y-13772484D02*
X11537348Y-13772484D01*
X11537348Y-13772484D02*
X11518301Y-13762960D01*
X11518301Y-13762960D02*
X11508777Y-13753436D01*
X11508777Y-13753436D02*
X11499253Y-13734388D01*
X11499253Y-13734388D02*
X11489729Y-13696293D01*
X11489729Y-13696293D02*
X11489729Y-13648674D01*
X11489729Y-13648674D02*
X11499253Y-13610579D01*
X11499253Y-13610579D02*
X11508777Y-13591531D01*
X11508777Y-13591531D02*
X11518301Y-13582008D01*
X11518301Y-13582008D02*
X11537348Y-13572484D01*
X11727825Y-13572484D02*
X11746872Y-13572484D01*
X11746872Y-13572484D02*
X11765920Y-13582008D01*
X11765920Y-13582008D02*
X11775444Y-13591531D01*
X11775444Y-13591531D02*
X11784967Y-13610579D01*
X11784967Y-13610579D02*
X11794491Y-13648674D01*
X11794491Y-13648674D02*
X11794491Y-13696293D01*
X11794491Y-13696293D02*
X11784967Y-13734388D01*
X11784967Y-13734388D02*
X11775444Y-13753436D01*
X11775444Y-13753436D02*
X11765920Y-13762960D01*
X11765920Y-13762960D02*
X11746872Y-13772484D01*
X11746872Y-13772484D02*
X11727825Y-13772484D01*
X11727825Y-13772484D02*
X11708777Y-13762960D01*
X11708777Y-13762960D02*
X11699253Y-13753436D01*
X11699253Y-13753436D02*
X11689729Y-13734388D01*
X11689729Y-13734388D02*
X11680206Y-13696293D01*
X11680206Y-13696293D02*
X11680206Y-13648674D01*
X11680206Y-13648674D02*
X11689729Y-13610579D01*
X11689729Y-13610579D02*
X11699253Y-13591531D01*
X11699253Y-13591531D02*
X11708777Y-13582008D01*
X11708777Y-13582008D02*
X11727825Y-13572484D01*
X11861158Y-13572484D02*
X11994491Y-13572484D01*
X11994491Y-13572484D02*
X11908777Y-13772484D01*
X12080206Y-13772484D02*
X12118301Y-13772484D01*
X12118301Y-13772484D02*
X12137348Y-13762960D01*
X12137348Y-13762960D02*
X12146872Y-13753436D01*
X12146872Y-13753436D02*
X12165920Y-13724865D01*
X12165920Y-13724865D02*
X12175444Y-13686769D01*
X12175444Y-13686769D02*
X12175444Y-13610579D01*
X12175444Y-13610579D02*
X12165920Y-13591531D01*
X12165920Y-13591531D02*
X12156396Y-13582008D01*
X12156396Y-13582008D02*
X12137348Y-13572484D01*
X12137348Y-13572484D02*
X12099253Y-13572484D01*
X12099253Y-13572484D02*
X12080206Y-13582008D01*
X12080206Y-13582008D02*
X12070682Y-13591531D01*
X12070682Y-13591531D02*
X12061158Y-13610579D01*
X12061158Y-13610579D02*
X12061158Y-13658198D01*
X12061158Y-13658198D02*
X12070682Y-13677246D01*
X12070682Y-13677246D02*
X12080206Y-13686769D01*
X12080206Y-13686769D02*
X12099253Y-13696293D01*
X12099253Y-13696293D02*
X12137348Y-13696293D01*
X12137348Y-13696293D02*
X12156396Y-13686769D01*
X12156396Y-13686769D02*
X12165920Y-13677246D01*
X12165920Y-13677246D02*
X12175444Y-13658198D01*
X12251634Y-13572484D02*
X12251634Y-13610579D01*
X12327825Y-13572484D02*
X12327825Y-13610579D01*
X12623063Y-13848674D02*
X12613539Y-13839150D01*
X12613539Y-13839150D02*
X12594491Y-13810579D01*
X12594491Y-13810579D02*
X12584968Y-13791531D01*
X12584968Y-13791531D02*
X12575444Y-13762960D01*
X12575444Y-13762960D02*
X12565920Y-13715341D01*
X12565920Y-13715341D02*
X12565920Y-13677246D01*
X12565920Y-13677246D02*
X12575444Y-13629627D01*
X12575444Y-13629627D02*
X12584968Y-13601055D01*
X12584968Y-13601055D02*
X12594491Y-13582008D01*
X12594491Y-13582008D02*
X12613539Y-13553436D01*
X12613539Y-13553436D02*
X12623063Y-13543912D01*
X12680206Y-13572484D02*
X12804015Y-13572484D01*
X12804015Y-13572484D02*
X12737348Y-13648674D01*
X12737348Y-13648674D02*
X12765920Y-13648674D01*
X12765920Y-13648674D02*
X12784968Y-13658198D01*
X12784968Y-13658198D02*
X12794491Y-13667722D01*
X12794491Y-13667722D02*
X12804015Y-13686769D01*
X12804015Y-13686769D02*
X12804015Y-13734388D01*
X12804015Y-13734388D02*
X12794491Y-13753436D01*
X12794491Y-13753436D02*
X12784968Y-13762960D01*
X12784968Y-13762960D02*
X12765920Y-13772484D01*
X12765920Y-13772484D02*
X12708777Y-13772484D01*
X12708777Y-13772484D02*
X12689729Y-13762960D01*
X12689729Y-13762960D02*
X12680206Y-13753436D01*
X12975444Y-13639150D02*
X12975444Y-13772484D01*
X12927825Y-13562960D02*
X12880206Y-13705817D01*
X12880206Y-13705817D02*
X13004015Y-13705817D01*
X13232587Y-13772484D02*
X13232587Y-13572484D01*
X13318301Y-13772484D02*
X13318301Y-13667722D01*
X13318301Y-13667722D02*
X13308777Y-13648674D01*
X13308777Y-13648674D02*
X13289730Y-13639150D01*
X13289730Y-13639150D02*
X13261158Y-13639150D01*
X13261158Y-13639150D02*
X13242110Y-13648674D01*
X13242110Y-13648674D02*
X13232587Y-13658198D01*
X13442110Y-13772484D02*
X13423063Y-13762960D01*
X13423063Y-13762960D02*
X13413539Y-13753436D01*
X13413539Y-13753436D02*
X13404015Y-13734388D01*
X13404015Y-13734388D02*
X13404015Y-13677246D01*
X13404015Y-13677246D02*
X13413539Y-13658198D01*
X13413539Y-13658198D02*
X13423063Y-13648674D01*
X13423063Y-13648674D02*
X13442110Y-13639150D01*
X13442110Y-13639150D02*
X13470682Y-13639150D01*
X13470682Y-13639150D02*
X13489730Y-13648674D01*
X13489730Y-13648674D02*
X13499253Y-13658198D01*
X13499253Y-13658198D02*
X13508777Y-13677246D01*
X13508777Y-13677246D02*
X13508777Y-13734388D01*
X13508777Y-13734388D02*
X13499253Y-13753436D01*
X13499253Y-13753436D02*
X13489730Y-13762960D01*
X13489730Y-13762960D02*
X13470682Y-13772484D01*
X13470682Y-13772484D02*
X13442110Y-13772484D01*
X13623063Y-13772484D02*
X13604015Y-13762960D01*
X13604015Y-13762960D02*
X13594491Y-13743912D01*
X13594491Y-13743912D02*
X13594491Y-13572484D01*
X13775444Y-13762960D02*
X13756396Y-13772484D01*
X13756396Y-13772484D02*
X13718301Y-13772484D01*
X13718301Y-13772484D02*
X13699253Y-13762960D01*
X13699253Y-13762960D02*
X13689730Y-13743912D01*
X13689730Y-13743912D02*
X13689730Y-13667722D01*
X13689730Y-13667722D02*
X13699253Y-13648674D01*
X13699253Y-13648674D02*
X13718301Y-13639150D01*
X13718301Y-13639150D02*
X13756396Y-13639150D01*
X13756396Y-13639150D02*
X13775444Y-13648674D01*
X13775444Y-13648674D02*
X13784968Y-13667722D01*
X13784968Y-13667722D02*
X13784968Y-13686769D01*
X13784968Y-13686769D02*
X13689730Y-13705817D01*
X13861158Y-13762960D02*
X13880206Y-13772484D01*
X13880206Y-13772484D02*
X13918301Y-13772484D01*
X13918301Y-13772484D02*
X13937349Y-13762960D01*
X13937349Y-13762960D02*
X13946872Y-13743912D01*
X13946872Y-13743912D02*
X13946872Y-13734388D01*
X13946872Y-13734388D02*
X13937349Y-13715341D01*
X13937349Y-13715341D02*
X13918301Y-13705817D01*
X13918301Y-13705817D02*
X13889730Y-13705817D01*
X13889730Y-13705817D02*
X13870682Y-13696293D01*
X13870682Y-13696293D02*
X13861158Y-13677246D01*
X13861158Y-13677246D02*
X13861158Y-13667722D01*
X13861158Y-13667722D02*
X13870682Y-13648674D01*
X13870682Y-13648674D02*
X13889730Y-13639150D01*
X13889730Y-13639150D02*
X13918301Y-13639150D01*
X13918301Y-13639150D02*
X13937349Y-13648674D01*
X14013539Y-13848674D02*
X14023063Y-13839150D01*
X14023063Y-13839150D02*
X14042111Y-13810579D01*
X14042111Y-13810579D02*
X14051634Y-13791531D01*
X14051634Y-13791531D02*
X14061158Y-13762960D01*
X14061158Y-13762960D02*
X14070682Y-13715341D01*
X14070682Y-13715341D02*
X14070682Y-13677246D01*
X14070682Y-13677246D02*
X14061158Y-13629627D01*
X14061158Y-13629627D02*
X14051634Y-13601055D01*
X14051634Y-13601055D02*
X14042111Y-13582008D01*
X14042111Y-13582008D02*
X14023063Y-13553436D01*
X14023063Y-13553436D02*
X14013539Y-13543912D01*
D13*
X9048000Y-13945000D02*
G75*
G03*
X9048000Y-13945000I-20000J0D01*
G01*
D11*
X9346872Y-13836484D02*
X9365920Y-13836484D01*
X9365920Y-13836484D02*
X9384967Y-13846008D01*
X9384967Y-13846008D02*
X9394491Y-13855531D01*
X9394491Y-13855531D02*
X9404015Y-13874579D01*
X9404015Y-13874579D02*
X9413539Y-13912674D01*
X9413539Y-13912674D02*
X9413539Y-13960293D01*
X9413539Y-13960293D02*
X9404015Y-13998388D01*
X9404015Y-13998388D02*
X9394491Y-14017436D01*
X9394491Y-14017436D02*
X9384967Y-14026960D01*
X9384967Y-14026960D02*
X9365920Y-14036484D01*
X9365920Y-14036484D02*
X9346872Y-14036484D01*
X9346872Y-14036484D02*
X9327824Y-14026960D01*
X9327824Y-14026960D02*
X9318301Y-14017436D01*
X9318301Y-14017436D02*
X9308777Y-13998388D01*
X9308777Y-13998388D02*
X9299253Y-13960293D01*
X9299253Y-13960293D02*
X9299253Y-13912674D01*
X9299253Y-13912674D02*
X9308777Y-13874579D01*
X9308777Y-13874579D02*
X9318301Y-13855531D01*
X9318301Y-13855531D02*
X9327824Y-13846008D01*
X9327824Y-13846008D02*
X9346872Y-13836484D01*
X9499253Y-14017436D02*
X9508777Y-14026960D01*
X9508777Y-14026960D02*
X9499253Y-14036484D01*
X9499253Y-14036484D02*
X9489729Y-14026960D01*
X9489729Y-14026960D02*
X9499253Y-14017436D01*
X9499253Y-14017436D02*
X9499253Y-14036484D01*
X9680205Y-13903150D02*
X9680205Y-14036484D01*
X9632586Y-13826960D02*
X9584967Y-13969817D01*
X9584967Y-13969817D02*
X9708777Y-13969817D01*
X9823063Y-13836484D02*
X9842110Y-13836484D01*
X9842110Y-13836484D02*
X9861158Y-13846008D01*
X9861158Y-13846008D02*
X9870682Y-13855531D01*
X9870682Y-13855531D02*
X9880205Y-13874579D01*
X9880205Y-13874579D02*
X9889729Y-13912674D01*
X9889729Y-13912674D02*
X9889729Y-13960293D01*
X9889729Y-13960293D02*
X9880205Y-13998388D01*
X9880205Y-13998388D02*
X9870682Y-14017436D01*
X9870682Y-14017436D02*
X9861158Y-14026960D01*
X9861158Y-14026960D02*
X9842110Y-14036484D01*
X9842110Y-14036484D02*
X9823063Y-14036484D01*
X9823063Y-14036484D02*
X9804015Y-14026960D01*
X9804015Y-14026960D02*
X9794491Y-14017436D01*
X9794491Y-14017436D02*
X9784967Y-13998388D01*
X9784967Y-13998388D02*
X9775444Y-13960293D01*
X9775444Y-13960293D02*
X9775444Y-13912674D01*
X9775444Y-13912674D02*
X9784967Y-13874579D01*
X9784967Y-13874579D02*
X9794491Y-13855531D01*
X9794491Y-13855531D02*
X9804015Y-13846008D01*
X9804015Y-13846008D02*
X9823063Y-13836484D01*
X10013539Y-13836484D02*
X10032586Y-13836484D01*
X10032586Y-13836484D02*
X10051634Y-13846008D01*
X10051634Y-13846008D02*
X10061158Y-13855531D01*
X10061158Y-13855531D02*
X10070682Y-13874579D01*
X10070682Y-13874579D02*
X10080205Y-13912674D01*
X10080205Y-13912674D02*
X10080205Y-13960293D01*
X10080205Y-13960293D02*
X10070682Y-13998388D01*
X10070682Y-13998388D02*
X10061158Y-14017436D01*
X10061158Y-14017436D02*
X10051634Y-14026960D01*
X10051634Y-14026960D02*
X10032586Y-14036484D01*
X10032586Y-14036484D02*
X10013539Y-14036484D01*
X10013539Y-14036484D02*
X9994491Y-14026960D01*
X9994491Y-14026960D02*
X9984967Y-14017436D01*
X9984967Y-14017436D02*
X9975444Y-13998388D01*
X9975444Y-13998388D02*
X9965920Y-13960293D01*
X9965920Y-13960293D02*
X9965920Y-13912674D01*
X9965920Y-13912674D02*
X9975444Y-13874579D01*
X9975444Y-13874579D02*
X9984967Y-13855531D01*
X9984967Y-13855531D02*
X9994491Y-13846008D01*
X9994491Y-13846008D02*
X10013539Y-13836484D01*
X10165920Y-14036484D02*
X10165920Y-13903150D01*
X10165920Y-13922198D02*
X10175444Y-13912674D01*
X10175444Y-13912674D02*
X10194491Y-13903150D01*
X10194491Y-13903150D02*
X10223063Y-13903150D01*
X10223063Y-13903150D02*
X10242110Y-13912674D01*
X10242110Y-13912674D02*
X10251634Y-13931722D01*
X10251634Y-13931722D02*
X10251634Y-14036484D01*
X10251634Y-13931722D02*
X10261158Y-13912674D01*
X10261158Y-13912674D02*
X10280205Y-13903150D01*
X10280205Y-13903150D02*
X10308777Y-13903150D01*
X10308777Y-13903150D02*
X10327825Y-13912674D01*
X10327825Y-13912674D02*
X10337348Y-13931722D01*
X10337348Y-13931722D02*
X10337348Y-14036484D01*
X10432586Y-14036484D02*
X10432586Y-13903150D01*
X10432586Y-13922198D02*
X10442110Y-13912674D01*
X10442110Y-13912674D02*
X10461158Y-13903150D01*
X10461158Y-13903150D02*
X10489729Y-13903150D01*
X10489729Y-13903150D02*
X10508777Y-13912674D01*
X10508777Y-13912674D02*
X10518301Y-13931722D01*
X10518301Y-13931722D02*
X10518301Y-14036484D01*
X10518301Y-13931722D02*
X10527825Y-13912674D01*
X10527825Y-13912674D02*
X10546872Y-13903150D01*
X10546872Y-13903150D02*
X10575444Y-13903150D01*
X10575444Y-13903150D02*
X10594491Y-13912674D01*
X10594491Y-13912674D02*
X10604015Y-13931722D01*
X10604015Y-13931722D02*
X10604015Y-14036484D01*
X10994491Y-13826960D02*
X10823063Y-14084103D01*
X11251634Y-13836484D02*
X11270682Y-13836484D01*
X11270682Y-13836484D02*
X11289729Y-13846008D01*
X11289729Y-13846008D02*
X11299253Y-13855531D01*
X11299253Y-13855531D02*
X11308777Y-13874579D01*
X11308777Y-13874579D02*
X11318301Y-13912674D01*
X11318301Y-13912674D02*
X11318301Y-13960293D01*
X11318301Y-13960293D02*
X11308777Y-13998388D01*
X11308777Y-13998388D02*
X11299253Y-14017436D01*
X11299253Y-14017436D02*
X11289729Y-14026960D01*
X11289729Y-14026960D02*
X11270682Y-14036484D01*
X11270682Y-14036484D02*
X11251634Y-14036484D01*
X11251634Y-14036484D02*
X11232586Y-14026960D01*
X11232586Y-14026960D02*
X11223063Y-14017436D01*
X11223063Y-14017436D02*
X11213539Y-13998388D01*
X11213539Y-13998388D02*
X11204015Y-13960293D01*
X11204015Y-13960293D02*
X11204015Y-13912674D01*
X11204015Y-13912674D02*
X11213539Y-13874579D01*
X11213539Y-13874579D02*
X11223063Y-13855531D01*
X11223063Y-13855531D02*
X11232586Y-13846008D01*
X11232586Y-13846008D02*
X11251634Y-13836484D01*
X11404015Y-14017436D02*
X11413539Y-14026960D01*
X11413539Y-14026960D02*
X11404015Y-14036484D01*
X11404015Y-14036484D02*
X11394491Y-14026960D01*
X11394491Y-14026960D02*
X11404015Y-14017436D01*
X11404015Y-14017436D02*
X11404015Y-14036484D01*
X11537348Y-13836484D02*
X11556396Y-13836484D01*
X11556396Y-13836484D02*
X11575444Y-13846008D01*
X11575444Y-13846008D02*
X11584967Y-13855531D01*
X11584967Y-13855531D02*
X11594491Y-13874579D01*
X11594491Y-13874579D02*
X11604015Y-13912674D01*
X11604015Y-13912674D02*
X11604015Y-13960293D01*
X11604015Y-13960293D02*
X11594491Y-13998388D01*
X11594491Y-13998388D02*
X11584967Y-14017436D01*
X11584967Y-14017436D02*
X11575444Y-14026960D01*
X11575444Y-14026960D02*
X11556396Y-14036484D01*
X11556396Y-14036484D02*
X11537348Y-14036484D01*
X11537348Y-14036484D02*
X11518301Y-14026960D01*
X11518301Y-14026960D02*
X11508777Y-14017436D01*
X11508777Y-14017436D02*
X11499253Y-13998388D01*
X11499253Y-13998388D02*
X11489729Y-13960293D01*
X11489729Y-13960293D02*
X11489729Y-13912674D01*
X11489729Y-13912674D02*
X11499253Y-13874579D01*
X11499253Y-13874579D02*
X11508777Y-13855531D01*
X11508777Y-13855531D02*
X11518301Y-13846008D01*
X11518301Y-13846008D02*
X11537348Y-13836484D01*
X11794491Y-14036484D02*
X11680206Y-14036484D01*
X11737348Y-14036484D02*
X11737348Y-13836484D01*
X11737348Y-13836484D02*
X11718301Y-13865055D01*
X11718301Y-13865055D02*
X11699253Y-13884103D01*
X11699253Y-13884103D02*
X11680206Y-13893627D01*
X11975444Y-13836484D02*
X11880206Y-13836484D01*
X11880206Y-13836484D02*
X11870682Y-13931722D01*
X11870682Y-13931722D02*
X11880206Y-13922198D01*
X11880206Y-13922198D02*
X11899253Y-13912674D01*
X11899253Y-13912674D02*
X11946872Y-13912674D01*
X11946872Y-13912674D02*
X11965920Y-13922198D01*
X11965920Y-13922198D02*
X11975444Y-13931722D01*
X11975444Y-13931722D02*
X11984967Y-13950769D01*
X11984967Y-13950769D02*
X11984967Y-13998388D01*
X11984967Y-13998388D02*
X11975444Y-14017436D01*
X11975444Y-14017436D02*
X11965920Y-14026960D01*
X11965920Y-14026960D02*
X11946872Y-14036484D01*
X11946872Y-14036484D02*
X11899253Y-14036484D01*
X11899253Y-14036484D02*
X11880206Y-14026960D01*
X11880206Y-14026960D02*
X11870682Y-14017436D01*
X12051634Y-13836484D02*
X12184967Y-13836484D01*
X12184967Y-13836484D02*
X12099253Y-14036484D01*
X12251634Y-13836484D02*
X12251634Y-13874579D01*
X12327825Y-13836484D02*
X12327825Y-13874579D01*
X12623063Y-14112674D02*
X12613539Y-14103150D01*
X12613539Y-14103150D02*
X12594491Y-14074579D01*
X12594491Y-14074579D02*
X12584968Y-14055531D01*
X12584968Y-14055531D02*
X12575444Y-14026960D01*
X12575444Y-14026960D02*
X12565920Y-13979341D01*
X12565920Y-13979341D02*
X12565920Y-13941246D01*
X12565920Y-13941246D02*
X12575444Y-13893627D01*
X12575444Y-13893627D02*
X12584968Y-13865055D01*
X12584968Y-13865055D02*
X12594491Y-13846008D01*
X12594491Y-13846008D02*
X12613539Y-13817436D01*
X12613539Y-13817436D02*
X12623063Y-13807912D01*
X12804015Y-14036484D02*
X12689729Y-14036484D01*
X12746872Y-14036484D02*
X12746872Y-13836484D01*
X12746872Y-13836484D02*
X12727825Y-13865055D01*
X12727825Y-13865055D02*
X12708777Y-13884103D01*
X12708777Y-13884103D02*
X12689729Y-13893627D01*
X13042110Y-14036484D02*
X13042110Y-13836484D01*
X13127825Y-14036484D02*
X13127825Y-13931722D01*
X13127825Y-13931722D02*
X13118301Y-13912674D01*
X13118301Y-13912674D02*
X13099253Y-13903150D01*
X13099253Y-13903150D02*
X13070682Y-13903150D01*
X13070682Y-13903150D02*
X13051634Y-13912674D01*
X13051634Y-13912674D02*
X13042110Y-13922198D01*
X13251634Y-14036484D02*
X13232587Y-14026960D01*
X13232587Y-14026960D02*
X13223063Y-14017436D01*
X13223063Y-14017436D02*
X13213539Y-13998388D01*
X13213539Y-13998388D02*
X13213539Y-13941246D01*
X13213539Y-13941246D02*
X13223063Y-13922198D01*
X13223063Y-13922198D02*
X13232587Y-13912674D01*
X13232587Y-13912674D02*
X13251634Y-13903150D01*
X13251634Y-13903150D02*
X13280206Y-13903150D01*
X13280206Y-13903150D02*
X13299253Y-13912674D01*
X13299253Y-13912674D02*
X13308777Y-13922198D01*
X13308777Y-13922198D02*
X13318301Y-13941246D01*
X13318301Y-13941246D02*
X13318301Y-13998388D01*
X13318301Y-13998388D02*
X13308777Y-14017436D01*
X13308777Y-14017436D02*
X13299253Y-14026960D01*
X13299253Y-14026960D02*
X13280206Y-14036484D01*
X13280206Y-14036484D02*
X13251634Y-14036484D01*
X13432587Y-14036484D02*
X13413539Y-14026960D01*
X13413539Y-14026960D02*
X13404015Y-14007912D01*
X13404015Y-14007912D02*
X13404015Y-13836484D01*
X13584968Y-14026960D02*
X13565920Y-14036484D01*
X13565920Y-14036484D02*
X13527825Y-14036484D01*
X13527825Y-14036484D02*
X13508777Y-14026960D01*
X13508777Y-14026960D02*
X13499253Y-14007912D01*
X13499253Y-14007912D02*
X13499253Y-13931722D01*
X13499253Y-13931722D02*
X13508777Y-13912674D01*
X13508777Y-13912674D02*
X13527825Y-13903150D01*
X13527825Y-13903150D02*
X13565920Y-13903150D01*
X13565920Y-13903150D02*
X13584968Y-13912674D01*
X13584968Y-13912674D02*
X13594491Y-13931722D01*
X13594491Y-13931722D02*
X13594491Y-13950769D01*
X13594491Y-13950769D02*
X13499253Y-13969817D01*
X13661158Y-14112674D02*
X13670682Y-14103150D01*
X13670682Y-14103150D02*
X13689730Y-14074579D01*
X13689730Y-14074579D02*
X13699253Y-14055531D01*
X13699253Y-14055531D02*
X13708777Y-14026960D01*
X13708777Y-14026960D02*
X13718301Y-13979341D01*
X13718301Y-13979341D02*
X13718301Y-13941246D01*
X13718301Y-13941246D02*
X13708777Y-13893627D01*
X13708777Y-13893627D02*
X13699253Y-13865055D01*
X13699253Y-13865055D02*
X13689730Y-13846008D01*
X13689730Y-13846008D02*
X13670682Y-13817436D01*
X13670682Y-13817436D02*
X13661158Y-13807912D01*
D14*
X9018000Y-14179000D02*
X9018000Y-14239000D01*
X8988000Y-14209000D02*
X9048000Y-14209000D01*
D11*
X9346872Y-14100484D02*
X9365920Y-14100484D01*
X9365920Y-14100484D02*
X9384967Y-14110008D01*
X9384967Y-14110008D02*
X9394491Y-14119531D01*
X9394491Y-14119531D02*
X9404015Y-14138579D01*
X9404015Y-14138579D02*
X9413539Y-14176674D01*
X9413539Y-14176674D02*
X9413539Y-14224293D01*
X9413539Y-14224293D02*
X9404015Y-14262388D01*
X9404015Y-14262388D02*
X9394491Y-14281436D01*
X9394491Y-14281436D02*
X9384967Y-14290960D01*
X9384967Y-14290960D02*
X9365920Y-14300484D01*
X9365920Y-14300484D02*
X9346872Y-14300484D01*
X9346872Y-14300484D02*
X9327824Y-14290960D01*
X9327824Y-14290960D02*
X9318301Y-14281436D01*
X9318301Y-14281436D02*
X9308777Y-14262388D01*
X9308777Y-14262388D02*
X9299253Y-14224293D01*
X9299253Y-14224293D02*
X9299253Y-14176674D01*
X9299253Y-14176674D02*
X9308777Y-14138579D01*
X9308777Y-14138579D02*
X9318301Y-14119531D01*
X9318301Y-14119531D02*
X9327824Y-14110008D01*
X9327824Y-14110008D02*
X9346872Y-14100484D01*
X9499253Y-14281436D02*
X9508777Y-14290960D01*
X9508777Y-14290960D02*
X9499253Y-14300484D01*
X9499253Y-14300484D02*
X9489729Y-14290960D01*
X9489729Y-14290960D02*
X9499253Y-14281436D01*
X9499253Y-14281436D02*
X9499253Y-14300484D01*
X9680205Y-14100484D02*
X9642110Y-14100484D01*
X9642110Y-14100484D02*
X9623063Y-14110008D01*
X9623063Y-14110008D02*
X9613539Y-14119531D01*
X9613539Y-14119531D02*
X9594491Y-14148103D01*
X9594491Y-14148103D02*
X9584967Y-14186198D01*
X9584967Y-14186198D02*
X9584967Y-14262388D01*
X9584967Y-14262388D02*
X9594491Y-14281436D01*
X9594491Y-14281436D02*
X9604015Y-14290960D01*
X9604015Y-14290960D02*
X9623063Y-14300484D01*
X9623063Y-14300484D02*
X9661158Y-14300484D01*
X9661158Y-14300484D02*
X9680205Y-14290960D01*
X9680205Y-14290960D02*
X9689729Y-14281436D01*
X9689729Y-14281436D02*
X9699253Y-14262388D01*
X9699253Y-14262388D02*
X9699253Y-14214769D01*
X9699253Y-14214769D02*
X9689729Y-14195722D01*
X9689729Y-14195722D02*
X9680205Y-14186198D01*
X9680205Y-14186198D02*
X9661158Y-14176674D01*
X9661158Y-14176674D02*
X9623063Y-14176674D01*
X9623063Y-14176674D02*
X9604015Y-14186198D01*
X9604015Y-14186198D02*
X9594491Y-14195722D01*
X9594491Y-14195722D02*
X9584967Y-14214769D01*
X9823063Y-14100484D02*
X9842110Y-14100484D01*
X9842110Y-14100484D02*
X9861158Y-14110008D01*
X9861158Y-14110008D02*
X9870682Y-14119531D01*
X9870682Y-14119531D02*
X9880205Y-14138579D01*
X9880205Y-14138579D02*
X9889729Y-14176674D01*
X9889729Y-14176674D02*
X9889729Y-14224293D01*
X9889729Y-14224293D02*
X9880205Y-14262388D01*
X9880205Y-14262388D02*
X9870682Y-14281436D01*
X9870682Y-14281436D02*
X9861158Y-14290960D01*
X9861158Y-14290960D02*
X9842110Y-14300484D01*
X9842110Y-14300484D02*
X9823063Y-14300484D01*
X9823063Y-14300484D02*
X9804015Y-14290960D01*
X9804015Y-14290960D02*
X9794491Y-14281436D01*
X9794491Y-14281436D02*
X9784967Y-14262388D01*
X9784967Y-14262388D02*
X9775444Y-14224293D01*
X9775444Y-14224293D02*
X9775444Y-14176674D01*
X9775444Y-14176674D02*
X9784967Y-14138579D01*
X9784967Y-14138579D02*
X9794491Y-14119531D01*
X9794491Y-14119531D02*
X9804015Y-14110008D01*
X9804015Y-14110008D02*
X9823063Y-14100484D01*
X10013539Y-14100484D02*
X10032586Y-14100484D01*
X10032586Y-14100484D02*
X10051634Y-14110008D01*
X10051634Y-14110008D02*
X10061158Y-14119531D01*
X10061158Y-14119531D02*
X10070682Y-14138579D01*
X10070682Y-14138579D02*
X10080205Y-14176674D01*
X10080205Y-14176674D02*
X10080205Y-14224293D01*
X10080205Y-14224293D02*
X10070682Y-14262388D01*
X10070682Y-14262388D02*
X10061158Y-14281436D01*
X10061158Y-14281436D02*
X10051634Y-14290960D01*
X10051634Y-14290960D02*
X10032586Y-14300484D01*
X10032586Y-14300484D02*
X10013539Y-14300484D01*
X10013539Y-14300484D02*
X9994491Y-14290960D01*
X9994491Y-14290960D02*
X9984967Y-14281436D01*
X9984967Y-14281436D02*
X9975444Y-14262388D01*
X9975444Y-14262388D02*
X9965920Y-14224293D01*
X9965920Y-14224293D02*
X9965920Y-14176674D01*
X9965920Y-14176674D02*
X9975444Y-14138579D01*
X9975444Y-14138579D02*
X9984967Y-14119531D01*
X9984967Y-14119531D02*
X9994491Y-14110008D01*
X9994491Y-14110008D02*
X10013539Y-14100484D01*
X10165920Y-14300484D02*
X10165920Y-14167150D01*
X10165920Y-14186198D02*
X10175444Y-14176674D01*
X10175444Y-14176674D02*
X10194491Y-14167150D01*
X10194491Y-14167150D02*
X10223063Y-14167150D01*
X10223063Y-14167150D02*
X10242110Y-14176674D01*
X10242110Y-14176674D02*
X10251634Y-14195722D01*
X10251634Y-14195722D02*
X10251634Y-14300484D01*
X10251634Y-14195722D02*
X10261158Y-14176674D01*
X10261158Y-14176674D02*
X10280205Y-14167150D01*
X10280205Y-14167150D02*
X10308777Y-14167150D01*
X10308777Y-14167150D02*
X10327825Y-14176674D01*
X10327825Y-14176674D02*
X10337348Y-14195722D01*
X10337348Y-14195722D02*
X10337348Y-14300484D01*
X10432586Y-14300484D02*
X10432586Y-14167150D01*
X10432586Y-14186198D02*
X10442110Y-14176674D01*
X10442110Y-14176674D02*
X10461158Y-14167150D01*
X10461158Y-14167150D02*
X10489729Y-14167150D01*
X10489729Y-14167150D02*
X10508777Y-14176674D01*
X10508777Y-14176674D02*
X10518301Y-14195722D01*
X10518301Y-14195722D02*
X10518301Y-14300484D01*
X10518301Y-14195722D02*
X10527825Y-14176674D01*
X10527825Y-14176674D02*
X10546872Y-14167150D01*
X10546872Y-14167150D02*
X10575444Y-14167150D01*
X10575444Y-14167150D02*
X10594491Y-14176674D01*
X10594491Y-14176674D02*
X10604015Y-14195722D01*
X10604015Y-14195722D02*
X10604015Y-14300484D01*
X10994491Y-14090960D02*
X10823063Y-14348103D01*
X11251634Y-14100484D02*
X11270682Y-14100484D01*
X11270682Y-14100484D02*
X11289729Y-14110008D01*
X11289729Y-14110008D02*
X11299253Y-14119531D01*
X11299253Y-14119531D02*
X11308777Y-14138579D01*
X11308777Y-14138579D02*
X11318301Y-14176674D01*
X11318301Y-14176674D02*
X11318301Y-14224293D01*
X11318301Y-14224293D02*
X11308777Y-14262388D01*
X11308777Y-14262388D02*
X11299253Y-14281436D01*
X11299253Y-14281436D02*
X11289729Y-14290960D01*
X11289729Y-14290960D02*
X11270682Y-14300484D01*
X11270682Y-14300484D02*
X11251634Y-14300484D01*
X11251634Y-14300484D02*
X11232586Y-14290960D01*
X11232586Y-14290960D02*
X11223063Y-14281436D01*
X11223063Y-14281436D02*
X11213539Y-14262388D01*
X11213539Y-14262388D02*
X11204015Y-14224293D01*
X11204015Y-14224293D02*
X11204015Y-14176674D01*
X11204015Y-14176674D02*
X11213539Y-14138579D01*
X11213539Y-14138579D02*
X11223063Y-14119531D01*
X11223063Y-14119531D02*
X11232586Y-14110008D01*
X11232586Y-14110008D02*
X11251634Y-14100484D01*
X11404015Y-14281436D02*
X11413539Y-14290960D01*
X11413539Y-14290960D02*
X11404015Y-14300484D01*
X11404015Y-14300484D02*
X11394491Y-14290960D01*
X11394491Y-14290960D02*
X11404015Y-14281436D01*
X11404015Y-14281436D02*
X11404015Y-14300484D01*
X11537348Y-14100484D02*
X11556396Y-14100484D01*
X11556396Y-14100484D02*
X11575444Y-14110008D01*
X11575444Y-14110008D02*
X11584967Y-14119531D01*
X11584967Y-14119531D02*
X11594491Y-14138579D01*
X11594491Y-14138579D02*
X11604015Y-14176674D01*
X11604015Y-14176674D02*
X11604015Y-14224293D01*
X11604015Y-14224293D02*
X11594491Y-14262388D01*
X11594491Y-14262388D02*
X11584967Y-14281436D01*
X11584967Y-14281436D02*
X11575444Y-14290960D01*
X11575444Y-14290960D02*
X11556396Y-14300484D01*
X11556396Y-14300484D02*
X11537348Y-14300484D01*
X11537348Y-14300484D02*
X11518301Y-14290960D01*
X11518301Y-14290960D02*
X11508777Y-14281436D01*
X11508777Y-14281436D02*
X11499253Y-14262388D01*
X11499253Y-14262388D02*
X11489729Y-14224293D01*
X11489729Y-14224293D02*
X11489729Y-14176674D01*
X11489729Y-14176674D02*
X11499253Y-14138579D01*
X11499253Y-14138579D02*
X11508777Y-14119531D01*
X11508777Y-14119531D02*
X11518301Y-14110008D01*
X11518301Y-14110008D02*
X11537348Y-14100484D01*
X11680206Y-14119531D02*
X11689729Y-14110008D01*
X11689729Y-14110008D02*
X11708777Y-14100484D01*
X11708777Y-14100484D02*
X11756396Y-14100484D01*
X11756396Y-14100484D02*
X11775444Y-14110008D01*
X11775444Y-14110008D02*
X11784967Y-14119531D01*
X11784967Y-14119531D02*
X11794491Y-14138579D01*
X11794491Y-14138579D02*
X11794491Y-14157627D01*
X11794491Y-14157627D02*
X11784967Y-14186198D01*
X11784967Y-14186198D02*
X11670682Y-14300484D01*
X11670682Y-14300484D02*
X11794491Y-14300484D01*
X11861158Y-14100484D02*
X11984967Y-14100484D01*
X11984967Y-14100484D02*
X11918301Y-14176674D01*
X11918301Y-14176674D02*
X11946872Y-14176674D01*
X11946872Y-14176674D02*
X11965920Y-14186198D01*
X11965920Y-14186198D02*
X11975444Y-14195722D01*
X11975444Y-14195722D02*
X11984967Y-14214769D01*
X11984967Y-14214769D02*
X11984967Y-14262388D01*
X11984967Y-14262388D02*
X11975444Y-14281436D01*
X11975444Y-14281436D02*
X11965920Y-14290960D01*
X11965920Y-14290960D02*
X11946872Y-14300484D01*
X11946872Y-14300484D02*
X11889729Y-14300484D01*
X11889729Y-14300484D02*
X11870682Y-14290960D01*
X11870682Y-14290960D02*
X11861158Y-14281436D01*
X12156396Y-14100484D02*
X12118301Y-14100484D01*
X12118301Y-14100484D02*
X12099253Y-14110008D01*
X12099253Y-14110008D02*
X12089729Y-14119531D01*
X12089729Y-14119531D02*
X12070682Y-14148103D01*
X12070682Y-14148103D02*
X12061158Y-14186198D01*
X12061158Y-14186198D02*
X12061158Y-14262388D01*
X12061158Y-14262388D02*
X12070682Y-14281436D01*
X12070682Y-14281436D02*
X12080206Y-14290960D01*
X12080206Y-14290960D02*
X12099253Y-14300484D01*
X12099253Y-14300484D02*
X12137348Y-14300484D01*
X12137348Y-14300484D02*
X12156396Y-14290960D01*
X12156396Y-14290960D02*
X12165920Y-14281436D01*
X12165920Y-14281436D02*
X12175444Y-14262388D01*
X12175444Y-14262388D02*
X12175444Y-14214769D01*
X12175444Y-14214769D02*
X12165920Y-14195722D01*
X12165920Y-14195722D02*
X12156396Y-14186198D01*
X12156396Y-14186198D02*
X12137348Y-14176674D01*
X12137348Y-14176674D02*
X12099253Y-14176674D01*
X12099253Y-14176674D02*
X12080206Y-14186198D01*
X12080206Y-14186198D02*
X12070682Y-14195722D01*
X12070682Y-14195722D02*
X12061158Y-14214769D01*
X12251634Y-14100484D02*
X12251634Y-14138579D01*
X12327825Y-14100484D02*
X12327825Y-14138579D01*
X12623063Y-14376674D02*
X12613539Y-14367150D01*
X12613539Y-14367150D02*
X12594491Y-14338579D01*
X12594491Y-14338579D02*
X12584968Y-14319531D01*
X12584968Y-14319531D02*
X12575444Y-14290960D01*
X12575444Y-14290960D02*
X12565920Y-14243341D01*
X12565920Y-14243341D02*
X12565920Y-14205246D01*
X12565920Y-14205246D02*
X12575444Y-14157627D01*
X12575444Y-14157627D02*
X12584968Y-14129055D01*
X12584968Y-14129055D02*
X12594491Y-14110008D01*
X12594491Y-14110008D02*
X12613539Y-14081436D01*
X12613539Y-14081436D02*
X12623063Y-14071912D01*
X12737348Y-14100484D02*
X12756396Y-14100484D01*
X12756396Y-14100484D02*
X12775444Y-14110008D01*
X12775444Y-14110008D02*
X12784968Y-14119531D01*
X12784968Y-14119531D02*
X12794491Y-14138579D01*
X12794491Y-14138579D02*
X12804015Y-14176674D01*
X12804015Y-14176674D02*
X12804015Y-14224293D01*
X12804015Y-14224293D02*
X12794491Y-14262388D01*
X12794491Y-14262388D02*
X12784968Y-14281436D01*
X12784968Y-14281436D02*
X12775444Y-14290960D01*
X12775444Y-14290960D02*
X12756396Y-14300484D01*
X12756396Y-14300484D02*
X12737348Y-14300484D01*
X12737348Y-14300484D02*
X12718301Y-14290960D01*
X12718301Y-14290960D02*
X12708777Y-14281436D01*
X12708777Y-14281436D02*
X12699253Y-14262388D01*
X12699253Y-14262388D02*
X12689729Y-14224293D01*
X12689729Y-14224293D02*
X12689729Y-14176674D01*
X12689729Y-14176674D02*
X12699253Y-14138579D01*
X12699253Y-14138579D02*
X12708777Y-14119531D01*
X12708777Y-14119531D02*
X12718301Y-14110008D01*
X12718301Y-14110008D02*
X12737348Y-14100484D01*
X13042110Y-14300484D02*
X13042110Y-14100484D01*
X13127825Y-14300484D02*
X13127825Y-14195722D01*
X13127825Y-14195722D02*
X13118301Y-14176674D01*
X13118301Y-14176674D02*
X13099253Y-14167150D01*
X13099253Y-14167150D02*
X13070682Y-14167150D01*
X13070682Y-14167150D02*
X13051634Y-14176674D01*
X13051634Y-14176674D02*
X13042110Y-14186198D01*
X13251634Y-14300484D02*
X13232587Y-14290960D01*
X13232587Y-14290960D02*
X13223063Y-14281436D01*
X13223063Y-14281436D02*
X13213539Y-14262388D01*
X13213539Y-14262388D02*
X13213539Y-14205246D01*
X13213539Y-14205246D02*
X13223063Y-14186198D01*
X13223063Y-14186198D02*
X13232587Y-14176674D01*
X13232587Y-14176674D02*
X13251634Y-14167150D01*
X13251634Y-14167150D02*
X13280206Y-14167150D01*
X13280206Y-14167150D02*
X13299253Y-14176674D01*
X13299253Y-14176674D02*
X13308777Y-14186198D01*
X13308777Y-14186198D02*
X13318301Y-14205246D01*
X13318301Y-14205246D02*
X13318301Y-14262388D01*
X13318301Y-14262388D02*
X13308777Y-14281436D01*
X13308777Y-14281436D02*
X13299253Y-14290960D01*
X13299253Y-14290960D02*
X13280206Y-14300484D01*
X13280206Y-14300484D02*
X13251634Y-14300484D01*
X13432587Y-14300484D02*
X13413539Y-14290960D01*
X13413539Y-14290960D02*
X13404015Y-14271912D01*
X13404015Y-14271912D02*
X13404015Y-14100484D01*
X13584968Y-14290960D02*
X13565920Y-14300484D01*
X13565920Y-14300484D02*
X13527825Y-14300484D01*
X13527825Y-14300484D02*
X13508777Y-14290960D01*
X13508777Y-14290960D02*
X13499253Y-14271912D01*
X13499253Y-14271912D02*
X13499253Y-14195722D01*
X13499253Y-14195722D02*
X13508777Y-14176674D01*
X13508777Y-14176674D02*
X13527825Y-14167150D01*
X13527825Y-14167150D02*
X13565920Y-14167150D01*
X13565920Y-14167150D02*
X13584968Y-14176674D01*
X13584968Y-14176674D02*
X13594491Y-14195722D01*
X13594491Y-14195722D02*
X13594491Y-14214769D01*
X13594491Y-14214769D02*
X13499253Y-14233817D01*
X13670682Y-14290960D02*
X13689730Y-14300484D01*
X13689730Y-14300484D02*
X13727825Y-14300484D01*
X13727825Y-14300484D02*
X13746872Y-14290960D01*
X13746872Y-14290960D02*
X13756396Y-14271912D01*
X13756396Y-14271912D02*
X13756396Y-14262388D01*
X13756396Y-14262388D02*
X13746872Y-14243341D01*
X13746872Y-14243341D02*
X13727825Y-14233817D01*
X13727825Y-14233817D02*
X13699253Y-14233817D01*
X13699253Y-14233817D02*
X13680206Y-14224293D01*
X13680206Y-14224293D02*
X13670682Y-14205246D01*
X13670682Y-14205246D02*
X13670682Y-14195722D01*
X13670682Y-14195722D02*
X13680206Y-14176674D01*
X13680206Y-14176674D02*
X13699253Y-14167150D01*
X13699253Y-14167150D02*
X13727825Y-14167150D01*
X13727825Y-14167150D02*
X13746872Y-14176674D01*
X13994492Y-14224293D02*
X14146873Y-14224293D01*
X14070682Y-14300484D02*
X14070682Y-14148103D01*
X14384968Y-14119531D02*
X14394492Y-14110008D01*
X14394492Y-14110008D02*
X14413539Y-14100484D01*
X14413539Y-14100484D02*
X14461158Y-14100484D01*
X14461158Y-14100484D02*
X14480206Y-14110008D01*
X14480206Y-14110008D02*
X14489730Y-14119531D01*
X14489730Y-14119531D02*
X14499253Y-14138579D01*
X14499253Y-14138579D02*
X14499253Y-14157627D01*
X14499253Y-14157627D02*
X14489730Y-14186198D01*
X14489730Y-14186198D02*
X14375444Y-14300484D01*
X14375444Y-14300484D02*
X14499253Y-14300484D01*
X14727825Y-14290960D02*
X14746873Y-14300484D01*
X14746873Y-14300484D02*
X14784968Y-14300484D01*
X14784968Y-14300484D02*
X14804015Y-14290960D01*
X14804015Y-14290960D02*
X14813539Y-14271912D01*
X14813539Y-14271912D02*
X14813539Y-14262388D01*
X14813539Y-14262388D02*
X14804015Y-14243341D01*
X14804015Y-14243341D02*
X14784968Y-14233817D01*
X14784968Y-14233817D02*
X14756396Y-14233817D01*
X14756396Y-14233817D02*
X14737349Y-14224293D01*
X14737349Y-14224293D02*
X14727825Y-14205246D01*
X14727825Y-14205246D02*
X14727825Y-14195722D01*
X14727825Y-14195722D02*
X14737349Y-14176674D01*
X14737349Y-14176674D02*
X14756396Y-14167150D01*
X14756396Y-14167150D02*
X14784968Y-14167150D01*
X14784968Y-14167150D02*
X14804015Y-14176674D01*
X14927825Y-14300484D02*
X14908777Y-14290960D01*
X14908777Y-14290960D02*
X14899254Y-14271912D01*
X14899254Y-14271912D02*
X14899254Y-14100484D01*
X15032587Y-14300484D02*
X15013539Y-14290960D01*
X15013539Y-14290960D02*
X15004015Y-14281436D01*
X15004015Y-14281436D02*
X14994492Y-14262388D01*
X14994492Y-14262388D02*
X14994492Y-14205246D01*
X14994492Y-14205246D02*
X15004015Y-14186198D01*
X15004015Y-14186198D02*
X15013539Y-14176674D01*
X15013539Y-14176674D02*
X15032587Y-14167150D01*
X15032587Y-14167150D02*
X15061158Y-14167150D01*
X15061158Y-14167150D02*
X15080206Y-14176674D01*
X15080206Y-14176674D02*
X15089730Y-14186198D01*
X15089730Y-14186198D02*
X15099254Y-14205246D01*
X15099254Y-14205246D02*
X15099254Y-14262388D01*
X15099254Y-14262388D02*
X15089730Y-14281436D01*
X15089730Y-14281436D02*
X15080206Y-14290960D01*
X15080206Y-14290960D02*
X15061158Y-14300484D01*
X15061158Y-14300484D02*
X15032587Y-14300484D01*
X15156396Y-14167150D02*
X15232587Y-14167150D01*
X15184968Y-14100484D02*
X15184968Y-14271912D01*
X15184968Y-14271912D02*
X15194492Y-14290960D01*
X15194492Y-14290960D02*
X15213539Y-14300484D01*
X15213539Y-14300484D02*
X15232587Y-14300484D01*
X15289730Y-14290960D02*
X15308777Y-14300484D01*
X15308777Y-14300484D02*
X15346873Y-14300484D01*
X15346873Y-14300484D02*
X15365920Y-14290960D01*
X15365920Y-14290960D02*
X15375444Y-14271912D01*
X15375444Y-14271912D02*
X15375444Y-14262388D01*
X15375444Y-14262388D02*
X15365920Y-14243341D01*
X15365920Y-14243341D02*
X15346873Y-14233817D01*
X15346873Y-14233817D02*
X15318301Y-14233817D01*
X15318301Y-14233817D02*
X15299254Y-14224293D01*
X15299254Y-14224293D02*
X15289730Y-14205246D01*
X15289730Y-14205246D02*
X15289730Y-14195722D01*
X15289730Y-14195722D02*
X15299254Y-14176674D01*
X15299254Y-14176674D02*
X15318301Y-14167150D01*
X15318301Y-14167150D02*
X15346873Y-14167150D01*
X15346873Y-14167150D02*
X15365920Y-14176674D01*
X15442111Y-14376674D02*
X15451635Y-14367150D01*
X15451635Y-14367150D02*
X15470682Y-14338579D01*
X15470682Y-14338579D02*
X15480206Y-14319531D01*
X15480206Y-14319531D02*
X15489730Y-14290960D01*
X15489730Y-14290960D02*
X15499254Y-14243341D01*
X15499254Y-14243341D02*
X15499254Y-14205246D01*
X15499254Y-14205246D02*
X15489730Y-14157627D01*
X15489730Y-14157627D02*
X15480206Y-14129055D01*
X15480206Y-14129055D02*
X15470682Y-14110008D01*
X15470682Y-14110008D02*
X15451635Y-14081436D01*
X15451635Y-14081436D02*
X15442111Y-14071912D01*
D15*
X9035552Y-14503052D02*
X9035552Y-14442948D01*
X8975448Y-14442948D01*
X8975448Y-14503052D01*
X9035552Y-14503052D01*
D11*
X9346872Y-14364484D02*
X9365920Y-14364484D01*
X9365920Y-14364484D02*
X9384967Y-14374008D01*
X9384967Y-14374008D02*
X9394491Y-14383531D01*
X9394491Y-14383531D02*
X9404015Y-14402579D01*
X9404015Y-14402579D02*
X9413539Y-14440674D01*
X9413539Y-14440674D02*
X9413539Y-14488293D01*
X9413539Y-14488293D02*
X9404015Y-14526388D01*
X9404015Y-14526388D02*
X9394491Y-14545436D01*
X9394491Y-14545436D02*
X9384967Y-14554960D01*
X9384967Y-14554960D02*
X9365920Y-14564484D01*
X9365920Y-14564484D02*
X9346872Y-14564484D01*
X9346872Y-14564484D02*
X9327824Y-14554960D01*
X9327824Y-14554960D02*
X9318301Y-14545436D01*
X9318301Y-14545436D02*
X9308777Y-14526388D01*
X9308777Y-14526388D02*
X9299253Y-14488293D01*
X9299253Y-14488293D02*
X9299253Y-14440674D01*
X9299253Y-14440674D02*
X9308777Y-14402579D01*
X9308777Y-14402579D02*
X9318301Y-14383531D01*
X9318301Y-14383531D02*
X9327824Y-14374008D01*
X9327824Y-14374008D02*
X9346872Y-14364484D01*
X9499253Y-14545436D02*
X9508777Y-14554960D01*
X9508777Y-14554960D02*
X9499253Y-14564484D01*
X9499253Y-14564484D02*
X9489729Y-14554960D01*
X9489729Y-14554960D02*
X9499253Y-14545436D01*
X9499253Y-14545436D02*
X9499253Y-14564484D01*
X9623063Y-14450198D02*
X9604015Y-14440674D01*
X9604015Y-14440674D02*
X9594491Y-14431150D01*
X9594491Y-14431150D02*
X9584967Y-14412103D01*
X9584967Y-14412103D02*
X9584967Y-14402579D01*
X9584967Y-14402579D02*
X9594491Y-14383531D01*
X9594491Y-14383531D02*
X9604015Y-14374008D01*
X9604015Y-14374008D02*
X9623063Y-14364484D01*
X9623063Y-14364484D02*
X9661158Y-14364484D01*
X9661158Y-14364484D02*
X9680205Y-14374008D01*
X9680205Y-14374008D02*
X9689729Y-14383531D01*
X9689729Y-14383531D02*
X9699253Y-14402579D01*
X9699253Y-14402579D02*
X9699253Y-14412103D01*
X9699253Y-14412103D02*
X9689729Y-14431150D01*
X9689729Y-14431150D02*
X9680205Y-14440674D01*
X9680205Y-14440674D02*
X9661158Y-14450198D01*
X9661158Y-14450198D02*
X9623063Y-14450198D01*
X9623063Y-14450198D02*
X9604015Y-14459722D01*
X9604015Y-14459722D02*
X9594491Y-14469246D01*
X9594491Y-14469246D02*
X9584967Y-14488293D01*
X9584967Y-14488293D02*
X9584967Y-14526388D01*
X9584967Y-14526388D02*
X9594491Y-14545436D01*
X9594491Y-14545436D02*
X9604015Y-14554960D01*
X9604015Y-14554960D02*
X9623063Y-14564484D01*
X9623063Y-14564484D02*
X9661158Y-14564484D01*
X9661158Y-14564484D02*
X9680205Y-14554960D01*
X9680205Y-14554960D02*
X9689729Y-14545436D01*
X9689729Y-14545436D02*
X9699253Y-14526388D01*
X9699253Y-14526388D02*
X9699253Y-14488293D01*
X9699253Y-14488293D02*
X9689729Y-14469246D01*
X9689729Y-14469246D02*
X9680205Y-14459722D01*
X9680205Y-14459722D02*
X9661158Y-14450198D01*
X9880205Y-14364484D02*
X9784967Y-14364484D01*
X9784967Y-14364484D02*
X9775444Y-14459722D01*
X9775444Y-14459722D02*
X9784967Y-14450198D01*
X9784967Y-14450198D02*
X9804015Y-14440674D01*
X9804015Y-14440674D02*
X9851634Y-14440674D01*
X9851634Y-14440674D02*
X9870682Y-14450198D01*
X9870682Y-14450198D02*
X9880205Y-14459722D01*
X9880205Y-14459722D02*
X9889729Y-14478769D01*
X9889729Y-14478769D02*
X9889729Y-14526388D01*
X9889729Y-14526388D02*
X9880205Y-14545436D01*
X9880205Y-14545436D02*
X9870682Y-14554960D01*
X9870682Y-14554960D02*
X9851634Y-14564484D01*
X9851634Y-14564484D02*
X9804015Y-14564484D01*
X9804015Y-14564484D02*
X9784967Y-14554960D01*
X9784967Y-14554960D02*
X9775444Y-14545436D01*
X10013539Y-14364484D02*
X10032586Y-14364484D01*
X10032586Y-14364484D02*
X10051634Y-14374008D01*
X10051634Y-14374008D02*
X10061158Y-14383531D01*
X10061158Y-14383531D02*
X10070682Y-14402579D01*
X10070682Y-14402579D02*
X10080205Y-14440674D01*
X10080205Y-14440674D02*
X10080205Y-14488293D01*
X10080205Y-14488293D02*
X10070682Y-14526388D01*
X10070682Y-14526388D02*
X10061158Y-14545436D01*
X10061158Y-14545436D02*
X10051634Y-14554960D01*
X10051634Y-14554960D02*
X10032586Y-14564484D01*
X10032586Y-14564484D02*
X10013539Y-14564484D01*
X10013539Y-14564484D02*
X9994491Y-14554960D01*
X9994491Y-14554960D02*
X9984967Y-14545436D01*
X9984967Y-14545436D02*
X9975444Y-14526388D01*
X9975444Y-14526388D02*
X9965920Y-14488293D01*
X9965920Y-14488293D02*
X9965920Y-14440674D01*
X9965920Y-14440674D02*
X9975444Y-14402579D01*
X9975444Y-14402579D02*
X9984967Y-14383531D01*
X9984967Y-14383531D02*
X9994491Y-14374008D01*
X9994491Y-14374008D02*
X10013539Y-14364484D01*
X10165920Y-14564484D02*
X10165920Y-14431150D01*
X10165920Y-14450198D02*
X10175444Y-14440674D01*
X10175444Y-14440674D02*
X10194491Y-14431150D01*
X10194491Y-14431150D02*
X10223063Y-14431150D01*
X10223063Y-14431150D02*
X10242110Y-14440674D01*
X10242110Y-14440674D02*
X10251634Y-14459722D01*
X10251634Y-14459722D02*
X10251634Y-14564484D01*
X10251634Y-14459722D02*
X10261158Y-14440674D01*
X10261158Y-14440674D02*
X10280205Y-14431150D01*
X10280205Y-14431150D02*
X10308777Y-14431150D01*
X10308777Y-14431150D02*
X10327825Y-14440674D01*
X10327825Y-14440674D02*
X10337348Y-14459722D01*
X10337348Y-14459722D02*
X10337348Y-14564484D01*
X10432586Y-14564484D02*
X10432586Y-14431150D01*
X10432586Y-14450198D02*
X10442110Y-14440674D01*
X10442110Y-14440674D02*
X10461158Y-14431150D01*
X10461158Y-14431150D02*
X10489729Y-14431150D01*
X10489729Y-14431150D02*
X10508777Y-14440674D01*
X10508777Y-14440674D02*
X10518301Y-14459722D01*
X10518301Y-14459722D02*
X10518301Y-14564484D01*
X10518301Y-14459722D02*
X10527825Y-14440674D01*
X10527825Y-14440674D02*
X10546872Y-14431150D01*
X10546872Y-14431150D02*
X10575444Y-14431150D01*
X10575444Y-14431150D02*
X10594491Y-14440674D01*
X10594491Y-14440674D02*
X10604015Y-14459722D01*
X10604015Y-14459722D02*
X10604015Y-14564484D01*
X10994491Y-14354960D02*
X10823063Y-14612103D01*
X11251634Y-14364484D02*
X11270682Y-14364484D01*
X11270682Y-14364484D02*
X11289729Y-14374008D01*
X11289729Y-14374008D02*
X11299253Y-14383531D01*
X11299253Y-14383531D02*
X11308777Y-14402579D01*
X11308777Y-14402579D02*
X11318301Y-14440674D01*
X11318301Y-14440674D02*
X11318301Y-14488293D01*
X11318301Y-14488293D02*
X11308777Y-14526388D01*
X11308777Y-14526388D02*
X11299253Y-14545436D01*
X11299253Y-14545436D02*
X11289729Y-14554960D01*
X11289729Y-14554960D02*
X11270682Y-14564484D01*
X11270682Y-14564484D02*
X11251634Y-14564484D01*
X11251634Y-14564484D02*
X11232586Y-14554960D01*
X11232586Y-14554960D02*
X11223063Y-14545436D01*
X11223063Y-14545436D02*
X11213539Y-14526388D01*
X11213539Y-14526388D02*
X11204015Y-14488293D01*
X11204015Y-14488293D02*
X11204015Y-14440674D01*
X11204015Y-14440674D02*
X11213539Y-14402579D01*
X11213539Y-14402579D02*
X11223063Y-14383531D01*
X11223063Y-14383531D02*
X11232586Y-14374008D01*
X11232586Y-14374008D02*
X11251634Y-14364484D01*
X11404015Y-14545436D02*
X11413539Y-14554960D01*
X11413539Y-14554960D02*
X11404015Y-14564484D01*
X11404015Y-14564484D02*
X11394491Y-14554960D01*
X11394491Y-14554960D02*
X11404015Y-14545436D01*
X11404015Y-14545436D02*
X11404015Y-14564484D01*
X11537348Y-14364484D02*
X11556396Y-14364484D01*
X11556396Y-14364484D02*
X11575444Y-14374008D01*
X11575444Y-14374008D02*
X11584967Y-14383531D01*
X11584967Y-14383531D02*
X11594491Y-14402579D01*
X11594491Y-14402579D02*
X11604015Y-14440674D01*
X11604015Y-14440674D02*
X11604015Y-14488293D01*
X11604015Y-14488293D02*
X11594491Y-14526388D01*
X11594491Y-14526388D02*
X11584967Y-14545436D01*
X11584967Y-14545436D02*
X11575444Y-14554960D01*
X11575444Y-14554960D02*
X11556396Y-14564484D01*
X11556396Y-14564484D02*
X11537348Y-14564484D01*
X11537348Y-14564484D02*
X11518301Y-14554960D01*
X11518301Y-14554960D02*
X11508777Y-14545436D01*
X11508777Y-14545436D02*
X11499253Y-14526388D01*
X11499253Y-14526388D02*
X11489729Y-14488293D01*
X11489729Y-14488293D02*
X11489729Y-14440674D01*
X11489729Y-14440674D02*
X11499253Y-14402579D01*
X11499253Y-14402579D02*
X11508777Y-14383531D01*
X11508777Y-14383531D02*
X11518301Y-14374008D01*
X11518301Y-14374008D02*
X11537348Y-14364484D01*
X11670682Y-14364484D02*
X11794491Y-14364484D01*
X11794491Y-14364484D02*
X11727825Y-14440674D01*
X11727825Y-14440674D02*
X11756396Y-14440674D01*
X11756396Y-14440674D02*
X11775444Y-14450198D01*
X11775444Y-14450198D02*
X11784967Y-14459722D01*
X11784967Y-14459722D02*
X11794491Y-14478769D01*
X11794491Y-14478769D02*
X11794491Y-14526388D01*
X11794491Y-14526388D02*
X11784967Y-14545436D01*
X11784967Y-14545436D02*
X11775444Y-14554960D01*
X11775444Y-14554960D02*
X11756396Y-14564484D01*
X11756396Y-14564484D02*
X11699253Y-14564484D01*
X11699253Y-14564484D02*
X11680206Y-14554960D01*
X11680206Y-14554960D02*
X11670682Y-14545436D01*
X11861158Y-14364484D02*
X11984967Y-14364484D01*
X11984967Y-14364484D02*
X11918301Y-14440674D01*
X11918301Y-14440674D02*
X11946872Y-14440674D01*
X11946872Y-14440674D02*
X11965920Y-14450198D01*
X11965920Y-14450198D02*
X11975444Y-14459722D01*
X11975444Y-14459722D02*
X11984967Y-14478769D01*
X11984967Y-14478769D02*
X11984967Y-14526388D01*
X11984967Y-14526388D02*
X11975444Y-14545436D01*
X11975444Y-14545436D02*
X11965920Y-14554960D01*
X11965920Y-14554960D02*
X11946872Y-14564484D01*
X11946872Y-14564484D02*
X11889729Y-14564484D01*
X11889729Y-14564484D02*
X11870682Y-14554960D01*
X11870682Y-14554960D02*
X11861158Y-14545436D01*
X12165920Y-14364484D02*
X12070682Y-14364484D01*
X12070682Y-14364484D02*
X12061158Y-14459722D01*
X12061158Y-14459722D02*
X12070682Y-14450198D01*
X12070682Y-14450198D02*
X12089729Y-14440674D01*
X12089729Y-14440674D02*
X12137348Y-14440674D01*
X12137348Y-14440674D02*
X12156396Y-14450198D01*
X12156396Y-14450198D02*
X12165920Y-14459722D01*
X12165920Y-14459722D02*
X12175444Y-14478769D01*
X12175444Y-14478769D02*
X12175444Y-14526388D01*
X12175444Y-14526388D02*
X12165920Y-14545436D01*
X12165920Y-14545436D02*
X12156396Y-14554960D01*
X12156396Y-14554960D02*
X12137348Y-14564484D01*
X12137348Y-14564484D02*
X12089729Y-14564484D01*
X12089729Y-14564484D02*
X12070682Y-14554960D01*
X12070682Y-14554960D02*
X12061158Y-14545436D01*
X12251634Y-14364484D02*
X12251634Y-14402579D01*
X12327825Y-14364484D02*
X12327825Y-14402579D01*
X12623063Y-14640674D02*
X12613539Y-14631150D01*
X12613539Y-14631150D02*
X12594491Y-14602579D01*
X12594491Y-14602579D02*
X12584968Y-14583531D01*
X12584968Y-14583531D02*
X12575444Y-14554960D01*
X12575444Y-14554960D02*
X12565920Y-14507341D01*
X12565920Y-14507341D02*
X12565920Y-14469246D01*
X12565920Y-14469246D02*
X12575444Y-14421627D01*
X12575444Y-14421627D02*
X12584968Y-14393055D01*
X12584968Y-14393055D02*
X12594491Y-14374008D01*
X12594491Y-14374008D02*
X12613539Y-14345436D01*
X12613539Y-14345436D02*
X12623063Y-14335912D01*
X12689729Y-14383531D02*
X12699253Y-14374008D01*
X12699253Y-14374008D02*
X12718301Y-14364484D01*
X12718301Y-14364484D02*
X12765920Y-14364484D01*
X12765920Y-14364484D02*
X12784968Y-14374008D01*
X12784968Y-14374008D02*
X12794491Y-14383531D01*
X12794491Y-14383531D02*
X12804015Y-14402579D01*
X12804015Y-14402579D02*
X12804015Y-14421627D01*
X12804015Y-14421627D02*
X12794491Y-14450198D01*
X12794491Y-14450198D02*
X12680206Y-14564484D01*
X12680206Y-14564484D02*
X12804015Y-14564484D01*
X13042110Y-14564484D02*
X13042110Y-14364484D01*
X13127825Y-14564484D02*
X13127825Y-14459722D01*
X13127825Y-14459722D02*
X13118301Y-14440674D01*
X13118301Y-14440674D02*
X13099253Y-14431150D01*
X13099253Y-14431150D02*
X13070682Y-14431150D01*
X13070682Y-14431150D02*
X13051634Y-14440674D01*
X13051634Y-14440674D02*
X13042110Y-14450198D01*
X13251634Y-14564484D02*
X13232587Y-14554960D01*
X13232587Y-14554960D02*
X13223063Y-14545436D01*
X13223063Y-14545436D02*
X13213539Y-14526388D01*
X13213539Y-14526388D02*
X13213539Y-14469246D01*
X13213539Y-14469246D02*
X13223063Y-14450198D01*
X13223063Y-14450198D02*
X13232587Y-14440674D01*
X13232587Y-14440674D02*
X13251634Y-14431150D01*
X13251634Y-14431150D02*
X13280206Y-14431150D01*
X13280206Y-14431150D02*
X13299253Y-14440674D01*
X13299253Y-14440674D02*
X13308777Y-14450198D01*
X13308777Y-14450198D02*
X13318301Y-14469246D01*
X13318301Y-14469246D02*
X13318301Y-14526388D01*
X13318301Y-14526388D02*
X13308777Y-14545436D01*
X13308777Y-14545436D02*
X13299253Y-14554960D01*
X13299253Y-14554960D02*
X13280206Y-14564484D01*
X13280206Y-14564484D02*
X13251634Y-14564484D01*
X13432587Y-14564484D02*
X13413539Y-14554960D01*
X13413539Y-14554960D02*
X13404015Y-14535912D01*
X13404015Y-14535912D02*
X13404015Y-14364484D01*
X13584968Y-14554960D02*
X13565920Y-14564484D01*
X13565920Y-14564484D02*
X13527825Y-14564484D01*
X13527825Y-14564484D02*
X13508777Y-14554960D01*
X13508777Y-14554960D02*
X13499253Y-14535912D01*
X13499253Y-14535912D02*
X13499253Y-14459722D01*
X13499253Y-14459722D02*
X13508777Y-14440674D01*
X13508777Y-14440674D02*
X13527825Y-14431150D01*
X13527825Y-14431150D02*
X13565920Y-14431150D01*
X13565920Y-14431150D02*
X13584968Y-14440674D01*
X13584968Y-14440674D02*
X13594491Y-14459722D01*
X13594491Y-14459722D02*
X13594491Y-14478769D01*
X13594491Y-14478769D02*
X13499253Y-14497817D01*
X13670682Y-14554960D02*
X13689730Y-14564484D01*
X13689730Y-14564484D02*
X13727825Y-14564484D01*
X13727825Y-14564484D02*
X13746872Y-14554960D01*
X13746872Y-14554960D02*
X13756396Y-14535912D01*
X13756396Y-14535912D02*
X13756396Y-14526388D01*
X13756396Y-14526388D02*
X13746872Y-14507341D01*
X13746872Y-14507341D02*
X13727825Y-14497817D01*
X13727825Y-14497817D02*
X13699253Y-14497817D01*
X13699253Y-14497817D02*
X13680206Y-14488293D01*
X13680206Y-14488293D02*
X13670682Y-14469246D01*
X13670682Y-14469246D02*
X13670682Y-14459722D01*
X13670682Y-14459722D02*
X13680206Y-14440674D01*
X13680206Y-14440674D02*
X13699253Y-14431150D01*
X13699253Y-14431150D02*
X13727825Y-14431150D01*
X13727825Y-14431150D02*
X13746872Y-14440674D01*
X13823063Y-14640674D02*
X13832587Y-14631150D01*
X13832587Y-14631150D02*
X13851634Y-14602579D01*
X13851634Y-14602579D02*
X13861158Y-14583531D01*
X13861158Y-14583531D02*
X13870682Y-14554960D01*
X13870682Y-14554960D02*
X13880206Y-14507341D01*
X13880206Y-14507341D02*
X13880206Y-14469246D01*
X13880206Y-14469246D02*
X13870682Y-14421627D01*
X13870682Y-14421627D02*
X13861158Y-14393055D01*
X13861158Y-14393055D02*
X13851634Y-14374008D01*
X13851634Y-14374008D02*
X13832587Y-14345436D01*
X13832587Y-14345436D02*
X13823063Y-14335912D01*
D10*
X8998000Y-14787000D02*
X9048000Y-14737000D01*
X8998000Y-14687000D01*
X8948000Y-14737000D01*
X8998000Y-14787000D01*
D11*
X9413539Y-14828484D02*
X9299253Y-14828484D01*
X9356396Y-14828484D02*
X9356396Y-14628484D01*
X9356396Y-14628484D02*
X9337348Y-14657055D01*
X9337348Y-14657055D02*
X9318301Y-14676103D01*
X9318301Y-14676103D02*
X9299253Y-14685627D01*
X9499253Y-14809436D02*
X9508777Y-14818960D01*
X9508777Y-14818960D02*
X9499253Y-14828484D01*
X9499253Y-14828484D02*
X9489729Y-14818960D01*
X9489729Y-14818960D02*
X9499253Y-14809436D01*
X9499253Y-14809436D02*
X9499253Y-14828484D01*
X9632586Y-14628484D02*
X9651634Y-14628484D01*
X9651634Y-14628484D02*
X9670682Y-14638008D01*
X9670682Y-14638008D02*
X9680205Y-14647531D01*
X9680205Y-14647531D02*
X9689729Y-14666579D01*
X9689729Y-14666579D02*
X9699253Y-14704674D01*
X9699253Y-14704674D02*
X9699253Y-14752293D01*
X9699253Y-14752293D02*
X9689729Y-14790388D01*
X9689729Y-14790388D02*
X9680205Y-14809436D01*
X9680205Y-14809436D02*
X9670682Y-14818960D01*
X9670682Y-14818960D02*
X9651634Y-14828484D01*
X9651634Y-14828484D02*
X9632586Y-14828484D01*
X9632586Y-14828484D02*
X9613539Y-14818960D01*
X9613539Y-14818960D02*
X9604015Y-14809436D01*
X9604015Y-14809436D02*
X9594491Y-14790388D01*
X9594491Y-14790388D02*
X9584967Y-14752293D01*
X9584967Y-14752293D02*
X9584967Y-14704674D01*
X9584967Y-14704674D02*
X9594491Y-14666579D01*
X9594491Y-14666579D02*
X9604015Y-14647531D01*
X9604015Y-14647531D02*
X9613539Y-14638008D01*
X9613539Y-14638008D02*
X9632586Y-14628484D01*
X9823063Y-14628484D02*
X9842110Y-14628484D01*
X9842110Y-14628484D02*
X9861158Y-14638008D01*
X9861158Y-14638008D02*
X9870682Y-14647531D01*
X9870682Y-14647531D02*
X9880205Y-14666579D01*
X9880205Y-14666579D02*
X9889729Y-14704674D01*
X9889729Y-14704674D02*
X9889729Y-14752293D01*
X9889729Y-14752293D02*
X9880205Y-14790388D01*
X9880205Y-14790388D02*
X9870682Y-14809436D01*
X9870682Y-14809436D02*
X9861158Y-14818960D01*
X9861158Y-14818960D02*
X9842110Y-14828484D01*
X9842110Y-14828484D02*
X9823063Y-14828484D01*
X9823063Y-14828484D02*
X9804015Y-14818960D01*
X9804015Y-14818960D02*
X9794491Y-14809436D01*
X9794491Y-14809436D02*
X9784967Y-14790388D01*
X9784967Y-14790388D02*
X9775444Y-14752293D01*
X9775444Y-14752293D02*
X9775444Y-14704674D01*
X9775444Y-14704674D02*
X9784967Y-14666579D01*
X9784967Y-14666579D02*
X9794491Y-14647531D01*
X9794491Y-14647531D02*
X9804015Y-14638008D01*
X9804015Y-14638008D02*
X9823063Y-14628484D01*
X10013539Y-14628484D02*
X10032586Y-14628484D01*
X10032586Y-14628484D02*
X10051634Y-14638008D01*
X10051634Y-14638008D02*
X10061158Y-14647531D01*
X10061158Y-14647531D02*
X10070682Y-14666579D01*
X10070682Y-14666579D02*
X10080205Y-14704674D01*
X10080205Y-14704674D02*
X10080205Y-14752293D01*
X10080205Y-14752293D02*
X10070682Y-14790388D01*
X10070682Y-14790388D02*
X10061158Y-14809436D01*
X10061158Y-14809436D02*
X10051634Y-14818960D01*
X10051634Y-14818960D02*
X10032586Y-14828484D01*
X10032586Y-14828484D02*
X10013539Y-14828484D01*
X10013539Y-14828484D02*
X9994491Y-14818960D01*
X9994491Y-14818960D02*
X9984967Y-14809436D01*
X9984967Y-14809436D02*
X9975444Y-14790388D01*
X9975444Y-14790388D02*
X9965920Y-14752293D01*
X9965920Y-14752293D02*
X9965920Y-14704674D01*
X9965920Y-14704674D02*
X9975444Y-14666579D01*
X9975444Y-14666579D02*
X9984967Y-14647531D01*
X9984967Y-14647531D02*
X9994491Y-14638008D01*
X9994491Y-14638008D02*
X10013539Y-14628484D01*
X10165920Y-14828484D02*
X10165920Y-14695150D01*
X10165920Y-14714198D02*
X10175444Y-14704674D01*
X10175444Y-14704674D02*
X10194491Y-14695150D01*
X10194491Y-14695150D02*
X10223063Y-14695150D01*
X10223063Y-14695150D02*
X10242110Y-14704674D01*
X10242110Y-14704674D02*
X10251634Y-14723722D01*
X10251634Y-14723722D02*
X10251634Y-14828484D01*
X10251634Y-14723722D02*
X10261158Y-14704674D01*
X10261158Y-14704674D02*
X10280205Y-14695150D01*
X10280205Y-14695150D02*
X10308777Y-14695150D01*
X10308777Y-14695150D02*
X10327825Y-14704674D01*
X10327825Y-14704674D02*
X10337348Y-14723722D01*
X10337348Y-14723722D02*
X10337348Y-14828484D01*
X10432586Y-14828484D02*
X10432586Y-14695150D01*
X10432586Y-14714198D02*
X10442110Y-14704674D01*
X10442110Y-14704674D02*
X10461158Y-14695150D01*
X10461158Y-14695150D02*
X10489729Y-14695150D01*
X10489729Y-14695150D02*
X10508777Y-14704674D01*
X10508777Y-14704674D02*
X10518301Y-14723722D01*
X10518301Y-14723722D02*
X10518301Y-14828484D01*
X10518301Y-14723722D02*
X10527825Y-14704674D01*
X10527825Y-14704674D02*
X10546872Y-14695150D01*
X10546872Y-14695150D02*
X10575444Y-14695150D01*
X10575444Y-14695150D02*
X10594491Y-14704674D01*
X10594491Y-14704674D02*
X10604015Y-14723722D01*
X10604015Y-14723722D02*
X10604015Y-14828484D01*
X10994491Y-14618960D02*
X10823063Y-14876103D01*
X11251634Y-14628484D02*
X11270682Y-14628484D01*
X11270682Y-14628484D02*
X11289729Y-14638008D01*
X11289729Y-14638008D02*
X11299253Y-14647531D01*
X11299253Y-14647531D02*
X11308777Y-14666579D01*
X11308777Y-14666579D02*
X11318301Y-14704674D01*
X11318301Y-14704674D02*
X11318301Y-14752293D01*
X11318301Y-14752293D02*
X11308777Y-14790388D01*
X11308777Y-14790388D02*
X11299253Y-14809436D01*
X11299253Y-14809436D02*
X11289729Y-14818960D01*
X11289729Y-14818960D02*
X11270682Y-14828484D01*
X11270682Y-14828484D02*
X11251634Y-14828484D01*
X11251634Y-14828484D02*
X11232586Y-14818960D01*
X11232586Y-14818960D02*
X11223063Y-14809436D01*
X11223063Y-14809436D02*
X11213539Y-14790388D01*
X11213539Y-14790388D02*
X11204015Y-14752293D01*
X11204015Y-14752293D02*
X11204015Y-14704674D01*
X11204015Y-14704674D02*
X11213539Y-14666579D01*
X11213539Y-14666579D02*
X11223063Y-14647531D01*
X11223063Y-14647531D02*
X11232586Y-14638008D01*
X11232586Y-14638008D02*
X11251634Y-14628484D01*
X11404015Y-14809436D02*
X11413539Y-14818960D01*
X11413539Y-14818960D02*
X11404015Y-14828484D01*
X11404015Y-14828484D02*
X11394491Y-14818960D01*
X11394491Y-14818960D02*
X11404015Y-14809436D01*
X11404015Y-14809436D02*
X11404015Y-14828484D01*
X11537348Y-14628484D02*
X11556396Y-14628484D01*
X11556396Y-14628484D02*
X11575444Y-14638008D01*
X11575444Y-14638008D02*
X11584967Y-14647531D01*
X11584967Y-14647531D02*
X11594491Y-14666579D01*
X11594491Y-14666579D02*
X11604015Y-14704674D01*
X11604015Y-14704674D02*
X11604015Y-14752293D01*
X11604015Y-14752293D02*
X11594491Y-14790388D01*
X11594491Y-14790388D02*
X11584967Y-14809436D01*
X11584967Y-14809436D02*
X11575444Y-14818960D01*
X11575444Y-14818960D02*
X11556396Y-14828484D01*
X11556396Y-14828484D02*
X11537348Y-14828484D01*
X11537348Y-14828484D02*
X11518301Y-14818960D01*
X11518301Y-14818960D02*
X11508777Y-14809436D01*
X11508777Y-14809436D02*
X11499253Y-14790388D01*
X11499253Y-14790388D02*
X11489729Y-14752293D01*
X11489729Y-14752293D02*
X11489729Y-14704674D01*
X11489729Y-14704674D02*
X11499253Y-14666579D01*
X11499253Y-14666579D02*
X11508777Y-14647531D01*
X11508777Y-14647531D02*
X11518301Y-14638008D01*
X11518301Y-14638008D02*
X11537348Y-14628484D01*
X11670682Y-14628484D02*
X11794491Y-14628484D01*
X11794491Y-14628484D02*
X11727825Y-14704674D01*
X11727825Y-14704674D02*
X11756396Y-14704674D01*
X11756396Y-14704674D02*
X11775444Y-14714198D01*
X11775444Y-14714198D02*
X11784967Y-14723722D01*
X11784967Y-14723722D02*
X11794491Y-14742769D01*
X11794491Y-14742769D02*
X11794491Y-14790388D01*
X11794491Y-14790388D02*
X11784967Y-14809436D01*
X11784967Y-14809436D02*
X11775444Y-14818960D01*
X11775444Y-14818960D02*
X11756396Y-14828484D01*
X11756396Y-14828484D02*
X11699253Y-14828484D01*
X11699253Y-14828484D02*
X11680206Y-14818960D01*
X11680206Y-14818960D02*
X11670682Y-14809436D01*
X11889729Y-14828484D02*
X11927825Y-14828484D01*
X11927825Y-14828484D02*
X11946872Y-14818960D01*
X11946872Y-14818960D02*
X11956396Y-14809436D01*
X11956396Y-14809436D02*
X11975444Y-14780865D01*
X11975444Y-14780865D02*
X11984967Y-14742769D01*
X11984967Y-14742769D02*
X11984967Y-14666579D01*
X11984967Y-14666579D02*
X11975444Y-14647531D01*
X11975444Y-14647531D02*
X11965920Y-14638008D01*
X11965920Y-14638008D02*
X11946872Y-14628484D01*
X11946872Y-14628484D02*
X11908777Y-14628484D01*
X11908777Y-14628484D02*
X11889729Y-14638008D01*
X11889729Y-14638008D02*
X11880206Y-14647531D01*
X11880206Y-14647531D02*
X11870682Y-14666579D01*
X11870682Y-14666579D02*
X11870682Y-14714198D01*
X11870682Y-14714198D02*
X11880206Y-14733246D01*
X11880206Y-14733246D02*
X11889729Y-14742769D01*
X11889729Y-14742769D02*
X11908777Y-14752293D01*
X11908777Y-14752293D02*
X11946872Y-14752293D01*
X11946872Y-14752293D02*
X11965920Y-14742769D01*
X11965920Y-14742769D02*
X11975444Y-14733246D01*
X11975444Y-14733246D02*
X11984967Y-14714198D01*
X12156396Y-14695150D02*
X12156396Y-14828484D01*
X12108777Y-14618960D02*
X12061158Y-14761817D01*
X12061158Y-14761817D02*
X12184967Y-14761817D01*
X12251634Y-14628484D02*
X12251634Y-14666579D01*
X12327825Y-14628484D02*
X12327825Y-14666579D01*
X12623063Y-14904674D02*
X12613539Y-14895150D01*
X12613539Y-14895150D02*
X12594491Y-14866579D01*
X12594491Y-14866579D02*
X12584968Y-14847531D01*
X12584968Y-14847531D02*
X12575444Y-14818960D01*
X12575444Y-14818960D02*
X12565920Y-14771341D01*
X12565920Y-14771341D02*
X12565920Y-14733246D01*
X12565920Y-14733246D02*
X12575444Y-14685627D01*
X12575444Y-14685627D02*
X12584968Y-14657055D01*
X12584968Y-14657055D02*
X12594491Y-14638008D01*
X12594491Y-14638008D02*
X12613539Y-14609436D01*
X12613539Y-14609436D02*
X12623063Y-14599912D01*
X12708777Y-14828484D02*
X12746872Y-14828484D01*
X12746872Y-14828484D02*
X12765920Y-14818960D01*
X12765920Y-14818960D02*
X12775444Y-14809436D01*
X12775444Y-14809436D02*
X12794491Y-14780865D01*
X12794491Y-14780865D02*
X12804015Y-14742769D01*
X12804015Y-14742769D02*
X12804015Y-14666579D01*
X12804015Y-14666579D02*
X12794491Y-14647531D01*
X12794491Y-14647531D02*
X12784968Y-14638008D01*
X12784968Y-14638008D02*
X12765920Y-14628484D01*
X12765920Y-14628484D02*
X12727825Y-14628484D01*
X12727825Y-14628484D02*
X12708777Y-14638008D01*
X12708777Y-14638008D02*
X12699253Y-14647531D01*
X12699253Y-14647531D02*
X12689729Y-14666579D01*
X12689729Y-14666579D02*
X12689729Y-14714198D01*
X12689729Y-14714198D02*
X12699253Y-14733246D01*
X12699253Y-14733246D02*
X12708777Y-14742769D01*
X12708777Y-14742769D02*
X12727825Y-14752293D01*
X12727825Y-14752293D02*
X12765920Y-14752293D01*
X12765920Y-14752293D02*
X12784968Y-14742769D01*
X12784968Y-14742769D02*
X12794491Y-14733246D01*
X12794491Y-14733246D02*
X12804015Y-14714198D01*
X12975444Y-14628484D02*
X12937348Y-14628484D01*
X12937348Y-14628484D02*
X12918301Y-14638008D01*
X12918301Y-14638008D02*
X12908777Y-14647531D01*
X12908777Y-14647531D02*
X12889729Y-14676103D01*
X12889729Y-14676103D02*
X12880206Y-14714198D01*
X12880206Y-14714198D02*
X12880206Y-14790388D01*
X12880206Y-14790388D02*
X12889729Y-14809436D01*
X12889729Y-14809436D02*
X12899253Y-14818960D01*
X12899253Y-14818960D02*
X12918301Y-14828484D01*
X12918301Y-14828484D02*
X12956396Y-14828484D01*
X12956396Y-14828484D02*
X12975444Y-14818960D01*
X12975444Y-14818960D02*
X12984968Y-14809436D01*
X12984968Y-14809436D02*
X12994491Y-14790388D01*
X12994491Y-14790388D02*
X12994491Y-14742769D01*
X12994491Y-14742769D02*
X12984968Y-14723722D01*
X12984968Y-14723722D02*
X12975444Y-14714198D01*
X12975444Y-14714198D02*
X12956396Y-14704674D01*
X12956396Y-14704674D02*
X12918301Y-14704674D01*
X12918301Y-14704674D02*
X12899253Y-14714198D01*
X12899253Y-14714198D02*
X12889729Y-14723722D01*
X12889729Y-14723722D02*
X12880206Y-14742769D01*
X13232587Y-14828484D02*
X13232587Y-14628484D01*
X13318301Y-14828484D02*
X13318301Y-14723722D01*
X13318301Y-14723722D02*
X13308777Y-14704674D01*
X13308777Y-14704674D02*
X13289730Y-14695150D01*
X13289730Y-14695150D02*
X13261158Y-14695150D01*
X13261158Y-14695150D02*
X13242110Y-14704674D01*
X13242110Y-14704674D02*
X13232587Y-14714198D01*
X13442110Y-14828484D02*
X13423063Y-14818960D01*
X13423063Y-14818960D02*
X13413539Y-14809436D01*
X13413539Y-14809436D02*
X13404015Y-14790388D01*
X13404015Y-14790388D02*
X13404015Y-14733246D01*
X13404015Y-14733246D02*
X13413539Y-14714198D01*
X13413539Y-14714198D02*
X13423063Y-14704674D01*
X13423063Y-14704674D02*
X13442110Y-14695150D01*
X13442110Y-14695150D02*
X13470682Y-14695150D01*
X13470682Y-14695150D02*
X13489730Y-14704674D01*
X13489730Y-14704674D02*
X13499253Y-14714198D01*
X13499253Y-14714198D02*
X13508777Y-14733246D01*
X13508777Y-14733246D02*
X13508777Y-14790388D01*
X13508777Y-14790388D02*
X13499253Y-14809436D01*
X13499253Y-14809436D02*
X13489730Y-14818960D01*
X13489730Y-14818960D02*
X13470682Y-14828484D01*
X13470682Y-14828484D02*
X13442110Y-14828484D01*
X13623063Y-14828484D02*
X13604015Y-14818960D01*
X13604015Y-14818960D02*
X13594491Y-14799912D01*
X13594491Y-14799912D02*
X13594491Y-14628484D01*
X13775444Y-14818960D02*
X13756396Y-14828484D01*
X13756396Y-14828484D02*
X13718301Y-14828484D01*
X13718301Y-14828484D02*
X13699253Y-14818960D01*
X13699253Y-14818960D02*
X13689730Y-14799912D01*
X13689730Y-14799912D02*
X13689730Y-14723722D01*
X13689730Y-14723722D02*
X13699253Y-14704674D01*
X13699253Y-14704674D02*
X13718301Y-14695150D01*
X13718301Y-14695150D02*
X13756396Y-14695150D01*
X13756396Y-14695150D02*
X13775444Y-14704674D01*
X13775444Y-14704674D02*
X13784968Y-14723722D01*
X13784968Y-14723722D02*
X13784968Y-14742769D01*
X13784968Y-14742769D02*
X13689730Y-14761817D01*
X13861158Y-14818960D02*
X13880206Y-14828484D01*
X13880206Y-14828484D02*
X13918301Y-14828484D01*
X13918301Y-14828484D02*
X13937349Y-14818960D01*
X13937349Y-14818960D02*
X13946872Y-14799912D01*
X13946872Y-14799912D02*
X13946872Y-14790388D01*
X13946872Y-14790388D02*
X13937349Y-14771341D01*
X13937349Y-14771341D02*
X13918301Y-14761817D01*
X13918301Y-14761817D02*
X13889730Y-14761817D01*
X13889730Y-14761817D02*
X13870682Y-14752293D01*
X13870682Y-14752293D02*
X13861158Y-14733246D01*
X13861158Y-14733246D02*
X13861158Y-14723722D01*
X13861158Y-14723722D02*
X13870682Y-14704674D01*
X13870682Y-14704674D02*
X13889730Y-14695150D01*
X13889730Y-14695150D02*
X13918301Y-14695150D01*
X13918301Y-14695150D02*
X13937349Y-14704674D01*
X14013539Y-14904674D02*
X14023063Y-14895150D01*
X14023063Y-14895150D02*
X14042111Y-14866579D01*
X14042111Y-14866579D02*
X14051634Y-14847531D01*
X14051634Y-14847531D02*
X14061158Y-14818960D01*
X14061158Y-14818960D02*
X14070682Y-14771341D01*
X14070682Y-14771341D02*
X14070682Y-14733246D01*
X14070682Y-14733246D02*
X14061158Y-14685627D01*
X14061158Y-14685627D02*
X14051634Y-14657055D01*
X14051634Y-14657055D02*
X14042111Y-14638008D01*
X14042111Y-14638008D02*
X14023063Y-14609436D01*
X14023063Y-14609436D02*
X14013539Y-14599912D01*
M02*
