%TF.GenerationSoftware,KiCad,Pcbnew,7.0.5-7.0.5~ubuntu22.04.1*%
%TF.CreationDate,2023-07-06T21:51:07-03:00*%
%TF.ProjectId,Dev-kit-multiboards,4465762d-6b69-4742-9d6d-756c7469626f,rev?*%
%TF.SameCoordinates,Original*%
%TF.FileFunction,Drillmap*%
%TF.FilePolarity,Positive*%
%FSLAX45Y45*%
G04 Gerber Fmt 4.5, Leading zero omitted, Abs format (unit mm)*
G04 Created by KiCad (PCBNEW 7.0.5-7.0.5~ubuntu22.04.1) date 2023-07-06 21:51:07*
%MOMM*%
%LPD*%
G01*
G04 APERTURE LIST*
%ADD10C,0.100000*%
%ADD11C,0.200000*%
G04 APERTURE END LIST*
D10*
X9053000Y-3407000D02*
X14633000Y-3407000D01*
X14633000Y-13036000D01*
X9053000Y-13036000D01*
X9053000Y-3407000D01*
D11*
X9308777Y-13352484D02*
X9308777Y-13152484D01*
X9308777Y-13152484D02*
X9356396Y-13152484D01*
X9356396Y-13152484D02*
X9384967Y-13162008D01*
X9384967Y-13162008D02*
X9404015Y-13181055D01*
X9404015Y-13181055D02*
X9413539Y-13200103D01*
X9413539Y-13200103D02*
X9423063Y-13238198D01*
X9423063Y-13238198D02*
X9423063Y-13266769D01*
X9423063Y-13266769D02*
X9413539Y-13304865D01*
X9413539Y-13304865D02*
X9404015Y-13323912D01*
X9404015Y-13323912D02*
X9384967Y-13342960D01*
X9384967Y-13342960D02*
X9356396Y-13352484D01*
X9356396Y-13352484D02*
X9308777Y-13352484D01*
X9508777Y-13352484D02*
X9508777Y-13219150D01*
X9508777Y-13257246D02*
X9518301Y-13238198D01*
X9518301Y-13238198D02*
X9527824Y-13228674D01*
X9527824Y-13228674D02*
X9546872Y-13219150D01*
X9546872Y-13219150D02*
X9565920Y-13219150D01*
X9632586Y-13352484D02*
X9632586Y-13219150D01*
X9632586Y-13152484D02*
X9623063Y-13162008D01*
X9623063Y-13162008D02*
X9632586Y-13171531D01*
X9632586Y-13171531D02*
X9642110Y-13162008D01*
X9642110Y-13162008D02*
X9632586Y-13152484D01*
X9632586Y-13152484D02*
X9632586Y-13171531D01*
X9756396Y-13352484D02*
X9737348Y-13342960D01*
X9737348Y-13342960D02*
X9727824Y-13323912D01*
X9727824Y-13323912D02*
X9727824Y-13152484D01*
X9861158Y-13352484D02*
X9842110Y-13342960D01*
X9842110Y-13342960D02*
X9832586Y-13323912D01*
X9832586Y-13323912D02*
X9832586Y-13152484D01*
X10089729Y-13352484D02*
X10089729Y-13152484D01*
X10089729Y-13152484D02*
X10156396Y-13295341D01*
X10156396Y-13295341D02*
X10223063Y-13152484D01*
X10223063Y-13152484D02*
X10223063Y-13352484D01*
X10404015Y-13352484D02*
X10404015Y-13247722D01*
X10404015Y-13247722D02*
X10394491Y-13228674D01*
X10394491Y-13228674D02*
X10375444Y-13219150D01*
X10375444Y-13219150D02*
X10337348Y-13219150D01*
X10337348Y-13219150D02*
X10318301Y-13228674D01*
X10404015Y-13342960D02*
X10384967Y-13352484D01*
X10384967Y-13352484D02*
X10337348Y-13352484D01*
X10337348Y-13352484D02*
X10318301Y-13342960D01*
X10318301Y-13342960D02*
X10308777Y-13323912D01*
X10308777Y-13323912D02*
X10308777Y-13304865D01*
X10308777Y-13304865D02*
X10318301Y-13285817D01*
X10318301Y-13285817D02*
X10337348Y-13276293D01*
X10337348Y-13276293D02*
X10384967Y-13276293D01*
X10384967Y-13276293D02*
X10404015Y-13266769D01*
X10499253Y-13219150D02*
X10499253Y-13419150D01*
X10499253Y-13228674D02*
X10518301Y-13219150D01*
X10518301Y-13219150D02*
X10556396Y-13219150D01*
X10556396Y-13219150D02*
X10575444Y-13228674D01*
X10575444Y-13228674D02*
X10584967Y-13238198D01*
X10584967Y-13238198D02*
X10594491Y-13257246D01*
X10594491Y-13257246D02*
X10594491Y-13314388D01*
X10594491Y-13314388D02*
X10584967Y-13333436D01*
X10584967Y-13333436D02*
X10575444Y-13342960D01*
X10575444Y-13342960D02*
X10556396Y-13352484D01*
X10556396Y-13352484D02*
X10518301Y-13352484D01*
X10518301Y-13352484D02*
X10499253Y-13342960D01*
X10680205Y-13333436D02*
X10689729Y-13342960D01*
X10689729Y-13342960D02*
X10680205Y-13352484D01*
X10680205Y-13352484D02*
X10670682Y-13342960D01*
X10670682Y-13342960D02*
X10680205Y-13333436D01*
X10680205Y-13333436D02*
X10680205Y-13352484D01*
X10680205Y-13228674D02*
X10689729Y-13238198D01*
X10689729Y-13238198D02*
X10680205Y-13247722D01*
X10680205Y-13247722D02*
X10670682Y-13238198D01*
X10670682Y-13238198D02*
X10680205Y-13228674D01*
X10680205Y-13228674D02*
X10680205Y-13247722D01*
M02*
