%TF.GenerationSoftware,KiCad,Pcbnew,7.0.5-7.0.5~ubuntu22.04.1*%
%TF.CreationDate,2023-07-06T21:51:13-03:00*%
%TF.ProjectId,Dev-kit-multiboards,4465762d-6b69-4742-9d6d-756c7469626f,rev?*%
%TF.SameCoordinates,Original*%
%TF.FileFunction,Paste,Top*%
%TF.FilePolarity,Positive*%
%FSLAX46Y46*%
G04 Gerber Fmt 4.6, Leading zero omitted, Abs format (unit mm)*
G04 Created by KiCad (PCBNEW 7.0.5-7.0.5~ubuntu22.04.1) date 2023-07-06 21:51:13*
%MOMM*%
%LPD*%
G01*
G04 APERTURE LIST*
G04 Aperture macros list*
%AMRoundRect*
0 Rectangle with rounded corners*
0 $1 Rounding radius*
0 $2 $3 $4 $5 $6 $7 $8 $9 X,Y pos of 4 corners*
0 Add a 4 corners polygon primitive as box body*
4,1,4,$2,$3,$4,$5,$6,$7,$8,$9,$2,$3,0*
0 Add four circle primitives for the rounded corners*
1,1,$1+$1,$2,$3*
1,1,$1+$1,$4,$5*
1,1,$1+$1,$6,$7*
1,1,$1+$1,$8,$9*
0 Add four rect primitives between the rounded corners*
20,1,$1+$1,$2,$3,$4,$5,0*
20,1,$1+$1,$4,$5,$6,$7,0*
20,1,$1+$1,$6,$7,$8,$9,0*
20,1,$1+$1,$8,$9,$2,$3,0*%
G04 Aperture macros list end*
%ADD10R,1.300000X1.550000*%
%ADD11R,1.500000X0.900000*%
%ADD12R,1.500000X1.900000*%
%ADD13R,0.400000X1.350000*%
%ADD14RoundRect,0.250000X0.650000X-0.325000X0.650000X0.325000X-0.650000X0.325000X-0.650000X-0.325000X0*%
%ADD15RoundRect,0.250000X0.625000X-0.375000X0.625000X0.375000X-0.625000X0.375000X-0.625000X-0.375000X0*%
%ADD16RoundRect,0.250000X-0.625000X0.312500X-0.625000X-0.312500X0.625000X-0.312500X0.625000X0.312500X0*%
G04 APERTURE END LIST*
D10*
%TO.C,BUTTON3*%
X114265000Y-118355000D03*
X114265000Y-110405000D03*
X109765000Y-110405000D03*
X109765000Y-118355000D03*
%TD*%
%TO.C,BUTTON2*%
X105880000Y-118355000D03*
X105880000Y-110405000D03*
X101380000Y-110405000D03*
X101380000Y-118355000D03*
%TD*%
%TO.C,BUTTON1*%
X97495000Y-118355000D03*
X97495000Y-110405000D03*
X92995000Y-110405000D03*
X92995000Y-118355000D03*
%TD*%
D11*
%TO.C,RGB1*%
X135140000Y-117440000D03*
X135140000Y-114140000D03*
X130240000Y-117440000D03*
X130240000Y-114140000D03*
%TD*%
%TO.C,RGB2*%
X125410000Y-117440000D03*
X125410000Y-114140000D03*
X120510000Y-117440000D03*
X120510000Y-114140000D03*
%TD*%
D12*
%TO.C,J10*%
X119430000Y-127487500D03*
X117430000Y-127487500D03*
D13*
X119730000Y-124787500D03*
X119080000Y-124787500D03*
X118430000Y-124787500D03*
X117780000Y-124787500D03*
X117130000Y-124787500D03*
%TD*%
D14*
%TO.C,C2*%
X101257000Y-106695000D03*
X101257000Y-103745000D03*
%TD*%
D15*
%TO.C,LED2*%
X105320000Y-92402500D03*
X105320000Y-89602500D03*
%TD*%
D16*
%TO.C,R1*%
X97909000Y-103757500D03*
X97909000Y-106682500D03*
%TD*%
%TO.C,R2*%
X104605000Y-103757500D03*
X104605000Y-106682500D03*
%TD*%
%TO.C,R3*%
X111301000Y-103757500D03*
X111301000Y-106682500D03*
%TD*%
%TO.C,R5*%
X105350000Y-95280000D03*
X105350000Y-98205000D03*
%TD*%
D14*
%TO.C,C3*%
X107953000Y-106695000D03*
X107953000Y-103745000D03*
%TD*%
%TO.C,C1*%
X94561000Y-106695000D03*
X94561000Y-103745000D03*
%TD*%
D15*
%TO.C,LED1*%
X99820000Y-92342500D03*
X99820000Y-89542500D03*
%TD*%
D16*
%TO.C,R4*%
X99840000Y-95250000D03*
X99840000Y-98175000D03*
%TD*%
M02*
